<svg width="168" height="198" viewBox="0 0 168 198" fill="none" xmlns="http://www.w3.org/2000/svg">
<path d="M79.9827 0.0242083C82.3348 -0.273457 83.5214 2.25083 85.5537 3.3727C89.7236 5.67462 93.7642 7.24829 97.6217 10.1033C97.4646 9.23414 97.2165 8.20466 97.4736 7.36071C98.2919 4.78469 101.039 6.16224 102.578 7.07802C107.047 9.73818 109.583 13.2222 111.783 17.8436C113.02 17.0284 114.363 15.9408 115.631 15.0722C118.007 13.4576 120.477 11.9855 123.028 10.6636C126.745 8.73106 134.926 4.89965 139.283 6.11699C140.837 6.5511 142.486 8.2854 143.117 9.7296C147.928 20.7458 143.443 40.5692 139.961 51.4316C140.744 53.0099 141.578 54.4757 142.442 56.0082C146.021 57.806 148.678 60.0248 150.61 63.6138C153.105 68.2504 153.736 74.3043 152.207 79.3379C150.712 84.2584 148.065 87.3106 143.634 89.698C143.795 90.4417 143.931 91.1907 144.041 91.9436C149.688 92.1753 152.724 96.4357 153.535 101.694C154.34 106.758 152.658 111.717 149.6 115.762C145.483 121.208 139.99 126.405 133.585 129.016C131.838 129.728 129.859 130.074 128.011 130.357C129.213 132.528 131.053 135.173 132.422 137.284C132.713 137.735 134.181 138.767 134.763 139.428C142.022 135.644 147.253 129.688 149.531 121.787C150.304 120.104 150.147 117.977 150.705 116.325C151.628 113.599 153.97 115.874 154.855 116.766C157.53 119.463 159.148 122.527 160.501 125.972C161.48 124.3 162.871 123.28 164.019 125.711C164.473 126.676 164.741 128.294 164.957 129.363C166.091 135.019 165.609 140.945 163.506 146.325C168.049 145.342 165.693 150.14 164.701 152.15C162.386 156.844 159.525 159.905 155.261 162.846C157.445 163.865 157.071 165.268 155.31 166.529C150.642 169.876 144.168 171.603 138.47 170.703C134.391 174.201 125.337 176.45 120.081 177.265C119.783 178.913 119.502 180.406 119.113 182.034C119.572 182.369 120.018 182.72 120.451 183.087C122.528 184.853 123.839 186.939 124.082 189.686C124.594 195.491 119.018 197.42 114.188 197.581C109.144 197.75 102.075 197.472 98.128 193.932C95.7125 191.537 95.5927 187.598 94.9021 184.348C94.044 180.445 93.1193 176.556 92.1286 172.686C89.9989 172.752 88.5481 172.692 86.4166 172.536C85.7678 175.885 84.9391 179.19 84.3219 182.606C83.8242 185.362 83.3137 188.58 82.5492 191.246C82.2328 192.349 81.2715 193.633 80.3358 194.373C75.8425 197.759 68.9046 197.867 63.5584 197.48C58.7617 197.132 54.1195 194.615 54.8834 189.215C55.3793 185.71 57.4996 183.671 60.1389 181.581C59.368 176.416 58.1751 171.373 57.426 165.997C56.3771 158.551 56.2879 151.001 57.1604 143.533C57.3987 141.36 57.7796 139.08 58.0854 136.906C57.691 137.071 57.2935 137.23 56.8931 137.381C50.3787 139.786 44.9054 137.207 39.5261 133.672C34.0597 130.112 28.2067 125.131 27.3108 118.255C26.6332 113.056 27.8233 108.753 33.0313 106.857C34.3664 101.521 38.2034 103.56 41.0509 106.18C46.1287 104.725 49.5496 109.164 48.6779 113.972C50.5703 115.763 50.9421 115.968 53.2988 114.738C56.5132 113.059 58.6077 110.692 61.1082 108.17C49.4755 103.815 38.5063 98.5877 30.5717 88.64C25.9186 82.8065 26.6629 83.4056 32.2131 79.1196C29.3957 78.0509 20.9211 73.9318 23.1003 69.5223C23.5301 68.6525 27.0968 65.1827 27.9661 64.1948C31.2252 60.4932 34.0332 56.4177 36.3309 52.0538C32.9585 40.9172 27.2839 19.3416 33.5741 8.46214C38.424 0.0738923 58.8276 13.7337 64.2481 17.6683C64.9329 14.5294 65.7701 11.4591 67.1702 8.68073C69.1407 4.77006 71.3518 7.29046 73.2748 9.33544C73.7977 9.8915 75.0841 10.5792 75.7653 10.9232C75.9371 7.62169 76.5903 1.62314 79.9827 0.0242083Z" fill="#44271B"/>
<path d="M39.957 52.226C39.8358 51.6443 39.6538 51.1072 39.4812 50.5382C35.9365 38.847 32.5595 25.8415 35.0316 13.6338C35.9071 9.31066 37.8491 8.27757 41.9196 9.56612C49.0969 11.8382 55.8883 15.5916 61.8535 20.1769C62.4271 20.6178 63.7154 21.5491 64.151 22.2032C65.8608 28.0276 66.7953 31.2216 72.5835 34.5461C73.7349 35.2132 74.9429 35.7772 76.1936 36.2317C79.0768 37.2731 87.9796 39.519 90.8254 38.7469C92.4321 39.5313 94.3482 40.6227 95.9945 41.2163C99.1737 42.3626 101.568 37.6932 102.311 35.3428C102.705 36.5079 102.925 37.7976 103.149 39.0081C104.839 38.2432 105.496 37.706 106.88 36.4242C108.033 35.3557 110.716 31.5045 110.716 29.978C113.369 27.9538 113.303 24.2507 113.235 21.1995C115.494 19.346 117.87 17.6399 120.348 16.0918C124.122 13.7495 133.269 9.05445 137.625 9.21455C142.966 9.41079 141.805 25.8644 141.444 28.9024C140.861 33.8146 139.935 38.6799 138.671 43.4624C137.992 46.0677 136.9 49.4375 136.414 51.9562C136.769 53.0829 137.252 53.8912 137.838 54.9149C134.43 54.7479 132.394 55.0587 129.248 56.5266C116.129 64.51 117.977 84.8504 132.333 90.1982C133.26 90.5922 134.791 90.8355 135.814 91.0174L136.073 93.7754C135.157 94.4607 134.297 95.1826 133.401 95.8932C129.34 99.1153 124.807 101.673 120.112 103.848C119.219 104.263 117.273 105.214 116.35 105.379C111.195 107.594 105.707 109.014 100.455 110.946C99.0537 111.462 99.373 112.801 101.363 112.601C101.767 113.414 102.209 114.265 102.568 115.095C98.5956 117.84 89.6043 122.707 84.9096 123.934C84.874 123.863 84.8374 123.792 84.7999 123.722C83.6712 121.615 81.6948 121.649 79.8477 122.761C78.8832 121.61 77.6151 120.361 76.58 119.173C74.9344 117.287 73.9076 115.766 72.5027 113.715L70.6766 110.918C71.5707 111.114 72.6845 111.284 73.6007 111.447C74.994 111.638 78.3002 112.297 79.2805 111.308C79.8589 109.376 70.8323 107.623 69.1961 107.025L69.0541 106.972C68.4308 106.904 67.3197 106.525 66.6857 106.338C64.5411 105.723 62.4253 105.011 60.3445 104.205C48.4711 99.7129 39.053 94.4484 31.4672 84.1049C32.792 83.0339 37.1762 79.83 37.3612 78.4143C37.4461 77.8081 37.1786 77.2062 36.6717 76.8629C36.0477 76.4339 34.8895 76.2858 34.1043 76.0653C31.1817 75.2446 28.0818 73.5449 26.2239 71.0961C27.3463 69.805 28.8889 68.3859 30.127 67.0004C33.0707 63.6933 35.6729 60.0975 37.8939 56.2676C38.5079 55.2182 39.6273 53.3632 39.957 52.226Z" fill="#EA8F49"/>
<path d="M116.042 47.7652C119.503 47.4334 122.398 47.9519 125.184 50.2072C127.011 51.6857 128.715 54.2164 129.248 56.5272C116.129 64.5107 117.977 84.851 132.333 90.1989C133.26 90.5928 134.791 90.8361 135.814 91.018L136.073 93.776C135.157 94.4613 134.296 95.1832 133.401 95.8939C129.34 99.1159 124.807 101.674 120.112 103.849C119.219 104.263 117.273 105.215 116.35 105.38C111.195 107.595 105.707 109.014 100.455 110.947C99.0537 111.463 99.3729 112.801 101.362 112.602C101.767 113.415 102.209 114.266 102.568 115.095C98.5955 117.841 89.6042 122.707 84.9096 123.934C84.874 123.863 84.8374 123.792 84.7999 123.722C83.6712 121.616 81.6948 121.65 79.8477 122.761C78.8831 121.611 77.6151 120.361 76.5799 119.174C74.9343 117.288 73.9075 115.767 72.5027 113.716L70.6766 110.918C71.5706 111.114 72.6844 111.285 73.6006 111.447C74.994 111.639 78.3002 112.298 79.2804 111.308C79.8588 109.377 70.8322 107.623 69.196 107.026L69.054 106.973C68.2446 106.323 65.7833 104.984 64.6941 104.225C59.5053 100.526 53.2427 96.2433 49.9224 90.6898C46.2359 84.5239 51.2942 79.7698 56.2917 76.9877C55.5783 76.3639 50.2868 72.2171 52.7843 71.2417C55.2564 70.2762 59.2556 71.3015 61.7763 72.1239C59.9177 66.5868 59.9216 61.2952 64.0173 56.7543C67.7104 52.6597 72.1199 51.0007 77.4794 50.6707C78.4054 50.7574 81.3952 51.8638 82.5372 52.2187C83.9026 52.643 84.5632 52.7689 85.9598 53.0773C87.0505 53.7596 88.1942 54.5043 89.0769 55.4478C93.126 59.7762 94.5455 66.1325 95.0913 71.8534C98.3697 70.0343 102.181 69.4185 105.865 70.1121C103.207 64.6153 104.553 56.6337 108.154 51.8751C109.872 50.8432 111.846 50.0292 113.597 49.0299C114.372 48.5881 115.231 48.1347 116.042 47.7652Z" fill="white"/>
<path d="M98.2908 75.6889C101.43 74.0356 105.401 73.8695 108.87 74.2726C109.864 74.4944 111.327 74.9945 111.801 75.8863C113.282 78.6765 109.743 81.949 107.681 83.2208C106.183 84.1438 104.784 84.2623 103.163 83.8427C100.937 83.2216 98.379 81.6629 97.1591 79.6442C96.0729 77.8467 96.7582 76.7059 98.2908 75.6889Z" fill="#B55943"/>
<path d="M132.333 90.1992C133.26 90.5932 134.791 90.8364 135.814 91.0184L136.073 93.7763C135.157 94.4617 134.296 95.1835 133.401 95.8942C129.34 99.1162 124.807 101.674 120.112 103.849C119.219 104.264 117.273 105.215 116.35 105.38C117.136 104.671 119.474 103.242 120.513 102.426C125.17 98.7623 129.148 95.2141 132.333 90.1992Z" fill="#EA8F49"/>
<path d="M95.0914 71.8528C98.3699 70.0338 102.181 69.4179 105.865 70.1115C106.77 70.4786 108.127 70.9502 108.589 71.8466C108.587 72.5319 108.141 72.6177 107.551 72.764C107.995 73.3509 108.361 73.7356 108.87 74.2727C105.401 73.8696 101.43 74.0357 98.2908 75.689C97.5888 74.8933 96.8331 74.1039 96.0243 73.418C95.3227 73.4562 94.8977 73.3961 94.7041 72.659C94.7905 72.231 94.8221 72.2125 95.0914 71.8528Z" fill="#B55943"/>
<path d="M96.0242 73.4179C97.7286 72.9099 99.7252 72.3219 101.497 72.1974C102.967 72.0941 106.259 72.1005 107.551 72.7638C107.995 73.3507 108.361 73.7355 108.87 74.2726C105.401 73.8695 101.43 74.0355 98.2907 75.6889C97.5886 74.8932 96.8329 74.1038 96.0242 73.4179Z" fill="#EA8F49"/>
<path d="M70.6768 110.918C71.5708 111.114 72.6846 111.285 73.6008 111.447L72.5029 113.715L70.6768 110.918Z" fill="#EA8F49"/>
<path d="M103.91 87.3567C107.023 87.2406 108.777 89.0941 109.022 92.1181C109.428 97.1405 106.381 100.122 101.523 100.41C91.702 100.103 97.7291 88.2296 103.91 87.3567Z" fill="#44271B"/>
<path d="M99.8865 93.0103C100.789 91.5174 103.742 88.6015 105.635 90.0664C107.618 91.6003 106.897 94.9735 105.319 96.6004C104.046 97.887 101.284 98.5789 99.6163 97.7577C97.7697 96.8476 99.1388 94.2566 99.8865 93.0103Z" fill="#986249"/>
<path d="M99.8865 93.0098C102.364 93.2844 104.105 94.3794 105.319 96.5999C104.046 97.8864 101.284 98.5783 99.6163 97.7572C97.7697 96.8471 99.1388 94.256 99.8865 93.0098Z" fill="#D38571"/>
<path d="M82.4846 62.3352C88.4926 61.9319 89.6099 71.1025 86.4319 74.6779C85.6889 75.5138 85.0742 75.7814 84.0292 76.0982C77.3479 76.7751 76.0421 64.1185 82.4846 62.3352Z" fill="#44271B"/>
<path d="M84.5427 64.7578C86.6831 65.1117 86.8857 67.9357 84.8316 68.7564C84.0219 68.615 83.506 68.2805 83.2021 67.476C82.9982 66.9344 83.0242 66.333 83.2739 65.8109C83.5652 65.2071 83.9446 64.9751 84.5427 64.7578Z" fill="white"/>
<path d="M113.108 59.7866C119.108 59.2309 120.774 71.0355 114.631 73.1501C108.593 73.9809 106.964 61.7225 113.108 59.7866Z" fill="#44271B"/>
<path d="M114.436 62.212C116.794 61.9842 117.177 64.8711 115.365 66.0136C113.153 66.167 112.571 63.5597 114.436 62.212Z" fill="white"/>
<path d="M77.4797 50.67C75.7483 49.4573 71.9581 48.6651 71.4128 46.0789C71.1295 43.6453 74.4532 42.2606 76.3154 42.0595C80.0734 41.6536 83.4806 42.8023 86.529 44.851C90.1169 47.2622 92.5391 52.4498 86.1774 53.0567L85.9601 53.0766C84.5635 52.7683 83.9028 52.6424 82.5374 52.2181C81.3954 51.8632 78.4056 50.7568 77.4797 50.67Z" fill="#B55943"/>
<path d="M108.154 51.8745C106.014 52.1744 103.505 51.4408 103.664 48.8939C103.984 43.7336 110.059 39.7468 114.9 39.8415C117.059 39.8838 119.302 40.933 119.122 43.3777C118.98 45.307 117.418 46.6199 116.042 47.7646C115.231 48.1341 114.372 48.5875 113.597 49.0293C111.846 50.0286 109.872 50.8426 108.154 51.8745Z" fill="#B55943"/>
<path d="M39.5467 14.4745C39.6406 14.0096 39.5509 14.1456 39.8433 13.8197C40.4192 13.5885 41.55 13.9847 42.0911 14.2509C48.6251 17.4646 53.4134 23.289 57.4458 29.1912C57.9109 29.8717 58.5177 30.7599 58.4411 31.6119C58.3062 31.8288 58.2277 31.989 57.8889 32.0159C55.8044 32.1819 53.3687 31.6272 51.2721 31.7115C51.8535 32.7921 53.3794 34.4977 53.5109 35.2604C53.3133 35.7296 53.0086 36.136 52.6937 36.5324C51.8301 37.6194 44.1406 46.5129 43.7048 46.6569C43.4771 46.7321 43.3108 46.6824 43.1187 46.555C42.983 46.4649 42.8998 46.3476 42.8014 46.2203C42.788 45.7774 41.7523 42.8227 41.5391 42.0356C41.0776 40.2786 40.6727 38.5072 40.3249 36.7243C39.2339 31.1606 38.8092 25.4869 39.0598 19.8228C39.1507 17.999 39.4505 16.2398 39.5467 14.4745Z" fill="#B55943"/>
<path d="M39.5466 14.4745C39.6405 14.0096 39.5508 14.1456 39.8431 13.8197C40.4191 13.5885 41.5499 13.9847 42.091 14.2509C48.6249 17.4646 53.4133 23.289 57.4457 29.1912C57.9107 29.8717 58.5175 30.7599 58.441 31.6119C58.3061 31.8288 58.2276 31.989 57.8888 32.0159C55.8043 32.1819 53.3686 31.6272 51.272 31.7115C51.8534 32.7921 53.3793 34.4977 53.5108 35.2604C53.3131 35.7296 53.0085 36.136 52.6936 36.5324C51.83 37.6194 44.1405 46.5129 43.7047 46.6569C43.477 46.7321 43.3107 46.6824 43.1186 46.555C42.9829 46.4649 42.8997 46.3476 42.8012 46.2203C43.1786 42.3417 47.8601 37.9943 50.3302 35.0904C46.3559 30.0061 49.169 28.5091 54.4283 29.1579C50.8283 23.9951 46.7758 19.1498 41.4262 15.7218C40.7781 15.3066 40.1493 14.9596 39.5466 14.4745Z" fill="#44271B"/>
<path d="M125.065 31.7932C122.996 31.7698 120.643 32.131 118.564 31.9909C118.159 31.9636 118.008 31.8576 117.805 31.5763C117.738 30.9523 117.998 30.4691 118.337 29.9475C122.001 24.3248 126.367 18.8326 132.155 15.2771C133.101 14.696 135.503 13.2773 136.562 13.9511C136.721 14.2957 136.706 14.12 136.585 14.4973C136.563 15.4925 136.819 16.7977 136.916 17.8177C137.085 19.6876 137.146 21.5656 137.103 23.4425C136.923 30.6762 135.346 37.8304 133.372 44.7422C133.176 45.4268 133.382 46.0854 133.228 46.7802C133.072 46.7834 132.914 46.7821 132.765 46.7248C131.937 46.4053 124.365 37.5669 123.409 36.3446C123.122 35.9777 122.877 35.611 122.707 35.175C122.738 34.6333 124.464 32.7675 124.975 31.9413L125.065 31.7932Z" fill="#B55943"/>
<path d="M125.065 31.7932C122.996 31.7698 120.643 32.131 118.564 31.9909C118.159 31.9636 118.008 31.8576 117.805 31.5763C117.738 30.9523 117.998 30.4691 118.337 29.9475C122.001 24.3248 126.367 18.8326 132.155 15.2771C133.101 14.696 135.503 13.2773 136.562 13.9511C136.721 14.2957 136.706 14.12 136.585 14.4973C130.215 18.8441 126.173 22.546 121.882 29.0834C127.351 28.6945 129.952 29.6498 125.9 35.035C128.367 37.7522 132.111 41.3094 133.081 44.8548C133.223 45.3733 133.225 46.2266 133.228 46.7802C133.072 46.7834 132.914 46.7821 132.765 46.7248C131.937 46.4053 124.365 37.5669 123.409 36.3446C123.122 35.9777 122.877 35.611 122.707 35.175C122.738 34.6333 124.464 32.7675 124.975 31.9413L125.065 31.7932Z" fill="#44271B"/>
<path d="M41.6189 118.11C41.6061 121.544 41.0078 120.827 39.2638 123.438C39.1039 123.677 39.1519 123.821 39.2151 124.045C40.0965 124.98 41.9895 124.269 42.7557 123.469C45.8772 120.278 44.6674 114.547 42.0763 111.41C39.825 108.985 43.8395 108.133 45.1114 110.284C46.0974 111.951 45.7561 112.903 45.4894 114.726C46.2537 116.873 49.1659 119.015 51.4481 118.768C55.4828 118.332 59.7576 114.347 62.3807 111.492C64.4353 115.42 66.3849 118.644 68.7909 122.377C70.0463 124.084 71.1785 125.861 72.5161 127.504C72.7794 127.827 73.0978 128.201 73.331 128.542C72.8311 128.872 72.3057 129.212 71.8363 129.583C66.6775 133.662 65.6294 141.492 69.2637 146.916C71.1443 149.745 74.0984 151.684 77.4423 152.283C80.6759 152.887 84.2078 152.207 86.9284 150.341C88.4244 149.33 89.6876 148.012 90.6337 146.475C91.6192 147.436 92.624 148.377 93.6475 149.296C94.3221 149.897 95.3049 150.692 95.916 151.308C96.0323 154.693 96.3587 158.068 96.8932 161.413C97.2988 164.567 97.8857 167.627 98.5074 170.743C100.13 178.881 110.118 178.252 116.561 177.768C116.344 178.768 115.256 182.708 115.809 183.457C116.74 184.718 118.662 185.65 119.651 187.068C121.197 189.283 121.576 191.392 119.092 193.137C119.092 191.768 119.045 190.519 118.248 189.346C117.767 188.639 116.703 187.507 115.816 188.187C115.557 188.796 115.898 189.499 116.118 190.099C116.633 191.504 116.677 192.474 116.498 193.953C115.258 194.18 113.826 194.215 112.567 194.232C112.571 192.577 112.266 189.113 110.153 188.441C109.905 188.362 109.606 188.399 109.381 188.541C109.328 188.629 109.273 188.718 109.22 188.806C109.344 189.533 109.693 190.6 109.855 191.284C110.124 192.42 110.12 193.08 110.074 194.205C107.053 193.981 102.747 193.557 100.424 191.495C99.4061 190.591 98.8666 186.804 98.5591 185.383C97.7786 181.755 96.9418 178.139 96.049 174.538C95.8596 173.75 95.1903 169.917 94.5388 169.55C93.6842 169.069 91.548 169.258 90.5162 169.262C87.3635 169.271 84.2695 168.991 81.1942 168.261C80.4617 168.088 76.4264 166.974 77.8386 169.402C78.5531 170.63 81.6766 171.589 83.1205 171.951C82.26 175.63 81.4751 179.325 80.7663 183.035C80.3532 185.18 79.9139 187.371 79.4808 189.508C78.6592 193.56 72.2158 194.079 68.7678 194.149C68.6692 192.114 69.0579 190.809 69.6655 188.876C69.726 188.683 69.5297 188.487 69.4255 188.348C68.7634 188.024 68.1919 188.351 67.7339 188.886C66.423 190.418 66.2593 192.331 66.3321 194.265C64.908 194.24 63.806 194.132 62.4099 193.936C62.2649 192.876 62.2726 192.45 62.4104 191.424C62.5651 190.272 63.5464 188.896 63.1695 187.931C62.5818 187.417 61.666 188.077 61.2002 188.526C59.9441 189.738 59.8631 191.475 59.7879 193.111C55.8333 190.216 59.8521 186.047 62.4277 184.097C64.2719 182.7 63.5068 181.059 63.1915 179.205C62.5523 175.443 61.7346 171.641 61.1499 167.853C59.9112 160.323 59.6591 152.665 60.3999 145.071C60.6515 142.636 60.9848 140.211 61.3992 137.798C61.8807 135.093 64.4671 123.392 64.0536 121.605C63.7938 121.267 63.9545 121.385 63.5526 121.237C61.4161 121.508 59.4284 130.553 58.9688 132.494C58.1508 133.016 57.2991 133.486 56.4192 133.896C53.6111 135.178 50.1943 135.333 47.333 134.08C41.7564 131.636 33.8745 126.559 31.2886 120.828C30.297 118.472 29.7731 115.169 30.8421 112.75C32.2284 109.611 33.8678 109.252 36.8483 110.494C35.5736 110.773 34.3896 111.359 33.5083 112.335C33.1437 112.74 32.7781 113.462 33.3122 113.863C34.2158 113.912 34.883 113.329 35.6847 112.961C38.9381 111.463 39.8853 112.79 41.1116 115.608C40.5483 115.496 39.7801 115.388 39.213 115.451C37.9711 115.587 35.5589 116.307 35.8088 117.92C35.9614 118.127 36.1609 118.357 36.4313 118.307C38.513 117.925 39.4713 117.454 41.6189 118.11Z" fill="#EA8F49"/>
<path d="M68.7907 122.377C70.0462 124.084 71.1784 125.861 72.516 127.504C72.7792 127.827 73.0976 128.201 73.3309 128.542C72.8309 128.872 72.3055 129.212 71.8361 129.583C66.6773 133.662 65.6293 141.492 69.2636 146.916C71.1441 149.745 74.0982 151.684 77.4422 152.283C80.6757 152.887 84.2076 152.207 86.9283 150.341C88.4243 149.33 89.6875 148.012 90.6336 146.475C91.619 147.436 92.6238 148.377 93.6473 149.296C94.3219 149.897 95.3047 150.692 95.9159 151.307C96.0321 154.693 96.3585 158.068 96.893 161.413C96.6953 161.575 96.2754 161.791 96.0408 161.903C86.0337 166.664 73.0653 162.912 68.1886 152.655C63.4134 142.613 65.4924 132.442 68.7907 122.377Z" fill="white"/>
<path d="M135.357 104.686C134.636 102.074 133.992 99.3353 136.605 97.5234C136.396 98.4506 136.123 99.3554 135.97 100.3C135.597 102.617 136.148 105.134 137.044 107.269C137.467 108.279 138.173 108.935 138.388 110.06C139.125 113.902 138.47 117.479 143.41 118.028C137.578 123.641 132.631 127.35 124.049 127.069C122.79 127.063 121.488 126.964 120.241 126.85C119.021 126.739 117.509 126.185 116.319 126.284C114.593 126.427 113.917 127.805 115.33 128.991C116.034 129.582 116.491 129.607 117.328 129.774C117.755 132.197 118.248 135.8 118.751 138.073C116.258 138.478 113.77 138.919 111.289 139.396C110.459 139.556 109.044 139.785 108.257 140.004C105.134 140.61 101.304 141.285 99.1594 143.743C97.1175 141.995 94.5589 139.669 92.6407 137.808C91.9276 134.126 90.7902 131.534 87.7713 129.149C86.947 128.499 84.8709 127.87 85.0737 126.709C85.5405 126.453 87.3142 125.917 87.953 125.682C89.3403 125.172 90.5649 124.628 91.9155 124.046C96.1289 122.23 99.7751 119.924 103.695 117.632C105.605 116.364 107.475 115.035 109.301 113.648C110.435 112.783 111.612 111.815 112.696 110.886C113.923 109.834 114.64 109.622 116.139 109.166C119.919 110.836 125.773 111.56 129.778 110.148C131.982 109.372 134.691 107.014 135.357 104.686Z" fill="#EA8F49"/>
<path d="M103.695 117.631C106.413 123.975 108.573 133.141 108.257 140.003C105.134 140.609 101.304 141.284 99.1594 143.742C97.1175 141.994 94.5589 139.668 92.6407 137.807C91.9276 134.125 90.7902 131.532 87.7713 129.148C86.947 128.498 84.8709 127.868 85.0737 126.708C85.5405 126.452 87.3142 125.916 87.953 125.68C89.3403 125.171 90.5649 124.627 91.9155 124.044C96.1289 122.229 99.7751 119.923 103.695 117.631Z" fill="white"/>
<path d="M80.7733 3.80469C82.3917 5.23203 84.2299 6.60481 86.1559 7.57867C90.6893 9.87073 95.9073 11.7745 98.9127 16.1258C99.3742 16.7942 99.9151 18.2973 100.45 18.7001C101.959 18.3158 101.049 11.2251 100.891 9.9396C106.877 13.3704 109.714 19.9772 110.334 26.5767C110.424 27.5244 110.179 29.227 110.716 29.9785C110.716 31.505 108.034 35.3563 106.881 36.4247C105.497 37.7065 104.84 38.2437 103.149 39.0086C102.925 37.7981 102.705 36.5084 102.311 35.3433C101.568 37.6937 99.1738 42.3631 95.9947 41.2168C94.3484 40.6232 92.4323 39.5318 90.8256 38.7474C91.2037 38.5463 91.4719 38.3821 91.6092 37.9774C91.4699 37.1133 88.6942 35.446 87.8458 34.9014C86.7235 34.1809 83.3287 30.169 82.358 30.1722L82.275 30.4014C82.6224 32.6138 85.0259 34.9446 86.5329 36.4658C83.8715 36.0243 81.4263 35.2371 78.9217 34.2589C66.9991 29.6023 65.2292 21.9361 69.9293 10.6677C71.1172 11.8765 72.4741 12.9708 73.9744 13.7684C74.9966 14.3117 77.5331 15.673 78.5853 15.3182C78.81 15.2401 78.9953 15.0769 79.1012 14.8638C79.2021 14.6616 79.1325 13.2184 79.1188 12.8826C79.0025 10.0153 79.2916 6.48837 80.6937 3.94752L80.7733 3.80469Z" fill="#B55943"/>
<path d="M153.413 120.137C153.668 120.405 153.756 120.529 153.97 120.835C155.607 123.165 156.928 125.538 157.676 128.307C158.375 130.899 159.476 132.186 161.474 129.486C162.873 134.793 162.096 140.947 159.931 145.933C159.528 146.86 158.926 148.459 159.874 149.227C159.939 149.279 160.006 149.326 160.078 149.366C160.692 149.706 161.452 149.634 162.127 149.596C160.158 154.903 155.154 159.232 150.349 161.92C150.192 162.008 149.497 162.635 149.439 162.765C148.809 164.188 150.789 164.643 151.713 164.869C148.103 166.796 144.856 167.421 140.802 167.483C141.257 165.742 141.287 164.994 141.099 163.21C140.658 160.29 139.785 157.55 138.857 154.762C140.257 152.723 140.095 151.5 139.411 149.172C138.707 146.779 137.671 144.559 136.632 142.3C137.844 141.758 139.122 140.888 140.227 140.141C146.988 135.561 151.984 128.249 153.413 120.137Z" fill="#EA8F49"/>
<path d="M151.15 153.566C151.546 152.877 152.33 151.864 152.805 151.16C153.927 149.515 154.831 147.732 155.493 145.855C156.344 143.332 156.753 140.681 156.704 138.018C156.648 133.716 155.77 128.969 154.882 124.764C154.723 124.009 153.819 121.283 153.97 120.836C155.608 123.166 156.928 125.539 157.676 128.308C158.376 130.9 159.477 132.187 161.474 129.487C162.873 134.794 162.096 140.948 159.931 145.934C159.529 146.861 158.927 148.46 159.874 149.228C159.939 149.28 160.006 149.327 160.079 149.367C160.692 149.707 161.452 149.635 162.127 149.597C160.158 154.904 155.154 159.233 150.349 161.921C150.192 162.009 149.497 162.636 149.439 162.766C148.809 164.189 150.789 164.644 151.713 164.87C148.103 166.797 144.856 167.422 140.802 167.484C141.257 165.743 141.288 164.995 141.099 163.211C145.494 161.884 151.216 158.909 153.8 154.86C153.926 154.663 153.833 154.358 153.741 154.163C153.218 153.654 152.018 153.712 151.15 153.566Z" fill="white"/>
<path d="M135.145 57.7977C135.337 57.7803 135.529 57.7659 135.721 57.7549C144.284 57.2692 149.709 64.7226 150.151 72.6166C150.546 79.6958 146.097 87.8399 138.392 88.099C124.553 88.1376 119.238 72.592 126.712 62.219C128.702 59.4573 131.832 58.1825 135.145 57.7977Z" fill="#B3B2B2"/>
<path d="M136.023 59.3845C142.375 58.8965 147.137 64.636 148.067 70.4765C149.152 77.3027 146.27 84.9811 138.718 86.1435C131.019 86.7626 126.323 79.2963 126.323 72.3914C126.324 66.3576 129.621 60.1759 136.023 59.3845Z" fill="#44271B"/>
<path d="M136.102 61.293C137.763 61.256 139.392 61.7486 140.753 62.6995C147.782 67.522 147.697 82.6227 137.984 84.2365C126.228 84.5749 124.611 62.5545 136.102 61.293Z" fill="#BDD8DB"/>
<path d="M137.388 64.0086C137.767 63.9991 138.215 64.0724 138.582 64.1785C140.186 64.6506 141.535 65.7441 142.329 67.2159C143.267 68.9361 143.976 72.4928 141.874 73.6342C140.552 73.4928 140.431 72.1999 140.104 71.0453C139.651 69.4485 139.033 68.6629 137.826 67.528C136.602 66.3764 134.819 64.8308 137.388 64.0086Z" fill="white"/>
<path d="M141.423 75.4452C143.152 75.3802 143.437 77.0601 142.115 77.9757C140.357 78.1419 140.295 76.4579 141.423 75.4452Z" fill="white"/>
<path d="M104.411 149.469C105.832 150.444 107.222 158.442 110.729 160.27C114.579 162.276 119.471 161.491 123.441 160.486C123.62 161.519 123.777 162.552 124.613 163.272C126.111 164.561 128.914 164.075 130.143 162.638C131.078 161.545 130.808 159.92 130.704 158.616C132.371 158.226 135.007 157.297 136.485 156.463C137.24 158.887 138.559 162.932 138.277 165.388C138.07 167.186 136.892 168.228 135.524 169.242C130.905 172.262 120.675 174.279 115.177 174.85C111.408 175.241 103.013 175.468 101.62 171.115C101.208 169.825 100.836 168.209 100.598 166.838C99.8005 162.225 99.0516 157.474 98.7041 152.804C100.332 152.787 102.454 152.497 103.721 151.347C104.368 150.761 104.406 150.258 104.411 149.469Z" fill="#986249"/>
<path d="M117.813 163.021C118.367 163.051 118.579 163.438 118.721 163.426C120.9 163.24 121.006 163.416 121.906 165.366C122.039 165.653 122.343 165.39 122.672 165.829C122.692 166.492 122.18 166.264 122.315 167.011C122.624 167.361 122.527 167.251 123.087 167.37C123.287 167.546 123.361 167.563 123.378 167.922C123.399 168.356 122.964 168.238 122.881 168.752C122.796 169.287 122.965 169.833 122.812 170.341C122.472 171.468 120.946 171.308 120.481 171.823C120.442 172.141 120.456 172.224 120.261 172.482C119.414 172.739 118.949 171.46 118.061 172.39C117.824 172.672 117.79 172.755 117.464 172.888C115.483 171.958 114.651 172.671 114.168 170.391C114.089 170.018 113.74 169.961 113.402 169.827C113.2 169.491 113.248 169.675 113.305 169.243C113.525 169.033 113.625 168.974 113.718 168.683C113.538 167.839 113.333 168.087 112.651 167.601C112.548 167.228 112.543 167.407 112.656 167.046C113.36 166.58 113.057 166.655 113.149 165.945C113.276 164.966 114.57 165.01 115.268 164.46C115.303 164.238 115.334 164.08 115.385 163.861C116.318 163.163 116.671 165.034 117.741 163.151L117.813 163.021Z" fill="#44271B"/>
<path d="M119.068 164.791L120.137 164.864C120.591 166.055 120.156 165.949 120.35 166.762C120.656 167.04 121.158 167.575 121.012 167.731C120.225 168.575 121.469 168.662 121.596 169.658C121.509 169.829 121.511 169.897 121.367 169.946C119.741 170.496 120.464 169.739 119.674 169.543C119.258 169.737 119.343 169.838 119.071 170.34C118.723 170.637 118.344 170.628 117.873 170.691C117.53 170.023 117.545 170.032 116.835 169.919C116.721 170.124 116.61 170.647 116.539 170.906C116.338 171.002 116.143 171.033 115.917 170.913C114.985 170.418 116.01 169.405 115.809 168.788C114.985 168.452 115.055 168.156 115.085 167.286C115.094 167.006 114.615 166.683 114.41 166.518C115.965 165.75 115.141 166.143 116.572 166.2C116.85 165.99 116.761 166.041 116.855 165.591C117.77 164.851 118.234 165.912 119.068 164.791Z" fill="#92ADB9"/>
<path d="M105.986 156.119L106.42 156.206C106.539 156.31 106.668 156.424 106.742 156.566C108.44 159.82 111.621 170.569 110.851 173.962C110.224 174.03 109.946 173.531 109.816 173.019C109.167 170.46 105.71 157.864 105.986 156.119Z" fill="#44271B"/>
<path d="M128.17 139.39C132.835 138.923 134.789 144.727 136.189 148.255C136.57 149.216 137.416 151.775 136.849 152.632C135.602 154.518 132.04 155.526 130.007 156.202C129.018 153.025 128.51 151.365 124.704 152.514C121.126 153.594 121.866 155.225 122.807 158.038C120.359 158.542 118.557 158.879 116.077 158.996C108.584 158.893 109.968 153.173 106.776 148.158C105.556 146.243 104.303 145.262 102.082 144.747C103.098 144.179 103.968 143.857 105.106 143.582C110.389 142.302 115.784 141.479 121.121 140.448C123.464 139.996 125.788 139.581 128.17 139.39Z" fill="#986249"/>
<path d="M116.335 144.443C118.061 144.329 120.91 149.816 120.641 151.128C120.379 152.404 114.499 154.78 113.389 155.004C111.79 154.993 111.955 153.464 111.052 152.624C110.799 152.39 110.765 152.79 110.205 152.458L110.151 152.215C110.294 152 110.374 151.903 110.537 151.709C110.447 150.82 109.082 148.586 109.729 147.735C110.457 146.776 112.331 146.2 113.448 145.657C114.253 145.266 115.484 144.62 116.335 144.443Z" fill="#44271B"/>
<path d="M116.333 145.793C117.252 146.071 119.047 149.87 119.484 150.828C117.813 151.461 115.625 152.613 113.981 153.422C113.652 153.475 113.601 153.503 113.293 153.366C112.674 152.742 111.145 149.18 110.802 148.247C112.961 147.401 114.278 146.904 116.333 145.793Z" fill="#96A77A"/>
<path d="M127.915 140.826C129.465 140.837 129.621 141.599 130.591 141.824C130.803 141.676 130.867 141.594 131.121 141.577L131.342 141.781C131.348 141.874 131.379 142.288 131.409 142.322C132.545 143.671 133.138 143.611 133.897 145.274C133.78 145.948 133.528 146.529 133.438 147.202C133.399 147.494 133.572 147.598 133.799 147.874L133.753 148.15C133.51 148.282 133.441 148.274 133.172 148.3L133.085 148.309C132.127 149.456 132.574 150.678 130.713 150.964C129.795 150.479 124.67 147.695 124.24 147.244C123.961 146.12 124.908 145.181 125.286 144.218C125.38 143.977 125.077 144.04 125.118 143.421C125.511 142.96 125.646 143.342 125.978 142.956C126.898 141.885 126.674 141.605 127.915 140.826Z" fill="#44271B"/>
<path d="M128.17 142.268C130.628 143.175 129.305 143.567 130.245 144.164C130.498 144 130.482 144.01 130.776 143.945C131.515 144.159 132.008 144.848 132.533 145.43C132 147.254 131.793 146.19 131.285 147.042C131.339 147.372 131.396 147.324 131.702 147.618C131.702 148.013 131.088 149.171 130.693 149.306C129.64 148.513 126.926 147.224 125.635 146.562C125.941 145.927 126.502 144.603 126.988 144.095C127.078 144.001 127.463 144.092 127.647 144.114C127.911 143.962 127.818 144.068 127.933 143.781C127.707 143.524 127.636 143.48 127.56 143.142C127.641 142.738 127.876 142.571 128.17 142.268Z" fill="#96A77A"/>
<path d="M78.7935 128.954C84.5923 128.417 89.724 132.692 90.2419 138.492C90.7599 144.292 86.4671 149.409 80.665 149.908C74.8892 150.405 69.7999 146.137 69.2843 140.363C68.7686 134.59 73.0211 129.488 78.7935 128.954Z" fill="#D8B68B"/>
<path d="M78.4473 130.148C83.463 129.539 88.0226 133.11 88.6339 138.124C89.2451 143.139 85.6766 147.7 80.6617 148.315C75.6424 148.93 71.0757 145.358 70.4639 140.339C69.8521 135.319 73.4272 130.756 78.4473 130.148Z" fill="#44271B"/>
<path d="M78.8785 131.644C83.0551 131.294 86.7248 134.396 87.0715 138.573C87.4181 142.749 84.3102 146.415 80.1328 146.756C75.9624 147.097 72.3039 143.996 71.9578 139.826C71.6118 135.657 74.7089 131.996 78.8785 131.644Z" fill="white"/>
<path d="M82.8262 134.135C83.2073 134.187 83.191 134.173 83.4784 134.423C83.643 134.777 83.621 134.941 83.5212 135.312C81.7825 141.772 81.4262 141.075 76.2093 144.174C75.7474 144.019 75.8921 144.131 75.5754 143.783C75.2276 142.75 76.9371 138.604 77.3906 137.434C78.3262 136.639 81.6915 134.738 82.8262 134.135Z" fill="#44271B"/>
<path d="M78.2077 138.852C78.7204 139.165 79.6039 139.881 80.0756 140.267C79.622 140.597 78.8495 141.04 78.3531 141.345C77.8776 141.675 77.4893 141.897 76.9868 142.182C77.441 141.031 77.8257 140.027 78.2077 138.852Z" fill="#92ADB9"/>
<path d="M81.7631 136.166L81.8489 136.322C81.7103 136.984 81.0715 138.652 80.8184 139.355L79.8692 138.58L78.9929 137.844C79.8045 137.299 80.9058 136.678 81.7631 136.166Z" fill="#B55943"/>
<path d="M72.506 137.649C73.2225 137.606 73.8389 137.532 74.2945 138.139C74.3625 138.522 74.3057 138.566 74.1182 138.935C73.4765 139.044 72.7903 139.066 72.3925 138.491C72.308 138.091 72.3517 138.049 72.506 137.649Z" fill="#44271B"/>
<path d="M80.1329 131.791C81.4429 132.016 81.2401 133.078 80.4939 133.836C79.2569 133.581 79.5002 132.569 80.1329 131.791Z" fill="#44271B"/>
<path d="M84.977 139.446C85.6439 139.43 86.3079 139.412 86.6073 140.094C86.5617 140.48 86.5002 140.505 86.2152 140.805C85.5463 140.802 84.9395 140.827 84.6543 140.153C84.6962 139.776 84.7329 139.758 84.977 139.446Z" fill="#44271B"/>
<path d="M78.2559 144.607C79.5925 144.683 79.5012 145.766 78.82 146.591C77.5804 146.425 77.7741 145.441 78.2559 144.607Z" fill="#44271B"/>
<path d="M143.778 94.9771C148.218 94.9179 150.257 99.41 150.563 103.219C150.835 106.732 149.729 110.212 147.48 112.925C146.958 112.583 147.916 111.571 147.43 110.579C146.431 109.595 143.649 111.246 141.077 108.032L142.087 107.694C143.013 107.324 145.691 106.435 145.618 105.212C144.832 103.87 141.238 105.305 139.942 105.654C139.485 104.392 139.153 103.634 139.02 102.276C140.747 101.125 142.11 100.645 144.053 100.075C144.371 99.9821 144.51 99.713 144.61 99.4227C143.944 97.7401 140.466 98.6884 139.24 99.1896C140.001 96.7335 141.192 95.3975 143.778 94.9771Z" fill="#EA8F49"/>
<path d="M64.031 109.221L67.1621 110.192C69.7495 114.755 72.6558 119.129 75.8591 123.282C76.6432 124.319 77.4072 125.267 78.2966 126.215C78.4997 126.431 78.4559 126.458 78.4277 126.659L78.1537 126.76C77.1542 126.961 76.6476 127.079 75.6655 127.408C71.9163 123.077 66.4874 114.521 64.031 109.221Z" fill="#986249"/>
<path d="M92.6859 141.182C93.8761 142.099 95.5343 143.706 96.6563 144.745C98.3961 146.36 100.153 147.955 101.928 149.531C101.586 149.664 101.226 149.784 100.879 149.907C100.135 150.083 99.7634 150.118 98.9949 150.182C96.8818 148.759 93.6773 146.046 91.9087 144.229C92.2023 143.231 92.4396 142.194 92.6859 141.182Z" fill="#986249"/>
<path d="M131.473 101.506C131.659 101.758 131.8 103.709 132.007 104.443C131.513 105.045 130.956 105.593 130.348 106.078C127.97 107.946 124.651 107.655 121.731 107.318L121.123 107.195L121.143 107.091C125.11 105.293 127.771 103.905 131.473 101.506Z" fill="white"/>
<path d="M126.411 154.311C126.679 154.272 126.66 154.274 126.916 154.366C127.814 155.385 128.44 158.379 128.71 159.771C129.028 161.415 128.157 161.732 126.696 161.917C126.343 161.839 126.348 161.845 126.034 161.671C125.765 161.347 125.345 159.023 125.153 158.367C124.821 157.232 124.391 156.135 124.079 155.008C124.809 154.662 125.624 154.468 126.411 154.311Z" fill="#D8B68B"/>
<path d="M122.407 130.438C123.413 130.512 124.245 130.534 125.252 130.545C126.169 131.865 128.462 135.336 129.04 136.702C127.97 136.695 127.422 136.711 126.348 136.833C124.899 133.97 124.309 133.02 122.407 130.438Z" fill="#986249"/>
<path d="M107.561 111.508C106.274 112.63 104.03 114.185 102.569 115.096C102.209 114.266 101.767 113.415 101.363 112.602C103.72 112.336 105.247 112.015 107.561 111.508Z" fill="url(#paint0_linear_10_16182)"/>
<path d="M141.334 111.98C141.647 112.138 142.181 112.41 142.515 112.494C143.78 112.814 146.005 112.926 144.499 114.798C142.113 116.587 141.625 113.631 141.334 111.98Z" fill="#564844"/>
<path d="M139.993 89.9015C140.309 89.8512 140.421 89.8023 140.712 89.9358C141.108 90.4503 141.097 91.1584 141.179 91.8374C140.618 91.8774 140.068 92.0137 139.516 92.132C139.253 92.2278 139.002 92.2909 138.733 92.3637C138.492 92.0665 138.358 90.5554 138.533 90.2103C139.007 89.9772 139.463 89.9652 139.993 89.9015Z" fill="#B3B2B2"/>
<path d="M121.327 132.934C121.967 133.496 123.764 136.372 123.782 137.182C123.277 137.225 122.591 137.345 122.075 137.42L121.327 132.934Z" fill="white"/>
<path d="M81.6892 124.176C82.0817 124.2 82.1008 124.195 82.4181 124.407C82.8721 125.068 82.7631 126.174 82.3808 126.868C82.3254 126.969 81.988 126.894 81.8649 126.882C81.4219 126.853 80.9783 126.777 80.5383 126.711C80.5661 126.507 80.5959 126.303 80.6276 126.1C80.7794 125.134 80.8848 124.763 81.6892 124.176Z" fill="#D8B68B"/>
<path d="M35.9449 106.047C36.8289 106.037 39.0835 107.282 39.245 108.056L39.0523 108.248C38.4186 107.982 36.0531 107.042 35.6223 106.774C35.6085 106.436 35.7417 106.325 35.9449 106.047Z" fill="#D8B68B"/>
<path d="M11.2116 83.1309C12.1066 83.3519 12.1922 83.7546 11.873 84.5883C11.4357 85.7301 11.3384 86.1876 11.3464 87.3979L11.4235 87.4221C13.7285 88.1633 13.0037 88.7451 14.694 90.1117C14.7829 90.1836 14.9256 90.0942 15.0623 90.0439C15.8972 89.1138 15.3282 86.999 16.1268 86.3965C17.7355 86.1325 17.2198 88.2703 17.0592 89.195C16.9313 89.9318 16.6518 90.4389 16.1943 91.0169L16.9054 91.7819C17.8524 91.4165 20.2669 90.6331 21.0198 91.6328C21.1132 92.0053 21.1089 91.9846 20.9954 92.3548C20.9233 92.4295 20.836 92.5199 20.7335 92.626C19.57 92.8683 19.2176 92.6522 17.9422 92.9935L18.6717 94.5883C18.9949 94.6123 19.3442 94.6451 19.664 94.6928C20.7336 94.8524 23.0169 96.1837 22.7507 97.449C21.79 98.0742 21.0523 96.9592 20.1713 96.5736C19.7121 96.3727 19.4425 96.3265 18.9608 96.2336C19.0223 101.39 15.0535 104.068 10.635 101.089C10.1183 100.683 9.77047 100.271 9.331 99.7854C8.41678 101.097 8.75684 101.496 8.22423 102.876C8.13617 103.104 7.77703 103.387 7.47734 103.475C6.58791 103.316 6.9302 101.258 7.14109 100.631C7.46716 99.6614 7.82397 99.1475 8.46606 98.3762L8.04482 97.3653C7.06913 97.5889 5.75466 98.2374 5.02801 97.8792C4.87021 97.7108 4.76265 97.5836 4.75492 97.3367C4.71041 95.8998 6.85782 96.6147 7.62464 95.6458C7.73803 95.2876 7.73708 95.3083 7.65484 94.9418C6.70459 94.5622 5.41374 94.7177 4.44442 94.2741C3.8166 93.9869 2.70311 93.0136 3.04836 92.2404C3.89974 91.6884 5.13228 92.8757 5.95155 93.1066C6.67248 93.3097 7.16302 93.2699 7.90123 93.2538C7.01021 91.7789 6.87065 91.2515 7.37592 89.5435C5.76705 88.1888 4.63421 88.5538 3.79803 87.7182C3.65482 87.3392 3.64849 87.5207 3.81022 87.1555C4.97682 86.1983 7.23106 87.6785 8.13691 88.5089C8.85879 87.8489 9.15625 87.7442 10.0444 87.4403C10.0235 87.1676 10.0111 86.8942 10.0073 86.6207C9.99258 85.1859 10.1824 84.1862 11.2116 83.1309Z" fill="#44271B"/>
<path d="M11.824 91.4557C15.8495 91.2312 18.2896 95.5143 16.5413 98.9765C16.385 99.2202 16.0873 99.5327 15.8879 99.7563C14.6418 96.9376 13.2862 94.1687 11.824 91.4557Z" fill="#B55943"/>
<path d="M10.5681 92.1465L10.6878 92.2089C11.3116 93.2393 13.9357 99.2235 14.2355 100.262C13.9795 100.397 13.7079 100.344 13.407 100.331C9.89925 99.5011 8.17031 95.0703 10.5681 92.1465Z" fill="#B55943"/>
<path d="M10.375 89.1145C10.8492 89.088 11.2224 89.1132 11.6645 89.2797L11.6903 89.4447C11.074 89.9507 10.2996 90.0565 9.57975 90.6202C9.33846 90.8563 9.26523 90.923 8.98907 91.1142L8.83435 91.0405C8.69584 90.1307 9.64821 89.4494 10.375 89.1145Z" fill="#564844"/>
<path d="M20.8974 30.2047C21.2232 30.1869 21.5236 30.174 21.7805 30.3681C22.8594 31.1829 21.9736 31.9833 21.3703 32.538C20.4188 33.4126 19.5503 34.2564 18.7095 35.1549C17.6345 36.3128 16.6364 37.5397 15.7213 38.8277C16.9268 39.7215 21.5685 42.7543 21.1446 44.2042C20.967 44.4377 20.8314 44.5998 20.5302 44.6552C19.3798 44.867 15.6353 41.4846 14.4927 40.7612C12.915 43.4423 11.6877 46.3147 10.8412 49.3082C12.1075 49.5616 18.9683 50.5185 18.2107 52.4689C17.873 53.3385 16.473 52.8713 15.7723 52.7023C13.9538 52.2638 12.1294 51.7186 10.2653 51.4426C9.5566 54.7268 9.3135 57.8528 9.48443 61.1823C9.50859 61.6536 9.31837 62.0765 8.96739 62.3945C8.26565 62.6797 7.84706 62.3597 7.43122 61.8132C7.06456 57.8119 7.30119 54.8654 8.10065 50.9342C6.93506 50.7577 0.68892 49.6939 0.217503 49.0608C0.0371703 48.8187 -0.0480948 48.4548 0.027654 48.16C0.0845716 47.9385 0.238167 47.7848 0.432563 47.6765C1.67302 46.9849 7.02959 48.4452 8.58579 48.8136C9.63979 45.1551 10.728 42.6027 12.7012 39.3704C11.7505 38.7387 6.19294 35.3819 5.94613 34.6957C5.83338 34.382 5.88668 33.9946 6.05242 33.7094C6.1621 33.5208 6.3413 33.3915 6.55897 33.3512C7.94328 33.0945 12.5793 36.6077 13.9017 37.5537C15.2688 35.4926 18.7893 31.4678 20.8974 30.2047Z" fill="#44271B"/>
<path d="M34.962 144.134C37.3468 143.985 37.929 145.156 38.6915 147.133C40.8276 146.153 44.0816 145.989 43.8562 149.526C43.7734 150.826 42.0865 151.864 41.0373 152.541C41.1762 152.876 41.3053 153.214 41.4247 153.555C42.1319 155.594 41.6324 157.441 39.4153 158.123C37.0825 158.154 36.4792 156.959 35.6091 155.098C33.9573 155.92 31.6195 156.315 30.4477 154.472C30.049 153.831 29.9266 153.056 30.1083 152.324C30.4767 150.844 31.9064 150.023 33.1119 149.312C32.4227 147.059 32.4536 145.115 34.962 144.134Z" fill="#44271B"/>
<path d="M35.3479 145.9C37.1297 146.15 36.7329 148.131 37.7041 149.115C38.7519 149.521 40.2449 148.222 40.947 148.31C44.2502 148.725 39.5665 151.357 38.9548 151.738C39.298 152.984 40.9513 156.039 38.7791 156.331C37.584 155.742 37.0782 154.185 36.5179 152.972C35.6599 153.125 33.1974 154.23 32.6158 153.898C30.0623 152.444 34.1466 150.821 35.2491 150.323C34.7923 148.869 33.8122 146.925 35.3479 145.9Z" fill="#D8B68B"/>
<path d="M157.657 41.3383C158.402 41.2574 159.219 41.3396 159.342 42.2682C159.386 42.6113 159.153 43.1788 158.94 43.4366C157.332 45.3786 155.56 47.1963 153.866 49.0652C153.136 49.8707 152.545 50.555 151.635 51.1587C151.225 51.3204 150.723 51.3879 150.326 51.162C150.131 50.8804 150.147 50.7985 150.167 50.4691C150.188 50.1251 150.646 49.2094 150.868 48.9469C152.188 47.3924 156.28 42.3391 157.657 41.3383Z" fill="#44271B"/>
<path d="M163.43 49.919C165.423 49.7865 165.577 51.5915 164.534 52.1898C162.246 53.5012 158.995 55.2913 156.641 56.3054C156.345 56.3781 156.064 56.4426 155.759 56.3936C155.494 56.3512 155.26 56.2045 155.117 55.9753C154.95 55.7055 154.957 55.3499 155.053 55.0569C155.399 54.0032 162.231 50.5723 163.43 49.919Z" fill="#44271B"/>
<path d="M161.977 61.3138C162.105 61.304 162.231 61.2951 162.358 61.2871C163.463 61.2176 166.781 60.9267 167.313 61.7001C169.104 64.3027 163.109 63.6863 162.455 63.6855C161.475 63.698 157.651 63.8679 157.139 63.2794C154.885 60.6858 160.797 61.3834 161.977 61.3138Z" fill="#44271B"/>
<path d="M44.7702 170.887C46.022 170.796 47.115 171.726 47.2242 172.977C47.3332 174.227 46.4178 175.333 45.1692 175.46C44.3455 175.544 43.5405 175.177 43.0625 174.501C42.5845 173.825 42.5077 172.945 42.8613 172.196C43.2151 171.448 43.9445 170.947 44.7702 170.887Z" fill="#44271B"/>
<path d="M140.666 177.335C141.369 177.113 142.137 177.296 142.666 177.808C143.196 178.322 143.401 179.084 143.201 179.794C143.002 180.504 142.429 181.048 141.71 181.21C140.659 181.446 139.609 180.812 139.328 179.773C139.048 178.733 139.639 177.657 140.666 177.335Z" fill="#44271B"/>
<path d="M27.8239 99.9961C28.8623 100.253 30.0778 101.344 29.9734 102.498C29.797 102.884 29.6925 102.907 29.3132 103.147C28.7501 103.032 28.4123 102.692 28.0323 102.281C27.2285 101.411 26.7378 100.771 27.8239 99.9961Z" fill="#44271B"/>
<path d="M24.5371 97.875C25.7486 98.0106 27.3318 98.7799 25.9383 100.042C24.7054 99.8808 23.2396 99.2079 24.5371 97.875Z" fill="#44271B"/>
<path d="M30.4725 103.82C31.6286 104.128 32.2793 105.417 31.1131 106.313C29.8912 105.986 29.1237 104.645 30.4725 103.82Z" fill="#44271B"/>
<defs>
<linearGradient id="paint0_linear_10_16182" x1="102.672" y1="114.736" x2="105.437" y2="110.689" gradientUnits="userSpaceOnUse">
<stop stop-color="#E17E37"/>
<stop offset="1" stop-color="#F6A364"/>
</linearGradient>
</defs>
</svg>
