<svg width="96" height="96" viewBox="0 0 96 96" xmlns="http://www.w3.org/2000/svg">
<rect width="96" height="96" rx="22" fill="#0B0B10"/>
<g transform="translate(-452,0)">
<path d="M495.839 28.9369L506.957 13.6174C509.254 10.4521 511.296 7.52454 513.941 4.53081C518.298 -0.576279 525.642 1.99279 531.557 1.37688C536.74 0.837119 541.677 4.93088 538.258 10.2345C535.48 14.5467 532.237 18.6232 529.184 22.7281L510.338 48.0588L527.866 71.7723C530.825 75.7437 533.79 79.6965 536.734 83.6936C538.451 86.0229 540.739 88.9252 539.286 91.9916C538.477 93.6973 537.083 94.2751 535.41 94.8172C516.932 94.4546 517.981 98.6544 506.81 83.0338L495.763 67.6065L484.715 83.0997C482.509 86.1825 480.467 89.2714 477.906 92.0862C475.29 95.1517 470.84 95.05 467.055 94.7976C463.351 94.5501 458.728 95.3288 455.142 94.4294C452.081 93.6609 451.009 89.561 452.711 86.9431C455.62 82.4648 458.986 78.1426 462.191 73.8259L481.275 48.0099C477.461 43.056 453.033 11.5047 452.307 8.47579C451.97 7.07586 452.11 5.57636 452.863 4.33693C453.909 2.61602 455.509 1.92367 457.363 1.45625C461.957 1.17041 467.869 1.31714 472.454 1.51834C477.206 1.72686 481.993 9.81158 484.562 13.3708L495.839 28.9369Z" fill="#E00477"/>
</g>
</svg>
