<svg width="540" height="96" viewBox="0 0 540 96" fill="none" xmlns="http://www.w3.org/2000/svg">
<g clip-path="url(#clip0_53_40)">
<circle cx="138.31" cy="48" r="35.5" stroke="white" stroke-width="25"/>
<path d="M312.548 0.540823C313.383 0.449447 314.745 0.438024 315.577 0.505385C317.684 0.661192 319.688 1.48914 321.29 2.8671C323.886 5.09028 331.796 15.0561 334.418 18.167C343.808 29.3002 353.004 40.6991 362.446 51.8001L362.452 1.38693L385.33 1.37726C385.046 20.797 385.316 40.9521 385.316 60.4055V76.7618C385.318 84.3972 386.763 92.5598 377.66 95.3005C371.684 96.4998 368.525 94.3704 364.787 90.0201C352.046 75.1943 339.873 59.7509 327.082 44.9873C327.396 61.2823 327.196 78.4309 327.103 94.7505L304.342 94.7584C304.67 66.4132 304.046 37.949 304.497 9.59787C304.576 4.77194 308.212 1.80896 312.548 0.540823Z" fill="#FEFEFE"/>
<path d="M495.839 28.9369L506.957 13.6174C509.254 10.4521 511.296 7.52454 513.941 4.53081C518.298 -0.576279 525.642 1.99279 531.557 1.37688C536.74 0.837119 541.677 4.93088 538.258 10.2345C535.48 14.5467 532.237 18.6232 529.184 22.7281L510.338 48.0588L527.866 71.7723C530.825 75.7437 533.79 79.6965 536.734 83.6936C538.451 86.0229 540.739 88.9252 539.286 91.9916C538.477 93.6973 537.083 94.2751 535.41 94.8172C516.932 94.4546 517.981 98.6544 506.81 83.0338L495.763 67.6065L484.715 83.0997C482.509 86.1825 480.467 89.2714 477.906 92.0862C475.29 95.1517 470.84 95.05 467.055 94.7976C463.351 94.5501 458.728 95.3288 455.142 94.4294C452.081 93.6609 451.009 89.561 452.711 86.9431C455.62 82.4648 458.986 78.1426 462.191 73.8259L481.275 48.0099C477.461 43.056 453.033 11.5047 452.307 8.47579C451.97 7.07586 452.11 5.57636 452.863 4.33693C453.909 2.61602 455.509 1.92367 457.363 1.45625C461.957 1.17041 467.869 1.31714 472.454 1.51834C477.206 1.72686 481.993 9.81158 484.562 13.3708L495.839 28.9369Z" fill="#E00477"/>
<path d="M238.131 0.537787C248.941 -0.517429 250.942 8.64768 254.338 16.8466L261.943 35.2164L286.734 94.7665L261.264 94.7736L240.867 44.2811C240.636 43.7715 240.542 43.3822 240.068 43.1239C237.636 48.2949 234.962 55.5513 232.763 60.9815L219.074 94.7841L193.617 94.7595C202.316 74.332 210.869 53.8421 219.274 33.2919L226.131 16.574C228.889 9.83059 230.407 2.69156 238.131 0.537787Z" fill="#E00477"/>
<path d="M46.152 1.38474L69.206 1.38123L69.1986 40.7742C69.2042 47.9689 69.3967 55.167 68.9399 62.3468C67.2457 88.9834 40.2325 102.422 16.8955 92.7586C8.35723 89.0596 3.89824 84.1461 0 75.8537C6.5584 71.991 13.0781 68.0633 19.5586 64.0715C21.697 68.0704 23.4375 70.3923 27.8511 71.8484C35.6314 74.5329 44.5989 70.1445 45.6688 61.6006C46.5217 54.7904 46.1713 47.377 46.1742 40.4526L46.152 1.38474Z" fill="#FEFEFE"/>
</g>
<defs>
<clipPath id="clip0_53_40">
<rect width="539.748" height="96" fill="white"/>
</clipPath>
</defs>
</svg>
