<svg width="540" height="96" viewBox="0 0 540 96" fill="none" xmlns="http://www.w3.org/2000/svg">
<g clip-path="url(#clip0_53_51)">
<circle cx="138.31" cy="48" r="35.5" stroke="black" stroke-width="25"/>
<path d="M312.573 0.685913C313.398 0.596477 314.745 0.585297 315.566 0.651733H315.567C317.642 0.805276 319.616 1.62051 321.195 2.97791C322.481 4.07949 325.098 7.11521 327.732 10.2777C330.357 13.4309 332.996 16.707 334.306 18.2611C343.69 29.3876 352.896 40.7971 362.335 51.8949L362.593 52.1986V51.8002L362.598 1.53259L385.182 1.5238C384.901 20.899 385.169 41.0047 385.169 60.4056V76.7621C385.17 77.7184 385.192 78.6832 385.214 79.642C385.236 80.6012 385.257 81.5551 385.254 82.4935C385.248 84.3716 385.144 86.1806 384.76 87.8334C384.376 89.4846 383.712 90.976 382.588 92.223C381.467 93.4674 379.879 94.4778 377.631 95.1566C374.666 95.7516 372.415 95.5191 370.446 94.6088C368.471 93.6961 366.764 92.0951 364.899 89.9242C358.529 82.5127 352.302 74.9469 346.067 67.3871C339.832 59.8277 333.589 52.2743 327.193 44.891L326.928 44.5853L326.936 44.9896C327.248 61.2338 327.05 78.3266 326.956 94.6039L304.49 94.6107C304.651 80.4864 304.578 66.3328 304.52 52.1801C304.461 37.9769 304.418 23.7739 304.644 9.59998C304.721 4.87107 308.275 1.94746 312.573 0.685913Z" fill="black" stroke="black" stroke-width="0.29292"/>
<path d="M522.168 1.41638C523.721 1.37999 525.323 1.48337 526.915 1.55798C528.504 1.63243 530.082 1.67801 531.572 1.52283C534.125 1.25694 536.606 2.13402 538.024 3.71228C538.732 4.49964 539.174 5.4609 539.235 6.54529C539.296 7.62994 538.976 8.84987 538.135 10.1547V10.1556C535.361 14.4623 532.124 18.531 529.067 22.641L510.221 47.9711L510.155 48.059L510.22 48.1459L527.748 71.8597H527.749C530.708 75.8315 533.672 79.784 536.616 83.7806C537.478 84.9503 538.468 86.2432 539.064 87.6244C539.659 88.9999 539.856 90.4461 539.153 91.9291C538.377 93.5668 537.047 94.1308 535.389 94.6693C530.777 94.5797 527.379 94.775 524.712 94.8734C522.035 94.9722 520.106 94.9733 518.409 94.5062C516.72 94.0412 515.247 93.1081 513.498 91.3119C511.965 89.7373 510.224 87.5057 507.941 84.3558L506.93 82.9486L495.882 67.5209L495.763 67.3549L495.644 67.5219L484.596 83.014C482.385 86.1027 480.351 89.1812 477.798 91.9877L477.795 91.9916C476.516 93.4896 474.786 94.2187 472.895 94.5414C471.001 94.8644 468.957 94.7779 467.064 94.6517C465.204 94.5274 463.109 94.6602 461.051 94.7113C458.985 94.7626 456.95 94.7319 455.178 94.2875C453.708 93.9184 452.707 92.7478 452.28 91.3373C451.853 89.9255 452.009 88.2915 452.834 87.0228C455.74 82.5498 459.101 78.2337 462.309 73.9135L481.393 48.097L481.459 48.0082L481.392 47.9203C479.484 45.443 472.424 36.3177 465.75 27.433C462.413 22.9906 459.173 18.6093 456.723 15.1498C455.497 13.4198 454.47 11.9215 453.727 10.7621C453.355 10.1822 453.055 9.68801 452.838 9.29333C452.618 8.8945 452.49 8.60964 452.449 8.44177C452.12 7.0728 452.259 5.61424 452.988 4.41345C454.001 2.74685 455.548 2.06601 457.383 1.60193C461.967 1.31749 467.867 1.46342 472.447 1.66443C473.595 1.71481 474.758 2.24259 475.903 3.07654C477.047 3.90977 478.163 5.04115 479.215 6.28259C481.322 8.76922 483.151 11.6658 484.443 13.4564L495.72 29.0228L495.839 29.1869L495.957 29.0228L507.075 13.7035C509.374 10.5355 511.41 7.61432 514.05 4.62732L514.051 4.6283L514.053 4.62634C516.191 2.12001 519.064 1.48916 522.168 1.41638Z" fill="#E00477" stroke="black" stroke-width="0.29292"/>
<path d="M238.157 0.682007C240.832 0.422568 242.953 0.796209 244.683 1.62048C246.416 2.44618 247.768 3.72955 248.896 5.30701C250.024 6.88571 250.926 8.75508 251.758 10.7474C252.174 11.7431 252.572 12.7679 252.973 13.8011C253.374 14.834 253.777 15.876 254.203 16.9027L261.808 35.2728L286.514 94.6205L261.363 94.6263L241.003 44.226L241 44.2201C240.781 43.7378 240.666 43.2835 240.138 42.9955L240.002 42.9213L239.936 43.0619C237.501 48.2375 234.823 55.5036 232.627 60.9261L218.974 94.6371L193.837 94.6127C202.507 74.2521 211.032 53.8295 219.41 33.347L226.266 16.6293C227.652 13.2402 228.712 9.79383 230.395 6.90857C232.069 4.0391 234.348 1.74781 238.157 0.682007Z" fill="#E00477" stroke="black" stroke-width="0.29292"/>
<path d="M69.0518 40.7738V40.7748C69.0573 47.9743 69.2503 55.164 68.7939 62.3373C67.1072 88.8563 40.213 102.255 16.9531 92.6244H16.9541C12.6989 90.7809 9.46611 88.6374 6.8125 85.9261C4.18389 83.2404 2.11811 79.9913 0.189453 75.9105C6.6651 72.0956 13.1033 68.2176 19.5029 64.2767C20.545 66.2147 21.507 67.7678 22.748 69.017C24.0208 70.298 25.5807 71.2536 27.8057 71.9877V71.9867C35.6565 74.6941 44.7309 70.2711 45.8145 61.6185C46.6687 54.7965 46.3174 47.3666 46.3203 40.4525L46.2988 1.53064L69.0586 1.52771L69.0518 40.7738Z" fill="black" stroke="black" stroke-width="0.29292"/>
</g>
<defs>
<clipPath id="clip0_53_51">
<rect width="539.748" height="96" fill="white"/>
</clipPath>
</defs>
</svg>
