<svg width="203" height="224" viewBox="0 0 203 224" fill="none" xmlns="http://www.w3.org/2000/svg">
<path d="M142.905 12.0193C143.621 11.963 144.34 12.0305 145.032 12.2153C146.842 12.6839 148.217 14.3149 149.071 15.901C154.065 25.1805 153.283 46.3192 150.378 56.1619C153.02 62.4564 153.581 63.2359 158.532 67.8566C160.302 69.5102 162.303 71.4521 162.308 74.0655C162.315 77.3141 159.506 79.3642 157.488 81.5044C158.389 82.2884 159.646 83.2369 160.076 84.3768C160.687 85.9966 160.261 87.8192 159.585 89.3467C158.358 92.1177 156.301 94.5733 154.301 96.8239C146.892 105.162 137.598 111.607 127.192 115.624C130.768 119.003 133.901 122.236 136.437 126.499C142.298 123.788 148.241 121.241 154.03 118.379C154.63 117.226 155.221 115.894 156.04 114.878C156.39 114.444 156.82 114.155 157.155 113.691C156.578 113.277 155.925 112.86 155.428 112.351C155.026 111.941 154.71 111.305 154.805 110.717C154.907 110.091 155.395 109.553 155.848 109.147C156.557 108.512 157.54 107.881 158.539 108.009C159.137 108.086 159.651 108.498 160.012 108.96C160.807 109.974 160.678 110.832 160.548 112.026C161.711 111.425 162.863 110.801 164.002 110.154L164.07 109.859C158.675 107.138 166.887 100.23 167.853 107.372C168.002 108.478 170.746 105.984 171.867 106.691C177.561 110.283 181.031 116.611 179.461 123.318C179.18 124.507 176.865 125.163 175.673 125.595C176.393 125.942 177.159 126.165 177.65 126.816C179.952 129.869 174.083 133.122 172.482 129.946C171.933 128.857 172.325 127.839 172.686 126.771L168.411 128.526C169.791 129.425 171.26 130.703 170.369 132.703C169.794 133.996 167.044 134.589 165.84 133.735C164.089 132.494 165.088 131.545 164.793 130.022C163.911 129.982 157.903 129.175 158.223 130.968C160.156 141.811 152.64 152.841 141.417 153.682C138.513 153.898 136.106 153.146 133.395 152.048L133.339 155.178C141.325 155.202 148.731 159.478 149.782 167.94C152.714 168.046 157.327 167.393 159.568 168.873C161.471 168.747 164.395 168.1 166 168.891C166.411 169.553 166.339 169.209 166.261 169.956C165.207 171.164 162.807 170.529 161.01 171.065L161.028 171.376C162.588 172.682 166.174 170.957 168.215 172.198C168.51 172.948 168.477 172.561 168.221 173.403C166.788 174.501 164.145 173.746 163.095 174.284C163.923 176.985 168.265 173.91 170.798 175.767C171.18 176.44 171.135 176.1 170.991 176.816C169.462 178.398 167.341 176.9 165.548 177.682L165.545 178.164C165.908 178.86 165.911 178.959 166.568 179.319C168.259 178.898 172.81 178.265 173.502 180.306L173.226 180.721C171.494 181.716 169.429 181.46 167.425 181.428C167.576 181.755 168.046 182.778 168.345 182.942C170.528 184.136 174.04 182.23 175.86 183.571C176.256 184.366 176.215 183.974 176.108 184.767C175.002 185.853 171.802 185.546 169.918 185.63L171.124 187.637C173.161 187.425 177.742 186.605 178.997 188.561L178.725 189.022C177.002 190.034 174.43 189.782 172.412 189.759L173.829 192.035C175.648 191.708 181.42 190.807 182.361 192.947C181.336 194.56 177.02 194.202 175.242 194.197L176.559 196.529C178.404 196.326 183.285 195.506 184.409 197.067L184.278 197.68C182.75 199.584 179.112 197.721 178.085 199.156C178.148 199.3 178.523 200.145 178.567 200.17C180.514 201.244 185.203 199.444 186.865 201.494C186.818 202.175 186.826 201.972 186.41 202.614C184.812 203.689 180.91 202.686 179.259 202.97C177.821 203.216 177.545 204.045 175.327 204.169C168.879 204.531 162.341 203.966 155.929 204.153C152.619 204.25 148.465 204.804 145.089 205.094C141.337 205.419 137.57 205.545 133.804 205.473C128.287 205.412 122.849 204.932 117.355 204.486C108.032 203.727 98.6397 204.856 89.3186 205.401C83.9633 205.54 78.6047 205.446 73.258 205.117C65.5151 204.626 60.1011 203.693 52.3588 204.558C46.8937 205.169 25.1323 205.842 21.574 202.934C19.6419 203.116 14.3227 204.184 14 201.661C15.2888 198.674 21.8734 202.362 22.4263 199.534L22.0955 199.068C20.2456 198.259 16.8912 198.917 15.8347 197.635C16.0272 195.168 22.3368 196.365 24.079 196.608L25.2404 194.49C23.0949 194.492 19.798 194.738 18.0883 193.483L18.0358 193.055C19.6923 191.393 24.4922 192.089 26.6526 192.26L28.0841 189.921C26.2705 189.946 22.641 190.331 21.521 188.759L21.7143 188.324C23.664 187.015 26.8495 187.623 29.1605 187.853L30.3485 185.695C28.6967 185.679 24.9369 186.11 24.127 184.756C24.2216 183.803 24.0367 184.19 24.6164 183.519C26.2977 182.787 29.1355 183.575 31.2783 183.505C31.9605 183.055 32.0963 182.464 32.5244 181.649C30.7148 181.678 27.7085 182.025 26.5036 180.507L26.6841 180.079C28.5308 178.664 31.4912 179.207 33.7239 179.407C34.065 178.9 34.4421 178.211 34.7591 177.67C33.075 177.673 29.8734 178.182 29.2153 176.359C29.8466 174.21 34.9756 176.303 36.737 174.784L36.4549 175.05L36.696 174.854L36.734 174.455C35.8479 173.617 33.294 174.807 31.9348 173.248C31.8222 172.5 31.7557 172.847 32.186 172.182C33.518 171.38 36.5547 171.95 38.4494 172.011C37.2923 171.414 34.3592 170.583 33.8302 169.956C33.8899 169.733 33.953 169.551 34.0551 169.341C34.2783 168.884 29.124 163.806 28.5865 163.155C24.6105 158.329 21.8326 152.033 20.7183 145.896C19.2624 137.878 20.7771 129.02 25.5218 122.295C29.0905 117.237 34.3799 113.729 40.5048 112.727C46.0337 111.823 51.6843 112.991 56.2476 116.295C61.0692 119.79 63.5325 124.809 64.424 130.588C67.0341 124.059 71.7267 119.15 77.5934 115.448C67.1737 112.125 54.8885 106.669 47.4551 98.3469C43.9078 94.3751 44.9275 91.6401 48.9303 88.8037C34.6811 82.0091 38.8099 79.6548 47.0658 68.8613C48.5077 66.9757 49.772 64.0019 50.6462 61.7423C48.5453 55.851 46.2437 47.2676 45.4811 40.9731C44.8034 35.778 44.3949 22.9885 47.9498 19.1158C55.1234 11.2984 75.1066 25.2842 80.6035 29.8642C82.097 29.2379 84.0739 28.5778 85.6436 27.9628C87.5131 24.356 88.827 18.2687 92.3614 16.0339C99.984 11.215 108.483 22.3689 111.916 27.3928C113.945 27.8322 115.099 28.107 117.093 28.8031C122.998 22.7722 134.402 13.2156 142.905 12.0193Z" fill="#392F24"/>
<path d="M120.373 30.3097C122.913 27.7549 141.574 11.5343 145.251 16.3396C149.21 21.5122 149.467 35.4169 148.953 41.9592C148.827 44.1535 148.305 50.8288 147.765 51.9845C146.464 52.782 146.442 51.5181 145.878 52.4666C146.059 56.1298 149.803 64.0306 152.454 66.8579C154.307 68.8359 157.665 71.3524 158.899 73.7179C159.388 74.6528 158.418 75.8604 157.825 76.57C156.567 78.0749 153.927 79.9223 154.017 82.0445C154.086 83.6553 156.1 85.0543 157.133 86.2528C156.074 88.9923 151.391 96.5597 148.576 97.4969C142.112 105.267 128.536 112.28 118.918 114.921C117.552 115.297 115 115.806 115.096 117.279C116.216 118.277 118.246 117.782 119.658 117.547C118.496 121.346 117.585 124.421 115.718 127.971C109.785 125.313 105.541 126.056 100.295 129.839C97.2892 127.264 94.1626 124.669 91.5032 121.742C90.2767 120.566 88.8826 118.962 87.7133 117.687C89.3922 117.746 90.472 117.775 92.1338 117.635L92.2719 116.815C91.9991 116.196 91.8049 115.948 91.1107 115.7C86.6172 114.092 81.8433 113.366 77.3779 111.607C77.0756 111.658 76.6608 111.672 76.3733 111.566C67.1825 108.133 53.9751 102.507 48.6036 93.8946C49.9313 92.0968 51.8607 91.2993 52.9761 89.1568C53.3253 85.586 45.9627 84.7862 42.9724 80.9834L42.7894 80.7491C43.653 78.7823 45.0363 77.1963 46.3797 75.545C49.2572 72.0035 52.2757 68.2074 53.5652 63.749C53.8593 62.7329 53.9334 61.8183 53.8009 60.7639C53.515 58.4908 52.4971 56.1162 51.8499 53.9084C51.0771 51.2703 50.4598 48.5601 49.9002 45.868C48.4526 38.9089 47.7017 30.6453 49.6158 23.7313C49.9572 22.499 50.5569 21.1698 51.7444 20.548C56.6259 17.991 71.4243 27.3832 75.6441 30.4133C77.3484 31.6366 80.5192 34.7681 82.4083 35.302C82.9992 35.471 83.4275 35.3425 83.927 35.0317C84.4121 33.9796 83.8373 33.0942 83.282 32.2088C85.3761 31.6253 86.5713 31.3505 88.3628 30.1317C90.6031 25.7791 91.1146 21.2869 95.2744 18.205C105.05 18.2163 112.637 34.7411 115.125 42.7973C115.63 44.4329 116.054 48.1005 116.903 49.3824C119.903 45.5728 115.603 35.1488 113.699 31.1658C116.681 31.9745 124.342 35.7368 126.266 34.8987C126.603 33.2249 121.663 30.9607 120.373 30.3097Z" fill="#406D45"/>
<path d="M135.539 93.3711C137.565 92.6006 138.21 92.3709 140.039 91.0912C142.914 89.1245 145.845 84.3664 149.863 85.4816C150.574 85.6776 151.408 86.7184 151.636 87.392C152.849 90.9605 150.072 94.6034 148.576 97.4961C142.112 105.266 128.536 112.279 118.918 114.92C117.552 115.296 115 115.805 115.096 117.279C116.216 118.277 118.246 117.781 119.658 117.547C118.496 121.345 117.585 124.42 115.718 127.971C109.785 125.312 105.541 126.056 100.295 129.838C97.2892 127.263 94.1626 124.668 91.5032 121.741C90.2767 120.565 88.8826 118.961 87.7133 117.686C89.3922 117.745 90.472 117.774 92.1338 117.634L92.2719 116.814C91.9991 116.195 91.8049 115.947 91.1107 115.699C86.6172 114.091 81.8433 113.365 77.3779 111.606C73.7665 109.267 69.8578 107.014 68.2242 102.757C66.5451 98.3815 67.8072 93.5694 72.6114 91.9496C78.855 89.8499 84.1097 94.8941 89.7655 96.4688C92.763 97.3024 98.2897 98.6338 101.314 97.3114C102.414 99.0866 104.367 100.709 106.211 101.545C110.646 103.559 114.55 102.885 118.711 100.643C119.636 100.145 121.537 99.3119 122.55 99.2263C125.446 98.983 127.889 100.932 130.868 99.776C133.856 98.618 134.388 96.043 135.539 93.3711Z" fill="#E3E2AA"/>
<path d="M87.7134 117.687C89.3923 117.745 90.4721 117.774 92.1339 117.635C91.7962 119.135 91.6736 120.205 91.5033 121.742C90.2768 120.566 88.8827 118.962 87.7134 117.687Z" fill="#406D45"/>
<path d="M95.2744 18.2051C105.05 18.2163 112.637 34.7411 115.125 42.7974C115.63 44.433 116.054 48.1006 116.903 49.3825C114.094 51.1668 110.784 42.2071 110.116 40.4409C106.673 31.3393 102.791 24.6055 95.2744 18.2051Z" fill="#305133"/>
<path d="M129.297 97.7518C132.805 96.0712 132.867 92.2346 134.667 91.8809C135.387 92.4373 135.179 92.3472 135.539 93.3723C134.388 96.0442 133.856 98.6192 130.868 99.7771C127.889 100.933 125.446 98.9841 122.55 99.2275C121.537 99.3131 119.636 100.147 118.711 100.644C114.55 102.886 110.646 103.56 106.211 101.546C104.367 100.71 102.414 99.0878 101.314 97.3125C101.282 96.7583 101.34 96.7741 101.633 96.2829C101.943 96.1816 102.24 96.0194 102.556 96.2221C105.221 97.9163 106.279 99.3716 109.525 100.129C114.857 101.372 117.862 97.2066 122.733 96.6952C124.09 96.5533 127.597 97.4657 129.297 97.7518Z" fill="#352F21"/>
<path d="M89.3618 59.6573C98.3661 58.5962 106.526 65.0372 107.583 74.0419C108.641 83.0466 102.195 91.202 93.1898 92.2541C84.1915 93.3061 76.0435 86.8675 74.9869 77.8695C73.9301 68.8716 80.3647 60.7207 89.3618 59.6573Z" fill="#392F24"/>
<path d="M90.5156 61.5879C92.2866 61.4594 94.2649 61.8289 95.9161 62.4665C99.4303 63.8227 102.113 66.6636 103.577 70.0969C105.579 74.7964 105.114 78.9462 103.277 83.5758C103.272 81.5798 103.314 79.6401 102.542 77.7567C102.072 76.61 101.271 75.5016 100.082 75.033C99.1299 74.6567 98.1116 74.7559 97.2021 75.1974C95.596 75.9769 94.565 77.6418 94.0858 79.3134C93.3647 81.8299 93.7984 84.3193 95.0445 86.5789C96.1281 87.7482 97.1852 88.0883 98.6715 88.5029C97.1181 89.2981 95.5989 89.8704 93.8662 90.1272C90.1526 90.6544 86.3812 89.6991 83.3648 87.471C80.1822 85.1033 78.1679 81.4244 77.656 77.5089C77.1665 73.7691 78.1219 69.8469 80.4438 66.8505C82.9597 63.6064 86.5265 62.0745 90.5156 61.5879Z" fill="#E3E2AA"/>
<path d="M134.577 55.707C136.565 55.7296 138.345 55.9886 140.119 56.9439C143.632 58.8385 145.843 62.5468 146.907 66.2843C148.303 71.1865 147.941 76.7803 145.433 81.2703C143.682 84.404 141.229 86.1838 137.798 87.1278C135.333 87.3778 133.163 86.9543 131.133 85.4922C127.65 82.9847 125.596 78.5061 124.943 74.3653C124.189 69.5734 124.886 63.9841 127.827 60.001C129.537 57.6851 131.716 56.1576 134.577 55.707Z" fill="#392F24"/>
<path d="M134.676 57.9536C135.049 57.9513 135.425 57.9559 135.797 57.9987C138.29 58.2825 140.479 59.7356 142.033 61.6573C144.836 65.1222 145.757 69.9456 145.238 74.2936C144.844 77.5963 143.546 81.2482 140.783 83.3074C139.119 84.5464 137.28 84.9542 135.249 84.6636C135.115 84.2558 136.421 83.2758 136.735 82.8568C137.525 81.8047 137.774 80.1556 137.979 78.894C137.933 76.6952 137.688 74.0008 135.969 72.4193C135.306 71.8087 134.445 71.4708 133.54 71.5429C132.531 71.6217 131.659 72.1804 131.019 72.9419C129.216 75.0889 129.314 77.9658 129.599 80.5724C128.937 79.3513 128.35 78.119 127.937 76.7921C126.526 72.2525 126.621 66.8817 128.905 62.626C130.222 60.1749 132.031 58.7624 134.676 57.9536Z" fill="#E3E2AA"/>
<path d="M91.0393 47.8156C95.1735 47.5813 99.0706 48.5996 102.209 51.4247C103.683 52.7494 105.146 54.8085 105.162 56.8586C105.166 57.4489 104.984 58.0572 104.546 58.4694C103.77 59.1994 102.826 59.1205 101.841 59.0394C98.4238 58.0549 94.6589 56.2549 91.4178 54.7387C89.8403 54.002 87.8417 52.844 87.2963 51.0845C87.1573 50.6362 87.1679 50.1384 87.3992 49.7193C88.0844 48.4825 89.784 48.1491 91.0393 47.8156Z" fill="#305133"/>
<path d="M129.954 44.627C130.243 44.6315 130.532 44.6382 130.821 44.663C131.77 44.7486 133.044 45.0888 133.657 45.8863C134.034 46.3797 134.095 47.0015 134.003 47.5962C133.518 50.7457 128.722 54.5215 126.262 56.4342C125.33 56.7091 124.551 56.833 123.61 56.4883C123.093 56.299 122.728 55.9318 122.511 55.4294C121.955 54.134 122.482 52.1155 123.027 50.8719C124.319 47.9274 127.027 45.7669 129.954 44.627Z" fill="#305133"/>
<path d="M115.862 88.6719C116.326 88.7169 116.811 88.7575 117.246 88.9332C118.064 89.2644 119.095 90.0056 119.348 90.8932C119.537 91.5533 119.364 91.8191 119.069 92.3756C118.015 91.9768 116.034 91.2108 115.613 90.0979C115.367 89.4491 115.587 89.2396 115.862 88.6719Z" fill="#352F21"/>
<path d="M127.24 87.2559C127.852 87.6366 128.024 87.7042 128.367 88.3643C128.345 89.6349 127.542 90.2905 126.692 91.115C126.355 91.097 126.224 91.0745 125.933 90.8785C125.658 90.6915 125.562 90.4797 125.543 90.1373C125.483 89.0537 126.52 87.934 127.24 87.2559Z" fill="#352F21"/>
<path d="M149.503 172.629L149.768 171.099C150.421 170.651 156.122 170.852 157.25 170.863C161.911 178.068 166.397 185.383 170.705 192.804C172.354 195.595 174.242 198.186 175.66 201.094C168.705 201.292 161.709 200.948 154.803 201.211C147.998 201.47 141.65 202.561 134.712 202.417C126.361 202.241 118.24 201.205 109.916 201.162C100.66 201.234 91.6778 202.536 82.4081 202.351C75.4976 202.214 68.7877 201.624 61.9095 201.196C50.3089 201.065 36.8295 202.921 25.0349 201.392C27.756 195.746 31.566 190.546 34.2575 184.858C36.0962 180.972 38.5983 177.376 40.6699 173.629L43.8929 175.245L45.5932 175.898C47.3066 176.549 54.8386 178.439 55.373 178.773C55.5591 179.291 55.7914 180.01 55.9998 180.503C58.7168 186.009 62.1645 187.816 67.5907 190.017C68.4471 190.285 69.3331 190.58 70.1949 190.817C78.8622 192.695 84.4017 192.745 93.3337 192.506C94.6053 193.687 96.0616 195.007 97.2755 196.232L99.8918 198.136C103.184 199.492 104.81 199.974 108.158 198.154C109.301 197.001 109.641 196.496 110.527 195.126C112.718 197.343 113.879 197.476 116.783 197.58C116.671 197.654 119.615 196.282 119.953 196.104C121.784 194.529 122.231 193.732 123.391 191.58C124.31 189.512 127.623 189.28 129.798 188.76C136.078 187.171 140.946 184.977 145.601 180.408L146.658 179.126C147.951 177.329 148.626 175.578 149.331 173.501L149.503 172.629Z" fill="#8C5A48"/>
<path d="M43.8929 175.246L45.5932 175.899C47.3066 176.551 54.8386 178.441 55.373 178.774C55.5591 179.292 55.7914 180.011 55.9998 180.504C58.7168 186.01 62.1645 187.817 67.5907 190.018C68.447 190.286 69.3331 190.581 70.1949 190.818C78.8622 192.697 84.4017 192.746 93.3337 192.508C94.6053 193.688 96.0616 195.008 97.2754 196.234L99.8918 198.137C97.5124 198.559 92.9827 198.57 90.4276 198.534C71.7406 198.268 52.9551 198.579 34.2947 197.894C33.5528 197.867 33.2187 197.574 32.821 197.029C33.029 195.065 42.3776 177.756 43.8929 175.246Z" fill="#CC9E73"/>
<path d="M55.9998 180.504C58.7169 186.01 62.1645 187.817 67.5907 190.018C68.4471 190.286 69.3332 190.581 70.1949 190.818C78.8622 192.696 84.4017 192.746 93.3338 192.507C94.6053 193.688 96.0616 195.008 97.2755 196.233C88.3557 196.436 75.3134 196.72 66.0869 196.026C65.2587 195.963 58.9622 192.482 57.7467 191.807C53.6874 189.511 49.6107 187.247 45.5173 185.012C48.9076 183.475 52.5598 181.975 55.9998 180.504Z" fill="#8C5A48"/>
<path d="M67.5907 190.018C68.4471 190.286 69.3332 190.581 70.1949 190.817C69.2289 191.721 68.3493 192.041 67.2001 191.101C67.203 190.351 67.1158 190.714 67.5907 190.018Z" fill="#CC9E73"/>
<path d="M45.5933 175.898C47.3066 176.55 54.8387 178.44 55.3731 178.773C52.9386 180.195 43.4652 183.283 42.9801 185.052C43.457 186.534 58.8244 194.685 61.4375 196.156C53.443 196.186 42.9359 196.668 35.2446 196.046C38.6126 189.287 42.0623 182.571 45.5933 175.898Z" fill="#8C5A48"/>
<path d="M43.7209 189.297C44.4368 189.205 44.9215 189.232 45.4969 189.662L45.4863 190.135C44.6759 191.25 43.8698 191.408 42.5939 191.708C41.9036 191.706 41.5022 191.645 40.9457 191.241L40.9326 190.825C41.6702 189.764 42.5315 189.579 43.7209 189.297Z" fill="#CC9E73"/>
<path d="M46.7751 191.738C47.1047 191.837 47.4202 191.986 47.7374 192.121C48.0474 192.606 48.0807 192.592 47.9877 193.153C47.474 193.915 46.8882 194.257 46.1168 194.705C46.065 194.699 46.0127 194.696 45.9612 194.687C45.3161 194.581 45.2211 194.53 44.8232 194.005C44.7603 193.523 44.7896 193.248 45.0309 192.833C45.4707 192.076 45.9492 191.937 46.7751 191.738Z" fill="#CC9E73"/>
<path d="M47.8056 177.648C48.3767 177.689 49.0026 177.698 49.5631 177.811C50.1534 177.93 50.3391 178.047 50.6693 178.541L50.4666 179.21C49.453 179.46 48.6532 179.669 47.7042 179.171C47.4643 178.473 47.5887 178.333 47.8056 177.648Z" fill="#CC9E73"/>
<path d="M149.503 172.63C150.665 172.472 153.301 172.58 154.545 172.653C156.408 174.908 167.02 194.282 167.387 196.625C167.197 197.044 167.158 197.177 166.695 197.355C164.54 198.191 119.458 198.551 115.741 198.135C113.45 197.988 110.727 198.272 108.158 198.155C109.301 197.002 109.641 196.497 110.527 195.127C112.718 197.344 113.879 197.477 116.783 197.581C116.671 197.655 119.614 196.283 119.953 196.105C121.784 194.53 122.231 193.733 123.391 191.581C124.31 189.513 127.623 189.281 129.798 188.761C136.078 187.172 140.946 184.978 145.601 180.409L146.658 179.127C147.951 177.329 148.626 175.579 149.331 173.502L149.503 172.63Z" fill="#CC9E73"/>
<path d="M129.798 188.76C136.078 187.171 140.946 184.977 145.601 180.408C147.847 181.909 151.832 183.181 154.386 184.59C148.222 188.221 141.167 192.121 135.253 196.005C132.193 196.07 122.482 196.44 119.953 196.104C121.784 194.529 122.231 193.732 123.391 191.58C124.31 189.512 127.623 189.28 129.798 188.76Z" fill="#8C5A48"/>
<path d="M123.391 191.58C124.31 189.512 127.623 189.28 129.798 188.76C129.283 190.943 125.308 191.474 123.391 191.58Z" fill="#CC9E73"/>
<path d="M149.331 173.502C149.911 174.462 152.369 174.214 153.528 174.234C156.926 180.337 161.991 189.414 164.931 195.722C156.231 195.787 147.363 196.161 138.711 196.013L138.994 195.81C141.896 193.76 156.328 186.341 156.835 184.068C155.967 182.734 148.688 180.116 146.658 179.127C147.951 177.33 148.626 175.579 149.331 173.502Z" fill="#8C5A48"/>
<path d="M154.609 189.199C154.683 189.204 154.757 189.204 154.83 189.213C156.133 189.357 157.942 189.841 158.78 190.889C158.82 191.569 158.699 191.58 158.28 192.087C157.818 192.099 157.352 192.101 156.896 192.02C155.788 191.824 154.816 191.583 154.133 190.634C154.039 189.868 154.192 189.817 154.609 189.199Z" fill="#CC9E73"/>
<path d="M152.178 191.855C152.608 191.898 153.033 191.977 153.45 192.088C154.168 192.286 154.562 192.583 154.927 193.221C155.002 194.011 154.901 194.176 154.586 194.877C153.699 194.692 152.5 194.331 152.024 193.491C151.675 192.874 151.949 192.437 152.178 191.855Z" fill="#CC9E73"/>
<path d="M151.536 176.312C151.986 176.346 152.242 176.518 152.626 176.736C152.82 177.146 152.906 177.229 152.742 177.685C152.453 178.487 151.689 178.881 150.977 179.241C150.504 179.117 150.143 178.98 149.707 178.743L149.578 178.297C149.935 177.452 150.84 176.885 151.536 176.312Z" fill="#CC9E73"/>
<path d="M24.9748 148.108C24.4334 146.925 24.4352 145.767 24.2023 144.523C22.2652 134.183 26.5196 122.085 36.6324 117.455C40.911 115.482 45.8062 115.324 50.2039 117.014C63.5341 122.188 65.0229 141.926 52.5075 146.947C49.4494 148.166 46.0312 148.112 43.0139 146.794C40.1166 145.519 38.1592 143.818 36.8658 140.676C33.962 133.622 39.3556 123.862 47.7532 127.158C51.4034 128.591 53.1555 137.109 47.6592 137.6C46.713 137.724 46.0903 137.812 45.1765 137.476C43.3397 135.652 46.5188 133.62 45.2594 131.923C44.4709 131.7 43.6267 131.792 42.906 132.184C39.7969 133.901 41.0216 139.91 45.8898 140.718C47.8057 141.034 49.7664 140.543 51.3099 139.364C52.9343 138.103 53.9704 135.776 54.1725 133.743C54.4018 131.184 53.616 128.636 51.9844 126.649C50.3736 124.714 48.0429 123.518 45.5304 123.337C42.5764 123.09 39.646 124.036 37.395 125.964C34.5428 128.424 33.0214 132.029 32.8049 135.751C32.5449 139.608 33.8539 143.404 36.4346 146.278C37.4613 147.414 38.6662 148.371 40.0017 149.117C41.114 149.734 42.1172 150.061 43.2957 150.482C50.349 153.005 53.9062 154.697 61.591 153.136C61.6944 155.522 61.734 158.045 62.3599 160.35C58.729 162.686 56.7661 164.799 55.2395 168.938C54.5036 171.254 54.5559 172.572 54.5634 175.011C39.8769 171.806 29.2563 162.718 24.9748 148.108Z" fill="#406D45"/>
<path d="M24.9747 148.107C25.7865 148.508 27.0679 151.831 27.6823 152.816C32.651 160.762 41.6672 166.624 50.9002 168.122C51.9134 168.284 54.4164 168.622 55.2394 168.937C54.5036 171.253 54.5559 172.571 54.5633 175.011C39.8768 171.805 29.2562 162.717 24.9747 148.107Z" fill="#E3E2AA"/>
<path d="M66.2808 146.318C69.6382 149.704 72.7975 151.642 77.1743 153.433C77.938 155.819 82.4297 166.09 83.8966 167.712C84.2818 168.137 84.6822 168.331 85.2607 168.327C86.1711 168.32 88.8057 167.214 89.4291 166.464C90.7117 164.92 88.3144 162.823 88.3198 161.208C89.8274 159.754 91.441 161.088 93.3594 160.64C95.0171 160.252 95.7461 159.576 96.6041 158.191C97.9268 157.844 99.0384 157.538 100.146 156.702C100.993 156.986 101.917 157.258 102.802 157.384C107.365 158.042 110.807 155.645 112.198 151.356C112.469 150.522 112.614 149.029 113.09 148.335C113.34 147.972 113.839 147.652 114.193 147.391L114.448 147.206C114.968 147.893 115.499 148.688 116.336 149.008C118.461 149.822 122.337 147.213 124.297 146.345C124.678 149.029 124.745 151.363 124.093 154.01C123.932 154.451 123.762 154.891 123.583 155.325C120.098 163.74 111.539 159.644 105.872 163.884C100.424 167.957 99.6825 175.16 91.3257 178.525C87.0771 180.238 82.0981 180.093 77.9157 178.235C72.6048 175.878 68.9569 170.35 66.9502 165.101C64.6089 158.977 63.5329 152.464 66.2808 146.318Z" fill="#C08D5D"/>
<path d="M129.146 144.436C130.301 146.375 129.849 155.873 129.907 158.647C132.649 158.766 135.215 158.403 137.926 159.149C140.848 159.956 143.528 161.629 145.023 164.331C146.467 166.942 146.912 170.132 146.082 173.006C144.309 179.148 137.461 183.241 131.645 184.805C128.799 185.571 125.103 186.003 122.586 187.51C120.288 188.885 119.861 192.796 117.009 194.255C116.314 194.611 115.588 194.668 114.849 194.409C114.337 194.231 113.599 193.852 113.367 193.341C114.566 192.424 116.893 192.811 117.912 191.757C118.53 191.117 119.311 189.802 119.303 188.909C119.299 188.407 119.261 188.339 118.929 188.004L118.319 188.038C117.328 189.094 116.03 190.257 114.569 190.581C113.848 190.741 113.393 190.581 112.794 190.191C112.298 189.572 112.328 188.763 112.252 187.999C113.079 187.833 113.941 187.684 114.725 187.368C115.947 186.877 117.191 186.017 117.671 184.739C117.928 184.052 118.129 183.083 117.826 182.403C117.103 182.279 114.557 184.802 113.558 185.289L113.273 185.424C113.422 181.268 112.016 178.866 109.371 175.786C111.237 173.662 114.981 172.905 117.482 171.616C120.168 170.233 122.58 168.347 125.224 166.881C127.583 165.574 130.331 164.788 132.549 163.267L132.618 162.7C132.345 162.389 132.337 162.317 131.919 162.17C129.678 161.386 126.527 162.997 124.574 163.999C128.47 160.061 129.315 154.945 128.277 149.622C128.069 148.556 127.435 146.686 127.633 145.659C127.757 145.019 128.616 144.735 129.146 144.436Z" fill="#406D45"/>
<path d="M80.4512 117.822C83.706 122.842 85.5332 124.953 89.786 129.129C91.7058 130.749 93.3772 132.191 95.4788 133.59C92.9089 134.475 91.7292 134.554 88.9795 134.252C87.7926 134.27 86.1115 134.07 84.8864 133.957C85.4539 132.473 86.3253 130.776 85.9858 129.276C85.4386 128.661 85.7709 128.855 84.9409 128.699C83.2717 129.404 83.3084 131.035 82.2403 132.139C81.8271 132.565 81.1873 131.871 80.1973 132.648C80.0883 133.112 79.9197 133.912 80.3775 134.376C82.8191 136.852 88.1732 141.243 91.6089 141.635C92.8996 141.718 95.3024 140.585 96.4865 141.085C101.088 143.032 96.3802 143.194 95.6761 144.625C96.2328 146.105 101.531 147.26 101.469 149.115C101.368 152.176 96.8312 149.22 95.4756 150.854C95.5696 152.359 98.114 152.034 99.0213 153.758C97.8964 157.169 92.5651 153.719 91.389 154.956C91.6465 155.812 92.6682 156.353 93.247 157.558L92.99 157.874C89.7054 158.272 87.1057 154.92 85.2989 152.674C83.5817 152.23 81.8962 151.786 80.2034 151.266C59.5252 144.918 65.1513 126.89 80.4512 117.822Z" fill="#406D45"/>
<path d="M88.9795 134.252C89.0464 133.058 89.3832 130.201 89.786 129.129C91.7058 130.749 93.3772 132.191 95.4788 133.59C92.9088 134.475 91.7292 134.554 88.9795 134.252Z" fill="#E3E2AA"/>
<path d="M62.9321 163.982C63.557 164.467 65.1992 169.006 65.7253 170.094C67.4499 173.62 69.8362 176.781 72.754 179.406C77.2378 183.476 82.7458 186.153 88.9141 185.81C95.8095 185.425 100.357 181.974 104.771 177.015L104.975 177.096C105.088 177.141 105.2 177.189 105.313 177.236C106.791 177.824 107.751 178.644 108.661 179.93C109.596 181.251 110.665 183.438 110.311 185.074C110.22 185.491 109.966 185.869 109.595 186.092C107.553 187.311 105.929 185.479 104.061 185.063C103.58 184.957 103.492 184.993 103.105 185.243C103.042 185.795 103.106 186.162 103.357 186.667C104.248 188.458 107.194 188.685 108.939 189.246C109.398 189.818 109.256 190.066 109.217 190.78C108.947 191.289 108.68 191.92 108.127 192.177C105.772 193.265 103.627 190.744 101.613 189.983L101.275 190.172C101.264 190.28 101.251 190.384 101.244 190.492C101.051 193.227 104.614 193.957 106.07 195.514L105.89 195.847C99.9202 197.433 98.9478 191.258 94.4018 189.715C91.3631 188.685 84.4069 189.307 80.8044 189.023C74.0747 188.491 65.4373 187.284 60.8555 181.821C58.6467 179.176 57.6025 175.751 57.9607 172.325C58.3422 168.689 60.1519 166.22 62.9321 163.982Z" fill="#406D45"/>
<path d="M149.713 127.027C150.666 126.969 151.432 126.953 152.288 127.424C153.794 128.251 154.576 129.767 154.981 131.378C155.919 135.102 155.132 139.468 153.157 142.734C151.035 146.244 147.384 149.259 143.34 150.196C139.449 151.097 136.099 150.011 132.813 147.936C132.735 146.24 132.504 144.595 132.186 142.928L135.153 141.414L138.926 139.506C139.006 140.626 139.004 141.414 139.729 142.309C140.098 142.439 140.187 142.554 140.577 142.419C141.618 142.054 142.018 140.612 142.402 139.686C141.635 138.294 140.696 136.12 140.82 134.509C140.873 133.818 141.104 133.381 141.623 132.939C144.247 132.743 144.145 136.203 145.892 136.99L146.309 136.625C147.48 133.408 144.486 132.973 144.3 130.319C144.532 129.857 144.749 129.472 145.271 129.28C147.682 128.397 149.596 132.851 151.327 133.745L151.59 133.462C151.773 130.787 149.97 129.445 149.728 127.214C149.721 127.151 149.718 127.088 149.713 127.027Z" fill="#406D45"/>
<path d="M171.136 109.143C176.499 114.516 176.306 114.527 177.125 122.142C174.62 123.113 172.093 124.07 169.592 125.05C167.276 125.956 160.178 129.11 158.573 126.03C158.973 125.325 159.855 124.859 160.615 124.728C162.696 124.372 163.254 127.319 165.69 125.332C166.886 122.682 164.706 122.914 169.23 121.673C170.101 122.597 171.842 123.561 172.706 122.295C174.541 119.598 171.06 116.753 169.038 120.315C167.632 121.135 165.878 121.096 164.378 121.608C162.413 122.277 160.015 124.165 157.928 124.221C157.364 123.881 157.258 123.628 157.386 122.919L157.006 122.32L156.466 122.076L155.968 120.97C156.668 117.113 159.275 115.613 162.423 113.883C165.32 112.29 168.221 110.704 171.136 109.143Z" fill="#C08D5D"/>
<path d="M158.948 119.313C158.983 117.38 158.955 115.546 161.589 115.862C162.358 115.952 162.626 116.659 162.928 117.277C163.645 117.168 165.654 115.684 166.253 115.125C166.41 113.782 166.079 113.821 166.674 112.775C167.237 112.386 167.737 112.081 168.458 112.178C169.021 112.259 169.53 112.557 169.875 113.01C170.234 113.483 170.219 113.755 170.232 114.328C170.006 114.997 169.756 115.355 169.115 115.727L160.389 120.823L160.041 120.28L159.706 120.059C159.327 119.764 159.277 119.674 158.948 119.313Z" fill="#392F24"/>
<path d="M158.948 119.314C159.277 119.675 159.328 119.765 159.706 120.06L160.041 120.281C158.805 121.02 158.136 121.441 157.006 122.32L156.466 122.076L155.968 120.97C156.563 120.869 158.293 119.697 158.948 119.314Z" fill="#452D1E"/>
<path d="M159.706 120.059L160.041 120.279C158.805 121.018 158.136 121.44 157.006 122.318L156.466 122.075C157.447 121.311 158.54 120.48 159.706 120.059Z" fill="#A46F55"/>
<path d="M160.041 120.279L160.389 120.822C159.671 121.347 158.106 122.55 157.386 122.917L157.006 122.318C158.136 121.44 158.805 121.018 160.041 120.279Z" fill="#452D1E"/>
<path d="M107.689 129.375C108.763 129.269 109.919 129.249 110.986 129.416C114.397 129.956 116.986 131.95 118.966 134.696C116.738 135.679 113.643 136.627 111.912 138.377C111.247 139.051 111.558 140.754 111.577 141.633C111.249 142.068 111.243 142.151 110.647 142.056C109.914 141.942 109.056 141.387 108.403 141.038C105.815 139.662 103.556 139.936 100.832 140.689L100.548 140.709C99.9231 140.045 99.2524 139.504 98.4948 139.004C96.4221 137.639 93.1961 138.601 90.9431 139.067C89.8516 138.468 88.8641 137.706 87.86 136.974C100.444 137.713 98.0633 132.256 107.689 129.375Z" fill="#C08D5D"/>
<path d="M125.513 156.607L125.558 156.643C125.672 157.2 125.519 157.669 125.354 158.202C122.596 167.126 113.552 163.652 108.835 167.286C107.265 168.496 106.136 170.131 105.001 171.731C102.316 175.513 99.6095 179.134 95.401 181.353C91.1448 183.595 86.2086 183.527 81.7135 182.105C81.4567 182.015 81.2501 181.876 81.0178 181.736C82.6589 181.772 84.2492 181.993 85.8977 181.889C94.1423 181.382 99.0177 176.484 103.4 170.023C104.633 168.205 105.862 166.243 107.842 165.155C110.687 163.591 114.257 163.855 117.355 163.017C121.038 162.021 123.646 159.912 125.513 156.607Z" fill="#7A543E"/>
<path d="M125.594 118.688C128.847 121.673 130.985 124.248 133.605 127.78C131.791 128.665 129.962 129.522 128.12 130.346C127.675 128.936 127.507 127.749 126.289 126.96C124.654 127.257 125.596 130.229 125.857 131.346C125.202 131.723 124.606 132.094 123.906 132.385C123.268 132.633 122.182 133.187 121.525 133.493C121.237 133.002 120.72 132.367 120.358 131.896C121.18 130.445 121.971 128.794 122.727 127.296C123.961 124.466 124.826 121.675 125.594 118.688Z" fill="#406D45"/>
<path d="M122.727 127.295C123.095 128.863 123.619 130.832 123.906 132.384C123.268 132.632 122.182 133.186 121.525 133.493C121.237 133.001 120.72 132.366 120.358 131.895C121.18 130.444 121.971 128.793 122.727 127.295Z" fill="#E3E2AA"/>
<path d="M82.0425 116.74C83.169 116.893 84.2963 117.137 85.4158 117.337C87.1918 119.933 89.0471 122.285 91.3356 124.459C92.5524 125.617 97.8631 129.974 98.2666 131.12L97.8491 131.886C97.558 131.997 97.2807 132.188 96.9671 132.1C93.7762 131.195 83.7322 119.969 82.0425 116.74Z" fill="#8C5A48"/>
<path d="M63.3025 139.666C63.9468 140.637 64.1973 142.437 64.5053 143.593C63.3705 145.548 62.6802 147.351 62.1222 149.543C59.5934 150.345 57.3822 150.518 54.7532 150.496C54.4398 150.466 54.163 150.401 53.8579 150.327C54.2389 149.642 55.7659 149.198 56.4803 148.729C59.7541 146.58 61.9579 143.284 63.3025 139.666Z" fill="#F9F9F3"/>
<path d="M79.5946 154.33C80.5807 154.553 81.5767 154.742 82.4977 155.173C83.0321 155.858 82.3833 156.065 82.5597 156.878C83.305 157.367 83.7529 156.894 84.4526 157.275L84.4758 157.772C84.0933 158.153 83.7078 158.532 83.3196 158.906C83.3608 159.498 83.4316 159.489 83.8608 159.917C84.1658 159.852 84.4414 159.775 84.7295 159.658L85.0255 159.536L85.5496 159.955C85.7296 160.616 85.5129 160.823 85.2393 161.433C85.6548 162.431 86.3417 161.751 86.9998 163.209C87.3256 163.855 87.6829 164.367 87.5461 165.108C87.0428 165.813 86.0601 166.031 85.274 166.327C83.3394 162.364 81.2507 158.419 79.5946 154.33Z" fill="#7A543E"/>
<path d="M141.007 129.326L141.178 129.493C140.977 130.126 140.104 130.601 139.532 130.941C136.914 132.498 133.981 133.713 131.228 135.017C125.762 137.61 120.276 140.138 114.922 142.956C114.68 142.537 114.544 142.336 114.565 141.836C116.864 140.176 120.242 139.018 122.847 137.804L141.007 129.326Z" fill="#A46F55"/>
<path d="M154.105 121.219L154.242 121.347L154.235 121.714C152.482 123.053 149.649 123.733 147.607 124.729C136.526 130.133 125.25 135.121 114.138 140.463C113.959 140.219 113.961 140.132 113.927 139.839C114.39 139.312 114.991 139.037 115.614 138.735C117.157 137.987 118.8 137.412 120.365 136.7L135.29 129.856C141.539 126.982 147.73 123.789 154.105 121.219Z" fill="#A46F55"/>
<path d="M123.435 116.742L123.692 117.049C123.798 119.757 122.029 123.983 120.918 126.481C120.501 127.421 119.575 129.834 118.629 130.194L117.773 129.311C117.738 129.149 117.662 128.987 117.667 128.82C117.687 128.097 118.661 126.375 118.955 125.639C119.851 123.39 120.795 119.353 121.819 117.456C122.12 116.898 122.883 116.871 123.435 116.742Z" fill="#8C5A48"/>
<path d="M110.122 149.525L110.414 149.534C110.692 149.89 110.658 149.715 110.61 150.147C110.446 151.612 109.312 153.002 108.208 153.909C106.399 155.394 104.709 155.579 102.482 155.345C102.14 155.142 101.917 154.993 101.675 154.675L101.799 154.105C103.221 152.305 107.919 150.805 110.122 149.525Z" fill="#7A543E"/>
<path d="M137.878 133.385C138.021 133.551 138.044 133.716 138.105 133.923C137.256 135.144 119.136 143.406 115.966 145.149L115.629 144.417C116.368 143.023 134.809 134.86 137.878 133.385Z" fill="#A46F55"/>
<path d="M137.59 136.039L137.951 136.107L138.043 136.463C136.908 137.992 120.503 145.533 117.722 146.787C117.365 146.664 117.333 146.632 117.1 146.332C117.735 145.235 135.087 137.26 137.59 136.039Z" fill="#A46F55"/>
<path d="M103.109 142.189C105.028 142.052 106.43 142.379 108.24 142.98C107.19 143.613 106.112 144.098 104.987 144.58L102.644 145.596L100.491 144.267C101.219 143.061 101.799 142.662 103.109 142.189Z" fill="#7A543E"/>
<path d="M118.057 167.464L118.306 167.443L118.293 167.653C114.924 169.96 110.864 170.532 107.672 173.046L107.571 173.1L107.409 172.997C107.55 172.722 107.682 172.47 107.858 172.213C110.766 167.957 113.466 168.383 118.057 167.464Z" fill="#F9F9F3"/>
<path d="M108.617 144.386C109.022 144.334 109.234 144.422 109.607 144.577L109.699 145.019C108.631 146.319 106.196 147.198 104.663 147.932L104.151 148.038C103.784 147.727 103.794 147.695 103.691 147.222C104.383 145.895 107.269 144.992 108.617 144.386Z" fill="#7A543E"/>
<path d="M110.261 146.643L110.631 146.908V147.42C109.221 149.071 105.567 150.234 103.597 151.144L103.352 151.069C104.307 148.891 108.251 147.663 110.261 146.643Z" fill="#7A543E"/>
<path d="M165.006 106.173C165.452 106.094 165.904 106.268 166.183 106.624C166.462 106.977 166.524 107.459 166.343 107.872C166.161 108.286 165.767 108.568 165.317 108.604C164.663 108.658 164.084 108.187 164.001 107.536C163.918 106.887 164.361 106.286 165.006 106.173Z" fill="#7C6556"/>
<path d="M174.439 127.026C175.057 126.751 175.782 127.03 176.055 127.65C176.329 128.267 176.047 128.992 175.427 129.263C174.81 129.533 174.091 129.254 173.818 128.636C173.546 128.021 173.823 127.301 174.439 127.026Z" fill="#7C6556"/>
<path d="M166.934 130.134C167.483 129.857 168.153 130.042 168.484 130.56C168.814 131.08 168.696 131.765 168.211 132.144C167.853 132.425 167.366 132.477 166.956 132.279C166.545 132.083 166.282 131.668 166.278 131.213C166.273 130.758 166.528 130.339 166.934 130.134Z" fill="#7C6556"/>
<path d="M157.485 109.982C157.877 109.811 158.33 109.869 158.667 110.133C159.004 110.394 159.171 110.822 159.101 111.243C159.031 111.665 158.736 112.014 158.333 112.156C157.74 112.361 157.09 112.061 156.862 111.478C156.634 110.892 156.909 110.232 157.485 109.982Z" fill="#7C6556"/>
<path d="M154.577 122.988C155.012 123.083 154.839 122.966 155.089 123.346C154.491 124.212 152.906 124.516 151.929 124.791L151.652 124.57C152.191 123.901 153.781 123.36 154.577 122.988Z" fill="#C08D5D"/>
<path d="M30.0512 83.5463C30.2701 83.5418 30.4788 83.5283 30.6966 83.5756C31.1551 83.6792 31.4874 84.0464 31.7222 84.4294C33.2632 86.9436 36.2947 95.9033 35.5979 98.618C35.3124 99.7309 34.6613 100.783 33.6351 101.344C32.7369 101.833 31.6715 101.909 30.7131 101.553C29.9457 101.27 29.1117 100.697 28.78 99.9224C28.4448 99.1384 28.6399 98.2598 29.0067 97.5276C29.8971 95.7456 31.0303 95.126 32.8335 94.5718L30.8021 88.9419C29.5032 89.611 23.8754 92.1004 23.3164 93.1728C24.073 95.09 24.8568 97.1311 25.3581 99.1316C25.8213 100.979 25.9981 103.121 24.9174 104.798C24.4449 105.53 23.7382 106.052 22.8787 106.226C21.8421 106.438 20.7111 106.235 19.8401 105.627C19.0874 105.106 18.5765 104.302 18.4232 103.401C18.2999 102.637 18.4666 101.876 18.9347 101.256C19.8212 100.08 21.1946 99.5236 22.5914 99.2803L22.8598 99.2375C21.9771 97.0364 19.4803 91.6363 20.2047 89.4533C20.8537 87.4978 27.8879 84.6344 30.0512 83.5463Z" fill="#392F24"/>
<path d="M173.426 72.5118C173.991 72.5051 174.561 72.5096 175.118 72.611C176.899 72.9354 184.443 75.0035 185.215 76.3394C185.853 77.4411 183.895 84.7449 183.514 86.3557C183.154 87.8786 182.638 89.7553 181.177 90.5798C180.141 91.1633 178.573 91.2331 177.46 90.8524C176.627 90.5663 175.926 89.976 175.586 89.1515C175.263 88.363 175.275 87.4776 175.618 86.6981C175.983 85.8466 176.684 85.218 177.559 84.9206C178.804 84.4993 179.821 84.7967 180.948 85.3397L181.212 85.4681C181.47 83.8775 181.793 82.2915 182.088 80.7078L182.534 78.732C180.068 77.7227 177.394 77.1662 174.81 76.5445C174.355 78.8672 173.456 86.1101 171.609 87.3785C170.567 88.0926 168.919 88.4892 167.677 88.2323C166.824 88.0544 166.102 87.5903 165.643 86.8423C165.211 86.1394 165.12 85.2676 165.345 84.479C165.586 83.6342 166.21 82.9336 166.98 82.5303C168.391 81.7869 169.649 82.0978 171.087 82.4965C171.56 79.4619 171.915 75.177 173.426 72.5118Z" fill="#392F24"/>
<path d="M170.802 40.0156C171.238 40.0382 171.818 40.0246 172.193 40.2747C172.843 40.7073 173.249 41.9486 173.745 42.5816C174.505 43.5526 175.605 44.2735 176.425 45.1972C177.349 46.238 177.476 47.2496 177.416 48.5923C177.362 49.7908 177.102 51.0997 176.193 51.9401C175.629 52.0279 175.596 51.9896 175.085 51.7238C174.605 51.0592 174.775 49.6737 174.764 48.8604C173.879 47.7565 172.934 46.8103 171.889 45.8596C171.385 49.0496 170.98 52.3005 170.239 55.4433C169.945 56.2138 169.477 57.0225 168.824 57.5384C167.762 58.3787 166.002 58.8856 164.663 58.6311C163.654 58.4441 162.775 57.8313 162.249 56.9482C161.714 56.0605 161.593 55.0017 161.857 54.0037C162.121 52.9944 162.805 52.1428 163.735 51.6675C165.252 50.8902 166.744 51.2056 168.277 51.6855C168.759 48.732 169.187 42.4577 170.802 40.0156Z" fill="#392F24"/>
<path d="M29.9391 47.834C30.3572 47.9376 30.683 48.1178 31.0611 48.3183C32.5151 50.186 34.6989 58.08 35.1211 60.6055C35.3998 62.2726 35.2457 63.9645 34.1947 65.35C33.1847 66.6837 31.8944 66.9068 30.3469 67.1253L30.2367 67.1005C29.7291 66.9924 29.1877 66.8955 28.7266 66.6454C28.0441 66.2782 27.4638 65.6406 27.2376 64.8927C26.9359 63.8947 27.2887 62.7908 27.8272 61.9392C28.8998 60.2405 30.2381 59.7088 32.0956 59.3101C31.2861 56.3093 29.9776 53.3422 29.475 50.2693C29.3044 49.2285 29.3089 48.7171 29.9391 47.834Z" fill="#392F24"/>
</svg>
