<svg width="285" height="325" viewBox="0 0 285 325" fill="none" xmlns="http://www.w3.org/2000/svg">
<path d="M111.322 0C116.669 0.437074 134.784 13.9207 139.561 17.6237C140.489 8.49679 141.645 8.85215 148.322 13.7695C156.961 20.1328 161.067 25.8731 166.227 35.2296C167.955 33.7518 169.805 32.3802 171.648 31.051C181.044 24.2755 207.264 8.62303 219.252 10.6739C221.919 11.1301 224.383 12.4665 225.95 14.7078C227.76 17.2953 228.388 20.7008 229.018 23.7398C232.551 40.779 229.986 58.9482 226.115 75.7167C224.837 81.2562 222.517 86.5779 221.54 92.1646C223.646 96.6546 228.098 101.351 230.992 105.42C235.333 111.525 240.387 117.44 244.972 123.254C248.835 128.15 239.249 135.956 235.705 138.403C234.476 139.251 232.426 140.18 230.974 141.042C234.296 144.591 237.488 142.341 236.217 149.155C234.035 160.867 221.222 170.704 212.262 177.228C215.607 180.055 218.537 182.75 221.38 186.101C223.521 188.628 225.467 191.311 227.682 193.762C228.519 193.755 230.155 193.722 230.937 193.811C237.321 194.553 237.76 206.667 238.158 211.592C238.713 218.428 237.274 226.381 236.27 233.159L236.903 233.5C240.162 235.263 239.852 235.568 239.777 239.16C239.576 248.756 231.333 255.16 226.685 262.777C224.365 266.575 225.376 271.494 221.458 274.065C218.021 276.388 214.138 277.759 210.225 279.015C207.193 279.988 203.956 280.273 202.164 283.11C202.776 283.513 203.471 283.898 204.107 284.27C208.043 282.807 214.454 283.185 218.319 284.537C221.649 285.701 224.358 288.18 225.812 291.397C227.301 294.539 227.448 298.152 226.213 301.403C222.021 312.351 206.832 319.701 196.868 324.228C195.926 323.711 194.849 323.243 193.862 322.8C184.853 318.752 176.503 313.015 168.167 307.702L153.814 298.687C150.214 296.387 146.494 293.819 142.861 291.66C139.608 291.791 136.354 291.891 133.099 291.965C130.432 292.096 127.761 292.123 125.091 292.04C122.876 291.985 115.801 291.611 114.083 292.141C111.741 292.862 106.239 296.801 103.78 298.362C92.2838 305.656 81.0382 313.487 69.0732 320.008C66.7823 321.257 62.6906 323.506 60.2559 324.236C58.0977 323.428 56.1406 322.25 54.0592 321.231C45.5398 317.016 37.2597 311.287 31.7809 303.389C27.5628 297.311 30.2093 289.286 36.3305 285.704C40.6231 283.19 46.8559 282.985 51.6076 284.216C57.412 281.242 71.1221 264.297 76.4675 258.925C59.1653 252.857 59.8603 251.795 58.4138 233.348C56.5587 232.017 53.9584 230.939 52.0232 229.521C44.587 224.072 53.9232 217.29 53.5002 211.508C53.3297 209.177 49.9872 205.986 48.8478 203.773C47.5386 201.228 47.0271 198.498 46.6105 195.583C48.9531 193.072 55.9563 189.458 59.1631 187.935C49.6917 183.233 40.671 178.083 32.5149 171.281C26.6839 166.419 21.8928 160.994 18.0269 154.462C17.3382 153.298 16.2011 151.638 16.132 150.265C16.0477 148.586 22.3356 144.687 23.735 143.026L23.9436 142.776C18.9728 140.781 10.036 136.253 8.93449 130.353C7.51845 121.579 17.0799 115.296 21.9423 108.963C25.9328 103.766 28.5559 99.1085 32.0485 93.7278C28.5862 83.8702 25.5114 73.314 23.7719 62.34C21.5814 49.779 19.7462 25.1401 27.2278 14.0169C36.5598 0.142946 72.3768 24.404 80.4332 30.369C81.5436 25.1573 84.0524 11.2815 90.9601 10.2355C94.517 9.6969 100.352 16.2198 103.408 18.5595C103.604 12.634 105.619 3.10605 111.322 0Z" fill="#292728"/>
<path d="M37.927 94.4726C36.8504 90.6383 35.5105 87.0673 34.5186 83.055C30.8822 68.347 28.0196 52.4367 27.7547 37.2773C27.8212 31.1596 28.5089 21.1677 32.7944 16.6478C36.2832 12.968 47.0838 18.1098 51.0443 19.726C63.8332 24.9455 75.7237 30.8286 82.8142 43.3305C83.8531 45.1732 84.7618 47.0865 85.5339 49.0561C86.4306 51.3394 88.1487 57.3837 89.9249 58.8107C97.8208 65.0537 107.823 67.2827 117.379 69.6531C119.353 70.1428 123.502 71.3896 125.266 71.2529C136.679 71.5515 135.624 64.2893 144.111 61.6324L146.565 63.1193C153.442 61.3314 164.757 51.5405 166.04 44.2343C173.208 32.1534 203.475 16.1199 217.362 15.3027C231.825 21.8116 222.451 64.8101 219.742 77.6191C218.66 82.7395 216.652 88.3431 215.565 93.5555C218.366 97.89 221.607 102.883 224.646 107.01C227.696 111.123 230.799 115.196 233.953 119.228C238.719 125.38 242.181 127.013 233.857 132.148C229.445 134.869 222.041 135.304 219.034 139.364C217.609 141.813 230.543 147.766 232.081 148.516C229.915 152.225 226.26 156.331 223.35 159.494C212.097 171.728 199.234 180.674 183.175 185.415C180.363 186.383 176.494 187.94 173.66 188.18C168.323 188.632 162.16 186.441 156.863 187.252C153.988 187.693 151.733 191.052 149.374 192.52C147.803 193.497 145.128 194.236 143.287 194.773L139.576 195.702C138.441 196.04 138.006 196.107 136.85 196.26C135.199 196.534 133.689 196.779 132.01 196.83C129.874 196.893 128.555 196.855 126.465 196.45C125.537 196.668 124.91 196.688 123.972 196.746L122.703 196.888C120.813 197.38 119.233 196.866 117.308 196.572C116.442 196.363 115.543 196.102 114.68 195.869C113.219 194.328 112.011 192.843 110.264 191.649C109.875 192.259 109.139 193.557 108.468 193.793C104.436 195.209 101.734 187.392 97.0811 186.895C93.6205 186.526 92.4095 186.749 89.2863 187.06C82.9139 187.693 77.5647 188.28 71.4714 186.014C70.6726 185.811 69.8774 185.593 69.0867 185.361C53.9332 180.808 40.3074 172.209 29.6747 160.491C26.9317 157.516 24.6274 155.12 22.6637 151.524C25.4497 148.332 30.6137 146.296 33.1246 142.438C33.643 141.642 34.9055 140.619 33.7679 139.634C31.353 137.541 27.9877 137.427 25.0679 136.509C20.838 135.184 15.5988 131.984 13.0054 128.363L12.8237 128.106C14.6062 125.63 18.6869 122.269 20.8795 119.734C27.5835 111.98 33.483 103.716 37.927 94.4726Z" fill="#E99754"/>
<path d="M63.1036 123.145L62.6777 121.294C61.0927 114.308 60.7791 108.275 64.8266 101.943C66.0334 100.068 67.5305 98.3974 69.2617 96.9924C72.9736 93.9632 82.3779 89.1052 87.0531 88.1035C95.7964 92.6326 102.478 94.6367 111.073 98.3967C112.885 99.4977 115.036 100.626 116.24 102.406C119.624 107.411 121.47 117.714 118.536 123.184C123.675 122.889 128.36 122.7 133.495 122.069C131.917 116.888 135.828 102.05 141.277 99.4403C146.521 98.3018 161.84 91.6956 166.665 89.012C173.248 90.0208 184.143 94.3501 188.449 99.7625C194.014 106.755 188.598 114.689 191.676 120.247C192.62 121.953 204.869 122.169 206.4 125.617C205.982 127.286 200.766 129.024 199.127 130.143L199.263 130.352C200.677 132.5 202.654 134.614 204.17 136.74C219.374 158.038 195.303 172.48 183.175 185.414C180.363 186.383 176.494 187.939 173.66 188.18C168.323 188.632 162.16 186.441 156.863 187.251C153.988 187.692 151.733 191.052 149.374 192.519C147.802 193.497 145.127 194.236 143.287 194.773L139.576 195.701C138.44 196.039 138.006 196.106 136.85 196.26C135.199 196.534 133.689 196.779 132.009 196.83C129.873 196.892 128.555 196.854 126.465 196.449C125.537 196.667 124.91 196.687 123.972 196.745L122.702 196.888C120.813 197.38 119.233 196.866 117.308 196.572C116.442 196.362 115.543 196.102 114.679 195.868C113.218 194.327 112.011 192.842 110.264 191.649C109.875 192.259 109.139 193.557 108.468 193.793C104.436 195.209 101.734 187.392 97.0809 186.895C93.6204 186.525 92.4094 186.748 89.2861 187.06C82.9138 187.692 77.5646 188.28 71.4712 186.013C70.8472 185.29 69.9291 184.615 69.2333 183.907C63.6761 178.251 58.1115 172.661 52.8865 166.691C46.997 159.962 43.9515 153.401 47.7281 144.74C50.2191 139.029 53.1011 136.445 57.0917 131.918C54.713 130.734 50.4983 129.56 49.5115 126.898C49.5442 126.483 49.4992 126.089 49.8427 125.793C52.3075 123.666 60.1989 123.354 63.1036 123.145Z" fill="#FCFDFD"/>
<path d="M133.495 122.07C135.069 122.675 137.362 123.36 138.374 124.639C138.473 125.194 138.565 125.462 138.121 125.969C137.441 127.173 137.122 128.924 136.764 130.307C136.985 130.413 137.203 130.525 137.417 130.643C139.812 131.968 140.464 132.943 141.213 135.477C141.098 135.895 140.956 136.304 140.789 136.704C137.994 143.293 129.047 149.421 121.997 145.945C117.744 143.848 111.968 137.546 114.027 132.379C114.487 131.223 115.985 130.776 117.038 130.414C117.064 129.07 117.184 127.069 116.908 125.811C116.634 125.288 116.727 125.574 116.765 124.884C117.294 123.995 117.705 123.791 118.537 123.186C123.676 122.89 128.361 122.702 133.495 122.07Z" fill="#B45D47"/>
<path d="M133.495 122.07C135.069 122.675 137.362 123.36 138.374 124.639C138.472 125.194 138.565 125.462 138.121 125.969C137.44 127.173 137.122 128.924 136.764 130.307C131.332 128.593 122.581 128.897 117.038 130.414C117.063 129.07 117.183 127.069 116.907 125.811C116.634 125.288 116.727 125.574 116.765 124.884C117.294 123.995 117.705 123.791 118.537 123.186C123.675 122.89 128.361 122.702 133.495 122.07Z" fill="#B45D47"/>
<path d="M116.907 125.811C122.906 126.763 132.099 126.617 138.121 125.968C137.44 127.172 137.121 128.924 136.763 130.307C131.332 128.592 122.581 128.896 117.038 130.414C117.063 129.07 117.183 127.068 116.907 125.811Z" fill="#E99754"/>
<path d="M134.999 188.189C136.331 188.124 137.15 186.583 140.333 186.608C141.214 188.202 143.044 194.514 143.287 194.773L139.576 195.701C138.44 196.039 138.006 196.106 136.85 196.26C135.895 194.561 135.267 190.221 134.999 188.189Z" fill="#E99754"/>
<path d="M140.334 186.609C141.215 188.204 143.045 194.516 143.288 194.774L139.576 195.703C139.646 193.937 139.773 188.054 140.334 186.609Z" fill="#B45D47"/>
<path d="M132.01 196.83C132.77 194.757 132.512 189.161 134.545 188.021L134.999 188.188C135.268 190.221 135.895 194.561 136.85 196.26C135.2 196.534 133.689 196.779 132.01 196.83Z" fill="#B45D47"/>
<path d="M117.309 196.572C117.902 194.651 117.143 189.986 119.349 188.539C121.253 189.196 120.18 195.729 120.842 196.837C121.518 196.882 122.026 196.898 122.703 196.889C120.813 197.381 119.233 196.866 117.309 196.572Z" fill="#B45D47"/>
<path d="M123.972 196.747C123.924 194.941 123.717 189.018 125.098 187.932L125.486 188.121C126.78 190.39 126.481 193.899 126.465 196.45C125.537 196.669 124.91 196.689 123.972 196.747Z" fill="#B45D47"/>
<path d="M164.899 140.729C165.299 141.16 163.502 148.141 163.264 149.209C160.74 160.519 157.424 171.299 147.401 178.322C139.849 183.612 131.178 185.471 122.07 183.875C112.373 182.121 103.774 176.579 98.1724 168.469C92.8624 160.581 90.9379 152.194 92.2457 142.806C98.5432 147.307 97.4233 153.424 107.744 153.269C121.324 153.065 134.948 152.773 148.5 151.826C156.393 151.275 159.71 145.71 164.899 140.729Z" fill="#292728"/>
<path d="M126.481 164.443C131.674 164.081 142.521 164.611 145.999 168.015C153.803 175.65 133.969 178.493 130.262 178.758C128.33 178.821 126.341 178.796 124.05 178.576C119.785 178.162 110.299 176.732 108.836 171.976C108.131 169.683 112.751 167.523 114.683 166.798C118.454 165.383 122.365 164.737 126.481 164.443Z" fill="#B56352"/>
<path d="M152.291 154.951C155.639 155.388 152.965 160.435 150.321 161.278C149.339 160.244 148.71 159.53 147.831 158.41C149.066 156.421 150.28 155.884 152.291 154.951Z" fill="#FCFDFD"/>
<path d="M160.417 112.998C161.513 112.836 164.239 113.01 165.139 113.281C168.765 114.026 168.311 117.28 169.308 119.045C170.258 120.727 174.72 119.102 176.783 121.809C176.975 122.705 177.026 122.286 176.621 123.109C175.521 124.001 174.442 124.106 173.076 124.21C165.488 124.787 164.671 119.157 160.965 119.143L160.694 119.144C154.721 120.435 153.366 124.885 147.986 126.783C147.416 126.984 147.119 126.789 146.71 126.539C146.597 126.304 146.486 126.092 146.461 125.821C145.915 119.955 151.676 115.545 156.574 113.721C157.663 113.316 159.202 113.144 160.417 112.998Z" fill="#292728"/>
<path d="M89.6011 112.745C90.1736 112.694 90.7484 112.671 91.3234 112.677C97.377 112.765 107.842 118.115 107.908 125.342C107.918 126.499 107.117 127.787 105.796 127.508C103.047 126.928 101.136 124.063 99.49 121.973C98.4375 120.785 96.9538 119.627 95.3365 119.33C90.5419 118.449 89.644 125.237 83.8387 123.527C83.1898 123.336 81.8755 123.139 81.4893 122.573C81.6954 121.49 84.7552 119.769 85.812 118.763C85.4337 118.05 84.5664 116.751 84.4055 116.059C83.8076 113.492 88.0426 113.019 89.6011 112.745Z" fill="#292728"/>
<path d="M180.174 142.133C184.226 143.891 182.972 150.055 180.499 152.74C179.221 152.452 178.653 151.865 177.736 151.005C178.304 147.87 179.181 145.143 180.174 142.133Z" fill="#292728"/>
<path d="M185.506 142.578C186.75 143.023 187.812 143.874 188.513 144.995C189.976 147.348 189.203 150.389 188.578 152.847C187.429 153.78 186.423 152.168 185.702 151.302C185.553 148.602 185.127 145.205 185.506 142.578Z" fill="#292728"/>
<path d="M69.5737 144.258C70.0361 144.297 70.1035 144.338 70.5563 144.46C71.9031 145.885 71.2747 148.193 70.5806 149.816C69.801 151.638 69.167 151.858 67.4333 152.506C66.4687 152.416 66.783 152.576 66.0933 152.007C65.0731 149.713 68.0283 145.845 69.5737 144.258Z" fill="#292728"/>
<path d="M75.4422 144.93C80.3027 144.923 76.9893 150.662 74.7652 152.358C74.0905 152.518 73.9411 152.606 73.277 152.381C71.7693 150.537 74.1898 146.525 75.4422 144.93Z" fill="#292728"/>
<path d="M141.277 99.4411C139.82 99.2307 139.135 99.1342 137.845 98.2824C136.391 97.32 135.396 95.8024 135.094 94.0853C133.708 86.2073 150.792 77.8098 157.369 76.829C167.264 75.3534 174.7 78.9596 166.665 89.0127C161.84 91.6964 146.521 98.3026 141.277 99.4411Z" fill="#B45D47"/>
<path d="M87.0534 88.1038C80.6278 79.9866 88.7361 74.829 96.8163 76.6485C104.57 78.3944 111.447 81.3408 116.364 87.9951C120.199 93.3032 116.901 97.7027 111.073 98.3969C102.479 94.6369 95.7967 92.6328 87.0534 88.1038Z" fill="#B45D47"/>
<path d="M44.4215 83.4028C43.6519 81.2472 42.8723 79.5994 42.235 77.302C38.2956 63.107 36.3691 48.7958 37.122 34.049C37.2471 31.6009 37.185 26.4311 37.7872 24.3098C49.2424 23.9919 67.895 47.7219 72.6979 57.0763C67.6748 56.8628 62.8984 55.7184 57.5379 55.589C58.5751 57.2471 62.5182 62.2121 62.6516 63.4056C61.2124 65.5266 58.4624 68.1386 56.6909 70.0436C54.8073 72.0689 46.5784 82.9641 44.777 83.6321L44.4215 83.4028Z" fill="#B45D47"/>
<path d="M37.7871 24.3098C49.2424 23.9919 67.895 47.7219 72.6979 57.0763C67.6748 56.8628 62.8984 55.7184 57.5379 55.589C58.575 57.2471 62.5182 62.2121 62.6515 63.4056C61.2123 65.5266 58.4624 68.1386 56.6908 70.0436C54.8073 72.0689 46.5784 82.9641 44.777 83.6321L44.4214 83.4028C44.4767 77.1702 50.3873 70.6121 54.7545 66.3771C61.9501 59.3993 51.1778 58.9355 54.6067 53.9088C55.9956 51.8726 62.8098 52.2529 65.4671 52.2616C59.307 43.1036 54.9353 37.6222 46.1153 30.5428C44.5739 29.3055 38.5306 25.1811 37.7871 24.3098Z" fill="#292728"/>
<path d="M214.448 24.3716C215.305 24.2669 215.247 24.1367 215.908 24.4401C216.269 25.3359 216.059 30.0181 216.019 31.1615C215.737 39.4786 214.178 78.6841 208.344 82.9856L208.234 82.9974C205.89 80.6573 192.667 65.3984 191.483 63.0013C192.921 60.5042 194.098 59.5265 195.414 56.6463C191.311 55.9331 185.755 56.0845 181.63 56.2052C183.095 52.7068 185.888 48.501 188.239 45.493C194.49 37.4949 203.876 25.8709 214.448 24.3716Z" fill="#B45D47"/>
<path d="M214.448 24.3711L215.481 24.5802L215.487 24.8703C206.342 31.0742 200.654 34.6358 193.916 43.7816C191.823 46.6231 189.773 49.0312 187.845 52.1733C190.873 51.968 199.107 50.7848 199.299 55.5405C199.392 57.8733 197.271 60.4603 195.853 62.1476C200.459 67.0748 209.909 75.5106 208.234 82.9969C205.89 80.6568 192.667 65.398 191.483 63.0008C192.921 60.5038 194.098 59.5261 195.414 56.6458C191.311 55.9326 185.755 56.084 181.63 56.2047C183.095 52.7063 185.888 48.5006 188.239 45.4925C194.49 37.4945 203.876 25.8705 214.448 24.3711Z" fill="#292728"/>
<path d="M105.429 231.928C112.446 237.294 120.728 247.028 130.3 245.777C137.955 244.775 145.947 236.214 151.358 230.734C153.324 236.526 157.123 245.483 161.452 249.694C165.108 252.693 173.125 256.369 177.59 257.767C177.659 259.617 177.95 262.12 178.084 264.05C184.773 272.799 194.439 281.843 201.808 290.604C205.944 290.618 210.614 288.868 214.606 289.841C222.954 291.878 221.732 298.451 217.197 303.681C211.538 310.205 204.417 314.175 197.048 318.292C191.058 314.91 185.942 311.739 180.101 308.27C173.69 304.527 167.38 300.611 161.179 296.527C157.08 293.842 152.97 291.397 149.552 287.859C150.367 287.095 151.329 286.289 152.177 285.546C147.572 285.209 143.866 285.684 139.275 285.98C133.657 286.341 127.778 286.741 122.168 286.563C119.756 286.494 117.351 286.294 114.962 285.964C112.784 285.644 103.586 283.486 102.483 285.129C102.811 286.245 105.435 287.741 106.601 288.687C104.528 291.101 99.2969 294.646 96.5763 296.496C84.8372 304.594 72.526 311.828 59.7395 318.143C52.8696 314.235 35.845 304.923 36.095 296.189C36.1331 294.496 36.8897 292.898 38.1764 291.796C42.7812 287.859 50.6807 290.052 55.8117 290.313C62.1228 282.306 68.6084 274.88 75.5337 267.401C78.0468 264.687 80.5786 260.457 83.2433 258.099C87.9796 253.908 93.1066 252.134 97.7506 247.543C101.182 242.045 103.054 237.968 105.429 231.928Z" fill="#E99754"/>
<path d="M105.429 231.928C112.446 237.294 120.728 247.028 130.3 245.777C137.955 244.775 145.947 236.214 151.358 230.734C153.324 236.526 157.123 245.483 161.452 249.694C160.237 257.992 156.022 265.556 149.604 270.955C137.22 281.551 115.831 281.329 104.925 268.577C99.9937 262.81 97.1099 255.178 97.7506 247.543C101.182 242.045 103.054 237.968 105.429 231.928Z" fill="#FCFDFD"/>
<path d="M91.6257 15.7093C95.1748 19.5982 99.0305 23.6181 104.072 25.5026C105.372 25.9887 106.848 26.772 108.224 26.4151C110.229 24.384 109.47 15.4446 110.008 12.5231C110.447 10.1469 110.367 10.0607 111.524 7.80078C119.031 10.2703 123.152 12.8898 129.901 16.8402C137.152 21.0847 140.155 23.549 145.87 29.7754C147.438 25.5077 147.326 22.6083 146.622 18.2311C152.987 23.3124 158.043 29.8453 161.365 37.2829C162.196 39.1635 162.818 41.9471 163.958 43.6484C164.271 44.1156 165.424 44.1652 166.04 44.2354C164.757 51.5416 153.442 61.3325 146.565 63.1204L144.111 61.6335C135.624 64.2905 136.679 71.5526 125.266 71.254C126.18 70.8089 126.627 70.605 126.786 69.5921C125.484 66.7023 119.828 63.9529 117.641 61.5885C114.031 57.6849 110.726 53.5377 107.128 49.6029C109.827 54.9142 112.011 59.1438 115.099 64.2635C105.048 62.1979 90.1168 54.9636 86.7293 44.5932C83.5673 34.9132 87.3056 24.453 91.6257 15.7093Z" fill="#B45D47"/>
<path d="M210.889 183.467C213.954 185.883 216.298 189.058 218.275 192.393C219.942 194.918 224.813 204.764 226.736 205.238C228.453 204.777 229.495 203.032 230.732 201.664C235.915 211.956 231.051 225.816 229.697 236.51C229.219 240.282 229.319 240.342 233.186 240.48C232.778 248.273 227.883 252.668 222.643 257.881C219.746 260.762 216.169 263.434 214.292 267.108C214.985 268.101 215.501 268.829 216.287 269.751C211.156 274.101 201.301 276.735 194.836 274.46C191.793 270.893 185.796 265.38 183.705 261.641C181.708 258.07 194.896 252.677 196.851 246.959C200.504 236.265 197.365 234.065 194.313 225.377L194.208 225.079C195.263 223.06 198.899 218.878 200.495 216.567C208.09 205.548 210.512 196.648 210.889 183.467Z" fill="#E99754"/>
<path d="M194.835 274.459C197.585 270.249 202.529 267.383 205.955 263.667C209.657 259.655 212.556 255.175 215.202 250.412C222.179 237.855 224.75 227.501 221.502 213.16C220.837 210.23 216.781 195.703 217.124 193.773C217.244 193.092 217.745 192.773 218.274 192.393C219.942 194.918 224.813 204.763 226.736 205.238C228.452 204.777 229.494 203.031 230.732 201.664C235.914 211.955 231.05 225.816 229.697 236.51C229.218 240.281 229.318 240.342 233.185 240.48C232.778 248.273 227.882 252.668 222.642 257.88C219.746 260.761 216.169 263.433 214.292 267.107C214.984 268.1 215.501 268.828 216.287 269.75C211.155 274.101 201.3 276.735 194.835 274.459Z" fill="#FCFDFD"/>
<path d="M167.058 189.238C168.122 190.245 169.374 202.903 172.175 202.551C173.531 200.819 172.893 196.06 174.435 195.221C176.267 196.187 177.329 202.451 179.221 202.696C180.661 200.756 178.62 194.562 180.632 192.983C181.55 193.197 181.712 193.504 182.286 194.248C183.972 196.426 184.978 199.754 185.704 201.892C190.799 216.912 175.014 222.265 174.092 228.15C174.266 228.72 174.373 228.835 174.985 229.216C178.184 231.761 181.559 226.382 183.718 226.299C190.163 226.059 194.343 235.909 192.956 241.387C192.313 243.936 192.07 244.568 190.859 246.459C186.015 252.631 177.144 252.477 170.713 249.019C168.387 247.772 166.266 246.174 164.424 244.283C161.172 240.899 156.45 233.015 156.56 228.116C156.625 225.253 157.906 221.96 157.253 219.604C156.075 215.358 152.05 211.88 150.804 207.668C149.644 203.747 151.265 199.256 153.21 195.865C154.004 194.482 154.83 192.812 156.4 192.371C161.054 192.752 161.631 205.588 162.497 206.34C163.441 205.655 166.558 191.492 167.058 189.238Z" fill="#E99754"/>
<path d="M85.8393 192.23C90.3354 193.094 88.2736 200.106 90.7869 202.559C92.231 203.969 93.5965 200.371 93.7811 199.445C94.2882 196.902 94.804 194.624 96.0259 192.337C98.9461 193.595 102.675 196.187 104.257 198.785C109.091 206.725 100.914 213.084 99.1078 219.646C99.3166 223.939 101.346 224.85 100.323 229.512C97.0526 244.421 85.2411 254.209 69.5787 250.562C64.7582 248.587 62.2182 241.099 63.5897 236.238C64.738 232.171 68.3216 227.488 71.8727 225.161C74.5236 226.664 80.8982 232.527 83.842 228.759C84.2318 225.575 80.2339 223.852 78.05 222.616C69.1786 217.595 69.8879 206.939 73.9729 199.391C74.9622 200.589 75.2257 201.415 76.8314 201.117C78.3003 200.119 79.2597 196.844 80.3821 194.844C80.5435 196.212 80.8714 200.683 81.566 201.446C85.8268 206.131 85.7309 193.339 85.8393 192.23Z" fill="#E99754"/>
<path d="M109.669 200.172C113.17 200.887 115.727 201.568 119.352 202.027C128.545 203.191 136.599 201.49 145.618 200.455C143.98 210.312 145.654 214.455 152.027 222.046C149.296 225.762 144.587 230.164 141.014 233.067C138.122 235.401 131.176 239.912 127.837 241.475C119.661 238.611 109.969 228.353 104.922 221.447C110.279 214.286 110.421 208.613 109.669 200.172Z" fill="#B56352"/>
<path d="M117.957 209.268C120.343 209.811 121.755 211.548 123.36 213.262C124.629 211.775 125.521 210.733 127.443 210.042C130.388 208.983 136.297 209.185 137.305 212.861C137.91 215.066 136.918 217.17 135.864 219.044C135.016 219.265 132.174 217.176 130.777 216.548C130.057 217.468 129.231 218.788 128.293 219.327C126.409 219.452 126.034 217.615 124.781 216.96C121.307 215.148 117.199 221.391 116.842 214.008C116.756 212.229 116.701 210.762 117.957 209.268Z" fill="#F1C0B3"/>
<path d="M126.441 220.68C133.327 220.165 133.871 225.09 134.098 230.278C129.802 226.8 128.542 227.315 123.59 228.758C121.028 228.96 118.328 228.306 117.329 225.792C115.625 221.508 120.133 218.299 121.881 224.231L121.954 224.487C123.618 222.468 124.115 221.844 126.441 220.68Z" fill="#F1C0B3"/>
<path d="M136.917 221.441C139.4 223.205 137.39 226.58 136.19 228.58L136.022 228.74L135.79 228.696C134.984 226.647 135.72 223.256 136.917 221.441Z" fill="#F1C0B3"/>
<path d="M203.713 182.381C204.326 182.314 204.301 182.271 204.831 182.565C206.296 184.854 205.098 191.282 204.31 193.749C201.541 202.424 197.186 214.724 189.836 220.323C189.851 219.317 189.985 218.36 190.101 217.36C191.372 207.142 190.339 199.928 185.829 190.625C191.227 188.544 198.155 184.861 203.713 182.381Z" fill="#FCFDFD"/>
<path d="M61.9263 191.549C64.9894 191.402 66.0562 191.346 68.7957 192.734C68.5657 196.122 66.1987 211.205 63.0202 212.163C62.1741 212.073 61.8495 211.69 61.1779 211.149C58.1948 208.431 54.1299 204.728 53.1858 200.687C51.8759 195.078 57.4448 192.513 61.9263 191.549Z" fill="#B56352"/>
<path d="M60.1576 215.371C64.2361 215.805 65.3901 216.727 67.3598 220.274C66.5557 223.059 65.3641 225.322 62.8098 226.838C54.2438 228.824 54.8131 218.513 60.1576 215.371Z" fill="#B56352"/>
<path d="M240.888 61.0721C241.582 61.054 242.277 61.1017 242.962 61.2141C248.951 62.2455 254.345 71.2853 257.773 76.0377C260.193 73.3607 267.134 63.7457 270.413 63.7892L270.611 64.0891C270.887 69.0211 263.855 76.5015 260.665 80.1154C263.002 83.9578 267.08 93.0101 268.877 97.3259C271.6 96.2402 283.033 91.7287 284.729 94.6591C284.593 98.4705 273.536 101.268 270.313 102.39C271.953 107.737 273.311 113.167 274.378 118.658C274.997 121.969 276.702 133.28 274.852 135.986L274.478 136.038C273.314 135.166 272.61 132.355 272.14 130.895C269.505 122.345 267.779 112.657 265.349 103.875C263.447 104.566 252.435 109.343 251.778 109.245C251.13 109.148 250.433 108.778 250.062 108.227C249.777 107.805 249.723 107.324 249.89 106.846C250.885 104.019 261.197 100.52 263.959 99.4088C262.455 94.7618 259.113 89.0943 256.58 84.9891C255.807 85.8221 255.073 86.7982 254.414 87.7247C250.547 93.1713 246.513 97.7814 241.193 101.883C245.131 92.5601 248.639 88.2687 254.547 80.4592C253.41 78.3787 252.107 76.3922 250.656 74.5185C248.376 71.5808 241.157 64.0793 240.888 61.0721Z" fill="#292728"/>
<path d="M10.575 279.518C11.4236 279.658 12.9583 280.21 13.2914 280.88C17.1905 288.733 18.3178 312.068 17.1753 320.068C15.9325 319.671 14.061 318.796 13.4862 317.663C9.58285 309.977 8.75361 287.063 10.575 279.518Z" fill="#292728"/>
<path d="M243.056 279.307C243.849 279.616 245.623 280.353 245.897 281.032C249.144 289.146 245.278 311.612 243.374 319.394C243.109 319.474 242.88 319.509 242.602 319.496C241.861 319.463 240.796 319.271 240.298 318.654C237.404 315.07 242.197 285.307 243.056 279.307Z" fill="#292728"/>
<path d="M0.999742 287.967C2.32652 288.503 2.8225 288.831 3.72231 289.984C5.77436 292.609 6.30686 302.869 5.64436 306.029L5.21026 306.26C-1.05476 302.76 -0.546979 294.025 0.999742 287.967Z" fill="#292728"/>
<path d="M253.348 289.113C254.265 289.327 254.988 289.654 255.349 290.645C256.903 294.907 256.571 300.382 255.525 304.728C255.387 305.303 255.035 305.312 254.565 305.503C252.991 305.467 251.95 305.283 251.446 303.595C250.271 299.632 251.633 292.727 253.348 289.113Z" fill="#292728"/>
</svg>
