<svg width="247" height="298" viewBox="0 0 247 298" fill="none" xmlns="http://www.w3.org/2000/svg">
<path d="M160.258 16C160.587 16.0131 161.032 16.0251 161.335 16.1364C163.227 16.8304 163.375 19.7769 163.645 21.4194C164.17 24.6094 164.639 27.4132 166.22 30.272C168.262 33.965 171.395 36.2672 174.533 38.9286C177.577 41.6294 180.211 44.8888 181.989 48.563C183.344 51.3629 184.22 54.7357 184.524 57.8273C184.901 61.6676 184.321 65.5762 183.258 69.2673C182.637 71.4245 181.703 73.4536 180.955 75.5675C181.404 76.5525 181.826 77.5496 182.22 78.5575C183.297 77.5752 184.251 76.4638 185.309 75.4599C187.536 73.3439 195.686 66.7467 198.614 66.93C199.126 66.962 199.609 67.2474 199.929 67.6455C200.333 68.1495 200.431 68.8991 200.289 69.5149C200.022 70.6818 199.235 71.8213 198.796 72.945C197.743 75.686 196.992 78.533 196.555 81.4361C195.566 88.0444 196.781 94.8138 200.783 100.216C201.88 101.696 202.826 102.5 203.96 103.873C204.134 104.083 204.623 104.993 204.545 105.148C203.96 106.32 201.743 107.809 200.893 108.65C198.945 110.577 197.402 112.323 196.024 114.637C193.209 119.339 192.098 124.867 192.876 130.291C193.618 135.589 194.064 136.595 187.934 134.665C186.989 134.367 185.966 134.072 184.999 133.843C184.317 135.327 183.521 136.755 182.618 138.115C177.662 145.45 168.29 151.508 160.01 154.275C157.294 155.182 154.756 155.741 151.952 156.293C155.178 161.488 160.922 167.367 167.151 168.342C167.806 168.445 168.638 168.483 169.304 168.527C169.842 163.655 170.436 161.976 174.826 159.736C170.675 150.367 181.461 150.73 187.474 151.594C191.947 152.237 193.51 155.659 191.231 159.554C192.171 160.254 193.254 160.76 194.259 161.471C196.312 162.921 196.905 166.827 197.215 169.291C200.361 172.535 199.43 177.258 196.933 180.58C201.35 183.371 206.709 186.493 211.267 189.045C214.22 190.662 217.155 192.313 220.071 193.998C225.452 197.079 230.765 199.252 230.602 206.476C230.497 211.041 228.674 214.411 225.448 217.555C227.282 218.927 229.629 219.881 231.099 221.771C231.43 222.2 231.705 222.669 231.916 223.167C232.625 224.864 233.352 227.361 234.011 229.14C235.07 231.997 237.254 235.919 236.839 238.955C236.055 244.673 229.577 246.399 225.338 248.91C222.764 250.415 220.681 251.869 218.285 253.663C222.363 254.828 226.607 255.938 230.63 257.217C233.455 258.116 235.942 259.062 237.237 261.861C238.426 264.433 238.522 267.063 237.55 269.735C236.68 272.19 234.856 274.19 232.493 275.28C227.767 277.464 224.171 274.643 219.805 272.834L205.224 266.835C202.409 265.669 199.488 264.445 196.673 263.303C194.824 262.552 193.916 263.582 191.343 262.648C183.881 265.222 176.329 267.534 168.704 269.576C162.465 271.283 155.444 273.188 149.012 273.765C145.674 274.036 142.325 274.128 138.978 274.041C135.874 273.985 132.728 273.812 129.639 274.2C124.258 274.879 119.115 277.543 113.593 277.017C111.146 276.783 108.881 275.836 106.619 274.938C102.81 273.424 98.8613 271.685 94.7503 271.248C90.1853 270.762 85.5295 271.188 80.9523 271.279C78.6747 271.324 76.3207 271.377 74.0721 270.969C70.0331 270.232 66.1634 268.084 62.2565 266.807C55.4052 264.565 37.4258 261.042 33.4462 255.008C32.7104 253.893 32.5883 252.693 32.8926 251.409C33.4189 249.189 34.5864 247.035 35.4159 244.91C38.3654 237.354 38.0603 236.315 45.1796 231.881C43.3026 230.668 41.8629 229.631 40.1392 228.211C39.854 227.994 39.4647 227.629 39.2002 227.376C31.3316 219.81 27.2643 209.083 26.0472 198.403C25.6441 194.866 25.9368 192.332 25.8279 188.954C17.8537 182.938 10.1927 178.047 9.0795 166.887C8.87551 164.843 8.98763 163.229 10.3383 161.354C12.0106 159.032 15.2781 161.342 17.188 160.217C18.7885 155.14 13.7295 147.518 17.0829 142.869C19.8007 139.101 27.2751 142.455 30.3798 144.132C31.5335 144.728 35.8003 147.765 36.5912 147.683C38.0552 146.562 37.7122 138.787 43.4415 143.446C48.3908 147.47 49.1935 153.544 49.8933 159.451C51.0754 158.631 52.3764 157.637 53.8823 158.245C56.5111 159.305 56.9343 162.867 57.0088 165.323C57.1954 171.473 54.3021 177.311 50.115 181.677C48.9428 182.9 47.6781 184.04 46.5894 185.338C45.655 186.444 45.2103 187.477 44.6612 188.807C46.9002 187.735 48.9245 187.008 51.1734 188.69C53.9285 190.749 54.5281 195.037 54.9752 198.213C55.2428 197.664 55.5189 197.117 55.8033 196.576C58.1312 192.221 61.1588 192.532 64.931 194.689C60.6671 185.863 64.5338 183.857 71.3933 179.176C70.8369 178.007 70.1607 176.903 69.5729 175.752C64.365 165.553 73.8927 162.122 80.9166 158.009C79.7625 154.315 78.0067 149.232 80.5683 145.78C82.8021 142.771 88.3824 140.721 91.8926 140.12C88.7454 137.532 87.6076 136.545 84.9848 133.442C78.2803 134.614 71.692 136.947 65.2488 139.035C64.4565 139.463 62.9937 138.499 63.0659 137.629C63.535 131.998 63.4741 127.503 60.9732 122.08C59.1955 118.309 56.7219 114.908 53.6822 112.055C52.4274 110.864 46.7771 107.516 46.518 106.454C46.3899 105.929 46.5747 105.279 46.8695 104.842C47.5524 103.829 48.8356 103.077 49.7158 102.236C50.9088 101.097 51.9414 99.6437 52.8633 98.274C58.0155 90.6191 58.4326 80.7404 54.8218 72.3578C54.1377 70.7698 52.02 67.7305 51.7945 66.2863C51.7174 65.7933 51.8045 65.2231 52.1069 64.8168C52.3777 64.4528 52.8231 64.2912 53.2577 64.2273C54.6336 64.0252 56.2916 64.5298 57.6283 64.8172C66.1263 66.6442 73.4458 71.0326 80.233 76.3166C81.9682 73.2672 83.1157 71.2816 85.1421 68.3819C83.7907 65.9894 82.5458 64.042 80.5828 62.0451C78.7701 60.201 76.7345 58.7622 74.6717 57.1771C68.8173 52.6786 65.2287 47.51 63.8671 40.0217C62.6588 33.3765 63.7834 24.8119 67.41 18.9819C68.0997 17.9402 69.4151 16.7926 70.6714 16.665C73.5451 16.3861 74.8451 19.7296 75.7087 21.8833C77.1608 25.5047 78.6206 29.1596 81.3107 32.0691C85.6864 36.8016 92.6742 37.7283 98.4109 40.0792C101.238 41.2378 103.491 42.57 105.928 44.3948C106.277 44.1683 106.633 43.952 106.994 43.7463C109.227 42.5044 111.028 42.847 113.364 43.5254C113.536 42.3039 113.54 40.9662 113.657 39.7135C113.965 36.4051 116.2 33.7036 119.844 34.3407C124.994 35.2413 128.985 38.6584 132.099 42.7113C133.38 39.717 133.472 34.9326 135.527 32.7277C139.753 28.1972 146.385 36.602 148.203 39.6269C150.474 43.4057 151.757 46.678 152.887 50.7103C154.316 51.2614 155.739 51.9275 157.139 52.5576C156.896 47.6818 152.37 43.9238 151.428 38.6956C150.224 32.0192 151.614 25.799 155.098 20.0064C156.336 17.9464 157.927 16.518 160.258 16Z" fill="#1D2E4F"/>
<path d="M113.197 53.2147C119.562 52.0863 124.423 51.9226 129.891 55.8689C134.345 59.0827 137.439 62.9925 140.756 67.3161C141.442 68.2113 142.295 69.157 142.929 70.0139C144.725 71.8332 148.802 76.8631 151.192 73.6496C153.757 70.1991 154.275 61.8674 153.909 57.7718C153.813 56.8945 153.719 55.744 153.539 54.9053C158.906 57.3825 163.713 60.2901 168.026 64.2662C179.319 74.6777 184.488 90.5408 182.62 105.661C182.336 107.948 181.467 112.231 181.651 114.199C182.274 120.834 184.903 126.455 181.59 133.039C179.953 136.293 177.96 139.003 175.143 141.541C174.822 141.818 174.42 142.189 174.095 142.443C171.978 144.775 162.775 149.823 159.796 150.468C154.697 152.766 147.189 153.548 141.648 153.68C137.845 153.77 133.761 153.152 129.99 152.643C128.483 152.439 124.457 151.206 123.257 151.828C123.126 152.23 123.179 152.138 123.283 152.617C122.832 152.865 121.1 152.519 120.46 152.42C118.812 152.165 118.004 152.11 116.366 152.522C115.874 153.366 115.757 153.79 115.37 154.635C110.612 151.472 105.951 149 100.082 148.268C95.78 147.732 95.6622 148.647 96.9367 152.782C98.0656 156.443 99.7761 160.033 101.909 163.233C104.145 166.85 105.497 169.69 109.336 172.036C109.847 172.511 109.815 173.481 110.125 174.248C109.974 175.21 109.891 175.982 109.81 176.955C109.379 176.641 108.95 176.323 108.524 176.002C107.191 174.631 106.419 173.468 105.209 172.041C104.729 171.474 104.315 171.315 103.605 171.31C104.208 174.704 105.776 177.507 108.567 179.452C111.088 181.209 116.395 182.65 119.37 181.834C123.69 180.649 127.276 180.665 131.253 183.153C132.645 184.022 133.676 185.314 134.064 187.026C134.089 187.732 134.179 188.388 133.703 188.919C132.099 189.321 128.842 185.121 127.334 186.939C127.436 188.461 131.666 190.163 130.936 192.872C129.835 196.966 126.497 192.312 124.659 192.586C124.588 192.907 124.516 193.328 124.751 193.606C125.629 194.645 126.053 195.106 126.716 196.306C126.868 197.646 126.298 198.407 125.162 198.966C123.404 199.755 121.492 198.662 119.693 198.69C119.091 198.756 118.406 198.855 117.816 198.974C112.064 200.135 106.296 199.765 100.794 197.663C98.0376 196.61 94.7384 195.134 92.5018 193.133C87.0813 188.283 85.8304 180.296 85.7402 173.365C85.7256 172.129 86.2719 168.805 85.8678 167.929L85.6353 167.979C84.3082 169.126 83.5491 172.653 83.3529 174.303C82.2099 183.918 85.7725 193.863 94.7892 198.39C98.6799 200.343 101.647 201.436 106.078 201.936C101.925 203.006 95.8986 203.407 91.7212 202.649C89.7016 202.324 87.7678 201.726 85.8216 201.118C84.798 200.799 82.8595 199.778 81.8603 199.974C80.6215 201.103 82.5086 204.888 83.1043 206.204C79.1587 207.49 75.2692 208.347 71.1475 209.767C72.044 198.431 74.5075 186.435 78.72 175.843C81.6137 168.567 86.0366 160.416 90.0775 153.657C91.9963 150.448 95.1377 146.687 97.3823 143.577C100.064 145.272 113.523 152.675 116.45 150.996C117.414 149.614 115.393 149.003 114.413 148.606C107.002 145.651 100.252 141.742 93.8204 137.047C90.5873 134.687 89.4077 132.963 86.9596 130.055C80.9325 130.619 73.8982 132.656 68.1912 134.601C70.2932 132.442 72.1702 130.744 74.5346 128.891C76.8725 127.059 80.9886 124.913 82.6785 122.641C82.7071 121.754 82.0758 113.273 81.907 112.923C81.3527 111.775 76.3762 110.473 75.0167 109.987C70.6879 108.5 66.0074 107.587 61.5274 106.648C59.0072 106.12 56.4462 105.905 53.9056 105.504C57.8158 104.715 61.7919 104.299 65.7806 104.26C70.1286 103.701 76.5438 104.576 80.9377 104.402C81.5224 103.274 83.3995 98.4306 83.7257 97.2048C81.5554 90.2371 71.2752 79.0489 65.8378 74.165C63.7797 72.3167 61.1363 70.3101 58.9381 68.5566C60.1694 68.9543 63.228 69.9029 64.2837 70.5475C70.6024 72.9056 76.3792 77.2128 81.2554 81.798C82.795 83.2457 87.4795 88.9621 89.1772 89.0949C88.9986 85.1637 85.8713 81.5419 83.3012 78.8974C84.534 76.4635 85.5926 74.4337 87.168 72.2039C89.6257 76.9716 93.6594 77.4662 98.5744 77.2309C99.5774 77.015 100.563 76.8169 101.553 76.5486C110.438 74.1426 117.587 66.3508 114.939 56.8738C114.429 55.4735 113.972 54.4988 113.197 53.2147Z" fill="#61BBDF"/>
<path d="M58.9381 68.5566C60.1694 68.9544 63.228 69.9029 64.2837 70.5476C64.3732 71.2088 68.6115 74.9436 69.4223 75.7675C73.9922 80.3948 77.9058 85.5405 82.0283 90.5538C83.3856 92.2043 84.6467 94.1676 85.7792 95.9953C88.0422 99.6474 87.092 103.793 87.3661 107.877C87.6891 112.69 88.467 117.601 90.2121 122.13C92.6724 127.952 97.9393 133.488 102.93 137.242C106.61 140.01 111.518 142.065 115.825 143.794C128.2 148.762 141.183 152.733 154.67 151.13C155.899 150.984 158.817 150.336 159.796 150.468C154.697 152.766 147.189 153.548 141.648 153.68C137.845 153.77 133.761 153.152 129.99 152.643C128.483 152.439 124.457 151.206 123.257 151.828C123.126 152.23 123.179 152.138 123.283 152.617C122.832 152.865 121.1 152.519 120.46 152.42C118.812 152.165 118.004 152.11 116.366 152.522C115.874 153.366 115.757 153.79 115.37 154.635C110.612 151.472 105.951 149 100.082 148.268C95.78 147.732 95.6622 148.647 96.9367 152.782C98.0656 156.443 99.7761 160.033 101.909 163.233C104.145 166.851 105.497 169.69 109.336 172.036C109.847 172.511 109.815 173.481 110.125 174.248C109.974 175.21 109.891 175.982 109.81 176.955C109.379 176.641 108.95 176.323 108.524 176.002C107.191 174.632 106.419 173.468 105.209 172.041C104.729 171.474 104.315 171.316 103.605 171.31C104.208 174.704 105.776 177.507 108.567 179.452C111.088 181.209 116.395 182.65 119.37 181.834C123.69 180.649 127.276 180.665 131.253 183.153C132.645 184.022 133.676 185.314 134.064 187.026C134.089 187.733 134.179 188.389 133.703 188.919C132.099 189.321 128.842 185.121 127.334 186.939C127.436 188.461 131.666 190.163 130.936 192.872C129.835 196.966 126.497 192.312 124.659 192.586C124.588 192.907 124.516 193.328 124.751 193.606C125.629 194.645 126.053 195.106 126.716 196.306C126.868 197.646 126.298 198.407 125.162 198.966C123.404 199.755 121.492 198.663 119.693 198.691C119.091 198.756 118.406 198.855 117.816 198.974C112.064 200.135 106.296 199.765 100.794 197.663C98.0376 196.61 94.7384 195.134 92.5018 193.133C87.0813 188.283 85.8304 180.296 85.7402 173.365C85.7256 172.129 86.2719 168.805 85.8678 167.929L85.6353 167.979C84.3082 169.126 83.5491 172.653 83.3529 174.303C82.2099 183.918 85.7725 193.864 94.7892 198.39C98.6799 200.343 101.647 201.436 106.078 201.936C101.925 203.006 95.8986 203.407 91.7212 202.649C89.7016 202.325 87.7678 201.726 85.8216 201.118C84.798 200.799 82.8595 199.778 81.8603 199.974C80.6215 201.103 82.5086 204.888 83.1043 206.204C79.1587 207.49 75.2692 208.347 71.1475 209.767C72.044 198.431 74.5075 186.435 78.72 175.843C81.6137 168.567 86.0366 160.416 90.0775 153.657C91.9963 150.448 95.1377 146.687 97.3823 143.577C100.064 145.272 113.523 152.675 116.45 150.996C117.414 149.615 115.393 149.003 114.413 148.606C107.002 145.651 100.252 141.742 93.8204 137.047C90.5873 134.687 89.4077 132.963 86.9596 130.055C80.9325 130.619 73.8982 132.656 68.1912 134.601C70.2932 132.442 72.1702 130.744 74.5346 128.891C76.8725 127.059 80.9886 124.913 82.6785 122.641C82.7071 121.754 82.0758 113.273 81.907 112.923C81.3527 111.775 76.3762 110.473 75.0167 109.987C70.6879 108.5 66.0074 107.587 61.5274 106.648C59.0072 106.12 56.4462 105.905 53.9056 105.504C57.8158 104.715 61.7919 104.299 65.7806 104.26C70.1286 103.702 76.5438 104.576 80.9377 104.402C81.5224 103.274 83.3995 98.4307 83.7257 97.2049C81.5554 90.2372 71.2752 79.0489 65.8378 74.1651C63.7797 72.3167 61.1363 70.3102 58.9381 68.5566Z" fill="#4791C2"/>
<path d="M91.2107 183.73C88.2673 176.618 88.3788 164.955 93.3461 158.734C93.7302 158.253 94.2314 157.895 94.8521 157.859C97.0153 158.67 101.466 167.998 103.356 170.601L103.495 170.791L103.604 171.31C104.208 174.704 105.776 177.507 108.567 179.452C111.088 181.209 116.395 182.651 119.37 181.834C123.69 180.649 127.276 180.665 131.253 183.153C132.645 184.023 133.676 185.315 134.064 187.026C134.089 187.733 134.179 188.389 133.703 188.919C132.099 189.321 128.842 185.121 127.334 186.939C127.436 188.461 131.666 190.163 130.936 192.872C129.835 196.966 126.497 192.313 124.659 192.587C124.588 192.907 124.516 193.328 124.751 193.606C125.629 194.645 126.053 195.106 126.716 196.306C123.3 196.921 120.562 196.285 117.2 196.11C109.711 195.719 102.057 195.593 96.2391 190.135C96.9958 187.645 96.0196 185.564 93.8726 184.083C92.9716 183.46 92.2378 183.49 91.2107 183.73Z" fill="#61BBDF"/>
<path d="M103.495 170.791L103.604 171.311C104.208 174.704 105.776 177.507 108.567 179.452C111.088 181.209 116.395 182.651 119.37 181.835C123.69 180.65 127.276 180.666 131.253 183.153C132.645 184.023 133.676 185.315 134.064 187.026C133.971 187.364 134.039 187.26 133.834 187.518C133.187 186.755 131.707 185.132 130.949 184.628C129.211 183.474 124.818 182.324 122.778 182.678C119.605 183.28 116.918 184.011 113.638 183.403C108.056 182.369 101.707 178.466 102.673 171.933C102.767 171.295 102.98 171.122 103.495 170.791Z" fill="#A5D0DD"/>
<path d="M99.4231 186.078C101.418 186.285 103.974 188.663 103.03 190.846C102.782 191.421 101.892 191.553 101.325 191.664C97.7241 191.314 95.7994 186.742 99.4231 186.078Z" fill="#4791C2"/>
<path d="M53.9056 105.504C57.8158 104.715 61.7919 104.299 65.7806 104.26C69.4012 104.421 69.2615 104.044 72.8379 105.057C74.1883 106.484 74.3007 108.184 75.0167 109.987C70.6879 108.5 66.0074 107.587 61.5274 106.648C59.0072 106.12 56.4462 105.905 53.9056 105.504Z" fill="#61BBDF"/>
<path d="M109.336 172.037C109.847 172.513 109.815 173.483 110.125 174.25C109.974 175.211 109.891 175.984 109.81 176.956C109.379 176.642 108.95 176.324 108.524 176.004C108.805 174.676 109.038 173.381 109.336 172.037Z" fill="#29678A"/>
<path d="M153.539 54.9062C158.906 57.3835 163.713 60.2911 168.026 64.2672C179.319 74.6787 184.488 90.5418 182.62 105.662C182.336 107.949 181.467 112.232 181.651 114.2C182.274 120.835 184.903 126.456 181.59 133.04C179.953 136.294 177.96 139.004 175.143 141.542C174.822 141.819 174.42 142.19 174.095 142.444C174.109 141.973 174.567 141.483 174.867 141.076C179.177 135.221 181.578 129.082 180.188 121.633C179.705 119.043 179.087 116.841 179.087 114.169C179.087 111.165 179.868 108.527 180.246 105.585C181.038 98.1834 180.1 90.0533 177.418 83.0947C174.082 74.4437 167.765 66.3725 160.165 61.0621C158.519 59.9127 155.762 58.5842 153.909 57.7728C153.813 56.8954 153.719 55.745 153.539 54.9062Z" fill="#A5D0DD"/>
<path d="M87.168 72.2051C89.6257 76.9728 93.6594 77.4674 98.5744 77.2321C97.7175 78.0951 96.2187 78.8463 95.1786 79.5839C92.691 81.3477 89.6236 86.122 89.1771 89.0961C88.9985 85.1649 85.8712 81.5431 83.3011 78.8985C84.534 76.4647 85.5926 74.4349 87.168 72.2051Z" fill="#4791C2"/>
<path d="M113.197 53.2147C119.562 52.0863 124.423 51.9226 129.891 55.8689C134.345 59.0827 137.439 62.9925 140.756 67.3161C141.442 68.2113 142.295 69.157 142.929 70.0139C141.851 69.7161 139.153 66.7464 138.156 65.8367C130.993 59.3062 125.625 53.1317 114.939 56.8738C114.429 55.4735 113.972 54.4988 113.197 53.2147Z" fill="#4791C2"/>
<path d="M123.833 110.99C124.437 110.964 125.218 110.917 125.794 111.041C131.727 112.316 132.842 120.864 129.828 125.246C128.516 127.153 127.299 127.852 125.129 128.302C116.039 128.773 115.499 116.596 121.119 112.081C121.867 111.481 122.902 111.19 123.833 110.99Z" fill="#1D2E4F"/>
<path d="M126.411 115.633C127.449 115.472 128.3 115.799 128.841 116.735C129.233 117.427 129.319 118.251 129.078 119.008C128.804 119.847 128.454 120.101 127.711 120.472C124.489 120.64 123.999 117.505 126.411 115.633Z" fill="white"/>
<path d="M151.061 78.3639C160.738 78.1162 157.628 95.7722 151.596 95.7816C148.617 94.4364 144.307 88.2346 145.481 84.7916C146.346 82.2528 148.66 79.6064 151.061 78.3639Z" fill="#4791C2"/>
<path d="M123.653 91.5098C127.053 91.5832 129.701 92.93 132.261 95.2765C133.989 96.86 137.125 101.287 134.943 103.625C134.058 104.573 132.389 104.689 131.123 104.689C127.304 103.956 115.992 98.984 119.677 93.0713C120.347 91.9967 122.425 91.6414 123.653 91.5098Z" fill="#2E8490"/>
<path d="M123.059 93.8853C126.66 93.632 129.789 95.4021 131.986 98.2481C132.684 99.1522 133.878 100.731 133.199 101.875C132.806 102.212 132.433 102.185 131.901 102.244C128.753 101.869 125.279 99.7919 122.853 97.7987C121.115 96.3702 120.437 94.7174 123.059 93.8853Z" fill="#6BC9C5"/>
<path d="M124.879 57.5511C129.466 57.495 137.463 65.745 134.055 70.5353C133.344 71.5344 132.028 71.9003 130.883 72.0103C127.853 71.8624 121.219 68.5921 120.768 65.1016C120.392 62.1916 121.609 58.1783 124.879 57.5511Z" fill="#4791C2"/>
<path d="M169.468 109.651C176.846 109.154 175.919 124.054 169.163 125.233C161.633 125.17 162.716 111.47 169.468 109.651Z" fill="#1D2E4F"/>
<path d="M170.327 113.368C173.116 113.157 173.55 116.71 171.148 117.979C168.519 118.088 167.882 114.892 170.327 113.368Z" fill="white"/>
<path d="M170.3 91.0797C177.347 90.387 175.77 96.4857 172.335 99.712C170.427 101.503 168.895 102.442 166.461 103.412C158.989 106.075 161.308 93.079 170.3 91.0797Z" fill="#2E8490"/>
<path d="M171.092 92.959C172.407 92.9999 174.029 93.4028 173.238 95.0996C171.819 98.1451 169.378 99.8412 166.386 101.143C165.654 101.378 165.222 101.606 164.534 101.287C164.342 101.092 164.134 100.873 164.138 100.588C164.182 97.0177 167.913 93.4957 171.092 92.959Z" fill="#6BC9C5"/>
<path d="M159.227 62.737C165.097 62.355 168.12 72.581 162.782 76.4085C158.491 78.6765 156.78 71.0291 156.745 68.1934C156.714 65.801 156.868 63.887 159.227 62.737Z" fill="#4791C2"/>
<path d="M136.012 73.4312C139.436 73.1611 141.565 77.0694 142.205 79.9943C142.639 81.9782 141.833 82.8438 139.937 83.0704C136.48 82.6007 132.537 80.4067 133.646 75.9776C133.948 74.7721 134.939 73.9872 136.012 73.4312Z" fill="#4791C2"/>
<path d="M156.828 124.014C159.807 124.159 162.556 124.94 164.88 126.897C166.128 128.05 166.549 128.485 167.214 130.021C161.991 128.898 156.943 127.883 151.582 128.213C150.894 128.256 149.225 128.529 148.732 128.183C148.062 126.101 155.341 124.345 156.828 124.014Z" fill="#A5D0DD"/>
<path d="M132.029 137.968C135.161 137.652 134.971 138.917 136.341 141.238C136.946 142.263 138.327 143.394 139.353 144.008C140.772 144.837 142.279 145.508 143.846 146.005C144.523 146.217 146.129 146.525 146.588 146.82L146.461 147.079C145.65 147.6 144.67 147.7 143.728 147.774C138.506 147.504 135.152 144.809 132.696 140.392C131.57 140.504 130.041 141.204 129.168 140.317L129.199 139.985C129.827 138.92 130.913 138.366 132.029 137.968Z" fill="#1D2E4F"/>
<path d="M143.939 125.883C147.61 120.743 158.786 120.22 163.514 124.106C164.307 124.759 165.289 125.33 165.51 126.409L165.405 126.683L164.88 126.898C162.556 124.941 159.807 124.16 156.828 124.014C151.102 123.228 148.754 124.951 143.939 125.883Z" fill="#4791C2"/>
<path d="M146.793 132.736C148.039 132.713 148.653 132.921 149.669 133.703C150.667 134.47 152.017 136.996 151.022 138.115C150.545 138.259 150.786 138.247 150.274 138.11C149.124 137.228 148.307 136.687 147.001 136.035C145.132 135.102 144.634 133.814 146.793 132.736Z" fill="#1D2E4F"/>
<path d="M108.238 123.758C109.832 124.057 111.305 125.277 112.408 126.414C113.349 127.383 114.162 128.426 112.931 129.462C111.608 129.549 110.655 128.305 109.734 127.445C109.007 126.765 107.654 125.47 107.65 124.462C107.87 123.95 107.767 124.126 108.238 123.758Z" fill="#4791C2"/>
<path d="M103.592 124.145L103.656 124.15C104.284 124.196 104.719 124.304 105.237 124.67C106.458 125.532 109.597 127.209 107.819 128.907C106.32 128.764 103.26 126.894 103.006 125.256C102.935 124.795 103.304 124.449 103.592 124.145Z" fill="#4791C2"/>
<path d="M166.067 132.318C166.743 132.376 167.696 132.844 167.532 133.642C167.254 134.995 165.582 136.148 164.546 136.972C163.997 137.168 163.885 137.164 163.472 136.805C162.899 135.167 164.601 132.972 166.067 132.318Z" fill="#1D2E4F"/>
<path d="M177.165 189.648C183.472 193.914 189.68 198.326 195.782 202.879L204.894 209.762C206.912 211.281 210.594 214.107 212.841 215.146C214.433 215.87 216.216 216.071 217.929 215.718C220.103 215.295 222.016 214.013 223.233 212.163C224.883 209.63 225.324 205.261 222.442 203.425C221.494 202.828 220.338 202.657 219.257 202.954C218.067 203.281 217.439 203.856 216.602 204.673C215.883 204.035 215.678 203.825 215.105 203.049C219.557 197.85 226.889 198.828 227.482 206.12C228.051 213.12 220.581 218.643 214.717 220.545C212.725 221.239 210.764 221.832 208.731 222.36C207.051 221.537 202.519 219.289 200.822 219.479C199.986 220.062 200.595 223.678 200.73 224.714C198.014 225.554 195.558 226.102 192.775 227.04C189.927 227.999 187.45 229.156 184.736 230.146C183.569 229.314 182.657 228.675 181.369 227.999C180.311 227.446 179.234 226.934 178.138 226.462C168.774 222.426 156.07 222.295 146.59 226.052C142.523 227.712 136.808 231.163 134.941 235.211L134.724 235.725C134.124 237.479 133.774 239.31 133.683 241.163C133.632 242.389 133.647 243.286 133.693 244.501C130.891 245.195 128.232 245.831 125.338 245.978C123.621 244.521 121.503 241.952 119.929 240.229C118.286 238.427 116.843 237.018 115.085 235.326C118.642 229.573 114.486 231.018 110.497 230.89C107.694 228.102 104.782 225.486 101.865 222.82C100.819 221.864 99.7077 220.827 98.7936 219.746C99.5468 218.885 101.363 217.07 101.166 215.895C100.168 214.588 94.2931 214.842 92.9462 214.032C89.8818 212.187 86.111 206.621 85.0112 203.536C92.7592 206.402 98.6293 206.019 106.644 204.359C107.929 204.184 109.746 203.266 110.96 203.132C114.017 202.792 116.662 202.011 119.616 201.296C123.113 202.876 124.948 202.818 128.065 200.572C128.535 200.079 128.991 199.631 129.391 199.081C130.915 198.838 132.563 198.522 134.053 198.117C134.738 199.234 135.122 200.192 136.068 201.103C137.758 202.222 139.634 202.896 141.13 203.876C141.845 204.317 142.82 204.983 143.357 204.073C143.461 202.908 142.431 200.366 141.999 199.117C141.682 198.259 141.368 197.399 141.06 196.536C146.038 194.968 153.901 192.89 158.941 193.981C160.153 193.626 160.571 193.274 161.515 192.504C162.134 191.83 162.377 191.571 162.787 190.709C168.292 191.238 171.77 191.089 177.165 189.648Z" fill="#E7CB9C"/>
<path d="M177.165 189.648C183.472 193.914 189.68 198.326 195.782 202.879L204.894 209.762C206.912 211.281 210.594 214.107 212.841 215.146C214.433 215.87 216.216 216.071 217.929 215.718C220.103 215.295 222.016 214.013 223.233 212.163C224.883 209.63 225.324 205.261 222.442 203.425C221.494 202.828 220.338 202.657 219.257 202.954C218.067 203.281 217.439 203.856 216.602 204.673C215.883 204.035 215.679 203.825 215.105 203.049C219.557 197.85 226.889 198.828 227.482 206.12C228.051 213.12 220.581 218.643 214.717 220.545C212.725 221.239 210.764 221.832 208.731 222.36C207.051 221.537 202.519 219.289 200.822 219.479C199.986 220.062 200.595 223.678 200.73 224.714C198.014 225.554 195.558 226.102 192.775 227.04C189.927 227.999 187.45 229.156 184.736 230.146C183.569 229.314 182.657 228.675 181.369 227.999C183.349 226.951 187.337 225.752 189.603 225.14C191.888 224.521 194.926 224.207 196.98 223.046C198.785 222.026 199.766 219.836 200.979 218.643C201.87 217.766 205.728 219.384 206.969 219.558C208.872 219.824 209.993 219.287 211.524 218.192C210.871 217.617 208.812 216.466 207.968 215.939C205.983 214.693 204.031 213.396 202.115 212.047C195.344 207.228 190.436 202.195 182.891 198.055C182.698 199.07 182.374 200.126 182.292 201.145L181.778 200.962C181.374 200.219 182.43 199.647 181.598 198.763C181.007 198.5 180.557 198.593 179.902 198.628C179.697 198.303 179.77 198.21 179.757 197.759C179.669 196.95 179.566 196.864 178.887 196.427C175.941 195.548 176.999 195.059 175.22 193.658C174.942 193.673 174.257 193.624 173.948 193.612C174.217 193.428 174.441 193.622 174.793 193.365C173.526 192.497 169.195 193.381 167.468 193.217C165.892 193.067 164.045 192.812 162.496 192.715C161.455 198.427 155.277 195.149 151.329 195.937C147.737 196.655 145.357 197.694 141.999 199.117C141.682 198.259 141.368 197.399 141.06 196.536C146.038 194.968 153.901 192.89 158.941 193.981C160.153 193.626 160.571 193.274 161.515 192.504C162.134 191.83 162.377 191.571 162.787 190.709C168.292 191.238 171.77 191.089 177.165 189.648Z" fill="#C39E72"/>
<path d="M175.22 193.658C176.923 193.872 178.95 194.333 178.887 196.428C175.941 195.549 176.999 195.06 175.22 193.658Z" fill="#E7CB9C"/>
<path d="M173.948 193.613C174.257 193.625 174.942 193.673 175.22 193.659C176.999 195.06 175.941 195.549 178.887 196.428C179.566 196.865 179.669 196.951 179.757 197.76C179.77 198.211 179.697 198.304 179.902 198.629C180.557 198.594 181.007 198.5 181.598 198.764C182.43 199.648 181.375 200.22 181.778 200.963L182.292 201.146C182.97 202.122 186.587 204.569 184.324 205.396C185.162 209.481 180.856 207.837 179.408 209.939C179.252 210.487 178.874 210.678 178.385 210.952C178.267 211.019 178.148 211.083 178.029 211.146C177.296 211.329 176.941 212.045 176.704 212.744C176.075 212.529 175.939 212.452 175.294 212.565C174.9 212.435 174.447 212.12 173.948 211.958C172.244 211.404 170.901 212.232 169.242 212.255C168.168 212.109 167.543 211.64 166.868 210.844C166.406 210.498 165.837 209.507 165.112 208.901C164.935 208.666 164.866 208.625 164.639 208.432C163.615 208.255 162.158 207.774 161.364 208.188L161.187 208.156C160.787 208.009 160.747 207.963 160.232 208.229C159.662 208.525 158.675 208.939 158.17 209.267L158.063 209.197C157.412 208.038 156.032 207.825 154.848 207.215C154.53 207.051 154.267 207.214 154 207.34C153.639 206.893 152.862 206.645 152.226 205.895C152.295 205.521 152.274 205.528 152.267 205.143C151.981 204.733 152.166 204.903 151.637 204.692L151.592 204.57C152.31 204.074 152.37 203.886 152.315 203.027C152.971 202.219 153.397 201.474 154.125 200.651C154.869 200.065 155.523 199.842 156.225 199.327L155.994 199.218C155.727 198.736 155.808 198.895 155.835 198.265C157.521 197.764 159.752 198.646 161.447 199.023C165.671 199.962 162.698 196.271 165.249 194.848C166.771 193.999 168.128 194.303 169.728 194.674C171.566 193.97 171.994 193.776 173.948 193.613Z" fill="#C39E72"/>
<path d="M173.948 193.613C174.257 193.625 174.942 193.673 175.22 193.659C176.999 195.06 175.941 195.549 178.887 196.428C179.566 196.865 179.669 196.951 179.757 197.76C179.587 198.313 179.674 198.427 179.026 198.522C178.582 198.526 178.421 198.566 178.027 198.355C177.864 197.942 177.888 198.161 178.04 197.671L178.242 197.436C177.892 197.094 177.311 197.147 176.73 196.809C175.709 196.215 175.264 195.597 174.531 194.721C172.689 194.861 171.494 195.44 169.828 195.695C167.801 196.006 167.022 194.595 165.021 196.566C166.184 203.092 159.139 198.872 156.225 199.327L155.994 199.218C155.727 198.736 155.808 198.895 155.835 198.265C157.521 197.764 159.752 198.646 161.447 199.023C165.671 199.962 162.698 196.271 165.249 194.848C166.771 193.999 168.128 194.303 169.728 194.674C171.566 193.97 171.994 193.776 173.948 193.613Z" fill="#6B513C"/>
<path d="M179.902 198.629C180.557 198.594 181.007 198.501 181.598 198.764C182.43 199.648 181.375 200.22 181.778 200.963L182.292 201.146C182.97 202.123 186.587 204.569 184.324 205.396C184.152 204.877 184.213 204.692 183.857 204.501C183.312 203.921 182.714 203.31 182.081 202.829C180.512 201.636 180.402 201.469 180.942 199.736L180.612 199.469C180.232 199.166 180.04 199.096 179.902 198.629Z" fill="#6B513C"/>
<path d="M183.857 204.5C184.213 204.691 184.152 204.877 184.324 205.395C185.162 209.481 180.856 207.836 179.408 209.939C178.967 209.851 178.751 209.676 178.446 209.384C179.737 207.588 181.516 207.803 183.651 207.096C183.167 205.819 183.012 205.604 183.857 204.5Z" fill="#6B513C"/>
<path d="M176.853 201.248C177.227 201.563 178.29 202.304 178.485 202.619C178.176 203.569 175.04 203.534 174.344 202.635C174.337 201.995 174.536 201.883 175.045 201.533C175.35 202.088 175.509 202.376 176.19 202.294C176.742 201.901 176.572 202.008 176.853 201.248Z" fill="#6B513C"/>
<path d="M175.342 199.262L175.709 199.914L175.793 200.142C175.905 200.452 175.915 200.53 175.958 200.85C176.325 200.989 176.52 201.035 176.853 201.248C176.572 202.009 176.742 201.902 176.19 202.294C175.509 202.376 175.35 202.089 175.045 201.533L175.044 201.415C174.734 200.977 174.459 200.642 174.476 200.107C174.734 199.632 174.879 199.584 175.342 199.262Z" fill="#7E6549"/>
<path d="M178.029 211.146C177.597 210.967 177.602 210.948 177.49 210.566C177.658 210.07 178.06 209.764 178.446 209.385C178.751 209.676 178.967 209.851 179.408 209.939C179.252 210.487 178.874 210.678 178.385 210.952C178.267 211.019 178.148 211.083 178.029 211.146Z" fill="#6B513C"/>
<path d="M176.289 198.537C176.835 198.071 177.378 197.881 178.04 197.67C177.888 198.16 177.864 197.941 178.027 198.354C178.421 198.565 178.582 198.525 179.026 198.521C177.913 198.691 177.655 198.772 176.726 199.496C176.458 199.3 176.394 198.883 176.289 198.537Z" fill="#7E6549"/>
<path d="M166.868 210.844C167.467 210.924 169.354 211.392 169.209 212.158L169.242 212.255C168.168 212.109 167.543 211.64 166.868 210.844Z" fill="#A07E54"/>
<path d="M175.342 199.261C175.558 199.181 176.082 198.708 176.289 198.537C176.394 198.883 176.458 199.3 176.726 199.496C176.095 199.991 176.265 199.548 175.709 199.913L175.342 199.261Z" fill="#A07E54"/>
<path d="M134.053 198.117C134.738 199.234 135.122 200.192 136.068 201.103C137.758 202.221 139.634 202.896 141.13 203.875C138.936 205.674 136.337 205.588 133.603 205.423C131.938 205.321 130.332 204.833 128.652 205.158C127.241 205.388 125.773 205.329 124.352 205.415C120.968 205.83 112.689 207.817 110.054 205.095C105.365 207.046 100.794 207.302 95.8497 208.045C95.2781 208.131 95.0972 209.399 95.5552 209.957C96.1586 210.693 96.6229 211.268 97.4799 211.729C98.8648 212.704 106.101 214.76 105.66 216.761C105.436 217.779 103.1 218.703 101.966 220.011C103.161 221.192 105.004 222.363 106.434 223.531C108.033 224.836 110.526 227.912 112.292 228.7C114 229.462 116.106 228.904 118.028 230.179L118.099 230.361C118.617 231.711 118.655 233.063 119.088 234.208C120.248 237.283 124.582 240.087 127.369 241.665C128.64 242.385 130.915 242.187 132.391 242.135C132.833 241.812 133.256 241.506 133.683 241.162C133.632 242.389 133.647 243.285 133.693 244.501C130.891 245.195 128.232 245.83 125.338 245.977C123.621 244.521 121.503 241.952 119.929 240.229C118.286 238.426 116.843 237.018 115.085 235.325C118.642 229.572 114.486 231.018 110.497 230.89C107.694 228.101 104.782 225.486 101.865 222.82C100.819 221.864 99.7077 220.827 98.7936 219.746C99.5468 218.884 101.363 217.07 101.166 215.894C100.168 214.588 94.2931 214.841 92.9462 214.032C89.8818 212.187 86.111 206.621 85.0112 203.536C92.7592 206.402 98.6293 206.018 106.644 204.359C107.929 204.184 109.746 203.266 110.96 203.131C114.017 202.792 116.662 202.01 119.616 201.296C123.113 202.876 124.948 202.817 128.065 200.571C128.535 200.078 128.991 199.631 129.391 199.08C130.915 198.837 132.563 198.522 134.053 198.117Z" fill="#C39E72"/>
<path d="M134.053 198.117C134.738 199.234 135.122 200.192 136.068 201.103C134.832 201.243 131.958 200.756 130.587 200.7C129.912 200.672 128.707 200.638 128.065 200.571C128.535 200.078 128.991 199.631 129.391 199.08C130.915 198.837 132.563 198.522 134.053 198.117Z" fill="#E7CB9C"/>
<path d="M134.497 218.07C135.507 219.01 136.48 220.549 137.999 220.722C138.801 220.815 139.26 219.67 139.99 219.549C141.307 219.33 142.487 220.696 143.506 221.346C143.998 221.66 144.478 221.907 144.985 222.167C145.677 223.515 145.294 223.738 145.597 225.027L145.821 225.072L146.356 224.722C146.429 225.165 146.497 225.615 146.59 226.053C142.523 227.712 136.808 231.163 134.941 235.211C134.64 234.974 134.6 234.885 134.36 234.589C133.654 234.27 132.991 234.388 132.174 234.396C132.04 234.159 131.9 233.926 131.752 233.696C131.164 232.805 130.228 232.724 129.236 232.511C128.1 232.84 126.837 233.548 125.566 233.269C124.897 232.666 126.459 231.243 125.717 229.929C124.925 228.563 122.982 228.499 121.542 228.017C119.584 227.361 118.531 226.163 119.334 224.006C120.143 221.834 122.381 222.994 124.017 223.106C124.862 223.165 125.982 222.988 126.791 222.694C128.987 221.894 128.519 219.565 130.277 218.455C130.654 218.217 131.968 218.931 132.427 218.851C132.997 218.752 133.938 218.311 134.497 218.07Z" fill="#C39E72"/>
<path d="M129.458 225.874C131.004 225.731 132.686 226.143 133.436 227.686C134.043 228.935 133.651 229.746 133.19 230.943C132.993 229.273 133.04 228.725 131.84 227.528C128.722 225.546 128.903 228.581 127.997 229.718C127.182 229.547 127.158 228.336 127.428 227.701C127.845 226.715 128.537 226.299 129.458 225.874Z" fill="#6B513C"/>
<path d="M132.394 217.806C135.666 216.49 135.424 217.854 137.787 219.804C140.566 217.845 140.839 218.066 143.643 220.071C145.291 221.248 146.997 222.386 146.356 224.722L145.821 225.072L145.597 225.026C145.294 223.737 145.677 223.514 144.985 222.166C144.478 221.907 143.998 221.659 143.506 221.345C142.487 220.695 141.308 219.329 139.99 219.549C139.26 219.669 138.801 220.814 137.999 220.722C136.48 220.548 135.507 219.009 134.497 218.07C133.938 218.31 132.997 218.751 132.427 218.85C131.968 218.93 130.654 218.217 130.277 218.454C128.519 219.565 128.987 221.893 126.791 222.694C125.982 222.987 124.862 223.164 124.017 223.105C122.381 222.993 120.143 221.833 119.334 224.006C118.531 226.162 119.584 227.36 121.542 228.016C122.982 228.499 124.925 228.563 125.717 229.928C126.46 231.243 124.897 232.666 125.566 233.268C126.837 233.547 128.1 232.839 129.236 232.511C130.228 232.723 131.164 232.805 131.752 233.696C131.9 233.925 132.04 234.158 132.174 234.396C132.991 234.388 133.654 234.269 134.36 234.588C134.6 234.885 134.64 234.973 134.941 235.211L134.724 235.725C134.339 235.263 132.07 235.62 131.768 235.304C129.422 232.862 129.912 233.781 126.599 234.612C121.915 233.491 125.799 230.699 124.471 230.207C121.652 229.163 116.7 228.364 118.117 223.984C119.644 219.263 123.668 223.165 126.688 221.557C129.157 219.951 127.778 216.131 132.394 217.806Z" fill="#6B513C"/>
<path d="M175.294 212.565C175.939 212.453 176.075 212.529 176.704 212.744C176.877 213.236 177.026 213.729 176.847 214.249C176.441 215.431 173.98 216.907 172.77 216.481L172.715 216.274C173.21 215.659 175.268 214.541 175.983 214.176C175.77 213.541 175.581 213.158 175.294 212.565Z" fill="#6B513C"/>
<path d="M153.316 199.961C153.627 200.192 153.875 200.35 154.125 200.652C153.397 201.475 152.971 202.219 152.315 203.027C152.37 203.886 152.31 204.075 151.592 204.57C150.469 203.341 152.283 200.804 153.316 199.961Z" fill="#6B513C"/>
<path d="M154 207.34C154.267 207.215 154.53 207.052 154.848 207.216C156.032 207.825 157.412 208.039 158.063 209.197C157.926 209.295 157.729 209.406 157.587 209.494C156.844 209.531 156.08 208.997 155.422 208.659C154.665 208.27 154.322 208.166 154 207.34Z" fill="#6B513C"/>
<path d="M161.364 208.187C162.158 207.773 163.615 208.254 164.639 208.432C164.866 208.624 164.935 208.665 165.112 208.901C163.645 209.781 162.394 209.599 161.364 208.187Z" fill="#6B513C"/>
<path d="M155.835 198.266C155.808 198.895 155.727 198.736 155.994 199.218L156.225 199.328C155.523 199.842 154.869 200.065 154.125 200.652C153.875 200.35 153.627 200.192 153.316 199.961C154.441 198.928 154.399 198.733 155.835 198.266Z" fill="#6B513C"/>
<path d="M158.17 209.267C158.675 208.938 159.662 208.524 160.232 208.229C160.747 207.963 160.787 208.008 161.187 208.155C160.862 209.422 159.149 210.471 158.17 209.267Z" fill="#6B513C"/>
<path d="M151.637 204.691C152.166 204.902 151.981 204.733 152.267 205.143C152.274 205.528 152.295 205.521 152.226 205.895C151.761 206.343 151.638 206.585 150.985 206.495C150.42 205.744 151.089 205.18 151.637 204.691Z" fill="#6B513C"/>
<path d="M188.765 206.295C189.796 206.51 189.971 206.939 190.659 207.79C192.584 206.773 194.403 207.031 195.917 208.983C196.45 209.671 195.769 211.316 195.488 212.115C195.873 213.429 195.7 213.452 194.755 214.391C194.475 214.686 195.057 215.59 194.998 215.885C194.437 218.658 191.836 220.824 189.434 218.557C189.331 218.386 188.738 217.391 188.684 217.359C187.721 216.791 185.729 218.765 184.633 217.735C184.503 217.004 185.537 215.599 185.975 214.895C184.928 214.173 182.921 213.142 183.405 211.628C184.184 209.182 189.831 212.097 190.281 209.126C190.462 207.924 188.464 207.755 188.765 206.295Z" fill="#6B513C"/>
<path d="M192.066 208.228C195.644 208.133 194.983 210.142 194.544 212.323C194.235 213.859 194.007 212.903 193.416 214.033C193.141 214.559 193.747 215.633 194.035 216.098C191.068 220.657 190.979 217.261 188.806 215.989C187.65 216.078 187.005 216.434 185.966 216.912C188.499 213.175 185.608 214.025 184.622 212.324L184.687 212.081C186.467 210.899 190.863 213.366 191.349 208.84C191.387 208.491 191.792 208.361 192.066 208.228Z" fill="#C39E72"/>
<path d="M118.952 213.178C118.984 212.334 117.807 211.76 117.282 211.062C117.269 210.688 117.209 210.84 117.434 210.577C117.605 210.558 118.315 210.478 118.395 210.353C119.802 208.159 121.149 205.598 124.227 206.093C125.175 206.247 126.247 206.343 127.197 206.457C128.022 206.323 128.672 206.23 129.503 206.162C130.111 206.612 130.782 207.015 131.164 207.642C131.221 208.107 131.275 207.905 131.021 208.274C129.568 209.041 127.021 208.477 125.854 209.718C126.574 209.706 127.186 209.662 127.896 209.789L127.697 210.82C127.413 210.866 125.58 211.105 125.354 211.075C122.843 210.739 122.583 214.697 121.137 215.182C120.574 214.47 121.628 213.169 121.904 212.365C121.266 212.14 121.067 212.628 120.476 212.798C119.916 213.236 119.826 213.323 119.143 213.492L118.952 213.178Z" fill="#C39E72"/>
<path d="M118.952 213.178C118.984 212.334 117.807 211.76 117.282 211.062C117.269 210.688 117.209 210.84 117.434 210.577C117.605 210.558 118.315 210.478 118.395 210.353C119.802 208.159 121.149 205.598 124.227 206.093C125.175 206.247 126.247 206.343 127.197 206.457C126.828 208.334 122.876 206.179 121.495 207.721C120.421 208.922 119.966 209.931 119.094 211.225C119.621 211.73 120.133 212.155 120.476 212.798C119.916 213.236 119.826 213.323 119.143 213.492L118.952 213.178Z" fill="#6B513C"/>
<path d="M125.854 209.716C126.574 209.704 127.186 209.66 127.896 209.787L127.697 210.819C127.413 210.864 125.58 211.103 125.354 211.074C122.843 210.737 122.583 214.696 121.137 215.181C120.574 214.469 121.628 213.167 121.904 212.363C122.029 211.257 122.863 210.65 123.658 209.973C124.281 209.954 125.285 209.933 125.854 209.716Z" fill="#6B513C"/>
<path d="M113.177 209.387C113.865 209.393 113.993 209.339 114.341 209.952C114.431 211.063 113.449 212.26 112.803 213.128C113.571 213.666 116.874 215.756 115.685 216.729C114.236 217.045 112.657 215.992 111.387 215.296C110.638 216.418 109.933 217.627 108.859 218.437C106.258 218.233 108.596 215.157 109.261 214.063C108.307 213.515 105.792 212.315 106.259 210.989C107.386 210.208 109.515 211.622 110.574 212.224C111.403 211.184 112.138 210.222 113.177 209.387Z" fill="#7A443D"/>
<path d="M173.687 221.238C174.596 221.403 176.603 221.572 177.223 222.081C177.379 222.501 177.34 222.349 177.196 222.862C176.376 222.932 174.145 222.831 173.584 221.99C173.474 221.825 173.63 221.456 173.687 221.238Z" fill="#6B513C"/>
<path d="M182.135 221.621C182.521 221.59 182.323 221.564 182.722 221.814L182.783 222.14C182.372 222.965 180.743 223.009 179.929 223.084C179.42 223.011 179.214 222.894 179.124 222.391C179.604 221.721 181.03 221.829 182.135 221.621Z" fill="#57423B"/>
<path d="M168.932 218.703C169.613 218.805 171.25 219.96 171.728 220.48C171.973 220.747 171.806 221.057 171.711 221.386C170.776 221.187 169.342 220.413 168.808 219.574C168.614 219.27 168.811 218.985 168.932 218.703Z" fill="#57423B"/>
<path d="M187.099 219.412C187.59 219.538 187.383 219.421 187.748 219.761L187.741 220.033C187.294 220.822 186.019 221.442 185.23 221.888C184.834 221.898 184.701 221.861 184.535 221.55C184.749 220.723 186.312 219.916 187.099 219.412Z" fill="#6B513C"/>
<path d="M143.875 209.944C144.372 209.909 144.502 209.909 144.848 210.166L144.825 210.398C144.384 211.12 142.98 211.538 142.203 211.82C141.752 211.878 141.751 211.907 141.314 211.727L141.265 211.519C141.575 210.82 143.142 210.259 143.875 209.944Z" fill="#6B513C"/>
<path d="M149.088 207.525C149.51 207.509 149.607 207.551 149.864 207.758L149.877 207.939C149.637 208.608 148.05 209.313 147.368 209.668C147.221 209.702 146.952 209.692 146.787 209.694C146.567 209.446 146.642 209.595 146.659 209.188C147.205 208.366 148.219 207.932 149.088 207.525Z" fill="#57423B"/>
<path d="M137.264 211.61C138.035 211.531 138.727 211.342 139.218 212.059L139.141 212.351C138.745 212.693 138.612 212.664 138.063 212.733C137.312 212.784 136.311 212.974 135.861 212.208L135.967 211.945C136.387 211.611 136.709 211.651 137.264 211.61Z" fill="#6B513C"/>
<path d="M161.426 213.633C162.488 213.617 164.724 214.186 164.406 215.633C163.587 215.581 161.925 214.983 161.355 214.315C161.239 214.178 161.382 213.819 161.426 213.633Z" fill="#57423B"/>
<path d="M156.223 213.059C157.183 213.002 158.464 212.802 159.275 213.249C159.525 213.681 159.469 213.494 159.361 214.088C158.494 214.108 156.895 214.33 156.231 213.882C156.046 213.448 156.094 213.606 156.223 213.059Z" fill="#57423B"/>
<path d="M119.756 215.914C120.047 216.004 120.068 216.037 120.339 216.185C120.743 217.235 119.056 218.03 118.254 218.384C117.682 218.168 117.761 218.294 117.451 217.877L117.508 217.634C117.956 217.169 118.254 217.153 118.882 216.983C119.165 216.688 119.496 216.243 119.756 215.914Z" fill="#6B513C"/>
<path d="M153.794 213.555C154.181 213.684 154.255 213.801 154.368 214.128C154.1 214.765 152.598 215.27 151.91 215.561C151.642 215.587 151.763 215.58 151.468 215.444C151.265 215.018 151.28 215.226 151.377 214.801C151.94 214.114 152.956 213.851 153.794 213.555Z" fill="#57423B"/>
<path d="M131.03 210.608C131.935 210.553 133.247 210.871 133.939 211.48C134.279 211.779 134.209 211.989 134.234 212.414C133.488 212.366 131.728 211.863 131.184 211.318C130.913 211.047 131.01 211.028 131.03 210.608Z" fill="#6B513C"/>
<path d="M127.896 209.789C128.991 209.904 129.735 209.856 130.563 210.565L130.594 210.822C129.804 211.414 128.589 211.02 127.697 210.82L127.896 209.789Z" fill="#A07E54"/>
<path d="M149.712 220.037C150.311 220.272 150.466 220.896 150.675 221.483C150.938 222.22 151.061 222.386 150.749 223.038C149.537 222.795 148.812 221.023 149.712 220.037Z" fill="#57423B"/>
<path d="M165.84 215.662C166.533 215.908 167.476 216.694 167.829 217.351C168.044 217.752 167.901 217.872 167.745 218.286C166.92 217.921 166.036 217.195 165.575 216.406C165.55 215.933 165.52 216.115 165.84 215.662Z" fill="#6B513C"/>
<path d="M150.083 216.227C150.557 216.466 150.464 216.333 150.681 216.734C150.657 217.518 150.227 218.384 149.904 219.112L149.41 218.992C148.83 218.152 149.455 216.876 150.083 216.227Z" fill="#57423B"/>
<path d="M186.449 204.287C187.558 204.398 188.31 204.903 188.228 206.08C187.144 206.024 186.511 205.337 186.449 204.287Z" fill="#6B513C"/>
<path d="M118.952 213.178L119.143 213.492C119.491 214.011 119.742 214.55 119.246 215.021C118.484 215.029 118.235 214.81 118.198 214.045C118.395 213.525 118.472 213.512 118.952 213.178Z" fill="#6B513C"/>
<path d="M161.135 225.785C169.782 225.603 189.535 229.685 187.585 242.174C186.721 247.706 179.341 251.394 174.576 252.992C170.941 254.21 167.258 254.69 163.328 254.843C155.481 254.982 146.34 252.922 140.31 247.698C135.718 243.721 134.986 238.198 139.264 233.693C144.799 227.863 153.439 226.122 161.135 225.785Z" fill="#D5B78A"/>
<path d="M159.819 227.517C166.8 226.887 176.382 229.052 181.726 233.614C183.44 235.077 185.111 237.636 185.059 239.964C184.852 248.989 172.137 252.429 164.835 252.739C157.564 253.279 148.655 251.625 142.884 246.91C139.015 243.749 137.816 238.589 141.386 234.653C146.006 229.56 153.189 227.948 159.819 227.517Z" fill="#1D2E4F"/>
<path d="M158.896 232.726C165.299 232.2 173.227 233.524 178.661 237.137C179.991 238.02 182.506 240.137 182.781 241.907C182.887 242.589 182.105 243.718 181.646 244.27C177.79 248.893 171.048 250.263 165.391 250.82C160.435 251.047 155.903 250.849 151.165 249.226C146.966 247.787 143.106 246.06 141.378 241.728C144.168 235.536 152.713 233.332 158.896 232.726Z" fill="#A5D0DD"/>
<path d="M159.459 229.121C166.441 228.564 176.066 230.357 181.278 235.463C182.422 236.583 183.014 238.019 183.405 239.55C178.729 233.778 172.516 231.931 165.389 231.094C162.477 230.83 159.544 230.898 156.647 231.297C150.562 232.126 144.921 234.158 141.111 239.161C141.305 238.254 141.457 237.471 141.957 236.676C145.316 231.335 153.684 229.538 159.459 229.121Z" fill="#A07E54"/>
<path d="M221.555 220.341C221.89 220.169 222.171 220.039 222.474 219.811C224.885 221.127 228.055 222.426 228.93 225.195C230.186 229.168 231.638 233.002 233.229 236.851C233.601 237.74 233.474 238.721 233.176 239.616C232.377 241.524 229.807 243.096 227.959 243.824C222.658 245.914 218.678 249.784 213.876 252.548C209.321 251.391 204.58 250.154 200.014 249.099C198.188 246.079 195.666 246.034 192.737 247.466L190.032 246.349C190.223 244.316 190.408 242.502 190.38 240.452C190.203 237.648 189.768 236.277 188.373 233.879C188.055 233.548 187.274 232.503 186.95 232.097C189.955 230.656 193.355 229.644 196.566 228.565C197.893 228.121 201.592 227.371 202.826 226.532C203.419 226.13 203.16 223.522 203.1 222.628C205.517 223.428 206.581 224.129 208.78 225.074C213.544 224.094 217.287 222.551 221.555 220.341Z" fill="#7C7A78"/>
<path d="M221.555 220.341C221.89 220.169 222.171 220.039 222.474 219.811C224.885 221.127 228.055 222.426 228.93 225.195C230.186 229.168 231.638 233.002 233.229 236.851C233.601 237.74 233.474 238.721 233.176 239.616C232.963 239.545 232.575 238.56 232.361 238.224C230.694 235.59 227.335 232.956 226.591 229.903C226.407 229.147 227.971 225.905 227.616 225.108C227.146 225.045 227.307 225.053 226.796 225.418L226.518 225.363C224.319 227.131 222.59 229.101 220.001 230.254C215.564 232.229 205.124 232.475 202.11 236.409C202.057 237.69 199.632 240.15 198.736 240.988C196.438 243.133 193.801 244.616 191.025 246.034C190.662 244.628 190.477 243.533 190.495 242.081C190.5 241.716 190.544 240.733 190.38 240.452C190.203 237.648 189.768 236.277 188.373 233.879C188.055 233.548 187.274 232.503 186.95 232.097C189.955 230.656 193.355 229.644 196.566 228.565C197.893 228.121 201.592 227.371 202.826 226.532C203.419 226.13 203.16 223.522 203.1 222.628C205.517 223.428 206.581 224.129 208.78 225.074C213.544 224.094 217.287 222.551 221.555 220.341Z" fill="url(#paint0_linear_14_18190)"/>
<path d="M208.78 225.073C213.544 224.093 217.287 222.55 221.555 220.34C221.884 220.956 222.401 221.86 222.675 222.472C218.209 225.637 211.036 226.356 205.884 227.99C200.976 229.545 195.941 230.822 191.141 232.718C190.286 233.056 189.169 233.448 188.373 233.878C188.055 233.546 187.274 232.502 186.95 232.095C189.955 230.655 193.355 229.643 196.566 228.564C197.893 228.119 201.592 227.37 202.826 226.531C203.419 226.129 203.16 223.521 203.1 222.627C205.517 223.427 206.581 224.127 208.78 225.073Z" fill="#7C7A78"/>
<path d="M226.518 225.361C226.335 226.828 223.841 229.667 222.574 230.644C221.741 231.291 220.811 231.804 219.82 232.162C218.441 232.675 215.101 233.395 213.509 233.788L202.491 236.595C202.254 236.512 202.301 236.554 202.11 236.408C205.124 232.473 215.564 232.227 220.001 230.252C222.59 229.1 224.319 227.129 226.518 225.361Z" fill="#1D2E4F"/>
<path d="M29.4797 190.292C29.4793 188.799 29.5525 187.307 29.6993 185.823C29.9232 183.609 32.4745 167.796 35.0776 168.148L35.2089 168.532C35.9675 171.586 36.0896 174.786 36.5893 177.875C38.1194 187.331 40.9806 197.127 49.8878 202.218C55.9158 205.664 61.8677 206.034 68.2242 203.324C67.9698 205.724 67.87 208.496 67.5728 210.795C62.7765 212.392 60.2029 212.812 57.3556 217.168C56.3194 219.052 55.3895 220.992 54.3586 222.848C54.1247 223.243 53.2268 224.825 53.0067 225.104C51.9027 226.87 50.5179 228.351 48.7451 229.468C48.0364 229.13 46.9809 228.646 46.3667 228.166C45.4771 227.719 44.975 227.346 44.1583 226.764C40.6514 224.01 37.3161 220.185 35.3985 216.157C35.0428 215.681 34.46 214.591 34.2372 214.038C33.3249 212.268 32.2905 209.87 31.7256 207.982C31.462 207.474 30.9163 205.602 30.7549 204.997C29.4595 200.137 28.9502 195.308 29.4797 190.292Z" fill="#61BBDF"/>
<path d="M29.4797 190.292C29.4793 188.799 29.5525 187.307 29.6993 185.823C29.9232 183.609 32.4745 167.796 35.0776 168.148L35.2089 168.532C29.1588 183.315 31.2065 208.666 48.4826 215.824C51.3833 217.027 54.2184 217.236 57.3556 217.168C56.3194 219.052 55.3895 220.992 54.3586 222.848C54.1247 223.243 53.2268 224.825 53.0067 225.104C51.9027 226.87 50.5179 228.351 48.7451 229.468C48.0364 229.13 46.9809 228.646 46.3667 228.166C45.4771 227.719 44.975 227.346 44.1583 226.764C40.6514 224.01 37.3161 220.185 35.3985 216.157C35.0428 215.681 34.46 214.591 34.2372 214.038C33.3249 212.268 32.2905 209.87 31.7256 207.982C31.462 207.474 30.9163 205.602 30.7549 204.997C29.4595 200.137 28.9502 195.308 29.4797 190.292Z" fill="#4791C2"/>
<path d="M29.4797 190.291C29.584 199.396 33.4784 208.461 39.9089 214.977C43.1078 218.218 49.7868 222.478 54.3586 222.847C54.1247 223.243 53.2268 224.824 53.0067 225.104C51.9027 226.87 50.5179 228.35 48.7451 229.467C48.0364 229.129 46.9809 228.645 46.3667 228.166C45.4771 227.718 44.975 227.346 44.1583 226.763C40.6514 224.009 37.3161 220.184 35.3985 216.156C35.0428 215.681 34.46 214.591 34.2372 214.037C33.3249 212.267 32.2905 209.869 31.7256 207.981C31.462 207.474 30.9163 205.602 30.7549 204.997C29.4595 200.136 28.9502 195.308 29.4797 190.291Z" fill="#29678A"/>
<path d="M35.3984 216.157C35.5422 215.436 35.6309 214.947 35.868 214.248C37.28 215.676 38.5964 217.048 40.1404 218.34C41.3973 219.393 42.7236 220.241 43.9853 221.245C44.1058 223.05 44.1208 224.948 44.1583 226.764C40.6514 224.01 37.3161 220.185 35.3984 216.157Z" fill="#3D969E"/>
<path d="M45.7733 222.301C48.4138 223.642 50.3072 224.153 53.0066 225.105C51.9027 226.871 50.5179 228.352 48.745 229.469C48.0364 229.131 46.9809 228.647 46.3666 228.167C45.9544 226.397 45.8653 224.13 45.7733 222.301Z" fill="#3D969E"/>
<path d="M31.7256 207.982C32.3188 208.299 34.1276 211.89 34.754 212.699C34.9989 213.014 34.4434 213.773 34.2372 214.039C33.3249 212.268 32.2905 209.87 31.7256 207.982Z" fill="#3D969E"/>
<path d="M51.9823 206.398C53.9527 206.508 57.1596 206.855 58.9553 207.594C62.4362 209.026 61.4634 212.261 58.1921 213.426C57.9957 213.481 57.7979 213.53 57.5987 213.576C55.6801 214 53.5295 213.954 51.7877 212.827C50.2281 211.819 48.5201 209.232 49.8659 207.42C50.4035 206.695 51.1029 206.496 51.9823 206.398Z" fill="#4791C2"/>
<path d="M39.1805 197.816C43.3265 197.93 48.1788 205.625 43.8877 207.015C39.2082 207.253 34.6974 199.118 39.1805 197.816Z" fill="#4791C2"/>
<path d="M26.3445 185.175C24.0757 183.498 21.1355 181.399 19.1282 179.478C15.6254 176.124 12.6192 170.452 12.4904 165.52C12.4773 165.017 12.5651 164.23 12.9581 163.864C13.5651 163.299 15.3376 164.142 16.3244 164.168C17.3538 164.196 18.735 164.028 19.4624 163.217C22.9086 159.376 19.4398 151.514 19.4971 146.811C19.5068 146.016 19.618 145.424 20.1555 144.918C22.8712 143.913 28.5847 146.648 30.7836 148.165C35.8572 151.667 39.0904 153.543 41.0286 145.705C44.319 148.248 45.5434 152.669 46.067 156.641C46.2981 158.394 46.4228 162.597 48.5816 163.178C50.1874 163.611 51.389 162.371 52.6753 161.654L52.902 161.804C53.5328 162.85 53.5716 164.592 53.5439 165.789C53.4105 171.583 50.62 176.518 46.5116 180.444C44.2508 182.861 43.3971 183.638 41.9003 186.595L40.7107 181.364C40.5038 180.537 40.3779 179.586 40.2454 178.736C39.8656 176.732 39.6143 174.478 39.353 172.438C39.125 171.323 38.9031 170.246 38.7758 169.112C38.2814 166.804 37.7429 164.995 35.1242 164.651C34.4226 164.808 33.9533 164.903 33.2733 165.166C31.5651 166.657 30.7828 167.674 29.8882 169.796C29.6066 170.776 29.2817 171.503 28.8794 172.441C28.3202 174.377 27.7222 176.608 27.3508 178.588C27.2189 179.376 27.0739 180.164 26.9162 180.949C26.6555 182.346 26.4648 183.757 26.3445 185.175Z" fill="#3D969E"/>
<path d="M50.2393 165.971C50.2103 170.64 48.8903 172.464 46.3087 176.106C46.6638 178.599 46.4979 178.25 46.5116 180.444C44.2508 182.861 43.3972 183.638 41.9003 186.595L40.7107 181.364C40.5038 180.537 40.3779 179.586 40.2454 178.736C40.9804 178.532 42.3407 177.28 42.914 176.774C46.3971 173.69 48.1117 169.971 50.2393 165.971Z" fill="#29678A"/>
<path d="M40.7107 181.364C42.1802 180.549 44.9641 177.463 46.3087 176.105C46.6638 178.598 46.4979 178.25 46.5116 180.444C44.2508 182.86 43.3971 183.638 41.9003 186.595L40.7107 181.364Z" fill="#2E8490"/>
<path d="M15.5104 168.137C18.5749 172.556 22.0546 176.774 27.3509 178.588C27.2189 179.377 27.0739 180.165 26.9162 180.949C26.6769 180.662 24.3569 179.63 23.7935 179.278C19.0552 176.312 16.8156 173.474 15.5104 168.137Z" fill="#29678A"/>
<path d="M33.2733 165.166C32.9897 161.151 31.1967 156.578 29.5366 152.917C29.2264 152.233 28.1661 151.063 28.8421 150.484C29.8093 150.585 31.1137 152.43 31.5474 153.251C33.3885 156.74 34.8217 160.702 35.1242 164.65C34.4226 164.808 33.9533 164.903 33.2733 165.166Z" fill="#29678A"/>
<path d="M38.7758 169.112C40.8789 166.583 41.7815 159.898 41.761 156.629C41.758 156.155 41.6788 155.074 42.1864 155.002C43.3024 156.305 43.225 159.603 43.1285 161.189C42.8458 165.832 40.9927 168.567 39.3531 172.438C39.125 171.323 38.9031 170.246 38.7758 169.112Z" fill="#29678A"/>
<path d="M24.1042 160.184C24.8641 161.459 25.9417 162.619 26.7369 163.898C27.9083 165.78 28.8896 167.815 29.8882 169.796C29.6066 170.777 29.2817 171.504 28.8793 172.442C27.524 168.454 24.8948 164.149 24.1042 160.184Z" fill="#29678A"/>
<path d="M78.9017 223.777C84.1712 223.472 90.0161 224.723 94.1359 228.076C99.2217 232.216 99.9624 238.693 95.6675 243.691C91.7404 248.262 85.9507 250.249 80.1608 250.796C74.5492 251.047 69.05 250.212 64.609 246.433C59.4845 242.071 59.3063 235.388 63.7547 230.449C67.586 226.194 73.2674 224.123 78.9017 223.777Z" fill="#D5B78A"/>
<path d="M80.5012 225.115C84.852 224.917 89.624 226.278 92.9387 229.133C98.7885 234.173 96.7143 241.781 90.6492 245.557C86.7145 248.006 83.3267 248.937 78.6937 249.113C74.3275 249.214 69.6083 248.091 66.2042 245.206C61.6908 241.379 61.5179 235.201 65.513 230.89C69.5638 226.517 74.7572 225.407 80.5012 225.115Z" fill="#1D2E4F"/>
<path d="M64.9764 241.31C64.4099 240.122 64.1666 238.806 64.2711 237.495C64.9475 229.637 76.1622 226.06 82.7983 227.009C89.1287 227.913 95.3298 230.971 94.5437 238.287C93.2472 241.9 90.9024 244.035 87.4264 245.668C85.1218 246.742 82.6391 247.38 80.1028 247.553C80.1388 246.362 80.3109 245.538 79.7014 244.521L79.4166 244.352C78.3865 244.858 78.6061 246.663 78.6804 247.645C75.04 247.648 71.8229 247.153 68.6769 245.168C69.4088 244.666 69.8256 244.483 70.16 243.662L70.0972 243.398C69.2232 243.252 68.5137 244.111 67.9314 244.695C66.499 243.593 65.8545 242.903 64.9764 241.31Z" fill="#E7CB9C"/>
<path d="M85.6252 229.539C86.207 229.235 86.2731 229.161 86.9051 229.143C87.452 229.454 87.3539 229.632 87.2294 230.217C86.13 232.402 83.495 238.122 82.0416 240.193C81.9215 240.364 78.2077 242.411 77.5915 242.679C76.512 243.148 72.4892 246.459 71.615 245.409C71.3404 244.018 72.8153 241.869 73.4865 240.615L76.4083 235.049C79.5598 233.363 82.5933 231.433 85.6252 229.539Z" fill="#1D2E4F"/>
<path d="M85.0255 231.34L85.1328 231.504C84.0559 233.685 82.9858 235.909 81.8195 238.04C81.599 236.956 81.5957 236.471 80.7753 235.714C79.7338 235.369 79.3297 235.372 78.2796 235.428C80.4755 234.283 82.9071 232.677 85.0255 231.34Z" fill="url(#paint1_linear_14_18190)"/>
<path d="M76.5646 237.461C76.8465 238.344 77.022 238.647 77.652 239.319C78.3776 239.736 78.5747 239.818 79.3639 240.081C77.6311 241.162 75.9455 242.241 74.133 243.187C74.2102 242.915 74.2893 242.772 74.4105 242.516L74.0188 242.292C74.8158 240.669 75.706 239.056 76.5646 237.461Z" fill="#4791C2"/>
<path d="M77.652 239.32C78.3777 239.737 78.5747 239.819 79.3639 240.082C77.6312 241.163 75.9455 242.242 74.133 243.188C74.2102 242.916 74.2893 242.773 74.4105 242.517C75.1379 241.935 76.8459 240.098 77.652 239.32Z" fill="#29678A"/>
<path d="M78.7803 236.012C80.6847 236.083 81.6833 237.346 79.7125 238.554C77.8838 238.561 76.6963 237.079 78.7803 236.012Z" fill="#D5B78A"/>
<path d="M74.0188 242.293L74.4105 242.517C74.2893 242.773 74.2102 242.916 74.133 243.188C74.0718 243.252 73.6647 243.513 73.5645 243.58L73.4127 243.479C73.5122 242.916 73.6721 242.777 74.0188 242.293Z" fill="#2E8490"/>
<path d="M64.9764 241.31C64.4099 240.122 64.1666 238.806 64.2711 237.495C64.9475 229.637 76.1622 226.06 82.7983 227.009C89.1287 227.913 95.3298 230.971 94.5437 238.287C93.528 237.557 92.0565 238.012 90.481 237.812C91.5461 237.696 93.315 238.11 93.9668 237.416C94.0411 236.966 93.9437 236.837 93.7714 236.416L93.7986 236.151C92.8741 233.891 91.8203 232.779 89.8909 231.305C90.0429 230.787 90.073 231.012 89.9442 230.589C89.4498 230.485 89.4964 230.563 88.9384 230.734C88.4725 230.567 87.7217 230.364 87.2295 230.215C87.354 229.63 87.452 229.452 86.9051 229.141C86.2731 229.16 86.207 229.233 85.6252 229.538C84.6134 229.243 81.7959 228.963 80.6782 228.862C80.671 228.29 80.7261 228.096 80.4236 227.649C80.0094 227.39 80.2221 227.426 79.7717 227.498C79.2889 227.929 79.277 227.957 79.2381 228.671C79.2314 228.795 79.2261 228.919 79.2221 229.044C76.54 229.197 73.3922 229.905 71.2112 231.535C70.7722 231.154 70.5262 230.842 69.9051 231.05C69.7129 231.488 69.8496 231.615 70.1583 232C69.2198 232.587 65.0877 236.124 65.7516 237.2L65.9373 237.265C65.4045 237.335 65.3228 237.308 64.9675 237.668L64.8539 237.972C65.2619 238.796 65.9756 238.711 66.7813 238.692C66.3387 238.77 65.9346 238.735 65.7706 239.12C65.3892 240.014 65.446 240.398 64.9764 241.31Z" fill="#D5B78A"/>
<path d="M65.9373 237.266C66.8886 237.214 68.6293 236.969 69.2229 237.882C69.0137 238.774 67.5187 238.671 66.7813 238.693C65.9756 238.712 65.2619 238.797 64.8539 237.973L64.9674 237.668C65.3228 237.309 65.4045 237.335 65.9373 237.266Z" fill="#1F2A42"/>
<path d="M90.481 237.812C90.0484 237.677 89.9478 237.592 89.7595 237.267L89.9231 236.96C90.8453 236.367 92.7016 236.407 93.7714 236.416C93.9437 236.837 94.0411 236.967 93.9668 237.417C93.315 238.11 91.5461 237.696 90.481 237.812Z" fill="#1D2E4F"/>
<path d="M79.2221 229.044C79.2261 228.92 79.2314 228.795 79.2381 228.671C79.277 227.958 79.2888 227.93 79.7716 227.498C80.2221 227.426 80.0094 227.39 80.4235 227.649C80.7261 228.097 80.6709 228.29 80.6782 228.862C80.5825 229.697 80.6866 230.15 79.9039 230.584C79.0902 230.46 79.1864 229.698 79.2221 229.044Z" fill="#1D2E4F"/>
<path d="M70.1582 232.001C69.8495 231.616 69.7129 231.489 69.9051 231.051C70.5261 230.843 70.7722 231.155 71.2112 231.536C71.5762 231.881 71.8163 232.029 71.9537 232.487L71.8797 232.741C71.1118 232.926 70.7233 232.454 70.1582 232.001Z" fill="#1F2A42"/>
<path d="M88.9384 230.734C89.4964 230.563 89.4498 230.486 89.9442 230.59C90.073 231.012 90.0429 230.788 89.8909 231.306C89.2975 231.719 88.8597 232.163 88.1008 231.948L88.0367 231.702C88.2239 231.235 88.5386 231.055 88.9384 230.734Z" fill="#1F2A42"/>
<path d="M87.3425 242.256C88.3715 242.642 89.2176 243.306 89.1351 244.464C88.0232 244.043 86.9581 243.584 87.3425 242.256Z" fill="#1F2A42"/>
<path d="M79.0621 210.7C80.9485 210.143 82.7639 209.608 84.6242 208.959C86.066 210.653 87.4378 212.222 88.9788 213.814C91.1241 216.032 92.5469 216.918 95.6596 217.166C96.4251 217.225 97.1911 217.277 97.9573 217.325C97.2179 218.053 95.9842 219.196 95.411 219.999C95.8532 220.711 96.3851 221.221 96.9887 221.791C100.906 225.49 104.827 229.224 108.849 232.806C109.885 233.729 112.125 233.534 113.395 233.455C112.373 235.054 111.681 235.698 113.224 237.255C114.559 238.601 115.969 239.825 117.302 241.209C119.058 243.033 122.038 247.052 124.215 248.155C126.269 249.196 131.719 247.972 133.962 247.265C134.567 251.653 136.015 254.202 139.647 256.982C139.87 257.152 140.101 257.311 140.34 257.458C140.215 257.839 140.119 258.165 139.946 258.531C138.546 258.247 137.319 258.226 135.996 257.984C130.847 257.465 125.736 256.62 120.694 255.455C119.264 255.134 117.6 254.273 116.377 254.074C113.464 253.598 110.046 254.413 107.086 254.282C104.651 254.174 102.399 253.128 99.9795 252.691L99.7582 252.652C98.5073 252.559 97.0292 252.557 95.7596 252.527L96.3217 251.953C99.9612 248.209 101.192 244.676 101.12 239.547C101.008 228.886 95.8129 224.74 86.1563 221.925C86.764 218.843 86.3013 216.632 83.3108 215.089C81.5234 214.156 79.4347 213.988 77.5209 214.621C74.0427 215.79 72.581 218.503 73.823 222.06C72.6688 222.401 71.4848 222.818 70.3406 223.202C69.9404 222.808 69.6586 222.532 69.2945 222.096C69.3583 221.54 69.2906 220.236 69.2731 219.618C67.8348 218.546 65.6609 217.73 64.5887 216.168C64.6174 215.88 64.6981 215.809 64.8719 215.58L64.671 215.345C65.2295 215.037 67.6831 214.187 68.3345 213.973C71.8727 212.811 75.4901 211.765 79.0621 210.7Z" fill="#A6A196"/>
<path d="M79.0621 210.7C80.9485 210.143 82.7639 209.608 84.6242 208.959C86.066 210.653 87.4378 212.222 88.9788 213.814C91.124 216.032 92.5469 216.918 95.6596 217.166C96.4251 217.225 97.1911 217.277 97.9573 217.325C97.2179 218.053 95.9842 219.196 95.411 219.999C95.8532 220.711 96.3851 221.221 96.9887 221.791C100.906 225.49 104.827 229.224 108.849 232.806C109.885 233.729 112.125 233.534 113.395 233.455C112.373 235.054 111.681 235.698 113.224 237.255C114.559 238.601 115.969 239.825 117.302 241.209C119.058 243.033 122.038 247.052 124.215 248.155C126.269 249.196 131.719 247.972 133.962 247.265C134.567 251.653 136.015 254.202 139.647 256.982C139.87 257.152 140.101 257.311 140.34 257.458C140.215 257.839 140.119 258.165 139.946 258.531C138.546 258.247 137.319 258.226 135.996 257.984L136.313 257.855C136.08 257.269 135.038 256.46 134.658 255.911C133.189 253.793 132.426 252.143 131.864 249.693C129.734 249.972 124.141 251.537 122.554 250.366C118.514 247.418 115.67 242.434 112.122 239.053C108.91 235.992 105.596 233.347 102.496 230.056C99.789 227.393 96.8083 225.003 94.0419 222.418C89.9749 218.617 84.0132 213.127 79.0621 210.7Z" fill="#7C7A78"/>
<path d="M101.12 239.547C101.483 242.653 102.517 244.886 101.528 248.248C101.193 249.388 100.298 251.319 99.6805 252.397C99.7064 252.482 99.7323 252.566 99.7582 252.652C98.5073 252.558 97.0292 252.557 95.7596 252.526L96.3217 251.953C99.9612 248.208 101.192 244.676 101.12 239.547Z" fill="#636364"/>
<path d="M116.366 152.522C118.004 152.11 118.812 152.165 120.46 152.42C121.1 152.519 122.832 152.865 123.283 152.617C124.09 153.11 125.026 154.128 125.99 154.476C131.361 156.42 138.574 157.353 144.241 157.17C145.131 157.011 147.131 156.98 148.304 156.828C148.257 158.04 148.378 159.842 148.432 161.086C148.664 166.66 149.339 172.207 150.45 177.675C150.735 179.117 152.284 183.933 152.254 184.465C151.066 184.453 150.649 186.796 149.774 187.444C147.535 187.818 138.359 190.737 136.973 190.12C136.779 190.035 136.77 189.87 136.747 189.67C136.549 187.876 137.177 187.179 136.484 185.13L136.426 184.964C136.025 184.121 135.822 183.717 135.313 182.942C133.493 180.542 131.947 179.766 129.183 178.736C129.041 174.099 128.677 171.903 126.831 167.636C126.451 167.082 125.657 165.577 125.379 164.987C124.833 164.112 124.198 163.254 123.596 162.412C122.939 161.751 121.703 160.256 121.02 159.49C119.049 157.277 117.744 156.308 115.37 154.635C115.757 153.79 115.874 153.366 116.366 152.522Z" fill="#6BC9C5"/>
<path d="M116.366 152.522C118.004 152.11 118.812 152.165 120.46 152.42C121.1 152.519 122.832 152.865 123.283 152.617C124.09 153.11 125.026 154.128 125.99 154.476C131.361 156.42 138.574 157.353 144.241 157.17L145.859 157.175C145.908 158.808 145.841 161.171 145.979 162.674C141.283 166.26 137.19 167.1 131.302 166.307C129.292 166.045 127.309 165.604 125.379 164.987C124.833 164.112 124.198 163.254 123.596 162.412C122.939 161.751 121.703 160.256 121.02 159.49C119.049 157.277 117.744 156.308 115.37 154.635C115.757 153.79 115.874 153.366 116.366 152.522Z" fill="#3D969E"/>
<path d="M123.596 162.413C124.319 162.202 126.759 163.106 127.756 163.279C133.542 164.281 140.421 164.873 145.707 161.992C145.892 162.291 145.884 162.33 145.979 162.675C141.283 166.261 137.19 167.101 131.302 166.308C129.292 166.046 127.309 165.605 125.379 164.988C124.833 164.112 124.198 163.255 123.596 162.413Z" fill="#6BC9C5"/>
<path d="M144.241 157.17C145.131 157.011 147.131 156.98 148.303 156.828C148.257 158.04 148.378 159.842 148.432 161.086C148.664 166.66 149.339 172.207 150.45 177.675C150.735 179.117 152.284 183.933 152.254 184.465C151.066 184.453 150.649 186.796 149.774 187.444C147.535 187.818 138.359 190.738 136.973 190.12C136.779 190.035 136.77 189.871 136.747 189.67C136.549 187.876 137.177 187.18 136.484 185.13L136.426 184.965C136.025 184.122 135.822 183.717 135.313 182.942C140.223 182.72 143.906 181.498 147.577 178.08C146.769 173.774 146.583 169.564 145.971 165.336C145.577 165.602 145.179 165.862 144.777 166.116C140.173 169.015 134.064 169.352 128.852 168.126C128.177 167.967 127.51 167.792 126.831 167.637C126.451 167.082 125.657 165.578 125.378 164.987C127.309 165.604 129.292 166.045 131.301 166.307C137.19 167.101 141.283 166.26 145.979 162.675C145.841 161.172 145.908 158.808 145.859 157.176L144.241 157.17Z" fill="#29678A"/>
<path d="M136.426 184.965L136.526 184.945C137.424 184.778 138.39 184.769 139.252 184.579C142.776 183.803 145.158 182.32 148.024 180.297C148.41 182.027 149.219 185.942 149.774 187.445C147.535 187.819 138.359 190.738 136.973 190.121C136.779 190.035 136.77 189.871 136.747 189.67C136.549 187.876 137.177 187.18 136.484 185.131L136.426 184.965Z" fill="#6BC9C5"/>
<path d="M98.6422 268.52C100.242 265.377 102.578 261.431 104.768 258.701C107.402 255.419 113.518 255.242 117.339 256.314C118.677 256.573 119.773 256.943 121.01 257.205C126.035 258.087 135.212 260.149 140.026 259.107C144.761 263.409 147.366 264.524 153.435 266.915C154.303 267.256 157.7 268.357 158.265 268.795C153.109 270.127 146.91 270.752 141.604 270.749C137.527 270.748 133.069 270.409 128.997 270.894C124.774 271.225 118.027 274.413 113.828 273.627C109.091 272.74 103.506 269.888 98.6422 268.52Z" fill="#7C7A78"/>
<path d="M117.339 256.314C118.677 256.574 119.773 256.944 121.01 257.206C123.349 260.806 125.32 265.341 126.876 269.333C123.484 269.203 121.092 269.011 117.799 268.27C115.465 265.174 113.207 260.705 111.302 257.222C113.331 256.795 115.31 256.694 117.339 256.314Z" fill="#A6A196"/>
<path d="M64.671 215.344L64.8719 215.579C64.6981 215.807 64.6174 215.878 64.5887 216.167C65.6609 217.729 67.8348 218.545 69.2731 219.616C69.2906 220.235 69.3583 221.539 69.2945 222.095C69.6586 222.53 69.9404 222.807 70.3406 223.201C65.4477 225.253 61.3073 228.267 59.1115 233.332C57.5677 236.892 57.9912 241.822 58.561 245.63C55.0912 244.379 51.6713 243.08 48.4214 241.347C47.4964 240.854 44.2401 238.465 43.5886 238.497C43.3385 239.409 44.9716 240.558 45.6102 241.106C49.6166 244.545 54.8774 246.115 59.5551 248.366L60.4574 249.873C60.4746 251.398 61.0848 262.325 61.3424 262.972L61.2001 263.081C55.3773 261.729 41.377 257.929 36.7646 253.653C36.4211 253.275 36.2579 252.68 36.3679 252.18C36.8214 250.122 37.9377 248.092 38.6562 246.11C39.4254 243.988 40.0985 241.821 41.0493 239.802C42.4305 236.87 45.7059 235.591 48.1978 233.808C49.6779 232.768 51.1427 231.707 52.6151 230.616C53.8083 229.412 54.7783 228.43 55.7646 226.97C57.8635 223.864 59.0281 219.938 61.4844 217.117C62.1689 216.33 63.7292 215.727 64.671 215.344Z" fill="url(#paint2_linear_14_18190)"/>
<path d="M64.671 215.344L64.8719 215.579C64.6981 215.807 64.6174 215.878 64.5887 216.167C65.6609 217.729 67.8348 218.545 69.2731 219.616C69.2906 220.235 69.3583 221.539 69.2945 222.095C67.0097 220.751 64.7007 219.451 62.3682 218.192C60.3498 223.918 59.2972 227.479 53.4559 230.333C53.1618 230.477 52.9286 230.534 52.6151 230.616C53.8083 229.412 54.7783 228.43 55.7646 226.97C57.8635 223.864 59.0281 219.938 61.4844 217.117C62.1689 216.33 63.7292 215.727 64.671 215.344Z" fill="#BFBCB3"/>
<path d="M148.303 156.828C148.983 157.273 150.604 160.119 151.114 160.958C155.149 166.394 160.345 170.676 167.216 171.686C167.778 171.768 168.342 171.841 168.907 171.908C168.903 173.85 168.895 175.448 170.447 176.938C172.316 178.731 175.99 179.226 178.476 179.556C178.749 180.021 178.834 180.311 179.297 180.492C180.656 180.354 181.047 178.76 181.862 177.885C186.838 172.536 185.224 181.862 185.407 182.163C185.806 182.134 185.736 182.019 186.055 181.842C187.326 181.14 187.919 179.554 188.018 177.881C188.094 176.599 188.639 172.359 191.232 174.632C192.122 175.412 192.094 178.827 191.522 180.16C189.482 185.512 182.128 186.314 177.199 186.684C176.687 186.722 175.616 187.021 175.089 187.158C168.432 188.901 161.171 188 154.769 185.669C154.112 185.43 152.809 184.891 152.254 184.465C152.284 183.933 150.735 179.117 150.45 177.675C149.339 172.207 148.664 166.66 148.432 161.086C148.378 159.842 148.257 158.04 148.303 156.828Z" fill="#61BBDF"/>
<path d="M148.303 156.828C148.983 157.273 150.604 160.119 151.114 160.958C150.681 162.14 152.235 170.965 152.654 172.665C152.932 173.83 153.322 174.966 153.821 176.056C155.223 179.043 158.813 181.694 161.837 182.746C167.719 184.79 174.384 184.648 180.483 183.745C183.293 183.329 184.707 183.503 187.475 182.183C188.282 181.798 190.922 180.37 191.522 180.16C189.482 185.512 182.128 186.314 177.199 186.684C176.687 186.722 175.616 187.021 175.089 187.158C168.432 188.901 161.171 188 154.769 185.669C154.112 185.43 152.809 184.891 152.254 184.465C152.284 183.933 150.735 179.117 150.45 177.675C149.339 172.207 148.664 166.66 148.432 161.086C148.378 159.842 148.257 158.04 148.303 156.828Z" fill="#4791C2"/>
<path d="M138.286 34.8164C142.908 36.7408 145.978 42.3866 147.821 46.8553C150.306 52.8907 151.137 59.4787 150.233 65.9422C149.989 67.7721 149.634 69.8622 148.851 71.5401C148.814 71.5863 148.655 71.6774 148.596 71.715C147.04 70.8276 142.988 65.2011 141.921 63.5571C141.185 62.8472 139.866 61.0942 139.205 60.2239C132.448 51.3304 122.418 46.934 111.218 50.2633C110.596 49.3437 108.851 47.426 108.807 46.6976C109.723 45.4263 114.142 47.4745 115.748 46.325C117.285 45.2251 116.46 41.0655 117.069 39.2954C117.092 38.9713 117.695 37.912 118.074 37.8664C122.173 37.3735 126.42 41.089 128.934 43.9792C129.482 44.6097 129.773 44.883 130.213 45.5193C130.569 46.0347 130.554 47.1416 131.291 47.3053C135.467 47.6299 136.653 39.2275 137.216 36.9269L137.458 36.2057C137.739 35.6761 137.922 35.3012 138.286 34.8164Z" fill="#3D969E"/>
<path d="M137.216 36.9258C139.411 42.9714 137.313 49.4428 138.729 55.6846C139.035 57.0533 139.468 58.3904 140.024 59.6781C140.422 60.5848 141.981 62.8287 141.921 63.556C141.185 62.846 139.866 61.093 139.205 60.2228C132.448 51.3293 122.418 46.9328 111.218 50.2622C110.596 49.3426 108.851 47.4249 108.807 46.6965C109.723 45.4251 114.142 47.4734 115.748 46.3239C117.285 45.2239 116.46 41.0644 117.069 39.2943C117.092 38.9702 117.695 37.9108 118.074 37.8653C122.173 37.3724 126.42 41.0879 128.934 43.9781C129.482 44.6086 129.773 44.8819 130.213 45.5181C130.569 46.0336 130.554 47.1405 131.291 47.3041C135.467 47.6288 136.653 39.2264 137.216 36.9258Z" fill="#2E8490"/>
<path d="M138.286 34.8164C142.908 36.7408 145.978 42.3866 147.821 46.8553C150.306 52.8907 151.137 59.4787 150.233 65.9422C149.989 67.7721 149.634 69.8622 148.851 71.5401C148.078 69.9728 147.65 65.7637 147.567 63.9082C147.199 55.6567 146.147 47.2196 141.279 40.2675C140.32 38.8993 138.684 37.3915 137.458 36.2057C137.739 35.6761 137.922 35.3012 138.286 34.8164Z" fill="#6BC9C5"/>
<path d="M60.4574 249.875C68.1286 260.295 83.3374 260.73 93.6593 254.112C94.8008 254.261 95.9443 254.395 97.0895 254.512C100.104 254.936 103.207 255.422 106.245 255.521C103.027 257.357 102.219 259.385 100.334 262.447C99.1946 264.297 97.9637 266.324 96.7299 268.11C91.9773 267.421 87.5109 267.726 82.7335 267.871C80.5364 267.939 77.6162 268.086 75.4423 267.803C73.3363 267.671 69.9511 266.092 67.8981 265.326C65.5668 264.456 63.6152 263.75 61.2001 263.083L61.3424 262.973C61.0848 262.327 60.4746 251.399 60.4574 249.875Z" fill="#7C7A78"/>
<path d="M60.4574 249.875C68.1286 260.295 83.3374 260.73 93.6593 254.112C94.8008 254.261 95.9443 254.395 97.0895 254.512C96.1292 255.011 95.1519 255.796 94.225 256.233C90.8368 257.828 87.4933 259.2 83.9079 260.315C82.1001 260.876 79.6929 260.943 78.0876 261.946C76.8686 262.935 75.9872 266.256 75.4423 267.803C73.3363 267.671 69.9511 266.092 67.8981 265.326C65.5668 264.456 63.6152 263.75 61.2001 263.083L61.3424 262.973C61.0848 262.327 60.4746 251.399 60.4574 249.875Z" fill="#636364"/>
<path d="M194.212 182.527C197.464 184.412 200.746 186.339 203.964 188.282C209.301 191.501 215.024 194.296 220.299 197.578C216.043 198.721 212.989 200.274 211.147 204.562C210.288 206.924 210.16 208.403 210.498 210.882C208.164 209.019 205.455 207.082 203.045 205.278C197.993 201.455 192.88 197.711 187.709 194.049C185.488 192.47 182.984 190.873 180.844 189.29C182.915 189.233 184.899 188.511 186.861 187.878C189.988 186.529 192.123 185.34 194.212 182.527Z" fill="#E7CB9C"/>
<path d="M186.861 187.877C187.302 188.373 187.975 188.767 188.509 189.18C193.674 193.168 199.174 196.753 204.632 200.325C206.775 201.726 209.073 203.084 211.147 204.561C210.288 206.923 210.16 208.402 210.498 210.881C208.164 209.018 205.455 207.081 203.045 205.277C197.993 201.454 192.88 197.71 187.709 194.048C185.488 192.469 182.984 190.872 180.844 189.289C182.915 189.232 184.899 188.51 186.861 187.877Z" fill="#C39E72"/>
<path d="M57.4965 70.3477C65.3198 76.6656 77.3939 87.9235 81.0378 97.5922C80.515 99.2661 79.896 100.73 79.3661 102.329C77.3894 102.057 75.7653 101.959 73.8049 101.776C67.7082 101.503 59.4715 102.137 53.4623 103.159C60.2208 93.7213 62.1712 86.2711 59.2145 74.7794C58.6676 73.2308 58.1935 71.8392 57.4965 70.3477Z" fill="#6BC9C5"/>
<path d="M57.4965 70.3477C65.3198 76.6656 77.3939 87.9235 81.0378 97.5922C80.515 99.2661 79.896 100.73 79.366 102.329C77.3893 102.057 75.7653 101.959 73.8049 101.776C74.0507 100.402 74.2882 98.9835 74.2337 97.5844C74.0143 91.9526 65.9903 82.6655 62.3031 78.3694C61.3074 77.209 60.3374 75.8056 59.2145 74.7794C58.6676 73.2308 58.1934 71.8392 57.4965 70.3477Z" fill="#3D969E"/>
<path d="M198.633 251.664C200.59 252.117 202.64 252.77 204.589 253.311L213.17 255.636C217.447 256.802 223.244 258.188 227.311 259.595C226.72 260.239 225.953 261.032 225.426 261.704C224.621 263.028 223.777 264.553 223.318 266.042C222.868 267.748 222.89 269.302 223.107 271.031C218.73 269.341 214.184 267.334 209.849 265.508C205.292 263.588 200.397 261.682 195.914 259.633C195.158 258.057 195.336 257.429 195.716 255.748C196.068 254.782 196.4 254.025 196.992 253.187C197.553 252.618 197.994 252.148 198.633 251.664Z" fill="#A07E54"/>
<path d="M195.716 255.748C198.058 257 202.801 258.614 205.431 259.57L223.318 266.042C222.868 267.748 222.89 269.302 223.107 271.031C218.73 269.341 214.184 267.334 209.849 265.508C205.292 263.588 200.397 261.681 195.914 259.633C195.158 258.057 195.336 257.429 195.716 255.748Z" fill="#6B513C"/>
<path d="M198.633 251.664C200.59 252.117 202.64 252.77 204.589 253.311L213.17 255.636C217.447 256.802 223.244 258.188 227.311 259.595C226.72 260.239 225.953 261.032 225.426 261.704L210.016 257.14C205.686 255.786 201.345 254.467 196.992 253.187C197.553 252.618 197.994 252.148 198.633 251.664Z" fill="#C39E72"/>
<path d="M85.6563 52.9347C88.0216 47.908 91.2261 44.5439 96.733 43.3066C101.382 45.263 105.523 48.0204 108.408 52.2512C102.611 52.8761 97.5001 57.011 93.9078 61.3772C91.677 64.2684 90.9989 65.3527 89.3146 68.6492C87.4027 64.8606 86.7249 63.6557 84.119 60.2181C84.1855 57.4703 84.5944 55.4592 85.6563 52.9347Z" fill="#3D969E"/>
<path d="M85.6563 52.9355C86.8625 54.4579 88.9852 55.9682 90.5172 57.3717C91.9901 58.721 92.8327 60.2585 93.9078 61.3781C91.677 64.2693 90.9989 65.3536 89.3146 68.6501C87.4027 64.8615 86.7249 63.6566 84.119 60.219C84.1855 57.4712 84.5944 55.4601 85.6563 52.9355Z" fill="#29678A"/>
<path d="M54.2035 108.158C61.8892 109.199 72.488 111.198 79.5535 114.334C79.7531 117.144 80.048 119.154 80.5036 121.948C79.2707 122.923 77.4338 123.917 76.0548 124.809C75.1161 125.416 73.3716 126.77 72.5133 127.226C69.9865 129.228 68.915 130.163 66.6679 132.497C65.8152 123.194 63.5176 117.222 56.8391 110.468C56.0892 109.918 54.906 108.816 54.2035 108.158Z" fill="#6BC9C5"/>
<path d="M54.2035 108.158C61.8892 109.199 72.488 111.198 79.5535 114.334C79.7531 117.144 80.048 119.154 80.5036 121.948C79.2707 122.923 77.4338 123.917 76.0548 124.809C75.1161 125.416 73.3716 126.77 72.5133 127.226C73.0369 125.355 74.7958 123.268 74.7108 120.786C74.6608 119.326 74.5417 118.635 73.5094 117.465C72.0191 115.776 58.1419 110.464 56.8391 110.468C56.0892 109.918 54.906 108.816 54.2035 108.158Z" fill="#3D969E"/>
<path d="M95.0781 63.045C98.9619 58.5246 103.302 54.6298 109.515 53.9492C111.106 56.5157 112.977 60.0396 112.108 63.1326C110.456 69.0143 105.437 72.2856 99.8746 73.7941C97.1471 74.25 93.8329 74.4066 91.4101 72.8039C89.5185 71.5527 90.9032 69.5287 91.6548 68.0438C92.5701 66.2358 93.775 64.5965 95.0781 63.045Z" fill="#3D969E"/>
<path d="M99.8746 73.794C97.1471 74.25 93.8329 74.4066 91.4101 72.8039C89.5185 71.5527 90.9032 69.5286 91.6548 68.0438C92.5701 66.2357 93.775 64.5964 95.0781 63.0449C96.3647 65.6356 97.7353 68.0082 98.699 70.7525C98.9083 71.3488 99.5864 73.3585 99.8746 73.794Z" fill="#29678A"/>
<path d="M98.6716 150.496C106.332 151.001 114.317 155.863 119.446 161.469C121.004 163.172 121.105 164.932 121.739 167.023C121.81 167.258 121.796 167.212 122.025 167.244C122.443 166.542 122.528 165.848 122.659 165.049C125.294 169.301 126.035 171.178 126.528 176.085C122.821 169.671 117.18 163.651 111.212 159.329C109.413 158.026 107.683 156.722 105.655 155.767C107.112 157.58 108.839 159.211 110.27 160.925C114.285 165.733 119.88 172.329 122.65 177.893C121.596 177.613 120.552 177.297 119.52 176.943C116.855 176.055 114.75 175.146 112.552 173.314C113.917 173.142 114.719 173.072 116.082 172.733C116.309 172.476 116.465 172.136 116.629 171.83C115.937 171.371 115.366 171.283 114.554 171.198C109.694 170.679 106.707 166.938 104.69 162.81C105.644 162.822 106.536 162.837 107.488 162.894C107.922 162.844 108.247 162.864 108.571 162.59L108.578 162.381C108.179 161.989 107.672 161.868 107.132 161.671C102.393 160.345 102.105 159.331 100.372 154.876C99.7146 153.556 99.1483 151.902 98.6716 150.496Z" fill="#D5B78A"/>
<path d="M104.69 162.811C105.644 162.823 106.536 162.837 107.488 162.895C106.94 163.035 106.201 162.975 105.617 162.962C106.175 163.639 106.764 164.358 107.275 165.064C109.101 167.592 112.033 168.916 114.863 169.989C115.696 170.306 116.579 170.851 116.629 171.83C115.937 171.372 115.367 171.284 114.554 171.198C109.694 170.68 106.707 166.939 104.69 162.811Z" fill="#C39E72"/>
<path d="M100.372 154.877C101.117 155.326 102.576 157.127 103.257 157.851C104.385 159.051 106.373 160.284 107.132 161.672C102.393 160.347 102.105 159.333 100.372 154.877Z" fill="#C39E72"/>
<path d="M116.082 172.734C117.065 175.611 118.949 175.793 119.52 176.944C116.855 176.057 114.75 175.147 112.552 173.316C113.917 173.143 114.719 173.074 116.082 172.734Z" fill="#C39E72"/>
<path d="M136.604 247.021C137.32 247.319 139.244 249.389 140.045 250.032C144.132 253.301 149.173 255.17 154.275 256.133C163.816 257.934 174.738 256.757 182.899 251.21C182.612 252.793 182.541 253.798 183.245 255.287C178.399 258.666 173.701 260.203 167.898 261.068C157.827 262.57 138.279 259.088 136.604 247.021Z" fill="#A07E54"/>
<path d="M82.8132 37.8984C86.0505 39.445 89.0669 40.7407 92.508 41.7651C93.0724 41.9332 93.797 42.1708 94.3236 42.4038C89.2113 43.934 86.4541 46.9096 83.9762 51.5383C83.9348 51.6156 83.8939 51.6935 83.8535 51.7715C82.9188 54.4699 82.581 55.681 82.3747 58.5584C79.9748 56.5123 77.4675 54.6084 75.0864 52.5633C74.6396 50.1122 74.8771 47.9374 75.5665 45.5763C76.9402 41.9494 78.8763 39.0029 82.8132 37.8984Z" fill="#3D969E"/>
<path d="M75.5665 45.5762C77.158 47.5106 81.5932 50.2374 83.8535 51.7714C82.9188 54.4698 82.581 55.6809 82.3747 58.5583C79.9748 56.5122 77.4675 54.6083 75.0864 52.5632C74.6396 50.1121 74.8771 47.9373 75.5665 45.5762Z" fill="#29678A"/>
<path d="M194.1 77.4473C193.849 78.7393 193.594 80.4691 193.311 81.6791C192.57 90.4326 193.653 95.7046 198.94 102.968C194.992 102.797 191.577 102.625 187.637 103.289C187.242 103.411 186.663 103.48 186.242 103.545C186.55 99.42 186.55 95.1285 185.784 91.0482C187.406 87.1679 191.647 80.9912 194.1 77.4473Z" fill="#6BC9C5"/>
<path d="M194.1 77.4473C193.849 78.7393 193.594 80.4691 193.311 81.6791L193.108 81.687L193.15 82.0902C193.102 82.1048 193.053 82.1126 193.007 82.1338C191.71 82.744 189.378 89.1142 188.993 90.5866C188.567 92.2136 187.104 102.216 187.589 103.21C187.604 103.238 187.621 103.263 187.637 103.289C187.242 103.411 186.663 103.48 186.242 103.545C186.55 99.42 186.55 95.1285 185.784 91.0482C187.406 87.1679 191.647 80.9912 194.1 77.4473Z" fill="#3D969E"/>
<path d="M184.765 257.168C185.95 257.676 188.296 258.503 189.033 259.404L189.117 259.763C188.24 261.021 161.669 268.107 158.265 268.795C157.7 268.357 154.303 267.256 153.435 266.916C147.366 264.524 144.761 263.41 140.026 259.108C140.03 258.936 139.976 258.702 139.946 258.531C140.119 258.165 140.215 257.839 140.34 257.458C141.521 258.239 143.163 259.433 144.416 260.023C156.34 265.642 174.179 265.609 184.765 257.168Z" fill="#636364"/>
<path d="M164.379 47.0755C168.32 45.6403 171.974 45.3859 175.897 47.0657C180.435 49.0088 181.038 56.9878 180.982 61.1873C177.814 56.2797 172.925 53.8079 167.169 53.3596C164.591 53.3236 163.044 53.5268 160.574 54.1354C160.68 52.3605 160.667 51.5491 160.36 49.8036C161.657 48.4991 162.74 47.8584 164.379 47.0755Z" fill="#3D969E"/>
<path d="M160.36 49.8024C161.657 48.4979 162.74 47.8571 164.379 47.0742C165.141 49.309 165.582 50.9161 166.224 53.1201C166.633 53.2708 166.755 53.2883 167.169 53.3583C164.591 53.3224 163.044 53.5256 160.574 54.1341C160.68 52.3592 160.667 51.5479 160.36 49.8024Z" fill="#29678A"/>
<path d="M69.484 33.612C70.6167 32.2064 73.4621 29.8232 75.5667 30.6323C75.9947 30.7969 77.2415 32.955 77.6866 33.3992C78.7312 34.5963 80.0293 35.7164 81.2108 36.7462C77.5871 38.4371 75.5946 40.2757 74.0486 44.0454C73.1056 46.7606 72.9942 47.677 73.0181 50.5129C70.1258 47.641 68.2001 43.9393 67.5088 39.9222C67.1024 37.5047 68.1047 35.5231 69.484 33.612Z" fill="#3D969E"/>
<path d="M73.0181 50.5122C70.1258 47.6403 68.2001 43.9386 67.5088 39.9215C67.1024 37.504 68.1047 35.5224 69.484 33.6113L69.523 33.7282C69.8587 34.7622 70.0599 35.8836 70.3566 36.9383C70.9599 39.0834 72.5547 42.3403 74.0486 44.0447C73.1056 46.7599 72.9942 47.6763 73.0181 50.5122Z" fill="#29678A"/>
<path d="M98.53 242.662C98.5963 243.021 98.4964 243.514 98.4085 243.867C97.4619 247.708 94.7621 250.631 91.4373 252.642C82.5549 258.016 67.8814 257.27 62.0954 247.708C61.6038 246.871 61.3039 246.045 60.9482 245.146C62.48 246.75 63.8671 248.181 65.7782 249.356C75.9407 255.601 92.0496 253.007 98.53 242.662Z" fill="#A07E54"/>
<path d="M162.468 55.7084C163.74 55.4337 165.029 55.381 166.323 55.3535C170.957 55.4373 174.782 56.8317 178.104 60.143C181.757 63.7835 180.224 67.4297 178.525 71.6791C175.785 66.6234 170.686 61.9493 166.292 58.3343C165.26 57.7248 163.51 56.4368 162.468 55.7084Z" fill="#3D969E"/>
<path d="M162.468 55.7084C163.74 55.4337 165.029 55.381 166.323 55.3535C166.316 56.3312 166.326 57.3617 166.292 58.3343C165.26 57.7248 163.51 56.4368 162.468 55.7084Z" fill="#29678A"/>
<path d="M159.426 39.1058C162.815 36.9958 166.779 36.4928 169.827 39.302C171.852 41.169 174.083 42.8307 175.649 45.1427C171.522 43.9034 167.412 43.4352 163.383 45.4342C161.784 46.1584 161.05 46.6357 159.614 47.6658C158.802 46.0367 157.683 44.2907 156.798 42.5935C157.504 40.8858 158.003 40.2707 159.426 39.1058Z" fill="#3D969E"/>
<path d="M159.426 39.1055C160.726 41.1854 162.166 43.3233 163.383 45.4339C161.784 46.158 161.05 46.6354 159.614 47.6655C158.802 46.0363 157.683 44.2904 156.798 42.5931C157.504 40.8854 158.003 40.2703 159.426 39.1055Z" fill="#29678A"/>
<path d="M184.971 113.342C188.057 111.32 193.591 109.057 197.096 107.904C196.288 108.871 195.488 109.845 194.697 110.825C191.01 116.416 189.129 120.948 189.497 127.913C188.651 126.719 187.677 125.647 186.717 124.544C186.344 121.536 185.981 119.757 185.325 116.778C185.119 115.585 185.043 114.544 184.971 113.342Z" fill="#6BC9C5"/>
<path d="M184.971 113.342C188.057 111.32 193.591 109.057 197.096 107.904C196.288 108.871 195.488 109.845 194.697 110.825C193.679 110.644 186.383 115.764 185.325 116.778C185.119 115.585 185.043 114.544 184.971 113.342Z" fill="#3D969E"/>
<path d="M156.531 30.0144C158.349 28.9822 160.074 28.6325 162.084 29.398C163.248 32.1487 164.043 33.3998 165.985 35.7027C162.863 35.7247 161.274 35.832 158.452 37.3862C156.911 38.5707 156.643 38.8509 155.575 40.4741C154.266 37.1233 154.306 35.4385 154.61 31.8086C155.278 31.002 155.71 30.66 156.531 30.0144Z" fill="#3D969E"/>
<path d="M154.61 31.8078C155.278 31.0013 155.71 30.6592 156.531 30.0137C156.69 33.0452 157.016 34.6232 158.452 37.3854C156.911 38.5699 156.643 38.8501 155.575 40.4734C154.266 37.1225 154.306 35.4378 154.61 31.8078Z" fill="#29678A"/>
<path d="M187.39 160.153L188.94 159.74L189.259 161.219C190.31 162.3 191.5 162.657 192.454 163.56C191.945 163.842 190.783 163.82 190.071 163.931C190.759 164.146 190.998 164.251 191.641 164.562C188.483 166.337 180.251 166.55 176.74 165.569C176.123 165.401 175.522 165.182 174.942 164.912C176.111 164.574 179.237 163.116 179.28 161.712L178.922 161.477C178.807 161.032 178.783 160.67 178.735 160.213C181.766 160.704 184.372 160.722 187.39 160.153Z" fill="#5C6C89"/>
<path d="M187.39 160.153L188.94 159.74L189.259 161.219C190.31 162.3 191.5 162.657 192.454 163.56C191.945 163.842 190.783 163.82 190.071 163.931C188.293 163.147 187.393 162.094 187.39 160.153Z" fill="#B7BDCE"/>
<path d="M81.4812 161.338L81.5712 161.429C81.5361 161.765 79.8147 164.82 79.4864 165.506C77.5849 169.418 75.8468 173.407 74.2764 177.462L73.4296 175.818C73.3266 175.652 73.2256 175.484 73.1263 175.315C70.6592 171.15 70.5298 168.714 74.6123 165.605C76.9134 163.852 78.9581 162.73 81.4812 161.338Z" fill="#2E8490"/>
<path d="M93.2027 143.355L93.2922 143.408C93.2334 143.692 91.7785 145.466 91.4761 145.842C88.7311 149.246 86.5174 152.857 84.2174 156.566L84.0456 156.507L83.7912 155.874C83.0992 153.95 81.6034 149.408 83.2329 147.726C85.3858 145.502 90.1777 143.631 93.2027 143.355Z" fill="#2E8490"/>
<path d="M213.852 204.668C214.596 205.142 214.857 205.36 215.518 205.953C215.387 206.394 215.294 206.844 215.236 207.3C215.123 208.232 215.398 209.229 216.07 209.952C217.018 210.974 219.887 211.393 219.955 209.422C219.973 208.875 218.225 208.887 217.815 208.163C217.137 206.969 218.516 205.929 219.303 205.212C219.662 204.887 220.262 204.923 220.732 205.025C221.528 205.196 221.898 205.675 222.324 206.334C222.691 207.659 222.572 209.071 221.989 210.315C220.29 213.896 214.053 215.192 212.638 210.629C212.084 208.836 212.917 206.269 213.852 204.668Z" fill="#C39E72"/>
<path d="M228.38 267.659C228.427 267.458 228.478 267.259 228.532 267.06C229.203 264.655 230.572 262.707 232.763 261.486C233.4 261.978 233.503 262.098 233.989 262.703C234.937 264.041 235.121 265.771 234.843 267.354C234.512 269.227 233.444 270.892 231.879 271.974C227.899 274.761 228.019 270.283 228.38 267.659Z" fill="#A07E54"/>
<path d="M228.38 267.659C228.427 267.458 228.478 267.259 228.532 267.06C229.203 264.655 230.572 262.707 232.763 261.486C233.4 261.978 233.503 262.098 233.989 262.703C233.928 263.807 233.943 264.936 233.619 265.999C232.739 268.887 230.722 269.795 228.38 267.659Z" fill="#D5B78A"/>
<path d="M177.853 154.131C180.35 153.249 185.655 153.094 188.069 154.262L188.047 154.819C188.312 155.417 188.325 155.225 188.253 155.8C187.968 156.243 187.462 156.431 186.96 156.631C187.024 157.146 187.017 157.706 187.351 158.072C187.666 158.166 187.764 158.191 188.089 158.238C185.784 159.463 180.908 159.225 178.465 158.505C178.492 157.702 178.253 157.087 178.017 156.327C177.712 156.065 177.726 156.059 177.514 155.709C177.562 155.186 177.507 155.38 177.853 154.928V154.131Z" fill="#1D2E4F"/>
<path d="M178.017 156.328C181.186 157.087 183.786 156.9 186.96 156.631C187.024 157.147 187.017 157.707 187.351 158.073C187.666 158.166 187.764 158.192 188.089 158.239C185.784 159.464 180.908 159.226 178.465 158.506C178.492 157.703 178.253 157.088 178.017 156.328Z" fill="#5C6C89"/>
<path d="M177.853 154.131C180.35 153.249 185.655 153.094 188.069 154.262L188.047 154.819C184.379 154.232 181.562 154.041 177.853 154.928V154.131Z" fill="#8491AB"/>
<path d="M71.0043 20.1289C72.1551 22.0658 73.7269 26.4997 74.6985 28.8228C72.4442 29.1807 71.1651 29.5866 69.333 31.0513C68.3123 32.1029 67.8923 32.7364 66.9981 33.8317C67.1965 30.3567 67.4456 28.1611 68.6132 24.8324C69.2019 23.2612 69.9322 21.4391 71.0043 20.1289Z" fill="#3D969E"/>
<path d="M68.6132 24.832C69.1764 26.6771 68.7357 29.9448 69.333 31.0509C68.3123 32.1025 67.8923 32.7361 66.9981 33.8313C67.1965 30.3563 67.4456 28.1607 68.6132 24.832Z" fill="#29678A"/>
<path d="M190.688 75.1947C191.495 74.2087 193.807 72.941 194.939 72.0195C192.691 75.1156 190.524 78.2705 188.443 81.4807C187.338 83.1944 186.15 85.3776 185.028 86.9685C184.79 86.0097 184.547 85.0523 184.299 84.0962C184.069 83.3655 183.818 82.6291 183.576 81.9009C185.502 79.6621 188.384 77.0228 190.688 75.1947Z" fill="#4791C2"/>
<path d="M190.688 75.1934C190.581 76.3095 187.528 79.5939 186.798 80.6909C186.523 81.1059 184.526 83.9184 184.299 84.0949C184.069 83.3642 183.818 82.6278 183.576 81.8995C185.502 79.6607 188.384 77.0214 190.688 75.1934Z" fill="#61BBDF"/>
<path d="M72.4939 182.418C72.5261 183.147 70.7482 189.145 70.4556 190.413C70.0288 192.26 69.5917 194.394 69.219 196.317L68.3711 194.349C65.0895 186.712 66.0392 186.723 72.4939 182.418Z" fill="#2E8490"/>
<path d="M60.228 196.343C62.5148 196.291 65.6763 198.747 67.2376 200.325C66.0677 200.806 65.1621 201.083 63.939 201.367C61.7237 201.879 59.33 201.759 57.0786 201.578C57.8606 199.647 58.4894 197.545 60.228 196.343Z" fill="#2E8490"/>
<path d="M47.778 190.993C51.1813 190.715 51.5035 197.163 51.8193 199.577C51.073 199.166 50.6021 198.85 49.899 198.363C47.8389 196.795 45.8657 195.013 44.8001 192.627C45.9153 191.638 46.349 191.487 47.778 190.993Z" fill="#3D969E"/>
<path d="M155.746 189.313C156.498 189.217 159.294 189.821 159.66 190.436L159.574 190.688C158.622 191.453 155.788 191.07 154.099 191.25C149.829 191.708 146.485 192.465 142.352 193.523C141.385 193.775 140.415 194.022 139.444 194.26C139.213 193.907 139.03 193.528 138.833 193.153C139.449 192.995 140.813 192.614 141.369 192.546C143.448 192.292 149.406 190.097 151.065 190.534C153.018 189.134 153.48 189.418 155.746 189.313Z" fill="#7C7A78"/>
<path d="M177.03 161.291C177.144 160.817 177.205 160.273 177.539 159.947C177.988 159.831 178.289 160.028 178.735 160.213C178.783 160.67 178.807 161.032 178.922 161.477L179.28 161.712C179.237 163.116 176.111 164.573 174.942 164.911C172.921 165.907 173.646 171.108 173.204 172.862C172.817 173.339 172.431 174.004 171.891 174.161C171.45 172.268 172.124 164.948 173.823 163.47C174.703 162.703 176.018 162.356 177.03 161.291Z" fill="#B7BDCE"/>
<path d="M187.761 248.686C188.882 248.993 189.976 249.391 191.032 249.879C190.577 250.75 190.076 251.669 189.68 252.561C189.243 253.694 189.052 254.617 188.782 255.792C185.943 254.71 184.251 254.461 185.548 250.985C186.197 249.843 186.582 249.383 187.761 248.686Z" fill="#A07E54"/>
<path d="M187.761 248.686C188.882 248.993 189.976 249.391 191.032 249.879C190.577 250.75 190.076 251.669 189.68 252.561C188.28 252.078 186.924 251.53 185.548 250.985C186.197 249.843 186.582 249.383 187.761 248.686Z" fill="#D5B78A"/>
<path d="M157.241 23.5688C157.999 21.9785 158.702 20.7852 159.958 19.5449C160.484 22.2331 160.741 24.6064 161.388 27.3219C159.466 27.0923 158.646 27.1172 156.804 27.7026L155.203 28.5686C155.691 26.9328 156.34 24.9984 157.241 23.5688Z" fill="#3D969E"/>
<path d="M155.203 28.5701C155.691 26.9343 156.34 24.9999 157.241 23.5703C157.257 24.7838 156.555 27.0425 156.804 27.7041L155.203 28.5701Z" fill="#29678A"/>
<path d="M191.75 105.273C193.282 105.153 195.739 105.216 197.306 105.256C194.47 106 191.969 107.107 189.3 108.28C188.065 108.899 186.814 109.49 185.55 110.051L186.055 105.991C187.793 105.602 189.978 105.382 191.75 105.273Z" fill="#4791C2"/>
<path d="M78.708 216.398C79.9812 216.241 80.9643 216.286 82.1494 216.876C83.4853 217.542 85.0688 219.553 84.2177 221.074C83.8481 221.379 83.874 221.376 83.4027 221.407C82.6909 220.53 83.8684 219.315 81.2676 217.969L81.1146 217.892C76.2432 216.899 77.1345 220.461 76.0407 221.43C75.7609 221.253 75.793 221.201 75.6709 220.881C74.7669 218.513 76.7401 217.074 78.708 216.398Z" fill="#D5B78A"/>
<path d="M229.383 260.17C230.305 260.362 230.646 260.428 231.509 260.786C231.006 261.197 230.337 261.717 229.871 262.143C228.464 263.88 227.593 265.296 227.12 267.526C226.472 267.306 225.775 267.101 225.118 266.897C225.854 264.678 226.431 263.402 227.886 261.575C228.483 260.895 228.667 260.72 229.383 260.17Z" fill="#D5B78A"/>
<path d="M229.383 260.17C230.305 260.362 230.646 260.428 231.509 260.786C231.006 261.197 230.337 261.717 229.871 262.143C229.252 262.075 228.5 261.774 227.886 261.575C228.483 260.895 228.667 260.72 229.383 260.17Z" fill="#E7CB9C"/>
<path d="M114.396 163.398C118.358 167.198 121.763 171.294 124.748 175.906C125.139 176.51 126.305 177.976 126.277 178.625C125.808 178.588 125.627 178.564 125.17 178.459C122.46 174.302 119.928 170.312 116.7 166.525C116.085 165.803 114.929 164.272 114.28 163.638L114.396 163.398Z" fill="#D5B78A"/>
<path d="M171.891 174.16C172.431 174.004 172.817 173.338 173.204 172.861C173.964 175.36 178.659 175.215 180.845 175.215L179.846 176.678C177.502 176.585 173.386 176.232 171.891 174.16Z" fill="#5C6C89"/>
<path d="M109.81 176.955C109.891 175.982 109.974 175.21 110.125 174.248C112.126 176.875 115.247 178.073 118.217 179.396C114.738 179.286 112.825 178.766 109.81 176.955Z" fill="#61BBDF"/>
<path d="M225.118 266.896C225.775 267.101 226.472 267.305 227.12 267.526C226.741 269.555 226.86 270.724 227.381 272.696C226.53 272.389 225.867 272.279 225.302 271.547C224.406 270.39 224.887 268.261 225.118 266.896Z" fill="#A07E54"/>
<path d="M193.527 255.396C193.2 257.3 193.663 258.463 193.467 259.953C192.91 260.39 192.049 259.721 191.758 259.237C190.93 257.862 191.34 255.779 191.669 254.316C191.983 254.506 193.27 255.31 193.527 255.396Z" fill="#A07E54"/>
<path d="M195.133 172.227L195.461 172.325C197.153 174.024 195.858 177.078 194.47 178.578L194.413 178.558C194.186 178.299 194.407 177.651 194.435 177.148C194.509 175.818 194.108 174.778 193.596 173.591C194.14 173.024 194.525 172.718 195.133 172.227Z" fill="#61BBDF"/>
<path d="M192.454 163.559C193.508 164.557 194.67 168.611 193.901 169.878C193.484 170.144 193.69 170.117 193.286 170.073C192.577 168.317 193.182 166.181 191.641 164.561C190.998 164.249 190.759 164.145 190.071 163.93C190.783 163.819 191.945 163.84 192.454 163.559Z" fill="#8491AB"/>
<path d="M191.669 254.316C192.178 253.002 192.617 251.874 193.551 250.807C193.938 251.289 194.573 251.555 195.134 251.861C194.294 253.173 193.969 253.905 193.527 255.396C193.27 255.31 191.983 254.506 191.669 254.316Z" fill="#D5B78A"/>
<path d="M175.613 166.762C175.811 166.806 175.958 166.847 176.145 166.933C177.329 167.474 176.536 170.842 176.027 171.692C175.672 171.654 175.622 171.644 175.28 171.539C174.389 170.631 174.981 167.673 175.613 166.762Z" fill="#B7BDCE"/>
<path d="M188.069 154.262C190.177 155.323 190.249 157.194 188.089 158.238C187.764 158.191 187.666 158.166 187.351 158.072C187.017 157.706 187.024 157.146 186.96 156.63C187.462 156.431 187.968 156.243 188.253 155.799C188.325 155.225 188.312 155.417 188.047 154.819L188.069 154.262Z" fill="#B7BDCE"/>
<path d="M178.465 158.505C175.777 157.654 175.253 155.608 177.853 154.131V154.928C177.507 155.38 177.562 155.186 177.514 155.709C177.726 156.059 177.712 156.065 178.017 156.327C178.253 157.087 178.492 157.702 178.465 158.505Z" fill="#B7BDCE"/>
<path d="M134.47 192.141C135.419 192.561 136.692 193.594 136.648 194.735C136.383 195.199 136.513 195.044 135.964 195.303C135.817 195.352 135.661 195.375 135.507 195.406C134.674 194.966 134.381 194.392 133.854 193.616C134.04 193.091 134.244 192.647 134.47 192.141Z" fill="#C39E72"/>
<path d="M193.551 250.807C194.526 249.611 195.533 248.622 197.051 249.754L197.08 249.97C196.414 250.696 195.757 251.113 195.134 251.861C194.573 251.555 193.938 251.289 193.551 250.807Z" fill="#E7CB9C"/>
<path d="M186.567 128.107C187.211 128.688 188.918 130.767 189.139 131.55L188.96 131.618C188.045 131.313 186.92 131.025 185.978 130.756C186.121 129.876 186.356 128.977 186.567 128.107Z" fill="#4791C2"/>
<path d="M137.759 195.99C138.343 196.285 139.348 198.155 139.818 198.867C139.676 199.266 139.574 199.472 139.381 199.853C137.599 198.642 136.958 197.96 137.759 195.99Z" fill="#1F2A42"/>
<path d="M79.3874 219.84C80.2353 219.78 81.8114 220.389 81.2024 221.283L80.6959 221.319C79.9458 221.354 79.167 221.495 78.5454 221.147L78.5036 220.843C78.7488 220.349 78.9628 220.218 79.3874 219.84Z" fill="#BFBCB3"/>
<path d="M114.28 163.637C113.765 163.175 112.621 161.922 112.305 161.316C113.006 161.884 113.901 162.65 114.396 163.398L114.28 163.637Z" fill="#474E5F"/>
<defs>
<linearGradient id="paint0_linear_14_18190" x1="195.006" y1="224.618" x2="227.829" y2="246.848" gradientUnits="userSpaceOnUse">
<stop stop-color="#9D988C"/>
<stop offset="1" stop-color="#C2BEB4"/>
</linearGradient>
<linearGradient id="paint1_linear_14_18190" x1="83.7945" y1="235.813" x2="81.6308" y2="233.041" gradientUnits="userSpaceOnUse">
<stop stop-color="#994D42"/>
<stop offset="1" stop-color="#CB7266"/>
</linearGradient>
<linearGradient id="paint2_linear_14_18190" x1="48.1608" y1="259.561" x2="58.6005" y2="217.64" gradientUnits="userSpaceOnUse">
<stop stop-color="#716F73"/>
<stop offset="1" stop-color="#84817D"/>
</linearGradient>
</defs>
</svg>
