<svg width="204" height="313" viewBox="0 0 204 313" fill="none" xmlns="http://www.w3.org/2000/svg">
<path d="M54.1022 46.7866C55.3595 46.1165 57.7945 44.6022 59.0227 44.6588L58.8534 45.59C58.565 50.4068 58.1926 63.5782 56.1865 67.0418C51.6001 74.9525 36.9861 79.9782 31.3399 87.4538L31.6679 87.9063C36.9713 95.1469 48.7905 97.6489 55.3273 103.236C56.3514 104.111 56.6734 106.665 56.4436 107.961C55.4735 113.435 47.3204 119.662 51.9943 125.837C58.5489 134.496 71.9583 137.394 81.3194 141.593C83.2685 142.467 86.7215 145.639 86.0529 148.063C84.508 153.663 77.5909 159.559 74.9436 164.681C68.8393 176.499 63.3615 192.907 62.0385 206.074C61.248 213.942 63.6021 227.396 67.5663 234.232C69.5702 237.691 71.5154 238.97 74.8483 240.837C83.3907 235.859 84.3918 225.586 83.215 216.657C81.379 202.724 81.0888 193.721 87.8135 180.833C87.1257 187.403 84.4836 193.908 84.3505 200.122C83.9989 216.513 91.2853 229.854 77.3038 242.434C74.8418 247.838 68.8546 257.716 63.2984 260.07C61.2106 260.953 49.8186 260.405 48.3072 259.504C40.3769 258.399 33.1523 254.535 26.2884 259.883C23.0285 262.419 22.5791 263.468 18.6644 265.148C20.1819 265.835 21.223 265.583 22.365 266.131C18.8502 276.17 15.4476 279.607 4.87744 275.295C15.6991 285.181 19.3323 278.058 26.6439 271.139C38.2551 260.152 48.2937 278.376 58.8678 280.151C63.7774 280.973 69.0042 274.982 74.1205 275.526C83.7235 276.331 89.2083 281.008 99.5697 281.448C111.287 281.992 122.358 276.061 128.388 265.996C133.722 257.02 131.86 254.809 140.814 246.455C136.267 254.296 133.37 263.403 128.549 270.374C119.918 282.857 102.136 286.573 88.4579 282.174C76.4359 278.31 75.7715 275.156 64.0354 281.774C55.0401 286.852 45.7468 274.233 38.2173 270.896C29.2955 266.945 26.0939 278.963 18.8685 281.452C9.30286 285.042 3.35169 277.932 0 269.921C1.6319 270.852 3.29426 271.862 4.91703 272.819C12.6293 276.879 15.7182 275.491 19.6807 268.215C16.6001 267.893 10.4118 266.923 10.5162 262.624L11.1562 262.363C21.0916 265.565 21.0446 259.047 28.4524 255.784C40.0167 250.697 56.9814 266.758 62.2982 246.298C62.6854 244.81 62.5223 244.148 61.7131 242.886C60.4336 242.734 59.0079 243.809 57.9163 244.618C50.9266 249.818 33.1027 254.474 33.3677 240.502L33.3829 239.841C27.8938 241.507 24.2093 241.977 18.7723 239.64C12.8625 237.104 5.74365 229.828 9.57347 223.066C11.4755 219.711 15.2888 218.584 18.7432 217.732C7.76407 209.316 3.41 196.301 11.7279 185.214C26.9636 164.907 1.20947 167.648 10.005 150.287C11.1375 148.159 11.4064 147.567 13.1214 145.748L13.8066 145.605C14.0628 147.014 12.9665 150.965 12.6694 152.954C13.0674 155.447 13.4577 157.41 15.757 158.828C23.8312 163.797 23.8739 165.107 25.678 173.831L25.9234 173.34C27.7824 169.541 27.1033 166.778 28.9749 164.829C32.5581 163.802 36.7546 167.278 38.0746 170.524C38.6937 172.047 37.8344 175.959 37.6931 177.687C35.8706 186.293 37.8801 196.241 46.1271 200.792C47.2878 201.432 47.5823 201.897 49.0611 202.263C48.8257 187.146 66.3077 159.494 74.2415 147.058C62.7516 145.152 40.8337 141.114 31.3203 134.256C22.9132 128.199 38.7337 114.928 43.4719 110.598C38.956 108.858 6.696 94.9859 9.80058 88.0673C14.0985 78.4901 32.729 68.6561 41.2444 61.7071L41.5868 61.4243C42.5561 58.844 43.5663 54.2534 44.2703 51.4511C42.3086 51.821 40.3691 52.6826 38.6014 52.1735C37.4707 50.9725 37.8223 51.3772 37.3759 49.5931C38.4296 49.8411 38.6206 49.8412 39.5721 50.3242C42.8916 50.0239 44.7549 49.232 47.0185 52.1473C49.3618 51.8079 51.9617 49.7193 53.7054 48.1964C53.7693 47.6438 53.899 47.2957 54.1022 46.7866Z" fill="#64ACA6"/>
<path d="M54.1024 46.7866C55.3597 46.1165 57.7948 44.6022 59.0229 44.6588L58.8537 45.59C58.5653 50.4068 58.1929 63.5782 56.1868 67.0418C51.6004 74.9525 36.9863 79.9782 31.3402 87.4538L31.6682 87.9063C36.9716 95.1469 48.7908 97.6489 55.3275 103.236C56.3517 104.111 56.6736 106.665 56.4439 107.961C55.4737 113.435 47.3207 119.662 51.9946 125.837C58.5491 134.496 71.9585 137.394 81.3197 141.593C83.2688 142.467 86.7218 145.639 86.0531 148.063C84.5082 153.663 77.5912 159.559 74.9439 164.681C68.8396 176.499 63.3618 192.907 62.0388 206.074C61.2483 213.942 63.6024 227.396 67.5666 234.232C69.5705 237.691 71.5156 238.97 74.8486 240.837C62.1845 245.671 52.6076 233.858 50.9552 222.492C46.9853 195.183 63.404 167.052 78.2251 145.204C65.035 143.294 52.4836 140.148 39.8077 136.066C19.9956 129.687 42.0852 117.421 47.5561 109.841C45.0515 108.405 9.59157 94.3767 12.8132 87.841C14.4307 84.5602 30.0872 72.1633 33.9457 69.6744C45.3008 62.3424 43.0076 65.397 47.0188 52.1473C49.362 51.8079 51.9619 49.7193 53.7057 48.1964C53.7696 47.6438 53.8993 47.2957 54.1024 46.7866Z" fill="#C1EFED"/>
<path d="M10.4765 151.909L10.9951 152.244C11.1313 153.528 11.2618 155.516 11.642 156.696C14.3986 162.335 17.8377 160.834 21.0289 165.02C22.6451 167.143 22.6508 172.856 25.5465 174.501C29.4603 173.77 27.9032 169.106 30.732 167.156C34.3269 167.435 36.0292 171.168 35.5837 174.297C34.4535 182.229 32.916 190.666 38.5926 197.337C41.8677 201.732 47.8459 203.568 48.6608 205.03C46.3336 214.751 48.0395 229.845 55.1131 237.438C46.9475 241.006 39.3983 243.978 40.9981 231.468C37.1356 231.377 20.9915 231.873 21.0006 224.846C21.0028 223.275 23.5957 221.935 24.9192 220.912L25.2742 220.547C34.3769 211.013 23.8668 212.41 18.4577 205.643C11.7852 197.293 17.7503 187.99 18.298 179.235C21.9425 163.997 7.19358 166.025 10.4765 151.909Z" fill="#DEFBFA"/>
<path d="M37.5719 235.915C33.4528 236.985 29.7587 238.843 25.261 238.7C19.3038 238.787 10.4338 232.73 11.5606 226.029C12.6922 219.293 20.1443 219.785 24.9195 220.912C23.5961 221.934 21.0031 223.274 21.0009 224.845C20.9918 231.872 37.136 231.376 40.9984 231.468C39.3987 243.978 46.9478 241.006 55.1135 237.438L59.1586 241.102C57.7216 242.272 56.175 243.303 54.5405 244.174C50.1864 246.467 39.5166 249.8 36.5356 243.843C35.273 241.323 36.6613 238.378 37.5719 235.915Z" fill="#C1EFED"/>
<path d="M18.2988 179.235C17.7511 187.99 11.786 197.293 18.4585 205.643C23.8676 212.41 34.3777 211.013 25.275 220.547C21.8485 215.799 12.9733 212.205 10.9011 203.607C8.32121 192.903 13.8734 187.477 18.2988 179.235Z" fill="#C1EFED"/>
<path d="M64.3481 243.513C70.2836 244.714 71.6797 244.818 77.3033 242.434C74.8413 247.838 68.854 257.715 63.2979 260.069C61.21 260.953 49.818 260.404 48.3066 259.504C59.311 258.681 63.5045 254.87 64.3481 243.513Z" fill="#C1EFED"/>
<path d="M10.0049 150.286C11.1373 148.159 11.4062 147.567 13.1212 145.748L13.8064 145.604C14.0627 147.014 12.9663 150.965 12.6692 152.954L11.8212 152.31C11.3105 153.52 11.7025 155.23 11.6424 156.696C11.2622 155.517 11.1317 153.528 10.9955 152.245L10.4769 151.91L10.0049 150.286Z" fill="#64ACA6"/>
<path d="M22.3652 266.131C19.7087 266.283 18.702 266.444 16.1025 265.835L16.2809 265.465L18.6646 265.147C20.1821 265.835 21.2232 265.583 22.3652 266.131Z" fill="#DEFBFA"/>
<path d="M94.6233 0.954617C106.84 7.9824 106.503 4.53009 118.73 1.04948C129.819 -0.942977 134.135 -0.925577 140.035 8.62596C149.75 24.352 153.404 36.3041 156.845 54.3228C178.215 67.1461 206.934 79.8867 202.587 110.241C198.15 141.24 165.325 151.814 138.542 153.724C151.163 171.277 177.136 207.715 163.532 232.108C160.939 236.755 155.283 238.509 150.202 239.431C146.896 248.369 145.238 253.025 137.903 259.191C150.363 239.597 154.274 218.945 148.888 196.114C147.352 189.613 144.02 181.507 143.459 175.241L143.402 174.549C153.913 193.051 155.401 216.822 150.807 237.325C158.077 234.828 163.537 230.99 164.354 222.614C166.773 197.907 149.449 173.026 135.697 154.011C132.782 154.081 122.328 154.903 120.783 152.632C122.632 151.57 133.935 151.587 137.094 151.4C167.813 149.612 202.97 136.153 200.329 99.089C198.52 103.345 196.47 106.847 192.094 108.949C187.917 110.951 181.709 111.534 177.358 109.837C174.465 108.727 172.151 106.482 170.95 103.627C169.58 100.403 169.584 96.7654 170.959 93.5454C175.514 83.0719 187.861 84.2859 196.283 88.598C187.739 73.0813 169.366 64.4222 154.54 55.6935C151.538 38.7191 145.36 17.9399 133.4 4.06623C130.768 1.01249 120.026 2.54068 116.422 3.76078C109.229 6.19533 107.393 8.21999 99.3415 5.90031C106.543 12.8546 107.476 9.45533 115.339 13.0391C108.409 20.2331 104.438 26.5703 98.4331 33.5541C95.9732 34.1946 93.2676 30.3872 91.2637 28.8073C84.4385 23.4252 76.5327 14.4202 68.7908 10.6798L68.2835 10.4387C63.2616 16.6615 61.9264 25.5408 60.8014 33.2038C60.4233 35.7776 59.1777 39.82 60.1871 42.2262C60.9889 42.6483 61.0559 42.718 61.9273 42.9268C65.5975 40.8817 66.7704 38.8583 69.4717 37.1961C66.3497 41.5344 64.2597 43.9755 58.8532 45.5898L59.0224 44.6586C57.7942 44.6021 55.3592 46.1163 54.1019 46.7864C53.8987 47.2955 53.7691 47.6436 53.7051 48.1962C51.9614 49.7192 49.3615 51.8078 47.0183 52.1472C44.7547 49.2318 42.8913 50.0238 39.5718 50.324C38.6203 49.841 38.4294 49.841 37.3756 49.593L35.6546 50.0194L35.1203 49.6452C35.5327 45.32 42.8644 44.3497 46.4823 44.8718C47.4203 40.9948 48.3456 38.2274 49.633 34.4931C46.9095 35.6558 44.3535 37.2962 41.3956 38.5712C40.6712 38.928 40.3127 39.1934 39.5309 39.3239C36.6474 40.5075 33.9565 41.5039 30.8184 41.7694C24.1438 42.3263 19.3742 40.2682 13.1551 43.9363L9.85254 45.877C15.5283 34.8943 19.0723 37.4833 29.7652 32.2814C31.6259 31.3763 34.1005 28.397 35.8203 27.431C41.3203 24.2162 48.4901 21.8239 53.3427 17.7076C56.5643 14.5229 60.2367 7.67999 65.6988 8.13296C75.6047 8.95448 90.4611 24.4525 97.3628 31.0848C102.615 23.319 105.187 20.4963 111.623 13.5173C101.275 12.8271 99.1422 9.33609 94.6233 0.954617Z" fill="#64ACA6"/>
<path d="M15.5928 40.2592C24.8043 36.2125 32.0663 32.802 40.4359 27.0966C44.0682 24.6202 50.5784 22.529 53.9958 19.7346C60.1093 14.7358 59.4989 10.69 68.2831 10.4385C63.2613 16.6613 61.9261 25.5405 60.801 33.2036C60.4229 35.7774 59.1774 39.8197 60.1867 42.226C60.9885 42.6481 61.0555 42.7177 61.9269 42.9266C65.5971 40.8815 66.77 38.8581 69.4713 37.1959C66.3493 41.5341 64.2593 43.9752 58.8528 45.5896L59.0221 44.6584C57.7939 44.6018 55.3589 46.1161 54.1015 46.7862C53.8984 47.2953 53.7687 47.6434 53.7048 48.196C51.9611 49.719 49.3611 51.8076 47.0179 52.147C44.7543 49.2316 42.8909 50.0235 39.5714 50.3238C38.62 49.8408 38.429 49.8408 37.3753 49.5927L35.6542 50.0192L35.1199 49.645C35.5324 45.3198 42.864 44.3494 46.4819 44.8716C47.4199 40.9946 48.3453 38.2272 49.6326 34.4929C46.9091 35.6556 44.3532 37.296 41.3952 38.5709C40.6708 38.9277 40.3124 39.1932 39.5306 39.3237C37.9656 39.067 30.9451 40.0939 28.3091 40.0939C24.1042 40.0939 19.7763 40.0199 15.5928 40.2592Z" fill="#DEFBFA"/>
<path d="M41.3954 38.5711C42.2664 35.3294 50.3911 30.6713 52.1244 33.8212C52.0013 37.9619 48.4999 42.1566 49.9782 45.0763C52.7134 46.9038 56.7055 44.0494 59.0405 43.3227C59.9232 43.0442 58.9365 44.6978 61.9271 42.9268C65.5973 40.8817 66.7702 38.8583 69.4715 37.1961C66.3495 41.5343 64.2595 43.9754 58.853 45.5898L59.0222 44.6586C57.7941 44.602 55.359 46.1163 54.1017 46.7864C53.8986 47.2955 53.7689 47.6436 53.705 48.1962C51.9612 49.7191 49.3613 51.8077 47.0181 52.1471C44.7545 49.2318 42.8911 50.0237 39.5716 50.324C38.6202 49.841 38.4292 49.841 37.3755 49.5929L35.6544 50.0194L35.1201 49.6452C35.5326 45.32 42.8642 44.3496 46.4821 44.8718C47.4201 40.9948 48.3455 38.2274 49.6328 34.4931C46.9093 35.6557 44.3534 37.2962 41.3954 38.5711Z" fill="#64ACA6"/>
<path d="M37.376 49.5927C38.4406 47.8 40.7159 46.773 42.5323 45.8984C46.845 47.1342 49.6746 47.7869 54.1022 46.7861C53.8991 47.2952 53.7694 47.6433 53.7055 48.1959C51.9617 49.7189 49.3618 51.8075 47.0186 52.1469C44.755 49.2315 42.8916 50.0235 39.5721 50.3237C38.6207 49.8407 38.4297 49.8407 37.376 49.5927Z" fill="url(#paint0_linear_9_12113)"/>
<path d="M136.384 66.1799C139.129 66.0798 141.731 66.3322 144.22 67.5897C148.614 69.8002 151.32 73.873 152.838 78.4245C155.614 86.7354 155.253 97.518 151.185 105.363C148.688 110.189 144.611 114.297 139.286 115.828C133.922 117.369 129.432 115.663 124.742 113.209C124.342 113.553 123.946 113.879 123.524 114.192C118.477 117.926 113.915 118.134 107.949 117.216C104.745 116.081 101.992 114.575 99.5653 112.182C94.4433 107.126 92.3702 99.55 92.3307 92.5227C92.2889 85.0645 94.5273 77.4976 99.9568 72.176C103.12 69.0735 107.321 67.011 111.825 67.1285C117.016 67.2634 120.418 70.0004 123.85 73.5467C127.466 69.3955 131.033 67.2982 136.384 66.1799Z" fill="#64ACA6"/>
<path d="M124.76 75.9619C127.732 72.1763 131.334 69.2174 136.307 68.5734C139.626 68.1165 142.989 69.0521 145.6 71.1538C154.801 78.6815 154.318 100.016 146.3 108.54C139.104 116.194 132.883 115.063 124.612 110.607C120.197 113.888 116.066 116.442 110.226 115.372C91.4966 111.934 89.2891 81.6143 103.779 71.9544C111.271 66.9634 118.491 69.3132 123.468 76.4754C124.164 76.5755 123.886 76.5058 124.76 75.9619Z" fill="#C1EFED"/>
<path d="M124.76 75.9619C127.732 72.1763 131.334 69.2174 136.307 68.5734C139.626 68.1165 142.989 69.0521 145.6 71.1538C154.801 78.6815 154.318 100.016 146.3 108.54C139.104 116.194 132.883 115.063 124.612 110.607C120.197 113.888 116.066 116.442 110.226 115.372C91.4966 111.934 89.2891 81.6143 103.779 71.9544C111.271 66.9634 118.491 69.3132 123.468 76.4754C121.945 75.7618 120.105 75.0351 118.648 74.2823C111.138 70.3749 103.244 74.6565 99.3733 81.4576C96.2078 87.0142 97.1367 95.2948 98.5894 101.226C100.126 107.496 107.762 112.635 114.145 111.773C118.208 111.22 121.175 106.969 125.435 107.413C129.955 108.179 134.205 112.282 139.035 110.198C148.158 106.038 150.464 97.6575 149.576 88.3153C148.005 71.8195 138.069 69.3784 124.76 75.9619Z" fill="#A1E1E5"/>
<path d="M133.727 75.4261C135.184 75.2608 136.785 75.2042 138.225 75.4914C140.892 76.0179 143.246 77.58 144.764 79.8384C147.557 84.0417 147.801 91.0169 146.844 95.8381C146.026 99.9457 143.533 103.853 139.948 106.094C137.764 107.46 135.219 108.026 132.696 107.36C128.858 106.346 126.152 103.353 124.199 100.076C123.833 100.768 123.446 101.451 123.033 102.121C120.74 105.824 117.564 107.961 113.422 108.962C112.618 108.896 111.814 108.827 111.019 108.692C107.644 108.122 104.041 105.598 102.188 102.787C99.538 98.7709 98.9572 92.1656 99.9313 87.501C100.754 83.4499 103.18 79.8993 106.659 77.6627C109.2 76.031 112.094 75.4436 115.037 76.2094C118.835 77.1928 121.423 79.9036 123.394 83.1193C126.57 79.9167 129.38 76.9665 133.727 75.4261Z" fill="#FEFFFF"/>
<path d="M91.8803 295.589C110.865 294.275 140.944 295.763 159.473 298.322C163.728 298.913 175.296 300.04 177.641 303.743C177.941 304.213 177.715 304.4 177.554 304.875C170.628 311.837 130.424 312.32 119.591 312.724C97.2215 313.081 60.6153 313.277 39.4766 307.938C37.3509 307.398 33.9757 306.524 32.8115 304.548L33.2105 303.508C39.7468 296.833 81.3919 296.007 91.8803 295.589Z" fill="#717171"/>
<path d="M19.4122 59.601C20.5199 59.527 20.2627 59.5662 21.3921 59.8098L21.6053 60.6627C19.8738 66.1802 15.1739 66.959 10.2851 65.8538C8.88379 65.2011 7.20751 64.3961 6.64062 62.9559C8.12156 61.063 12.0715 61.633 14.4234 61.0326C16.1949 60.5844 17.6715 60.1623 19.4122 59.601Z" fill="#64ACA6"/>
<path d="M19.5962 60.4531C20.0048 60.6098 19.7776 60.4705 20.117 61.0623C16.9802 65.3526 15.0185 65.3178 10.296 64.2866L8.93164 63.3467C13.6659 62.2067 14.6992 62.3242 19.5962 60.4531Z" fill="#DEFBFA"/>
<defs>
<linearGradient id="paint0_linear_9_12113" x1="49.9613" y1="51.9424" x2="42.5342" y2="44.9946" gradientUnits="userSpaceOnUse">
<stop stop-color="#DCF7F9"/>
<stop offset="1" stop-color="#F9FEFD"/>
</linearGradient>
</defs>
</svg>
