<svg width="101" height="102" viewBox="0 0 101 102" fill="none" xmlns="http://www.w3.org/2000/svg">
<path d="M49.3913 9.58677C49.8889 9.21601 50.3312 8.59305 50.8224 9.37792C51.1706 9.22025 51.5898 9.02841 51.9567 9.23322C52.6836 9.62672 51.9399 10.8199 52.762 11.1882C53.4056 11.4765 54.2193 11.5075 54.9113 11.6335C56.7064 11.9601 58.5005 12.3256 60.1314 13.174C61.9379 11.2957 65.4585 9.34887 68.1241 9.81737C70.3354 10.206 71.8943 11.0119 73.2639 12.8039C76.9439 17.6181 74.0741 22.6999 73.2732 27.8034C73.5223 28.3839 73.9173 28.8948 74.263 29.4146C75.0876 30.6536 75.7741 31.6676 76.8363 32.7332C77.5716 33.4897 78.3864 34.1839 78.9757 35.0627C80.1588 36.8269 77.4878 38.6635 76.1425 39.4177C76.9305 40.0393 78.4214 40.7608 77.7857 42.0182C76.2948 44.9666 73.0784 47.3632 70.3941 49.1815C69.0029 50.1244 67.1274 50.982 65.6243 51.6419C66.4602 51.7213 67.3267 51.8618 68.1636 51.9057C71.199 52.0645 74.0214 51.5018 76.7969 50.3069C76.8536 50.2595 77.1663 50.0864 77.2486 50.0386L77.2363 49.9439C77.8922 49.5188 77.7033 49.4749 78.1777 48.9191C78.4983 48.5478 78.8603 48.2144 79.2563 47.9252C79.5537 47.707 80.1159 47.5675 80.2229 47.3777L80.142 47.2841C79.8234 47.2988 79.5379 47.3392 79.315 47.0794C79.0768 46.3017 80.4562 45.4702 81.0065 45.1222C81.2003 44.9996 81.7068 44.7633 81.8632 44.636C81.9687 44.5506 82.1117 44.0258 82.2676 43.843C82.4022 43.6854 82.8786 43.3341 82.9614 43.2356C82.992 43.1995 83.0117 42.6503 83.138 42.4038C83.2963 42.0945 83.5843 41.7796 83.9502 41.6895C85.6901 41.2607 87.6647 41.5635 89.2744 42.333C89.593 42.4854 89.9274 43.0695 89.9984 43.3718C90.1745 44.1221 90.0068 44.1302 89.6428 44.7427C89.5925 44.8268 89.6586 45.0393 89.7064 45.1036C89.8909 45.3509 89.6744 45.8342 89.8396 46.0835C89.8361 46.0783 90.1991 46.3267 90.2243 46.344C90.6799 46.6625 91.0927 47.0496 91.2934 47.58C92.4484 49.4468 92.7833 50.9761 92.4978 53.1707C92.5609 53.4863 92.4593 54.1215 92.0855 54.2192C91.9193 54.2621 91.7427 54.2221 91.611 54.1116C91.2712 53.8231 91.5992 52.6548 91.6234 52.1977C91.7121 50.5145 91.1746 48.9285 90.1064 47.6281C90.0186 47.5217 90.0038 47.5284 89.8874 47.5142C89.7577 47.7194 90.1986 48.5887 90.2509 48.8511C90.2889 49.0409 90.5532 49.8813 90.6647 49.9577C91.647 50.6353 91.2737 51.4476 91.255 52.4699C91.2505 52.7116 91.3497 53.33 91.2491 53.5341C91.2343 53.5544 90.9177 53.7363 90.8604 53.7694C91.0118 54.6684 91.4882 55.1463 91.2348 56.2204C90.9517 57.4213 90.0378 57.8548 88.9134 58.0387C88.836 58.0491 88.443 58.09 88.401 58.1156C88.4444 58.4495 88.2861 58.6182 88.1145 58.9713C87.8724 59.1153 87.4295 59.5364 87.2628 59.5902C85.4184 60.185 82.9062 60.0631 81.3187 58.8672C81.0534 58.6675 80.7871 58.3681 80.5139 58.1758C80.2845 58.0145 80.2959 57.9149 80.0582 58.1457C79.8441 58.3262 79.4975 58.5605 79.2178 58.593C79.024 58.7079 78.519 59.026 78.343 59.0985C78.0451 59.3786 75.9363 60.2979 75.4599 60.4656C76.2934 60.9553 77.222 61.7335 76.8225 62.8757C76.6238 63.4443 76.0601 63.6899 75.5418 63.9157L75.1403 64.8528C76.1286 65.3706 76.6001 65.6517 76.5123 66.8486C76.6835 66.9122 76.8792 67.0015 77.0499 67.0735C77.111 66.93 77.1781 66.7835 77.2422 66.6405C76.9996 65.8963 76.7772 65.1965 76.9468 64.401C77.0119 64.0948 77.2974 63.3318 77.764 63.5789C78.1348 63.7747 78.3247 64.2624 78.4514 64.6456C78.7429 64.0168 78.8938 63.6287 79.0758 62.961C78.7202 62.671 78.4589 62.4086 78.4115 61.9278C78.3558 61.3641 78.8218 60.7432 79.4013 60.724C79.6301 60.7161 79.8525 60.8024 80.0158 60.9632C80.6298 61.5722 80.2086 62.5891 79.6863 63.1173C79.5754 63.6692 79.3668 64.1865 79.171 64.7132C80.3999 63.6376 80.4872 62.3135 81.7231 61.1856C82.344 60.6185 83.8777 60.0878 83.8176 61.4327C83.7752 62.3914 81.8163 63.3141 80.9745 63.8738C81.872 63.7269 82.8229 62.6572 83.9009 63.3614C84.7659 63.9266 84.0962 64.9386 83.2041 64.9904C82.4461 65.0342 82.0506 64.9233 81.4316 64.4715C79.9467 64.7152 79.7179 65.1112 78.7508 66.2021C79.5635 65.9219 80.2747 65.4031 81.08 65.2285C81.6141 65.1131 82.9969 66.2859 83.1059 66.8052C83.2371 67.4705 82.202 68.0485 81.6703 67.9908C81.08 67.9271 80.3417 66.997 79.9383 66.566C79.1764 66.6868 78.6561 66.9605 78.0471 67.4098C78.6443 67.6381 79.9911 67.9839 80.2993 68.5263C80.3728 68.6555 80.4088 68.8124 80.4162 68.9598C80.4497 69.6226 80.3699 70.3298 80.362 70.9976C80.3501 72.0273 80.358 79.7626 80.1958 80.1842C80.1105 80.4072 79.7095 80.5674 79.497 80.6552C78.3642 81.1227 77.114 81.4369 75.9427 81.8102L68.0067 84.3362C66.8217 84.712 64.9841 85.2273 63.8789 85.6623L63.8365 85.6791C64.4786 86.3158 65.2879 87.2666 65.466 88.1666C66.4454 93.1086 59.7073 92.682 56.6235 92.2687C55.1583 92.0843 52.8109 91.419 52.0598 89.9661C51.6006 89.077 51.2337 87.0012 51.0049 85.9597L49.9599 81.2929C49.1462 81.3165 48.1243 81.2441 47.2958 81.2036C46.9076 82.9257 46.5322 84.6508 46.1696 86.3784C45.9416 87.449 45.7081 88.7249 45.3333 89.7487C45.1071 90.3666 44.3016 91.0694 43.7218 91.3825C41.2124 92.7377 34.4787 93.2437 32.4588 90.9604C31.9516 90.3908 31.6954 89.6407 31.748 88.8802C31.8649 87.0954 33.1813 85.9765 34.4185 84.9019C34.2233 84.0551 33.9323 83.2305 33.7303 82.3157C30.7924 83.2591 27.5593 81.607 27.8121 78.1988C27.8628 77.5152 28.1318 76.9279 28.4219 76.3124C28.3842 76.2892 28.3468 76.2656 28.3096 76.2414C27.7472 75.875 27.6243 75.6457 27.4915 75.0253C26.9929 75.2787 25.7125 75.8908 25.3225 75.1318C24.8956 74.3013 26.0027 73.3835 26.6964 73.061C27.6462 72.6191 28.3369 72.627 29.3192 72.9643C28.9186 72.5506 28.5006 72.1536 28.0665 71.7748C27.9899 71.8557 27.911 71.9341 27.8298 72.01C26.9969 72.7799 24.0829 73.7277 23.2282 72.7084C23.0871 72.5412 23.0241 72.3217 23.0549 72.1052C23.2545 70.6331 26.0293 70.8092 27.0505 70.9803C26.1363 70.3851 25.876 70.3801 24.8294 70.1952C23.8614 70.0241 22.7468 69.4135 22.1437 68.6314C21.3313 67.578 22.0367 66.57 23.3003 66.8826C24.9569 67.2683 25.8761 68.5914 26.7613 69.9279C26.4353 69.0323 25.6705 66.9305 26.6444 66.1892C26.7988 66.0694 26.9976 66.0225 27.1894 66.06C27.8505 66.1873 28.2313 67.1302 28.3982 67.7136C28.7012 68.7719 28.5821 69.991 28.3525 71.0523C28.6587 71.3384 29.0088 71.6348 29.3255 71.9134C28.1184 68.1856 30.7778 65.9175 31.2932 70.2204C31.8325 69.9018 32.0045 69.8204 32.6115 69.6774C32.6464 68.3478 33.0267 65.9131 33.3021 64.5993C29.4799 66.0556 25.898 65.2285 22.4085 63.3718C21.3276 62.7968 20.2833 62.0541 19.1823 61.5195C18.7525 61.3109 18.1303 61.1614 17.6678 60.9834C16.1234 60.3926 14.8785 59.2105 14.2089 57.6984C13.685 56.5212 13.3371 53.9045 13.8315 52.6686C14.4297 51.1739 15.7184 50.8213 17.0129 50.2699C16.9273 49.7629 16.7681 49.2742 16.6211 48.7815L16.5475 48.7475C15.9791 48.4772 15.435 48.1434 15.2331 47.503C15.0971 47.0737 15.1357 46.6082 15.3405 46.2072C16.0961 44.7495 20.8284 43.211 21.4654 45.5164C21.6445 46.1643 21.3579 46.713 21.049 47.2394C21.1956 47.6573 21.3947 48.203 21.4899 48.6242C24.3744 49.1622 26.108 50.7877 26.5734 53.7206C28.6598 55.3796 32.1483 53.3704 33.7579 51.9028C28.8042 50.0125 23.9678 47.2493 20.7885 42.8526C19.7608 41.4313 21.2441 40.7924 22.3215 40.2044C21.9574 40.0578 21.6 39.8953 21.2502 39.7172C20.8453 39.5065 20.4748 39.2779 20.1167 39.018C18.4618 37.8174 17.4582 36.8309 19.0182 34.9426C19.8343 33.84 21.0945 32.942 21.8923 31.8435C22.6825 30.7555 23.7001 29.3609 24.3387 28.1928L24.3777 28.1208C24.2753 27.4088 23.8629 26.5013 23.6655 25.7695C23.0292 23.5715 22.7765 21.5877 22.7645 19.308C22.7489 16.3021 23.9567 13.8104 26.0413 11.6792C27.5016 10.1864 29.6244 9.37328 31.7027 9.40405C33.7699 9.43468 35.4735 10.3224 37.0761 11.5643C37.8205 12.1268 38.5228 12.6881 39.1722 13.3712C40.2398 12.7271 42.006 12.3224 43.2157 12.0184C44.3481 11.7337 45.2232 11.755 46.1253 10.8655C47.1523 9.85283 47.9946 9.65902 49.3913 9.58677Z" fill="#24211E"/>
<path d="M71.489 28.248C71.6961 28.5951 71.9027 28.9462 72.0817 29.2953C73.1386 31.3589 74.7419 33.1651 76.3609 34.8072C76.5533 35.0519 77.4982 35.7726 77.3226 36.109C76.861 36.9717 75.6996 37.5242 74.8864 38.0126C74.4894 38.251 73.9765 38.3557 73.9277 38.8864C73.833 39.9145 75.3189 40.8559 76.0103 41.507C75.6665 42.3777 74.8326 43.2395 74.1663 43.9003C70.0021 48.0299 64.5546 50.5574 59.0647 52.4151C57.8934 52.8111 56.6156 53.0039 55.4473 53.4493C54.6878 53.7388 54.7026 54.3606 55.5144 54.4918C56.9293 56.8891 58.0803 59.7356 58.3008 62.5319C58.1474 62.4905 57.9486 62.4747 57.7864 62.4559C57.7741 62.1329 57.744 61.6052 57.6878 61.3197C57.4377 60.0478 54.6977 60.7683 54.282 61.5815C54.1044 61.9292 54.4856 62.7119 54.6208 63.1025C54.2548 63.2874 54.0147 63.4546 53.8588 63.8545C53.7395 64.1623 53.7523 64.506 53.8943 64.8039C54.098 65.2206 54.3673 65.3301 54.7737 65.4568C54.9453 65.953 54.9482 66.4989 54.9763 67.0236C54.1991 67.2988 52.8543 67.646 52.046 67.8773C51.6731 67.3836 50.7642 66.452 50.3007 65.951C49.4268 65.0007 48.5623 64.0429 47.7061 63.0768C45.3545 60.434 43.0995 57.7073 40.9456 54.9007L41.4235 54.0213C42.1228 54.1826 44.271 54.4154 44.8193 54.0884C45.6064 53.4394 44.4355 53.0745 43.9248 52.9586C41.0398 52.3046 38.3386 51.4515 35.5446 50.5011C30.6158 48.8239 25.9347 46.4445 22.704 42.2407C23.3855 41.4075 25.1296 40.834 25.1748 39.617C25.206 38.776 24.0524 38.5859 23.4181 38.4261C22.13 38.1016 21.0956 37.5183 20.1354 36.5967C20.7958 35.4618 21.9609 34.5705 22.8398 33.5435C23.8551 32.3573 24.6788 31.2196 25.4892 29.873C25.645 29.6141 25.8293 29.4261 25.9873 29.1632C27.8119 29.0619 31.0866 30.8111 32.4258 31.9397C34.2835 33.5051 35.8911 35.4191 37.6815 37.0666C39.7359 38.8016 42.6183 40.7468 45.4131 40.532C46.3069 40.4633 47.208 40.2412 48.0129 39.8833C47.4018 39.4992 47.2416 39.3212 46.8341 38.7223C45.8923 38.6961 45.2388 38.3933 44.717 37.5712C43.836 36.1829 43.9482 33.7743 45.4706 32.8612C45.9168 32.5897 46.4533 32.5085 46.9598 32.6361C47.7022 32.8306 48.0878 33.3549 48.4478 33.9724C49.8361 33.3778 50.7721 33.609 52.0366 34.3387C52.5224 34.8466 52.761 35.0769 53.0496 35.7252C54.3194 34.8023 55.7718 34.5131 57.3238 34.7583C57.5004 34.7853 57.6754 34.8196 57.8495 34.861C58.3151 35.0029 58.5434 35.0863 58.9695 35.3437C59.079 34.1602 59.1155 32.8513 60.1122 32.0421C61.3618 31.0279 62.6835 31.6105 63.2299 32.9996C64.202 33.4558 64.9723 34.0063 65.3427 35.0624C65.6765 36.0143 65.5562 36.9649 65.1301 37.8691C64.9511 38.2493 64.3706 38.7177 64.2547 38.9789C67.3355 37.4963 69.2549 33.4415 70.657 30.4916C70.9864 29.7995 71.2029 28.9663 71.489 28.248Z" fill="#FCFDFB"/>
<path d="M58.9695 35.3429C59.079 34.1594 59.1155 32.8505 60.1121 32.0413C61.3618 31.0271 62.6835 31.6097 63.2299 32.9988C64.202 33.455 64.9723 34.0055 65.3426 35.0616C65.6765 36.0135 65.5562 36.9641 65.1301 37.8683C64.9511 38.2485 64.3706 38.7169 64.2547 38.9781C62.9409 39.6554 61.8298 39.7858 60.481 39.1195C60.555 39.7133 60.4593 40.1588 60.0727 40.6391C59.2176 41.7006 57.7223 42.6093 56.3079 42.2819C55.2101 42.0277 53.3583 41.102 53.1763 39.8263C53.0111 38.3733 55.5321 37.8369 56.6003 37.8014C57.7006 37.7662 58.3575 37.7919 59.3803 38.1206C58.9991 37.4873 58.935 37.3028 58.7357 36.5856C57.3623 35.2446 54.6509 35.5992 53.2907 36.7909C53.2715 37.8505 53.0648 38.6817 52.2684 39.4444C51.6016 40.0942 50.6986 40.4436 49.7685 40.412C49.0672 40.3911 48.6165 40.2037 48.0129 39.8825C47.4018 39.4984 47.2416 39.3203 46.8341 38.7214C45.8923 38.6953 45.2388 38.3925 44.717 37.5704C43.836 36.1821 43.9482 33.7735 45.4706 32.8604C45.9168 32.5889 46.4533 32.5077 46.9598 32.6353C47.7022 32.8298 48.0878 33.354 48.4478 33.9715C49.8361 33.377 50.7721 33.6082 52.0366 34.3379C52.5224 34.8458 52.761 35.0761 53.0495 35.7243C54.3194 34.8015 55.7718 34.5123 57.3238 34.7575C57.5003 34.7845 57.6754 34.8188 57.8495 34.8602C58.3151 35.0021 58.5434 35.0855 58.9695 35.3429Z" fill="#24211E"/>
<path d="M48.3438 38.7525C47.467 37.9955 47.282 36.7081 47.9103 35.735C48.5386 34.7618 49.7878 34.4004 50.8387 34.8877C51.108 35.0127 51.3511 35.1883 51.5543 35.4048C51.6884 35.5475 51.8038 35.7065 51.898 35.8781C52.3029 36.6171 52.2763 37.5174 51.8275 38.2309C51.3787 38.9442 50.5793 39.3587 49.7375 39.3138C49.5309 39.3027 49.3262 39.264 49.1294 39.1987C48.8409 39.1029 48.5736 38.9513 48.3438 38.7525Z" fill="#C6DFE2"/>
<path d="M48.3438 38.7525C47.467 37.9955 47.282 36.7081 47.9103 35.735C48.5386 34.7618 49.7878 34.4004 50.8387 34.8877C49.9895 36.0801 49.1038 37.4962 48.3438 38.7525Z" fill="#A2BBC1"/>
<path d="M51.898 35.8789C52.3029 36.6179 52.2763 37.5182 51.8275 38.2316C51.3787 38.945 50.5793 39.3595 49.7375 39.3146C50.4846 38.2261 51.2836 37.0391 51.898 35.8789Z" fill="#C6DFE2"/>
<path d="M51.5543 35.4062C51.6884 35.5489 51.8038 35.708 51.898 35.8795C51.2835 37.0397 50.4846 38.2267 49.7375 39.3152C49.5308 39.3042 49.3262 39.2655 49.1294 39.2002C49.2453 38.9309 49.7094 38.2143 49.8839 37.9434C50.4239 37.1044 50.9827 36.2228 51.5543 35.4062Z" fill="#A2BBC1"/>
<path d="M61.0403 38.1797C59.9776 37.4282 59.4962 36.3359 60.1704 35.116C60.4776 34.5616 61.0043 34.1625 61.6208 34.0172C62.3137 33.8473 62.9148 33.9868 63.5111 34.349C63.7443 34.5317 63.9184 34.6693 64.0886 34.9242C64.8027 36.0404 64.4811 37.4639 63.3414 38.1471C62.829 38.4544 62.4784 38.4778 61.9078 38.4726C61.5374 38.3764 61.3905 38.3307 61.0403 38.1797Z" fill="#A2BBC1"/>
<path d="M64.0885 34.9238C64.8026 36.0401 64.4811 37.4635 63.3414 38.1468C62.829 38.454 62.4784 38.4775 61.9078 38.4723C62.3275 37.5246 63.5865 35.8934 64.0885 34.9238Z" fill="#A2BBC1"/>
<path d="M63.511 34.3496C63.7443 34.5324 63.9184 34.67 64.0885 34.9248C63.5865 35.8944 62.3274 37.5256 61.9078 38.4733C61.5374 38.377 61.3904 38.3313 61.0403 38.1803C61.8476 37.0059 62.7027 35.4445 63.511 34.3496Z" fill="#C6DFE2"/>
<path d="M57.1172 38.6179C57.6291 38.5592 58.6766 38.5333 59.005 38.9859C59.0598 39.5559 57.8352 39.6209 57.4244 39.6506C56.9697 39.6931 55.7063 39.6763 55.5262 39.1867L55.5839 39.0644C55.9795 38.7433 56.6196 38.6801 57.1172 38.6179Z" fill="#55544E"/>
<path d="M46.9204 33.8634C47.2204 33.8268 47.5262 33.8622 47.6657 34.1548C47.6633 34.561 47.4482 34.704 47.1874 35.0223C47.106 35.1291 47.1538 35.0818 47.0143 35.139C46.4157 34.9913 46.4749 34.2548 46.9204 33.8634Z" fill="#FCFDFB"/>
<path d="M56.6334 43.5476C59.8597 43.2864 60.2878 49.1075 55.4439 49.3822C50.8836 49.1745 53.4062 43.9362 56.6334 43.5476Z" fill="#24211E"/>
<path d="M54.6687 46.1297C55.0578 45.5189 55.7393 44.9023 56.4524 44.7632C57.9881 44.4636 58.3452 46.2915 57.5216 47.2605C57.3732 47.4349 57.2666 47.547 57.0901 47.6978C55.7117 48.6835 52.9692 48.3117 54.6687 46.1297Z" fill="#754539"/>
<path d="M54.6687 46.1289C55.7324 46.2543 56.5486 46.7648 57.0901 47.697C55.7117 48.6828 52.9692 48.3109 54.6687 46.1289Z" fill="#C07861"/>
<path d="M41.8763 14.6452C43.663 14.2701 45.6421 13.5851 47.3703 12.9914C47.9774 12.7475 48.728 12.5519 49.2838 12.2065C49.8904 11.8295 50.0526 11.2325 50.7268 10.8711C51.3536 13.4467 53.3854 13.0877 55.4829 13.5784C55.8932 13.6744 56.4061 13.8882 56.8193 14.0226C58.0276 14.7998 58.8295 16.7884 59.1185 18.1524C59.765 21.2055 59.2955 24.0624 58.6869 27.058C58.1302 29.8 57.1996 32.1022 57.8496 34.8599C57.6755 34.8184 57.5004 34.7842 57.3238 34.7572C55.7719 34.5119 54.3195 34.8011 53.0496 35.724C52.7611 35.0758 52.5224 34.8454 52.0366 34.3376C50.7722 33.6079 49.8361 33.3767 48.4479 33.9712C48.0879 33.3537 47.7022 32.8294 46.9599 32.6349C46.4533 32.5074 45.9168 32.5885 45.4706 32.8601C43.9482 33.7731 43.8361 36.1818 44.717 37.57C45.2388 38.3922 45.8923 38.6949 46.8341 38.7211C47.2416 39.32 47.4019 39.498 48.0129 39.8821C47.2081 40.24 46.3069 40.4621 45.4131 40.5308C42.6184 40.7456 39.7359 38.8004 37.6815 37.0655C35.8911 35.4179 34.2836 33.504 32.4259 31.9385C31.0866 30.81 27.8119 29.0607 25.9873 29.162C26.5638 27.7917 26.0012 26.4954 25.5818 25.1803C25.4136 24.6529 25.1424 23.6048 25.0721 23.0822C24.8551 21.4666 24.8362 19.2825 25.1106 17.6874C25.3821 16.1093 26.2376 13.6532 27.6291 12.7067C28.201 12.3178 29.1597 11.8711 29.8689 11.9944C29.0302 12.5679 29.4942 13.2771 30.2771 13.5181C31.2059 13.7605 33.3009 14.1471 34.0056 14.7696C34.4115 14.8849 36.5477 14.4761 36.8641 14.3164C38.2438 15.4039 38.6928 16.0162 40.147 14.8206C40.3399 14.6621 41.5045 14.2736 41.7441 14.2597L41.7873 14.2934C41.7163 14.3542 41.6446 14.4141 41.5721 14.4732C41.6254 14.5887 41.7486 14.6144 41.8763 14.6452Z" fill="#55544E"/>
<path d="M41.8762 14.6452C43.663 14.2701 45.6421 13.5851 47.3703 12.9914C47.9774 12.7475 48.7279 12.5519 49.2837 12.2065C49.8903 11.8295 50.0526 11.2325 50.7267 10.8711C51.3536 13.4467 53.3854 13.0877 55.4828 13.5784C55.8931 13.6744 56.406 13.8882 56.8193 14.0226C58.0275 14.7998 58.8294 16.7884 59.1184 18.1524C59.765 21.2055 59.2955 24.0624 58.6869 27.058C58.1301 29.8 57.1995 32.1022 57.8495 34.8599C57.6754 34.8184 57.5003 34.7842 57.3238 34.7572C55.7718 34.5119 54.3194 34.8011 53.0495 35.724C52.761 35.0758 52.5223 34.8454 52.0366 34.3376C51.8635 33.6771 51.6845 33.0183 51.499 32.3612C50.8244 30.0339 49.8336 27.5427 48.9109 25.2711C47.8077 22.5546 46.7356 19.3186 44.9464 16.9701C44.1424 15.9147 43.0052 15.2651 41.8762 14.6452Z" fill="#FCFDFB"/>
<path d="M35.3562 16.8179C34.8598 17.5702 33.6598 18.5629 32.9662 19.1549C31.4548 20.445 30.1415 21.8466 29.0456 23.5127C28.707 24.0275 28.2871 24.8091 27.8972 25.2392C27.1775 25.1526 26.6082 21.8472 26.5788 21.1863C26.4826 19.0161 26.4479 16.3437 27.8137 14.5348C28.412 13.7424 29.3705 13.59 30.2772 13.5195C31.2059 13.762 33.3009 14.1486 34.0056 14.771C34.3811 16.0143 34.5024 15.9142 35.3562 16.8179Z" fill="#24211E"/>
<path d="M44.1428 24.168C44.4578 24.1066 45.2545 24.1189 45.5927 24.1733C46.3554 24.2922 46.9557 24.5884 47.426 25.2254C47.932 25.9104 48.0346 26.9712 47.2702 27.5172C46.7513 27.8876 45.9564 27.778 45.355 27.6745C44.3072 27.4364 41.8834 26.734 41.6353 25.4793C41.4228 24.4046 43.4193 24.2587 44.1428 24.168Z" fill="#FCFDFB"/>
<path d="M69.432 11.9434C70.5091 12.1972 71.4707 13.2246 72.033 14.1402C74.0283 17.3869 73.1367 20.309 72.3367 23.7482C72.1646 24.4864 71.3608 27.6073 71.489 28.2476C71.203 28.9658 70.9865 29.7991 70.657 30.4912C69.255 33.441 67.3356 37.4958 64.2548 38.9785C64.3707 38.7172 64.9511 38.2488 65.1301 37.8686C65.5562 36.9644 65.6766 36.0138 65.3427 35.0619C64.9723 34.0058 64.202 33.4553 63.23 32.9991C62.6835 31.61 61.3619 31.0274 60.1122 32.0416C59.1155 32.8508 59.079 34.1598 58.9695 35.3433C58.5434 35.0858 58.3151 35.0024 57.8496 34.8605C57.1996 32.1029 58.1302 29.8006 58.6869 27.0587C59.2955 24.0631 59.765 21.2062 59.1185 18.1531C58.8295 16.7891 58.0276 14.8005 56.8193 14.0233C57.782 13.5397 60.2878 15.4631 61.5823 14.7911C61.6573 14.7515 61.7308 14.7097 61.8028 14.6658C62.2969 14.9531 62.8202 15.2571 63.2798 15.5971C64.0619 15.0617 65.3368 14.1851 66.1801 13.8582C67.4041 13.3835 67.9076 13.3553 69.0828 12.6856C69.3649 12.4062 69.3906 12.3388 69.432 11.9434Z" fill="#55544E"/>
<path d="M69.0828 12.6855C71.8737 14.0861 71.9294 17.9726 71.632 20.6875C71.5324 21.5956 71.0229 23.0079 70.6284 23.8586C70.3276 23.4676 70.0973 23.0661 69.8167 22.6668C68.0935 20.2138 65.7964 18.2181 63.4721 16.3537C63.2734 16.1944 63.0559 16.0364 62.868 15.8671L63.2798 15.5971C64.0619 15.0617 65.3368 14.1851 66.1801 13.8582C67.4041 13.3835 67.9076 13.3553 69.0828 12.6855Z" fill="#24211E"/>
<path d="M62.1371 22.8302C63.4292 22.71 64.9437 23.2649 64.2705 24.9089C63.9017 25.8095 62.5509 26.6316 61.6558 26.9836C61.1621 27.1323 60.7128 27.2396 60.2335 26.9849C59.3941 26.5281 59.4035 25.2796 59.8242 24.5409C60.3435 23.6293 61.1557 23.1314 62.1371 22.8302Z" fill="#FCFDFB"/>
<path d="M77.2487 50.039L77.2363 49.9443C77.8922 49.5192 77.7034 49.4753 78.1778 48.9195C78.4984 48.5482 78.8603 48.2148 79.2563 47.9257C79.5537 47.7074 80.1159 47.5679 80.2229 47.3782L80.1421 47.2845C79.8235 47.2992 79.5379 47.3396 79.315 47.0798C79.0768 46.3021 80.4562 45.4706 81.0066 45.1226C81.2004 45 81.7069 44.7637 81.8632 44.6364C81.9687 44.551 82.1118 44.0262 82.2676 43.8434C82.4022 43.6858 82.8786 43.3346 82.9615 43.236C82.9921 43.1999 83.0118 42.6507 83.138 42.4042C83.2963 42.0949 83.5843 41.78 83.9503 41.6899C85.6902 41.2611 87.6648 41.5639 89.2745 42.3334C89.5931 42.4859 89.9274 43.0699 89.9984 43.3722C90.1745 44.1225 90.0068 44.1306 89.6429 44.7431C89.5926 44.8273 89.6586 45.0398 89.7065 45.104C89.8909 45.3513 89.6744 45.8346 89.8396 46.0839C89.8362 46.0788 90.1992 46.3271 90.2243 46.3444C90.68 46.663 91.0928 47.0501 91.2935 47.5804C92.4485 49.4472 92.7833 50.9765 92.4978 53.1711C92.5609 53.4867 92.4593 54.1219 92.0855 54.2196C91.9193 54.2625 91.7428 54.2225 91.6111 54.1121C91.2713 53.8236 91.5993 52.6553 91.6234 52.1981C91.7122 50.5149 91.1746 48.9289 90.1064 47.6285C90.0187 47.5221 90.0039 47.5289 89.8875 47.5147C89.7578 47.7198 90.1987 48.5891 90.2509 48.8515C90.2889 49.0413 90.5533 49.8817 90.6647 49.9581C91.6471 50.6357 91.2738 51.448 91.255 52.4703C91.2506 52.712 91.3497 53.3304 91.2491 53.5346C91.2343 53.5548 90.9177 53.7368 90.8605 53.7698C91.0119 54.6688 91.4883 55.1467 91.2348 56.2208C90.9517 57.4217 90.0379 57.8552 88.9135 58.0391C88.8361 58.0495 88.443 58.0904 88.4011 58.1161C88.4445 58.4499 88.2862 58.6186 88.1146 58.9717C87.8724 59.1157 87.4296 59.5369 87.2629 59.5906C85.4184 60.1854 82.9062 60.0636 81.3188 58.8676C81.0534 58.6679 80.7871 58.3686 80.5139 58.1762C80.2846 58.015 80.2959 57.9153 80.0582 58.1461C79.8442 58.3266 79.4975 58.5609 79.2179 58.5934C79.4309 58.4159 79.8674 58.1506 80.1125 57.9735C80.5213 57.6791 80.9094 57.3891 81.3104 57.0844C80.6964 56.8654 80.2545 56.6617 79.68 56.3752C77.6442 54.9657 78.6764 53.326 79.8713 51.847C79.9813 51.7113 80.2486 51.3498 80.3038 51.1994C80.1539 50.8261 80.0918 50.8345 80.3152 50.5085C80.7279 50.399 81.1397 50.4878 81.5935 50.329C83.179 49.7885 82.5058 48.6172 81.0766 48.7223C80.1465 48.7903 79.6602 49.4157 79.0842 50.0873C79.2539 49.6455 79.5858 49.6075 79.6509 49.2144C79.4896 48.886 79.0606 49.0418 78.667 48.7183C78.1107 49.1927 77.6343 50.2294 76.8398 50.3433L76.7969 50.3073C76.8536 50.26 77.1663 50.0869 77.2487 50.039Z" fill="url(#paint0_linear_11_16629)"/>
<path d="M77.2487 50.039L77.2363 49.9443C77.8922 49.5192 77.7034 49.4753 78.1778 48.9195C78.4984 48.5482 78.8603 48.2148 79.2563 47.9257C79.5537 47.7074 80.1159 47.5679 80.2229 47.3782L80.1421 47.2845C79.8235 47.2992 79.5379 47.3396 79.315 47.0798C79.0768 46.3021 80.4562 45.4706 81.0066 45.1226C81.2004 45 81.7069 44.7637 81.8632 44.6364C81.9687 44.551 82.1118 44.0262 82.2676 43.8434C82.4022 43.6858 82.8786 43.3346 82.9615 43.236C82.9921 43.1999 83.0118 42.6507 83.138 42.4042C83.2963 42.0949 83.5843 41.78 83.9503 41.6899C85.6902 41.2611 87.6648 41.5639 89.2745 42.3334C89.5931 42.4859 89.9274 43.0699 89.9984 43.3722C90.1745 44.1225 90.0068 44.1306 89.6429 44.7431C89.5926 44.8273 89.6586 45.0398 89.7065 45.104C89.8909 45.3513 89.6744 45.8346 89.8396 46.0839C89.8362 46.0788 90.1992 46.3271 90.2243 46.3444C90.68 46.663 91.0928 47.0501 91.2935 47.5804C92.4485 49.4472 92.7833 50.9765 92.4978 53.1711C92.5609 53.4867 92.4593 54.1219 92.0855 54.2196C91.9193 54.2625 91.7428 54.2225 91.6111 54.1121C91.2713 53.8236 91.5993 52.6553 91.6234 52.1981C91.7122 50.5149 91.1746 48.9289 90.1064 47.6285C90.0187 47.5221 90.0039 47.5289 89.8875 47.5147C89.7578 47.7198 90.1987 48.5891 90.2509 48.8515C90.2889 49.0413 90.5533 49.8817 90.6647 49.9581C91.6471 50.6357 91.2738 51.448 91.255 52.4703C91.2506 52.712 91.3497 53.3304 91.2491 53.5346C91.2343 53.5548 90.9177 53.7368 90.8605 53.7698C91.0119 54.6688 91.4883 55.1467 91.2348 56.2208C90.9517 57.4217 90.0379 57.8552 88.9135 58.0391C88.8361 58.0495 88.443 58.0904 88.4011 58.1161C88.4445 58.4499 88.2862 58.6186 88.1146 58.9717C87.8724 59.1157 87.4296 59.5369 87.2629 59.5906C85.4184 60.1854 82.9062 60.0636 81.3188 58.8676C81.0534 58.6679 80.7871 58.3686 80.5139 58.1762C80.2846 58.015 80.2959 57.9153 80.0582 58.1461C79.8442 58.3266 79.4975 58.5609 79.2179 58.5934C79.4309 58.4159 79.8674 58.1506 80.1125 57.9735C80.5213 57.6791 80.9094 57.3891 81.3104 57.0844C81.4307 57.1233 81.7098 57.1978 81.8371 57.2244C84.0548 57.686 88.2413 58.6625 90.2825 57.4666C91.832 56.3658 91.0366 54.619 90.5434 53.2066C90.0211 51.7113 89.0506 49.825 88.5954 48.3494C88.4923 48.0151 88.8632 45.6874 88.9475 45.2684C89.2681 44.9827 89.7489 44.5584 89.8663 44.1619C90.5054 42.0031 86.8249 41.5863 85.4515 41.595C84.5731 41.5863 83.4334 41.7132 83.1129 42.6902C82.9117 43.3032 83.3343 43.9678 83.6095 44.5058C83.5528 45.2516 83.32 46.6018 83.0621 47.3214C83.0286 47.4147 82.8584 47.6153 82.7879 47.6976C82.7524 47.6794 82.7169 47.6618 82.6809 47.6446C82.1236 47.3788 81.2556 47.2271 80.6742 47.4292C80.5839 47.5107 80.2456 47.6474 80.2594 47.6255C79.9966 48.0402 79.8693 48.1458 79.4778 48.4165L79.0448 48.3425C78.9136 48.4653 78.779 48.5797 78.667 48.7183C78.1107 49.1927 77.6343 50.2294 76.8398 50.3433L76.7969 50.3073C76.8536 50.26 77.1663 50.0869 77.2487 50.039Z" fill="#FEDDAA"/>
<path d="M92.4977 53.1709C92.4065 53.5343 92.3483 54.029 91.9523 54.1523C91.2564 54.0038 91.6234 53.2286 91.6855 52.7438C91.8966 51.0907 91.4744 49.3863 90.5374 48.0096C90.2943 47.6522 89.7676 47.282 89.6754 46.8793C89.735 46.4254 90.1271 46.3674 90.4176 46.6177C90.7297 46.8868 91.0202 47.2709 91.2934 47.5802C92.4484 49.447 92.7833 50.9763 92.4977 53.1709Z" fill="#F7BF73"/>
<path d="M77.2487 50.0395C77.6619 49.8368 77.8484 49.5646 78.125 49.1893C78.6833 48.4333 79.6997 47.5461 80.6742 47.4297C80.5839 47.5112 80.2456 47.6479 80.2594 47.626C79.9966 48.0407 79.8693 48.1463 79.4778 48.417L79.0448 48.343C78.9136 48.4658 78.779 48.5802 78.667 48.7188C78.1107 49.1932 77.6343 50.2299 76.8398 50.3438L76.7969 50.3078C76.8536 50.2605 77.1663 50.0873 77.2487 50.0395Z" fill="#6E5633"/>
<path d="M81.7197 58.1602C82.0101 58.208 82.8495 58.601 83.2332 58.7184C84.1302 58.9926 85.0796 59.0459 86.0018 58.8743C86.3465 58.8111 87.2949 58.4911 87.5681 58.7534C87.8211 58.9966 87.6381 59.2836 87.3861 59.4591C85.84 59.9247 84.1613 59.9622 82.6246 59.4453C82.0313 59.2461 80.9242 58.8999 81.7197 58.1602Z" fill="#F7BF73"/>
<path d="M82.195 44.6738C82.4466 44.7431 82.667 44.9887 82.5482 45.2276C82.3923 45.5408 81.7389 45.755 81.4114 45.9707C80.9089 46.3022 80.2895 47.0668 79.7953 47.2827C79.455 47.0527 79.2898 46.8238 79.5625 46.4503C80.0557 45.7742 81.407 44.8645 82.195 44.6738Z" fill="#F7BF73"/>
<path d="M84.6565 44.1571C84.5352 43.9253 83.7096 42.9387 84.2338 42.7896C85.4012 42.4581 87.0099 42.689 88.1525 43.0844C89.8934 43.687 88.3365 44.0741 88.0899 44.6206C87.756 45.3603 87.5736 47.2945 87.4725 48.1725C87.5814 49.2298 88.6615 51.4417 89.0994 52.4941C89.3356 53.0711 89.5546 53.6545 89.7563 54.2443C89.9107 54.6857 90.1222 55.1833 90.1212 55.6548C90.1202 56.1114 89.8894 56.5084 89.4614 56.6865C87.7822 57.3838 82.4668 56.4675 80.7994 55.7337C80.3738 55.5468 79.8491 55.2509 79.68 54.7932C79.5572 54.4613 79.6829 54.0944 79.8314 53.7931C80.2412 52.9596 80.9721 52.1814 81.5579 51.4663C81.771 51.4362 82.0881 51.4027 82.2863 51.345C82.8278 51.1088 82.9768 51.0131 83.4216 50.6245C83.5582 50.4258 83.6716 50.1945 83.7851 49.9799C83.863 49.3472 83.8738 49.0636 83.6692 48.4403C84.0706 47.7174 84.2511 47.2654 84.3704 46.4429C84.4799 45.6897 84.6585 44.923 84.6565 44.1571Z" fill="#F5A356"/>
<path d="M84.6565 44.1571C84.5352 43.9253 83.7096 42.9387 84.2338 42.7896C85.4012 42.4581 87.0099 42.689 88.1525 43.0844C89.8934 43.687 88.3365 44.0741 88.0899 44.6206C87.756 45.3603 87.5736 47.2945 87.4725 48.1725C87.5814 49.2298 88.6615 51.4417 89.0994 52.4941C89.3356 53.0711 89.5546 53.6545 89.7563 54.2443C89.9107 54.6857 90.1222 55.1833 90.1212 55.6548C90.1202 56.1114 89.8894 56.5084 89.4614 56.6865C87.7822 57.3838 82.4668 56.4675 80.7994 55.7337C80.3738 55.5468 79.8491 55.2509 79.68 54.7932C79.5572 54.4613 79.6829 54.0944 79.8314 53.7931C80.2412 52.9596 80.9721 52.1814 81.5579 51.4663C81.771 51.4362 82.0881 51.4027 82.2863 51.345C81.7744 52.0675 81.1802 52.7505 80.7161 53.5041C80.5534 53.7684 80.2846 54.2049 80.4025 54.5235C80.4888 54.7567 80.7457 54.9264 80.9509 55.0432C82.4999 55.9235 87.0562 56.685 88.7581 56.1539C88.9579 56.0917 89.3016 55.9526 89.3761 55.7312C89.5615 55.1769 87.9996 51.346 87.6682 50.5476C87.1904 49.6835 84.6816 49.7886 83.7851 49.9799C83.863 49.3472 83.8738 49.0636 83.6692 48.4403C84.0706 47.7174 84.2511 47.2654 84.3704 46.4429C84.4799 45.6897 84.6585 44.923 84.6565 44.1571Z" fill="#C6DFE2"/>
<path d="M85.6028 45.1797C85.7168 45.2009 85.7444 45.2158 85.8534 45.26C86.3697 45.8243 85.5432 48.1725 85.0071 48.7244C84.8256 48.7165 84.7881 48.7145 84.7211 48.5611C84.8355 48.1025 85.0421 47.5154 85.1763 47.0407C85.3094 46.5723 85.4327 45.5172 85.6028 45.1797Z" fill="#FCFDFB"/>
<path d="M84.9701 43.2227C85.5195 43.3588 86.0714 43.5021 86.6277 43.6157C87.0217 43.6961 87.7121 43.5197 87.9883 43.7385C88.0396 43.9319 88.0282 43.8623 87.9686 44.0758C87.3102 44.1969 85.3356 44.0344 84.9193 43.542C84.8819 43.3572 84.8878 43.4237 84.9701 43.2227Z" fill="#24211E"/>
<path d="M83.785 49.98C84.6816 49.7886 87.1903 49.6836 87.6682 50.5476C86.7055 51.4777 84.5435 51.0181 83.4216 50.6245C83.5582 50.4258 83.6716 50.1945 83.785 49.98Z" fill="#F7BF73"/>
<path d="M86.419 52.1934C86.6898 52.0889 86.9945 52.225 87.0971 52.4967C87.2002 52.769 87.0621 53.0723 86.7894 53.1734C86.5196 53.274 86.2188 53.1373 86.1172 52.8676C86.0151 52.5983 86.1497 52.297 86.419 52.1934Z" fill="#F7BF73"/>
<path d="M83.8269 51.8858C84.0415 51.7793 84.3014 51.8641 84.4123 52.0762C84.5233 52.2882 84.4439 52.5501 84.2343 52.6655C84.0947 52.7419 83.9246 52.7375 83.789 52.6527C83.6538 52.5683 83.5754 52.4174 83.5828 52.2581C83.5907 52.0989 83.6844 51.9563 83.8269 51.8858Z" fill="#F7BF73"/>
<path d="M87.7688 54.3092C87.9903 54.2973 88.1806 54.4645 88.1969 54.686C88.2137 54.9069 88.0499 55.1007 87.829 55.1214C87.682 55.1352 87.5395 55.0687 87.4557 54.9473C87.3718 54.826 87.3605 54.6687 87.4251 54.5365C87.4902 54.4039 87.6214 54.3171 87.7688 54.3092Z" fill="#F7BF73"/>
<path d="M85.0505 54.0094C85.2616 53.9493 85.4815 54.0721 85.5407 54.2836C85.5999 54.4947 85.4766 54.7142 85.265 54.7728C85.0544 54.8315 84.836 54.7082 84.7768 54.4982C84.7181 54.2876 84.8404 54.0686 85.0505 54.0094Z" fill="#F7BF73"/>
<path d="M82.2927 53.7142C82.4141 53.688 82.5344 53.7635 82.5635 53.8843C82.5926 54.0046 82.5201 54.1269 82.4002 54.159C82.3199 54.1802 82.234 54.1565 82.1763 54.0969C82.1186 54.0372 82.0979 53.9509 82.1221 53.871C82.1463 53.7916 82.2114 53.7314 82.2927 53.7142Z" fill="#F7BF73"/>
<path d="M79.0842 50.0865C79.6602 49.4149 80.1465 48.7895 81.0766 48.7215C82.5058 48.6164 83.1789 49.7877 81.5934 50.3282C81.1397 50.487 80.7279 50.3982 80.3151 50.5077C80.0917 50.8337 80.1539 50.8253 80.3038 51.1986C80.2486 51.349 79.9813 51.7105 79.8713 51.8462C78.6763 53.3252 77.6442 54.9649 79.6799 56.3744L79.5621 56.4232C79.3293 56.5061 78.7503 56.9953 78.4357 57.1906C78.1196 57.3869 77.2008 57.8391 76.9976 57.9999C76.607 58.1685 76.2352 58.3525 75.8481 58.5325C73.1687 59.7762 70.2694 60.7512 67.2857 60.7566C66.4311 60.7581 65.573 60.7379 64.7504 60.513C64.8584 59.7338 64.8816 59.3008 64.8727 58.5093C64.4796 58.0635 64.0876 57.9727 63.4805 57.9303C62.6485 57.8721 60.8125 57.9757 60.735 59.1031C60.7089 59.4843 60.9254 60.2635 61.0521 60.6358C59.7073 60.9776 59.6713 62.4393 60.8534 63.0992C60.8879 63.832 60.8919 64.5663 60.8647 65.2992C60.2868 65.4417 59.4883 65.741 58.9749 65.8323C58.7742 65.4239 58.7219 65.1483 58.6411 64.701C59.3315 63.8621 59.3256 63.0888 58.3008 62.531C58.0803 59.7348 56.9293 56.8883 55.5144 54.491C55.7467 54.4358 56.0426 54.4047 56.2823 54.3682C58.6637 54.0077 61.0546 53.4706 63.2941 52.5632C67.2808 54.1759 72.8457 53.8499 76.8171 51.9808C77.3147 51.7465 77.9795 51.208 78.4761 50.9353C78.6403 50.845 78.9091 50.2079 79.0842 50.0865Z" fill="url(#paint1_linear_11_16629)"/>
<path d="M79.5621 56.4232L79.5517 56.3823C79.2548 56.1643 78.992 55.9039 78.7705 55.6095C78.5698 55.3457 78.2177 53.7587 78.2912 53.4603C78.5461 52.4266 78.8337 50.7785 80.2481 51.1952C80.1583 51.0379 80.0557 50.8978 80.0483 50.7203C80.141 50.5773 80.1361 50.5709 80.2791 50.4648L80.3151 50.5077C80.0917 50.8337 80.1539 50.8253 80.3038 51.1987C80.2485 51.3491 79.9812 51.7106 79.8713 51.8462C78.6763 53.3252 77.6441 54.965 79.6799 56.3744L79.5621 56.4232Z" fill="#9C8068"/>
<path d="M61.8027 14.6666C63.3858 13.0121 67.0949 10.7131 69.432 11.9442C69.3906 12.3397 69.3649 12.4071 69.0828 12.6864C67.9076 13.3562 67.4041 13.3844 66.1801 13.8591C65.3367 14.186 64.0619 15.0626 63.2798 15.598C62.8201 15.258 62.2969 14.954 61.8027 14.6666Z" fill="#FCFDFB"/>
<path d="M29.8689 11.9954C32.4401 11.7772 34.1761 12.0164 36.2421 13.7639C36.4533 13.944 36.6607 14.1285 36.8641 14.3174C36.5477 14.4771 34.4115 14.8859 34.0055 14.7705C33.3009 14.1481 31.2058 13.7615 30.2771 13.519C29.4942 13.2781 29.0302 12.5689 29.8689 11.9954Z" fill="#FCFDFB"/>
<path d="M79.6799 56.375C80.2545 56.6615 80.6963 56.8652 81.3103 57.0842C80.9094 57.3889 80.5213 57.6789 80.1124 57.9733C79.8673 58.1504 79.4309 58.4157 79.2178 58.5933C79.024 58.7082 78.519 59.0262 78.343 59.0987C78.4263 58.9858 78.4455 59.0391 78.4934 58.8896L78.3341 58.6766L78.3602 58.6371C78.7844 58.7215 78.9481 58.7447 79.2672 58.4236C79.2386 57.8358 77.8986 57.0353 77.7882 57.8185C77.4296 57.8131 77.3335 57.9107 76.9976 58.0005C77.2008 57.8397 78.1196 57.3875 78.4357 57.1912C78.7503 56.9959 79.3293 56.5067 79.5621 56.4238L79.6799 56.375Z" fill="url(#paint2_linear_11_16629)"/>
<path d="M40.1233 53.8105C40.52 53.852 41.0227 53.9526 41.4235 54.0216L40.9456 54.9009C40.669 54.5473 40.3941 54.1706 40.1233 53.8105Z" fill="#55544E"/>
<path d="M33.7364 62.6317C33.1443 62.9586 32.3811 63.1805 31.7586 63.3423C28.0939 64.2936 24.5379 62.7742 21.4727 60.8735C21.2016 60.7054 20.863 60.5806 20.5715 60.4361C19.4819 59.8956 18.2081 59.8902 17.1722 59.2421C16.0294 58.5349 15.2659 57.3296 14.9832 56.0252C14.7984 54.9432 14.5302 53.7014 15.1783 52.7215C15.7389 51.8733 16.6393 51.5739 17.4902 52.1894C17.617 52.2811 17.6238 52.3176 17.6427 52.4597C17.5185 52.6993 16.9152 52.8779 16.6441 52.976C16.1249 53.1634 15.0267 54.0674 15.5984 54.6399C15.8447 54.6685 16.3493 54.2597 16.6958 54.0718C17.5384 53.5224 19.1704 53.9446 18.9218 55.0976C18.8508 55.427 16.4701 55.6711 17.0693 56.8567C17.6765 57.2621 18.6355 55.8832 19.2933 56.4291C20.4686 57.4051 18.5593 58.7263 18.5753 59.0217C18.7555 59.2747 19.0488 59.3822 19.3313 59.4981C20.5975 60.0164 22.0306 59.9069 23.2761 59.3551C24.472 58.8279 25.439 57.8889 26.0014 56.7092C26.2142 56.2521 26.302 55.896 26.4766 55.4438C29.7143 56.8764 32.7368 55.0823 35.1663 52.9582C35.9557 54.3638 37.7834 57.1758 38.7937 58.4304C39.9175 60.1229 41.7047 62.2411 43.0409 63.7699C45.3697 66.4093 47.7668 68.9875 50.2292 71.5027C50.2918 73.2973 50.3012 75.0757 50.3692 76.8777C50.3687 77.7205 50.4309 78.6585 50.4698 79.5072C48.8868 79.599 47.2716 79.4732 45.6988 79.2942C45.0798 79.2242 43.6713 78.5949 43.2442 78.9544C42.8764 79.851 44.9394 80.5971 45.5464 80.8373C45.097 82.6221 44.7625 84.4616 44.3453 86.2542C44.2111 86.8307 43.8381 89.1708 43.478 89.4879C42.3254 90.5038 40.1272 90.7006 38.6378 90.739C38.6258 90.3504 38.6489 90.1877 38.7201 89.8213C38.8008 89.4055 39.1765 88.6954 39.0976 88.3147C38.545 87.4817 38.0084 88.4463 37.7508 88.9489C37.4318 89.5707 37.3992 90.1403 37.3848 90.8244C36.6889 90.7795 36.285 90.7667 35.6093 90.5803C35.5553 89.9086 35.6334 89.3651 35.8413 88.7205C35.8897 88.505 36.0066 88.2885 35.8582 88.0873C35.5769 87.7066 35.0986 88.1065 34.8684 88.3142C34.3149 88.8127 34.2965 89.5555 34.2868 90.2479C32.9171 89.3562 33.6136 88.1248 34.4667 87.1256C34.8904 86.6295 36.2621 85.8454 36.229 85.1017C36.1745 83.8767 35.5921 82.6526 35.4245 81.4247C34.1676 75.4751 34.022 69.5049 35.2888 63.543C35.6257 61.957 35.9438 60.2719 36.196 58.6656C36.2318 58.4383 36.2576 58.1591 36.1097 57.9796C35.1154 57.5082 34.0183 61.9294 33.7592 62.5759L33.7364 62.6317Z" fill="#55544E"/>
<path d="M38.7937 58.4297C39.9175 60.1222 41.7047 62.2404 43.0409 63.7692C45.3697 66.4086 47.7668 68.9868 50.2292 71.502C50.2918 73.2966 50.3012 75.075 50.3692 76.877C48.0163 77.2991 45.5923 77.0417 43.3805 76.1353C36.7556 73.4653 36.479 66.5491 38.1191 60.5562C38.3165 59.8352 38.5042 59.1221 38.7937 58.4297Z" fill="#FCFDFB"/>
<path d="M51.8645 81.4707C54.9547 82.638 58.0192 83.8729 61.0556 85.1744C61.2612 85.7972 61.5897 86.244 62.1524 86.5774C63.3823 87.3063 64.7741 89.3248 62.9908 90.3117C63.0164 89.4772 62.9592 88.5047 62.1534 88.0135C61.9167 87.869 61.6134 87.8468 61.4782 88.1373C61.3283 88.4583 61.5626 88.9298 61.675 89.2479C61.7658 89.7716 61.7376 90.0779 61.6967 90.6041C61.1069 90.6766 60.5363 90.6968 59.9435 90.7254C59.873 89.928 59.7152 89.0378 59.2013 88.4149C58.6736 87.7743 57.9368 88.0707 58.4024 88.9638C58.6278 89.3968 58.7328 90.2288 58.755 90.7185C57.204 90.6164 55.4227 90.4793 54.0685 89.6523C53.5122 89.3105 53.3869 88.5511 53.2799 87.9529C52.8923 85.7928 52.1979 83.6322 51.8645 81.4707Z" fill="#55544E"/>
<path d="M36.2496 52.6816C37.0234 52.9223 37.7612 53.1492 38.5439 53.3568C38.7755 53.6305 39.1848 54.2539 39.4077 54.5705C39.8902 55.2535 40.3807 55.9311 40.8792 56.6028C41.9296 58.0182 43.2939 59.6145 44.4421 60.9633C45.9245 62.6722 47.427 64.3637 48.9489 66.0375C49.8302 67.0021 54.209 71.452 54.4739 72.1587C54.5715 72.4191 54.5237 72.6375 54.4117 72.8826C53.091 73.5711 52.333 72.0625 51.5336 71.3173C49.7069 69.6154 48.0987 67.7005 46.3997 65.8748C42.5886 61.7781 39.1912 57.4441 36.2496 52.6816Z" fill="#8B634A"/>
<path d="M52.8202 71.0053C53.2449 70.9791 53.5102 71.0413 53.7647 71.3983C54.1429 71.929 54.031 72.3639 53.5432 72.7062C52.6299 72.7377 51.9883 71.7529 52.8202 71.0053Z" fill="#24211E"/>
<path d="M53.0604 71.4121C53.4569 71.5803 53.595 71.7598 53.3597 72.1652C53.1363 72.07 52.9933 72.0182 52.9213 71.7662C52.9337 71.5689 52.9499 71.5699 53.0604 71.4121Z" fill="#8B634A"/>
<path d="M70.0248 75.5942C71.596 74.9867 73.5036 74.5058 75.1251 74.0181C75.7494 73.8297 76.3649 73.6152 76.9927 73.4238C77.007 74.6341 76.968 75.9074 76.967 77.129C76.5937 77.2271 75.384 77.7494 75.0989 77.5733C75.0713 77.1901 75.5063 77.2749 75.6498 76.9406C75.7825 76.6324 75.5546 76.5219 75.567 76.2176C75.7534 76.1185 76.1765 75.9266 76.2056 75.7111C76.2495 75.3861 75.8061 75.3013 75.5793 75.284C75.5048 75.4389 75.4412 75.538 75.4289 75.7096L75.5374 75.7733L75.5157 75.8393C74.9436 76.0223 75.0886 75.8679 74.663 75.7022C73.9824 75.4374 74.2758 74.9275 74.6798 74.4037C74.2339 74.3638 74.1634 74.9452 73.9859 75.2298C73.9809 75.2377 73.1273 75.4581 73.4976 75.8847C73.5928 75.9947 73.5978 75.9291 73.6831 76.0815C73.6747 76.3271 73.6387 76.2921 73.7427 76.4736C73.9075 76.5569 73.9282 76.511 74.1585 76.4736C74.1866 76.5909 74.1674 76.6003 74.1328 76.7226C73.9385 77.4027 74.3582 77.309 74.7148 77.4175C74.8025 77.5363 74.7818 77.6123 74.7769 77.7622C74.7621 77.7888 74.7468 77.815 74.7315 77.8416C72.3668 78.6667 67.989 79.8379 65.7895 80.5851C65.7791 80.2768 65.6908 78.5236 65.8003 78.3264L65.7481 78.1523C65.7204 77.7001 65.7273 77.1709 65.7224 76.7127C66.2126 76.5534 66.7674 76.403 67.267 76.2571C67.4628 77.0037 68.023 77.1364 68.6439 77.4633L68.6395 77.5097C68.2671 77.488 67.8484 77.6468 67.8119 78.064C67.9846 78.1903 68.1917 78.0675 68.3608 77.9683C68.7588 77.7351 68.6755 77.9649 68.9669 77.9486C69.0616 77.8598 69.0818 77.8253 69.1987 77.774C69.3146 77.8436 69.3639 77.885 69.4685 77.9683C70.0198 77.9935 69.7777 77.3721 69.9947 77.2927C70.2832 77.1872 70.4849 77.1881 70.7517 76.9514C70.8809 76.5998 70.5964 76.4336 70.3448 76.2358C70.3498 76.0115 70.3927 75.8226 70.2645 75.6697L70.0539 75.6514L70.0248 75.5942Z" fill="#8B634A"/>
<path d="M74.8834 74.2528C75.1058 74.2508 75.1196 74.2454 75.3189 74.3317C75.5788 74.709 75.1221 74.7992 75.564 75.2253L75.5793 75.2845C75.5048 75.4394 75.4412 75.5385 75.4289 75.7101L75.5374 75.7737L75.5156 75.8398C74.9436 76.0228 75.0886 75.8684 74.663 75.7027C73.9824 75.4379 74.2758 74.9279 74.6797 74.4042L74.7177 74.3006C74.8321 74.2829 74.7769 74.2992 74.8834 74.2528Z" fill="#8A9871"/>
<path d="M74.8834 74.2517C75.0654 74.1245 75.0743 74.1112 75.2873 74.0781C75.5867 74.1403 75.6434 74.3435 75.7711 74.595L75.564 75.2242C75.1221 74.7981 75.5788 74.7079 75.3189 74.3306C75.1196 74.2443 75.1058 74.2497 74.8834 74.2517Z" fill="#24211E"/>
<path d="M65.748 78.1517C66.2447 78.019 67.0184 77.7847 67.5101 77.7773C66.9154 78.0392 66.433 78.1689 65.8003 78.3257L65.748 78.1517Z" fill="#241E1B"/>
<path d="M19.5636 45.375C21.2175 45.4245 20.1458 46.3359 20.0278 46.9713C19.9224 47.5385 20.4346 48.9916 20.7486 49.4956C20.8528 49.6628 22.0209 49.8428 22.3275 49.9415C23.2234 50.2354 24.0085 50.7956 24.5778 51.5472C25.289 52.4857 25.6354 53.7581 25.4706 54.9254C25.2936 56.1065 24.6585 57.1702 23.7028 57.8863C22.6896 58.6463 21.5815 58.8756 20.3442 58.6971C20.462 58.5186 20.535 58.3642 20.6302 58.1743C21.4869 58.1945 21.9918 58.1186 22.7699 57.7818C24.6516 56.86 25.2888 54.7681 24.6812 52.8294C24.3103 51.6463 23.015 51.7489 22.0184 51.8623C20.9101 51.9886 19.841 52.2647 18.7939 52.6524C18.6735 51.8031 18.5318 51.4293 17.7713 51.0106C17.9349 50.7399 18.023 50.5737 18.1567 50.2872C18.0379 49.6618 17.6722 48.2252 17.1648 47.9037C16.8336 47.6939 15.7012 47.2789 16.3651 46.5341C17.0197 45.8 18.6041 45.4511 19.5636 45.375Z" fill="#C6DFE2"/>
<path d="M19.5386 45.6875C19.7252 45.7362 19.7751 45.7816 19.8443 45.9465C19.7392 46.7917 17.7446 47.1282 17.0509 47.1601C16.8793 47.0698 16.797 46.9992 16.7458 46.8107C16.7648 46.7468 16.8098 46.6016 16.8898 46.587C17.9432 46.3941 18.6278 46.2613 19.5386 45.6875Z" fill="#24211E"/>
<path d="M19.7236 50.5992C19.8917 50.5785 20.0577 50.6505 20.158 50.7871C20.2582 50.9232 20.2771 51.1032 20.2075 51.2576C20.1378 51.4119 19.9904 51.517 19.8217 51.5318C19.5665 51.5545 19.3403 51.3686 19.3135 51.1136C19.2867 50.8591 19.4692 50.6298 19.7236 50.5992Z" fill="#AB68C7"/>
<path d="M65.6198 73.1951C69.3762 72.224 73.2895 71.0173 77.0459 69.9629C77.0178 70.3643 77.0139 70.7796 77.0045 71.183C76.3052 71.4335 75.6301 71.6096 74.9273 71.8917C75.7395 71.9084 76.2268 71.8384 77.005 71.6224L77.0065 72.7705C75.6197 73.1453 74.158 73.6463 72.7766 74.0655C71.7439 74.3782 70.9544 74.7328 69.8561 74.9187L69.7348 74.966C69.6716 74.4818 69.36 74.5266 69.1745 74.1114C69.107 73.9605 69.1099 73.9595 68.999 73.8392C68.6483 73.8037 68.3539 74.4418 68.0521 74.5434C67.8499 74.6115 67.7019 74.2465 67.3419 74.2998C67.193 74.4206 67.1185 74.4709 67.1851 74.6519C67.3306 74.7402 67.375 74.7392 67.4544 74.8733C67.4085 74.933 67.3641 74.9927 67.3202 75.0533C67.1836 75.2452 67.2477 75.399 67.2956 75.6313C66.7659 75.7591 66.219 75.9267 65.6943 76.0786C65.6755 75.1174 65.6504 74.1563 65.6198 73.1951Z" fill="#8B634A"/>
<path d="M67.7335 73.6953C68.0689 73.6978 68.3993 73.8512 68.312 74.2452C68.0338 74.2674 67.8563 74.3167 67.6566 74.1066C67.6275 73.8664 67.6344 73.9439 67.7335 73.6953Z" fill="#241E1B"/>
<path d="M76.8467 77.8594L76.9296 77.8761C76.9863 78.066 76.9601 78.4985 76.9572 78.716C75.8634 78.9922 74.9086 79.365 73.8739 79.7995C74.8341 79.7906 76.0508 79.4193 76.9863 79.146L77.0055 80.2941C74.2561 81.1616 71.449 82.1238 68.7041 82.9498L65.8546 83.9105L65.8082 81.1552C69.5134 80.1447 73.1939 79.0454 76.8467 77.8594Z" fill="#8B634A"/>
<path d="M68.2405 81.6113L68.279 81.6409L68.2721 81.7134C67.9545 81.9432 67.0269 82.1824 66.6096 82.3037C66.5633 82.287 66.5899 82.3008 66.5396 82.2485C66.7448 82.0271 67.9052 81.7035 68.2405 81.6113Z" fill="#241E1B"/>
<path d="M64.6384 61.2637C65.7811 61.5507 64.7306 62.3023 64.3766 62.6381C64.2912 63.477 64.3055 64.808 64.4638 65.6563C64.631 66.5514 67.412 70.0962 67.4051 70.6126L67.2783 70.6634C66.5677 70.6086 66.3951 68.8826 65.3432 68.6005C64.0836 68.2631 62.9686 68.3421 61.7337 68.5551C60.4692 68.8914 60.3287 69.6238 59.8365 70.7186C59.6619 70.6634 59.5771 70.6501 59.4296 70.5376C59.4326 70.2338 60.9935 67.591 61.3041 67.0357C61.963 65.8585 61.9798 63.8123 61.569 62.5711C61.24 62.3427 60.9811 62.2909 60.8342 61.9171C60.8346 61.6548 60.9969 61.4496 61.2553 61.4023C61.9176 62.2234 63.9672 62.1321 64.6384 61.2637Z" fill="#C6DFE2"/>
<path d="M62.1815 62.4688C62.8467 62.5965 63.115 62.5146 63.77 62.5191C63.9288 62.52 63.9579 62.5605 64.0343 62.6542C64.0205 62.8386 64.0481 62.7499 63.9085 62.9146C63.4617 63.0546 62.3427 63.2381 62.0626 62.7617C62.0819 62.5565 62.0518 62.6537 62.1815 62.4688Z" fill="#24211E"/>
<path d="M53.4609 74.3008C54.7293 74.7999 56.0066 75.2748 57.2932 75.725C58.137 76.0165 59.2698 76.3558 60.0372 76.7459L60.0786 80.5561L56.2768 79.0519C55.3102 78.6747 54.5138 78.3995 53.5299 77.9887L53.522 76.5886L53.5062 76.3272C53.4939 75.6728 53.4535 74.9444 53.4609 74.3008Z" fill="#8B634A"/>
<path d="M53.5062 76.3281C54.3658 76.6482 55.6076 77.0634 56.3424 77.5443C55.4961 77.4466 54.2193 77.0452 53.522 76.5895L53.5062 76.3281Z" fill="#241E1B"/>
<path d="M32.2362 75.4841L32.6829 75.1152C32.8799 76.8068 33.0417 78.4998 33.3535 80.1741C33.4013 80.4311 33.4466 80.6909 33.4889 80.9484C33.5317 81.1249 33.5569 81.1851 33.54 81.3686C33.2162 81.6359 32.8066 81.624 32.4081 81.6571C30.3971 81.8242 28.3995 80.2708 28.7254 78.127C28.8115 77.5613 29.0072 77.155 29.261 76.6371C29.4451 76.6588 29.584 76.6559 29.7699 76.6559C30.3326 76.5247 30.4859 76.4961 30.9969 76.2086C31.1872 76.7003 31.1166 77.4445 31.3863 77.8119L31.454 77.8271C31.7181 77.515 31.4619 76.4705 31.3846 76.0601C31.5373 75.9536 31.6617 75.8397 31.8426 75.8269C31.9787 75.9709 32.0643 76.3615 32.2727 76.6406L32.3213 76.6322C32.3601 76.3023 32.2871 75.8165 32.2362 75.4841Z" fill="#9C8068"/>
<path d="M29.261 76.6367C29.4451 76.6584 29.584 76.6555 29.7699 76.6555C29.793 76.7965 29.6154 77.1595 29.5517 77.3207C28.605 79.7121 30.3615 81.6068 32.8428 81.1206C33.062 81.0786 33.2779 81.0209 33.4889 80.948C33.5317 81.1245 33.5569 81.1847 33.54 81.3681C33.2162 81.6354 32.8066 81.6236 32.4081 81.6566C30.3971 81.8238 28.3995 80.2704 28.7254 78.1266C28.8115 77.5609 29.0072 77.1545 29.261 76.6367Z" fill="#CEBDB4"/>
<path d="M64.9201 73.4258L64.9383 73.4421C65.0103 73.6383 65.1701 83.3068 65.1696 84.1324L63.4036 84.6566C63.3592 84.6734 63.3262 84.6699 63.2763 84.6734C63.2325 84.5846 63.2285 84.5767 63.2275 84.4766L63.1984 73.9199L64.9201 73.4258Z" fill="#8B634A"/>
<path d="M64.201 74.3828C64.8544 74.5796 64.6226 75.1911 64.1995 75.5018C63.5525 75.2217 63.7256 74.7236 64.201 74.3828Z" fill="#241E1B"/>
<path d="M64.1773 82.8711C64.8855 82.8982 64.8037 83.5147 64.3361 83.8525C63.662 83.7006 63.7448 83.2671 64.1773 82.8711Z" fill="#241E1B"/>
<path d="M68.3786 70.3441C67.918 69.4495 67.4056 68.582 66.8454 67.7461C66.508 67.2475 66.1076 66.7465 65.8191 66.2281C65.5459 65.737 66.0129 65.2823 66.4277 65.0968C67.915 64.4316 69.6761 64.4804 71.2666 64.6051L70.9667 64.9706C70.1698 64.8715 69.3837 64.8404 68.567 64.9691C67.9323 65.0687 66.5514 65.1461 66.4262 65.989C66.3961 66.1917 66.5174 66.4446 66.658 66.5852C67.8953 67.6228 69.94 67.679 71.5058 67.7431C72.4808 67.7831 74.2044 67.6667 75.0205 67.0586C75.3436 66.818 75.0901 66.3307 74.8322 66.1088C74.7365 66.0886 74.7242 66.0787 74.628 66.0797L74.5412 66.0402L74.7251 65.5708C75.1606 65.8011 75.4481 65.9377 75.7174 66.3717C75.7519 67.066 75.6114 67.6731 75.4412 68.3458L68.3786 70.3441Z" fill="#A3988F"/>
<path d="M60.7059 73.252C61.2267 73.4285 61.8432 73.6928 62.363 73.9024L62.4024 81.3857C62.4024 82.3134 62.4616 83.7199 62.3827 84.5997C61.82 84.4132 61.3002 84.1903 60.7562 83.9585C60.7005 82.7952 60.7967 81.4587 60.7996 80.2761C60.7878 77.9345 60.7567 75.593 60.7059 73.252Z" fill="#8B634A"/>
<path d="M61.4413 74.2012C61.926 74.3905 62.2545 75.0578 61.5981 75.2901C61.0783 75.1002 60.881 74.5493 61.4413 74.2012Z" fill="#24211E"/>
<path d="M61.4871 82.7734C62.1435 82.7966 62.0528 83.488 61.6706 83.8426C61.0146 83.7519 61.059 83.1433 61.4871 82.7734Z" fill="#241E1B"/>
<path d="M79.2676 69.3264C79.3357 69.3269 79.2982 69.3185 79.3732 69.3732C79.4161 69.7179 79.3806 70.1583 79.3776 70.5213C79.3751 71.2763 79.3658 72.0309 79.351 72.7854C79.3007 75.0555 79.275 77.3265 79.2736 79.597L77.8523 80.0305C77.7877 80.0167 77.8237 80.03 77.7517 79.9753C77.691 78.2605 77.7704 76.5098 77.7822 74.7941C77.7936 73.1163 77.7798 71.443 77.7955 69.7648C78.2882 69.6262 78.7789 69.4802 79.2676 69.3264Z" fill="#8B634A"/>
<path d="M78.4712 70.2891C79.2406 70.3847 79.0852 71.0697 78.6241 71.4376C77.9292 71.3045 78.1206 70.6718 78.4712 70.2891Z" fill="#24211E"/>
<path d="M78.4312 78.2324C79.0714 78.3952 78.9796 79.0072 78.6029 79.3997C78.4963 79.3647 78.3928 79.3144 78.3099 79.2365C78.193 79.126 78.1274 78.9722 78.1284 78.8114C78.1319 78.5471 78.2537 78.404 78.4312 78.2324Z" fill="#24211E"/>
<path d="M53.5309 78.5156C54.1828 78.8441 55.1337 79.1952 55.8206 79.4664C57.235 80.0291 58.6553 80.5756 60.0821 81.1057C60.0875 81.9406 60.0816 82.7756 60.0633 83.6105C59.8202 83.5824 57.3154 82.457 56.8864 82.277C55.7841 81.8154 54.6726 81.3775 53.5521 80.9627L53.5309 78.5156Z" fill="#8B634A"/>
<path d="M54.9369 71.1367C55.3162 71.2284 56.2547 71.6018 56.6536 71.7492L59.9894 72.989C59.9884 74.0079 60.0224 75.083 60.0387 76.1073L59.2866 75.8154C57.8629 75.3148 55.6298 74.6969 54.3358 74.0696C55.979 73.5049 55.6855 72.3317 54.9369 71.1367Z" fill="#8B634A"/>
<path d="M24.1117 52.9922C24.3595 53.1584 24.3688 53.6348 24.3864 53.9095C24.4448 54.9234 24.1921 55.8802 23.4803 56.6268C22.7147 57.4302 21.8518 57.6062 20.791 57.6353C20.8168 57.4844 20.8299 57.3049 20.845 57.1501C20.7781 56.4004 20.6391 56.1041 20.1293 55.568C20.2615 54.9624 20.2325 54.6364 20.1002 54.0476C21.5295 54.014 22.9139 53.8158 24.1117 52.9922Z" fill="#9951B6"/>
<path d="M21.3021 55.0306C21.4191 54.9635 21.5684 55.0034 21.6359 55.1203C21.7035 55.2372 21.6637 55.3866 21.5471 55.4547C21.43 55.5227 21.2799 55.4828 21.2122 55.3654C21.1444 55.2481 21.1847 55.0981 21.3021 55.0306Z" fill="#B689D2"/>
<path d="M74.1994 61.0457C74.5776 61.0221 74.6408 61.0191 75.0269 61.1547C75.7336 61.3022 76.6751 62.5524 75.707 62.977C74.5436 63.4879 74.5135 64.4249 74.0061 65.4778C73.8093 65.8861 73.6268 66.3497 73.4059 66.7921C73.0972 66.8301 72.7884 66.8651 72.4787 66.8976C71.85 66.9312 71.2961 66.9277 70.6683 66.9109C71.2444 65.9493 72.0142 64.9427 72.6696 64.0343C73.0197 63.5495 73.5065 62.9666 73.7871 62.4517C73.684 61.7016 73.3704 61.4649 74.1994 61.0457Z" fill="#A3988F"/>
<path d="M76.2948 67.707C76.6672 67.8007 78.0806 68.4685 78.7089 68.6874C73.8764 70.1586 68.855 71.3121 64.021 72.8118C63.6437 72.9287 63.2694 73.048 62.8961 73.1762C60.3577 72.1485 57.559 71.1602 54.9704 70.2074C54.5177 70.0501 53.886 69.9046 53.6177 69.5377L53.631 69.4533C54.0778 69.3049 55.8843 70.0826 56.4124 70.2779L60.2211 71.6484C61.0684 71.9527 62.1188 72.361 62.9686 72.5894L70.0765 70.631C72.2075 70.0614 74.334 69.4933 76.4408 68.8379C76.7382 68.7451 77.0844 68.5858 77.0104 68.211C76.7673 68.0577 76.4359 68.1967 76.2613 67.9748L76.2948 67.707Z" fill="#8B634A"/>
<path d="M56.7404 67.4039L56.7152 67.4148C55.829 67.791 56.3942 68.9322 56.1634 69.3603C56.0288 69.3578 55.7856 69.3411 55.7812 69.1487C55.7629 68.3335 55.9035 67.5183 55.8709 66.7016C55.828 66.1518 55.8685 65.449 55.4493 65.0352C55.0947 64.6856 54.4684 64.5608 54.6918 63.9927C55.0488 63.7594 56.0085 64.0834 56.5826 63.9054C56.9248 63.8369 57.3884 63.7279 57.5827 63.4024C57.778 63.0754 58.0926 63.2845 58.2505 63.5316C58.3225 63.9858 57.9072 64.1964 57.8599 64.4065C57.5768 65.6665 58.9789 67.5149 59.4183 68.4913C59.3241 68.6191 59.2259 68.7774 59.1377 68.912C58.9848 68.4203 58.7342 67.4932 58.2628 67.2614C57.8954 67.0804 57.6488 67.1978 57.2893 67.3117C57.0836 67.3368 56.9431 67.36 56.7404 67.4039Z" fill="#C6DFE2"/>
<path d="M57.4802 64.1973C57.6316 64.2056 57.6622 64.2333 57.7268 64.3442C57.5463 64.9676 56.3972 65.1589 55.831 65.0741C55.6713 65.0376 55.6787 65.0426 55.5416 64.9548C55.4631 64.8162 55.4656 64.8842 55.5021 64.7481C55.6663 64.5805 56.985 64.358 57.4802 64.1973Z" fill="#24211E"/>
<path d="M51.2594 72.4629C51.756 72.8456 51.8961 73.2085 52.6851 73.7584C52.732 75.9367 52.8809 78.6408 52.8351 80.7693C52.3779 80.5671 51.9197 80.3683 51.4596 80.1735C51.4355 78.4834 51.3901 76.7934 51.3235 75.1048C51.2939 74.2481 51.2416 73.3146 51.2594 72.4629Z" fill="#8B634A"/>
<path d="M52.0164 78.7656C52.332 78.9022 52.4731 79.354 52.4297 79.676C52.4095 79.8279 52.2995 79.8826 52.192 79.9709C51.7348 79.602 51.4966 79.2075 52.0164 78.7656Z" fill="#24211E"/>
<path d="M72.8013 61.4922C72.8915 61.5884 72.8762 62.1703 72.8811 62.3399C72.5187 62.8158 72.1498 63.3401 71.7952 63.8258C70.4178 63.6414 69.7614 63.6172 68.3884 63.7001L68.1473 63.378C67.8938 63.0501 67.6679 62.7182 67.4332 62.3774C69.2643 62.3843 71.054 62.0085 72.8013 61.4922Z" fill="#FCFDFB"/>
<path d="M65.9079 69.9062C66.0864 69.9768 66.4745 70.6623 66.5879 70.8556C65.432 71.2043 64.2711 71.5347 63.1047 71.8468C62.4597 71.6304 61.8171 71.406 61.1779 71.1742C60.9313 71.1066 60.5348 70.9503 60.2833 70.8595C60.4332 70.5355 60.5413 70.3175 60.7198 70.0098C62.0262 70.6425 64.6424 70.6356 65.9079 69.9062Z" fill="#775E89"/>
<path d="M69.2677 65.3509C69.7451 65.3351 70.2378 65.3326 70.7167 65.3242C70.3764 65.8386 70.0627 66.2992 69.7723 66.8442C69.3383 66.7948 68.963 66.7317 68.5324 66.6548C68.1147 66.5714 67.3513 66.3766 67.0515 66.0768C66.9948 65.9116 66.9933 65.9915 67.0584 65.8282C67.5491 65.3888 68.6163 65.3839 69.2677 65.3509Z" fill="#55544E"/>
<path d="M22.508 67.4531C23.9448 67.3668 24.9169 68.2402 25.5925 69.4095L25.4783 69.342C25.5277 69.5057 25.6215 69.5481 25.7625 69.6566L25.8222 69.7015L25.7975 69.7252C24.9355 69.9007 21.85 68.4789 22.508 67.4531Z" fill="#8A9871"/>
<path d="M64.0387 59.5098L64.0984 59.5127C64.2005 59.7662 63.9953 60.8487 63.9115 61.1466C63.3873 61.3147 62.7358 61.4129 62.1958 61.2482C62.0523 61.2048 62.0148 61.0519 61.9551 60.9266C61.7746 60.4759 61.6479 60.1203 61.5019 59.6567C62.4034 59.7711 63.1786 59.8357 64.0387 59.5098Z" fill="#9C8068"/>
<path d="M22.625 52.3289C22.9448 52.3023 23.5182 52.2905 23.7749 52.4966L23.7686 52.5874C23.0751 53.2783 21.3994 53.513 20.4631 53.552L19.7958 53.5614L19.217 53.0692C20.3134 52.6303 21.4518 52.4187 22.625 52.3289Z" fill="#9951B6"/>
<path d="M32.5661 73.2461C32.5804 73.5869 32.5957 73.902 32.6259 74.2418C31.5925 75.059 31.1665 75.4155 29.9042 75.8209C29.4067 75.888 29.2353 75.8273 28.8042 75.6123C28.3662 75.4017 27.9976 74.8652 28.4815 74.4785C28.602 74.555 28.648 74.5929 28.7883 74.6319C28.7755 74.8563 28.7488 74.7941 28.8402 74.9732C29.0571 75.1147 29.3726 75.0639 29.625 75.0678C30.9467 75.0881 31.721 74.1081 32.5661 73.2461Z" fill="#A3988F"/>
<path d="M28.8041 75.6131C28.9141 75.4913 28.9119 75.4409 29.089 75.4503C29.3628 75.4641 29.7207 75.6244 29.9041 75.8217C29.4067 75.8887 29.2353 75.8281 28.8041 75.6131Z" fill="#CEBDB4"/>
<path d="M58.2302 68.2422L58.3146 68.2511C58.6608 68.4858 58.8003 68.8202 59.0035 69.1876L58.5113 70.2474L57.7573 69.9875C57.3598 69.8425 56.9658 69.6867 56.5762 69.521L56.5915 68.545C57.2232 68.4202 57.5423 68.4616 58.2302 68.2422Z" fill="#C07861"/>
<path d="M30.0776 68.5195C30.5633 68.8268 30.8652 70.2856 30.7182 70.7876C30.4975 71.5407 30.6734 72.343 30.5678 72.9906L30.5005 72.9822C29.8904 71.8523 29.0329 69.6336 30.0776 68.5195Z" fill="#8A9871"/>
<path d="M63.1521 69.0474C64.0136 68.965 64.9713 69.039 65.7451 69.4513C64.9388 69.7723 64.4752 69.8236 63.625 69.907C63.1338 69.9227 61.3767 69.9292 61.1104 69.5021L61.1681 69.4069C61.6479 69.1218 62.582 69.0849 63.1521 69.0474Z" fill="#775E89"/>
<path d="M31.2112 71.4503C31.3039 70.9798 32.1716 70.4693 32.545 70.6124L32.5711 70.7835C32.5501 71.0399 32.5846 72.2645 32.4825 72.371C32.3629 72.4963 32.1496 72.5875 32.0097 72.6999C31.696 72.9529 31.4369 73.2513 31.109 73.4895C31.0876 73.6162 31.0729 73.8608 31.0135 73.9383C30.9518 73.849 30.9374 73.7469 30.9699 73.6429C31.204 72.8893 31.1534 72.2107 31.2112 71.4503Z" fill="#A3988F"/>
<path d="M31.2112 71.4503C31.3038 70.9798 32.1716 70.4693 32.5449 70.6124L32.5711 70.7835C32.5487 70.8466 32.5264 70.9097 32.5041 70.9734C32.0909 71.2402 31.6869 71.5045 31.2888 71.795C31.2188 71.6949 31.2273 71.5859 31.2112 71.4503Z" fill="#CEBDB4"/>
<path d="M27.0214 66.6719C27.0879 66.6832 27.1443 66.7059 27.2094 66.7271C27.619 67.1359 27.8284 67.8875 27.9302 68.4443C27.9995 68.8231 27.9894 70.2794 27.8126 70.5156C27.2375 69.5337 26.3028 67.7667 27.0214 66.6719Z" fill="#8A9871"/>
<path d="M68.8634 74.4941C68.8969 74.5306 69.14 75.0889 69.2091 75.2221C69.4359 75.6595 69.5918 76.8441 69.0207 77.0773C68.82 77.0724 68.7554 76.994 68.5837 76.8677C67.8963 76.1862 67.8011 75.8711 67.7143 74.938C68.3579 75.0366 68.4822 75.0144 68.8634 74.4941Z" fill="#A2BBC1"/>
<path d="M25.0605 71.5048C25.9495 71.4185 26.5659 71.5077 27.4331 71.6433C26.9454 71.9629 26.3944 72.1409 25.8382 72.2968C25.2701 72.4546 24.3368 72.6489 23.8182 72.3076C23.7211 72.1444 23.7351 72.2282 23.7667 72.0477C24.0299 71.7129 24.6515 71.5718 25.0605 71.5048Z" fill="#8A9871"/>
<path d="M27.7319 73.3223C28.2382 73.2759 28.4715 73.3154 28.9583 73.4056C28.1313 73.9575 27.7308 74.2331 26.8246 74.6499C26.5809 74.7707 26.0976 75.0335 25.8969 74.7623C25.9106 74.0541 27.1347 73.4914 27.7319 73.3223Z" fill="#8A9871"/>
<path d="M56.9732 61.9336L57.0042 61.9509C57.0925 62.0766 57.0812 62.731 57.0861 62.9308C56.299 63.2558 56.196 63.2982 55.3359 63.1976C55.2575 62.912 55.1628 62.6314 55.071 62.3498C55.76 62.262 56.3123 62.1185 56.9732 61.9336Z" fill="#8B634A"/>
<path d="M65.8432 62.4102L66.3689 62.4659C66.6545 63.0163 66.908 63.3901 67.2906 63.8778L66.8616 63.9607C66.5479 64.0213 66.2338 64.0766 65.9182 64.1264C65.7702 63.6949 65.6691 63.3728 65.4536 62.9724C65.5966 62.8052 65.7224 62.5966 65.8432 62.4102Z" fill="#8B634A"/>
<path d="M82.849 61.1261C83.0118 61.1167 83.0083 61.1088 83.1602 61.1586C83.6401 61.743 81.73 62.7151 81.335 62.9375C81.2768 62.9636 81.2033 62.9883 81.1417 63.0105L81.1205 62.9202C81.3883 62.1987 82.1487 61.4634 82.849 61.1261Z" fill="#8A9871"/>
<path d="M49.1259 10.9531C49.1422 10.9777 49.159 11.0023 49.1757 11.0269C48.7181 11.8614 47.7776 12.2755 46.8823 12.4177L46.848 12.3852C46.8212 12.2367 46.962 12.0189 47.0561 11.8949C47.533 11.2666 48.3872 11.0487 49.1259 10.9531Z" fill="#FCFDFB"/>
<path d="M62.6865 58.6379C63.0105 58.5901 63.7527 58.5738 63.9855 58.8263L63.9712 58.9274C63.7365 59.1237 63.4075 59.1572 63.1052 59.2134C62.4133 59.2322 62.038 59.205 61.3811 59.0024C61.8925 58.7725 62.1307 58.7114 62.6865 58.6379Z" fill="#9C8068"/>
<path d="M54.9024 68.0039C54.9275 68.1025 54.9389 68.4744 54.8373 68.5124C54.4925 68.6401 53.2951 68.9774 52.9894 68.9089C52.8981 68.787 52.8932 68.794 52.8533 68.6495C53.0135 68.4847 54.5729 68.0892 54.9024 68.0039Z" fill="#8B634A"/>
<path d="M81.8459 66.2324C82.2197 66.4381 82.3647 66.6388 82.5881 66.982C82.3258 67.2173 82.2957 67.2375 81.985 67.4002C81.8361 67.4481 81.8464 67.4505 81.6921 67.4338C81.5155 67.3371 81.4154 67.1443 81.2995 66.9722C81.6339 66.7073 81.6817 66.6062 81.8459 66.2324Z" fill="#8A9871"/>
<path d="M82.9245 63.7073C83.1839 63.7039 83.3989 63.729 83.6021 63.8977C83.681 64.0604 83.6696 63.9766 83.6312 64.1586C83.429 64.3982 83.2475 64.3874 82.9358 64.4293C82.6621 64.4002 82.1477 64.417 82.1813 64.0525C82.3884 63.8158 82.6197 63.7887 82.9245 63.7073Z" fill="#8A9871"/>
<path d="M56.7404 67.4047C56.9431 67.3608 57.0837 67.3377 57.2893 67.3125L57.4383 67.4457C57.4368 67.5847 57.4417 67.5191 57.3036 67.6696L57.3732 67.7327C57.6178 67.6666 57.7411 67.5315 57.9911 67.5349C58.18 67.6326 58.1213 67.562 58.2046 67.7233C58.031 68.1928 57.0334 68.1533 56.6837 67.997L56.6216 67.9181C56.6773 67.6197 56.7991 67.6784 56.7873 67.4442L56.7404 67.4047Z" fill="#C07861"/>
<path d="M79.3308 61.207C79.9911 61.5113 79.8752 62.0789 79.4467 62.541C79.3431 62.5055 79.2489 62.4463 79.172 62.3684C78.7898 61.9902 78.9895 61.5256 79.3308 61.207Z" fill="#8A9871"/>
<path d="M29.9033 73.6719C30.1826 73.6827 30.2401 73.845 30.4009 74.0674C30.1283 74.1379 29.8756 74.1991 29.6105 74.2972C29.3009 74.3909 29.0681 74.4545 28.7883 74.6321C28.648 74.5931 28.602 74.5551 28.4814 74.4787C28.9959 74.1192 29.304 73.8716 29.9033 73.6719Z" fill="#CEBDB4"/>
<path d="M29.9034 73.6719C30.1827 73.6827 30.2402 73.845 30.4009 74.0674C30.1284 74.1379 29.8757 74.1991 29.6106 74.2972C29.6569 74.0664 29.7851 73.8795 29.9034 73.6719Z" fill="#A3988F"/>
<path d="M77.5919 64.2031C78.1625 64.4699 77.912 65.6481 77.7004 66.1043C77.2546 65.9701 77.4686 64.5572 77.5919 64.2031Z" fill="#8A9871"/>
<path d="M56.4652 61.302C56.6097 61.297 56.77 61.2768 56.8736 61.3745C56.6926 61.6191 55.7566 61.7636 55.4542 61.8119C55.2747 61.8371 55.111 61.8824 54.9468 61.8173L54.9552 61.7404C55.3793 61.4534 55.9642 61.3459 56.4652 61.302Z" fill="#8B634A"/>
<path d="M60.5698 66.2188L60.6172 66.2705C60.558 66.4663 60.3533 66.7765 60.2409 66.9634C60.0623 67.0019 59.7763 67.0902 59.617 67.0379L59.3931 66.6034C59.7951 66.4974 60.1782 66.3568 60.5698 66.2188Z" fill="#8B634A"/>
<path d="M81.0189 65.7676C81.1713 65.7893 81.2674 65.7996 81.3656 65.9145C81.3986 66.2277 81.1767 66.4062 80.9627 66.6711C80.6771 66.5034 80.5242 66.3623 80.611 66.0221C80.7299 65.8613 80.8246 65.847 81.0189 65.7676Z" fill="#8A9871"/>
<path d="M74.8563 76.4434C75.3889 76.5168 75.2573 76.9622 74.8963 77.228C74.8292 77.2605 74.8016 77.2522 74.7202 77.2591C74.4273 77.0692 74.7049 76.6391 74.8563 76.4434Z" fill="#8A9871"/>
<path d="M69.7895 76.3848C70.0539 76.4607 70.3739 76.5076 70.368 76.8173C70.1407 76.876 70.0119 76.9263 69.8083 76.7911C69.7239 76.6353 69.758 76.5618 69.7895 76.3848Z" fill="#F7BF73"/>
<path d="M69.7348 74.9653L69.8561 74.918C69.863 75.1606 69.8532 75.316 69.9281 75.5482L70.0248 75.5936L70.0539 75.6508C70.0149 75.7509 69.9725 75.8407 69.9276 75.9378L69.8665 75.9388C69.7777 75.7356 69.7555 75.2104 69.7348 74.9653Z" fill="#8B634A"/>
<path d="M73.869 75.4883C74.0322 75.5312 74.5584 75.8187 74.696 75.9247C74.3143 75.9489 73.9513 75.9163 73.869 75.4883Z" fill="#8A9871"/>
<path d="M74.5412 66.0391L74.628 66.0785L74.552 66.2452C74.4968 66.369 74.4864 66.4449 74.3691 66.511C74.3503 66.3724 74.4726 66.1771 74.5412 66.0391Z" fill="#8E8A83"/>
<path d="M11.2052 20.7644C13.2247 20.5316 15.105 21.7771 16.174 23.3932C16.4756 23.8491 16.7892 24.5097 17.1733 24.8578C17.5913 25.2367 18.4516 25.2514 18.9278 25.5517C19.4191 25.973 18.7536 27.2472 18.0734 27.3029C17.6074 27.126 17.8596 26.5886 17.9862 26.2438C17.6727 26.1469 17.4316 26.0519 17.1269 25.929C17.1847 28.2434 16.6611 29.7262 14.6445 31.016C14.0108 31.396 13.3081 31.6464 12.577 31.7531C9.38249 32.2077 5.87496 29.3637 6.00343 26.0395C6.07607 24.16 7.60636 22.3119 9.1547 21.4009C9.7999 21.0213 10.4565 20.8539 11.2052 20.7644Z" fill="#24211E"/>
<path d="M11.3803 22.2911C12.3936 22.2328 13.1448 22.6044 13.9527 23.2476C15.6492 24.5984 16.2328 27.1928 14.7766 28.9328C14.094 29.7485 13.002 30.2231 11.8898 30.2817C10.8358 30.2779 10.1653 29.9503 9.33139 29.3458C6.90616 27.588 7.15067 24.8458 9.40764 23.0775C10.0232 22.5953 10.5996 22.3933 11.3803 22.2911Z" fill="#FCFDFB"/>
<path d="M10.7155 23.3189C11.4527 23.2528 12.5879 23.2944 13.1361 23.8188C14.019 24.6634 14.9216 26.7857 13.8295 27.7716C13.7202 27.8704 13.5094 28.0719 13.3605 28.0725C13.3617 27.9179 13.3939 27.9329 13.3269 27.863C12.9953 28.1614 13.1748 28.3154 12.7862 28.6628C9.44132 29.7451 7.04617 24.1727 10.7155 23.3189Z" fill="#24211E"/>
<path d="M10.9183 24.6758C11.2932 24.72 11.0056 24.8475 11.1856 25.0477C11.6685 24.9704 11.982 24.9106 12.3295 25.3222C12.9442 26.0502 12.9973 26.618 12.3308 27.2382C12.0518 27.3357 11.8208 27.3415 11.5301 27.2691C11.1548 27.1754 10.8332 26.9342 10.6381 26.6003C10.4199 26.232 10.2538 25.6515 10.384 25.2296C10.4906 24.8844 10.6203 24.835 10.9183 24.6758Z" fill="#FCFDFB"/>
<path d="M92.95 46.373C94.0182 46.384 94.8585 50.0672 94.932 50.9697C95.0316 52.1917 94.9128 54.9362 94.1099 55.9072C93.1719 55.8924 93.7415 54.8795 93.8909 54.2971C94.4492 52.1227 94.2134 49.8265 93.2177 47.812C93.0402 47.4526 92.7418 47.1586 92.6841 46.7598C92.7177 46.5775 92.8178 46.5079 92.95 46.373Z" fill="#F7BF73"/>
<path d="M17.8249 41.0869C18.6016 40.9679 19.3271 41.5029 19.443 42.2802C19.5589 43.0573 19.021 43.7808 18.2434 43.8936C17.47 44.0058 16.7515 43.4715 16.6362 42.6987C16.521 41.9257 17.0524 41.2051 17.8249 41.0869Z" fill="#24211E"/>
<path d="M17.7972 41.7233C18.2185 41.5971 18.6627 41.8347 18.7915 42.2552C18.9203 42.6758 18.6853 43.1214 18.2656 43.2528C17.8422 43.3852 17.3919 43.1478 17.262 42.7237C17.1321 42.2995 17.3722 41.8507 17.7972 41.7233Z" fill="#AB68C7"/>
<path d="M14.4945 40.0527C15.2431 39.9024 15.9719 40.3872 16.1224 41.1358C16.2729 41.8843 15.7883 42.6132 15.0397 42.764C14.291 42.9147 13.5618 42.4298 13.4112 41.6811C13.2606 40.9322 13.7457 40.2032 14.4945 40.0527Z" fill="#24211E"/>
<path d="M14.4929 40.6905C14.8978 40.5354 15.3516 40.74 15.5036 41.1462C15.6555 41.5524 15.4474 42.0046 15.04 42.1534C14.6371 42.3005 14.191 42.0951 14.0407 41.6934C13.8905 41.2917 14.0923 40.8439 14.4929 40.6905Z" fill="#AB68C7"/>
<path d="M80.0518 43.125C80.2224 43.2014 80.2594 43.2209 80.3708 43.3789C80.432 43.4138 80.4059 43.6814 80.3738 43.7094C79.5995 44.3857 78.6946 44.9498 78.0461 45.7677C77.3537 46.6405 76.9 47.6336 76.5005 48.6635C76.4211 48.8672 76.357 48.9263 76.1582 49.0038C75.5561 48.8721 75.7001 48.3789 75.8722 47.9421C76.5917 46.1193 78.2103 43.9138 80.0518 43.125Z" fill="#F7BF73"/>
<path d="M88.5327 37.137C89.2251 36.9457 89.9407 37.3542 90.1281 38.0475C90.3155 38.7409 89.9032 39.4542 89.2088 39.6377C88.5199 39.8196 87.8132 39.411 87.6273 38.7233C87.4418 38.0355 87.8462 37.3267 88.5327 37.137Z" fill="#F7BF73"/>
<path d="M90.7312 59.2989C90.9019 59.2955 91.1031 59.369 91.1869 59.5174C91.467 60.0111 90.2583 60.5896 89.9575 60.7666C89.2192 61.2016 88.3912 61.5098 87.5858 61.781C87.284 61.7904 87.1524 61.6375 87.108 61.3628C87.2135 60.8933 88.0292 60.809 88.4523 60.6231C89.3006 60.2507 89.9767 59.8247 90.7312 59.2989Z" fill="#F7BF73"/>
<path d="M15.6939 37.1472C16.0397 37.0754 16.3971 37.1977 16.6264 37.4664C16.8555 37.7351 16.92 38.1074 16.7945 38.4375C16.669 38.7677 16.3735 39.0031 16.0236 39.0517C15.5072 39.1233 15.0269 38.7726 14.938 38.2589C14.849 37.7451 15.1834 37.2533 15.6939 37.1472Z" fill="#24211E"/>
<path d="M15.795 37.6863C16.0165 37.6353 16.2371 37.7745 16.2864 37.9962C16.3357 38.2181 16.1948 38.4376 15.9727 38.4852C15.7529 38.5323 15.5363 38.3933 15.4875 38.1739C15.4387 37.9545 15.576 37.7368 15.795 37.6863Z" fill="#AB68C7"/>
<path d="M85.9762 35.1157C86.4841 34.9655 87.0182 35.2563 87.1672 35.7649C87.3161 36.2735 87.0241 36.8066 86.5152 36.9546C86.0077 37.102 85.4771 36.811 85.3282 36.3041C85.1797 35.7972 85.4697 35.2655 85.9762 35.1157Z" fill="#F7BF73"/>
<path d="M92.0613 58.0645L92.08 58.0654C92.3661 58.0778 92.5747 58.2168 92.7611 58.4269C93.1157 58.8269 94.5858 60.0381 94.6055 60.4671C94.5488 60.6585 94.4926 60.6866 94.3407 60.8306C93.9082 60.8069 91.869 58.8269 91.8256 58.4476C91.864 58.2509 91.9188 58.2193 92.0613 58.0645Z" fill="#F7BF73"/>
<path d="M94.1213 42.6797C94.3817 42.7433 94.7313 43.0019 94.5444 43.2182C94.1277 43.7009 92.7478 45.1185 92.2408 45.3705C91.9361 45.254 91.8034 45.2035 91.8231 44.8511C92.0416 44.4708 93.745 42.8944 94.1213 42.6797Z" fill="#F7BF73"/>
<path d="M80.5706 39.3348C80.6727 39.3335 80.9217 39.3235 80.9814 39.4271C81.4055 40.1636 81.6797 41.3058 81.9184 42.1363C81.9524 42.2562 81.7729 42.4405 81.7053 42.5186C81.3961 42.5664 81.2211 42.5086 81.119 42.1941C80.8517 41.3698 80.5365 40.5379 80.3462 39.6934C80.3166 39.5632 80.4907 39.4203 80.5706 39.3348Z" fill="#F7BF73"/>
<path d="M85.3424 60.7305C85.4751 60.7398 85.7449 60.7788 85.7789 60.9016C85.988 61.6492 85.8608 62.9305 85.8756 63.7417C85.878 63.8695 85.6882 63.9878 85.6157 64.0411C85.412 64.0041 85.3538 64.0105 85.1989 63.8872C85.0066 63.5829 85.0613 61.5905 85.0875 61.1043C85.0978 60.912 85.2009 60.84 85.3424 60.7305Z" fill="#F7BF73"/>
<path d="M87.6164 39.8623C87.9123 39.8451 88.1687 40.0638 88.1983 40.3584C88.2284 40.6529 88.0208 40.9186 87.7279 40.9609C87.5266 40.9899 87.3259 40.9064 87.2051 40.7434C87.0838 40.5803 87.0621 40.364 87.1479 40.18C87.2337 39.996 87.4137 39.874 87.6164 39.8623Z" fill="#F7BF73"/>
<defs>
<linearGradient id="paint0_linear_11_16629" x1="91.9104" y1="50.688" x2="78.6912" y2="48.5926" gradientUnits="userSpaceOnUse">
<stop stop-color="#242221"/>
<stop offset="1" stop-color="#4B3B28"/>
</linearGradient>
<linearGradient id="paint1_linear_11_16629" x1="57.565" y1="63.9957" x2="79.2011" y2="45.5268" gradientUnits="userSpaceOnUse">
<stop stop-color="#454A4D"/>
<stop offset="1" stop-color="#786951"/>
</linearGradient>
<linearGradient id="paint2_linear_11_16629" x1="79.0221" y1="58.2224" x2="80.0903" y2="56.4618" gradientUnits="userSpaceOnUse">
<stop stop-color="#5C492E"/>
<stop offset="1" stop-color="#836941"/>
</linearGradient>
</defs>
</svg>
