<svg width="273" height="339" viewBox="0 0 273 339" fill="none" xmlns="http://www.w3.org/2000/svg">
<path d="M175.257 0.166925C175.985 0.104256 176.713 0.0624726 177.442 0.0311385C183.805 -0.250868 188.919 1.35759 193.546 5.88014C207.754 19.7716 206.72 52.0144 207.014 70.8357C215.232 79.4839 224.169 85.4061 233.745 92.2996C237.155 94.7645 240.205 97.3861 240.643 101.867C241.199 107.549 235.283 112.813 231.753 116.594C233.04 117.262 234.345 117.941 235.549 118.756C242.547 123.477 236.859 129.597 237.888 136.219C238.447 139.812 240.702 143.009 241.093 146.716C243.293 167.585 217.342 205.833 204.185 222.148C223.566 235.726 232.187 254.38 240.302 275.928C244.402 277.264 250.213 278.539 253.507 281.359C256.057 283.542 256.396 285.516 256.504 288.722C251.05 299.95 224.867 307.293 213.403 311.502C203.317 305.037 193.283 294.665 181.091 292.608C177.085 291.929 173.311 292.587 170.075 295.135C161.387 301.966 160.352 315.952 158.957 326.114C150.577 331.295 128.092 340.779 118.295 337.885C115.598 337.092 115.097 335.87 113.883 333.488C113.754 328.955 116.154 325.519 118.272 321.665C115.279 312.672 113.325 303.773 111.821 294.446C111.398 286.905 111.644 279.395 111.854 271.854C106.611 276.784 100.867 283.187 94.2997 286.247C90.2772 288.127 88.0492 287.354 84.1374 285.787C78.0801 283.375 65.5425 278.445 62.8821 272.178C65.7451 266.475 81.6848 249.555 87.4611 241.23C84.9448 239.726 82.3022 238.222 80.0971 236.28C73.246 230.243 72.309 222.597 71.9267 214.053C60.3376 210.982 45.5887 207.755 36.7968 198.961C28.9889 191.148 36.3069 191.054 36.3132 184.432C34.4299 184.349 32.5424 184.255 30.6706 184.025C26.5426 183.523 21.2123 181.1 18.744 177.654C17.6567 176.139 17.6525 175.721 17.9125 173.852C18.767 167.731 21.9477 160.879 23.7422 154.811C25.7801 147.928 27.0826 140.888 28.3883 133.838C17.7779 116.813 -1.58168 96.6132 0.103165 75.1598C0.586787 69.0079 3.20757 63.5767 8.10437 59.7539C22.8366 48.2439 48.7234 52.6828 65.8433 54.6569L75.2348 47.7842C73.1102 43.8257 71.7011 40.3268 71.8578 35.7207C72.2641 23.7511 84.9041 29.7881 91.0345 25.9654C95.8572 22.9573 95.3599 11.3845 100.597 6.84109C102.803 4.92972 105.335 4.37613 108.191 4.60592C112.022 4.89837 116.3 6.10998 118.812 9.2016C123.535 15.0088 121.845 24.5553 121.352 31.407C123.966 32.6499 128.766 31.5428 131.728 31.313C144.808 17.3067 156.833 6.54863 175.257 0.166925Z" fill="#32353E"/>
<path d="M134.417 37.5276C136.519 35.2506 138.635 32.9841 140.766 30.7281C164.052 6.15174 193.221 -10.8208 198.879 37.0681C200.388 49.8524 200.597 60.6417 200.698 73.5408C208.543 82.0742 218.778 89.281 228.017 96.1745C231.915 99.0781 233.658 99.5795 234.189 103.371C229.43 114.16 224.687 108.687 216.639 115.581L216.524 117.335C220.599 122.109 227.53 120.834 233.675 126.172L233.61 127.728C226.679 130.537 219.092 127.686 211.481 131.154C209.497 128.939 209.174 125.545 208.383 122.359C205.253 123.038 202.004 123.237 200.477 126.715C193.196 143.332 190.993 164.514 185.367 181.925C165.439 194.866 117.588 210.868 94.3937 209.134C76.8444 212.006 52.6706 204.12 39.1167 192.715C41.9182 188.558 48.5645 179.91 48.6387 175.293C42.1448 172.891 30.1127 182.813 24.5662 174.635C29.6239 158.404 31.6733 149.307 35.1234 132.543C25.9649 116.468 3.95432 95.0674 6.31916 74.7838C8.9796 51.9622 50.8009 59.0854 66.0835 61.3206C71.7125 57.3203 84.7463 51.7742 87.8403 49.1943C85.8567 45.4134 81.6326 45.9356 78.1511 40.8386C77.7824 36.4101 77.3322 38.4155 79.4735 34.5927C87.1519 29.3181 91.2548 34.8328 97.5336 39.8672C98.0872 31.8248 97.7007 5.12823 113.085 12.262C121.388 21.119 110.451 35.2716 111.708 42.1651C121.057 39.3659 124.444 38.3005 134.417 37.5276Z" fill="#E3B06E"/>
<path d="M145.042 148.177C146.21 141.963 137.359 144.135 134.514 133.617C129.666 115.673 134.02 94.2094 153.507 87.3785C162.453 84.2869 172.26 84.8927 180.758 89.0601C191.841 94.5018 205.563 110.2 209.354 121.167L208.383 122.358C205.253 123.037 202.004 123.235 200.477 126.713C193.196 143.331 190.993 164.513 185.367 181.924C165.439 194.865 117.588 210.866 94.3937 209.132C74.045 202.5 65.3472 196.035 57.9999 175.041C37.9615 117.762 110.888 77.4039 127.445 147.248C133.066 145.608 137.579 143.393 143.047 144.239C145.17 146.266 144.431 145.054 145.042 148.177Z" fill="#FDFDFD"/>
<path d="M127.445 147.249C133.065 145.609 137.579 143.395 143.047 144.241C145.169 146.267 144.431 145.056 145.042 148.179C144.7 149.808 143.415 155.908 142.709 156.879C136.565 165.371 126.214 157.078 125.009 149.923L127.445 147.249Z" fill="#AD7634"/>
<path d="M163.022 149.066C168.364 152.137 171.236 162.154 173.596 167.752L166.579 169.047C157.727 170.656 149.11 176.755 140.242 179.419C139.155 179.533 138.533 179.628 137.387 179.638C135.148 179.648 134.068 179.46 132.526 177.862C136.877 172.076 150.621 172.494 155.412 166.718C159.576 161.694 158.846 155.082 162.217 150.163C162.475 149.797 162.753 149.432 163.022 149.066Z" fill="#32353E"/>
<path d="M101.211 135.479C105.733 133.421 111.063 135.374 113.199 139.855C115.372 144.419 113.415 149.882 108.838 152.023C104.26 154.164 98.8121 152.18 96.6969 147.584C94.5817 142.999 96.607 137.557 101.211 135.479Z" fill="#32353E"/>
<path d="M101.211 135.479C105.733 133.421 111.064 135.374 113.199 139.855C110.573 141.568 109.33 142.769 106.207 142.947C105.164 140.576 105.2 140.116 104.928 137.62L104.852 136.889L101.211 135.479Z" fill="#535355"/>
<path d="M155.899 116.801C157.31 116.791 158.415 117.135 159.77 117.49L160.239 119.026C157.007 124.708 151.345 128.75 147.822 134.588L147.104 135.8L145.662 136.907L144.074 136.583C143.281 134.724 142.961 134.056 143.421 131.977C144.974 124.979 150.329 120.592 155.899 116.801Z" fill="#32353E"/>
<path d="M177.128 20.6394C178.042 20.5976 178.986 21.0572 179.852 21.3392C182.825 29.0578 181.572 52.2138 182.102 61.5931C176.719 59.3997 171.873 56.496 166.892 53.5297C160.93 49.592 155.178 45.6753 149.75 40.9961C157.576 32.9537 167.869 26.8957 177.128 20.6394Z" fill="#AD7634"/>
<path d="M20.0726 74.4583C30.377 74.0927 40.6009 73.863 50.9126 74.1346C48.295 84.8195 44.3445 94.8985 39.736 104.863C38.8272 106.356 37.8934 107.276 36.5783 108.424C33.4426 106.764 17.5469 82.3022 15.8809 78.093C16.9473 75.6072 17.7213 75.6385 20.0726 74.4583Z" fill="#AD7634"/>
<path d="M87.5456 90.0749C90.3721 89.9287 93.2196 89.8972 96.0356 90.2419C99.7479 90.691 105.879 92.78 108.127 95.9969C109.439 97.877 109.09 98.5768 108.77 100.708C106.832 103.538 104.761 104.342 101.672 105.69C98.6365 105.867 95.5436 105.93 92.5155 105.617C88.7332 105.23 82.4179 103.12 80.0573 99.9555C78.7652 98.2217 79.1579 97.4697 79.4723 95.4956C81.8716 92.6024 84.1425 91.5685 87.5456 90.0749Z" fill="#AD7634"/>
<path d="M141.59 70.9507C141.969 70.9507 142.349 70.9298 142.728 70.9507C145.984 71.0865 147.493 71.8177 149.59 74.1364C149.892 75.9851 150.175 76.8937 149.6 78.6693C147.166 86.1895 139.394 91.558 132.762 95.0465C132.522 95.057 132.283 95.0988 132.044 95.0883C129.156 95.0152 127.413 94.0857 125.506 92.0072C125.179 90.7225 124.915 89.5736 125.201 88.2471C126.861 80.5181 135.264 74.669 141.59 70.9507Z" fill="#AD7634"/>
<path d="M204.287 125.545C208.096 142.862 209.332 139.321 216.23 152.764L217.743 153.025C221.36 146.685 215.08 142.559 215.51 135.185C221.498 127.916 232.826 139.541 236.467 145.087C231.876 175.021 215.622 200.809 195.914 223.161C221.171 238.692 225.799 254.411 237.278 281.024C243.791 283.03 247.32 284.064 253.378 287.072C244.24 292.806 223.104 302.259 212.565 305.058C182.28 276.753 159.19 279.51 154.084 323.315C141.391 327.994 131.172 331.472 117.688 333.676L123.601 322.083C117.761 301.204 115.322 286.445 119.142 264.397C120.513 256.479 122.876 245.805 122.581 238.034C112.894 258.14 113.184 270.34 89.928 282.873C84.2948 279.99 80.4112 277.035 75.1248 274.194C73.301 273.212 69.8916 274.674 68.2183 272.397C71.6224 268.407 76.9966 264.125 79.4638 260.866C90.4387 246.379 103.764 229.626 113.676 214.607C122.574 229.083 124.365 227.934 134.226 238.525C145.651 246.129 154.303 248.437 167.521 251.236C176.095 244.092 179.476 236.854 183.703 226.827C184.947 221.594 186.099 216.372 186.394 211.014C188.009 181.716 198.732 154.602 204.287 125.545Z" fill="#E3B06E"/>
<path d="M183.703 226.828C205.587 245.514 193.479 282.289 163.56 281.851C155.067 281.715 146.971 278.226 141.039 272.148C135.383 266.309 132.343 258.423 132.617 250.297C132.781 246.213 133.207 242.495 134.226 238.526C145.651 246.13 154.303 248.438 167.521 251.237C176.096 244.093 179.477 236.855 183.703 226.828Z" fill="#FDFDFD"/>
<path d="M181.759 191.314C182.211 192.077 182.396 192.265 182.588 193.247C185.635 208.872 176.563 233.396 165.981 244.833C153.824 242.765 145.295 239.245 135.372 231.913C129.242 225.97 123.597 220.016 118.158 213.415C140.95 207.922 160.49 201.341 181.759 191.314Z" fill="#C25E47"/>
<path d="M100.504 214.659C102.51 214.471 103.682 214.304 105.515 215.223C105.023 221.647 97.1126 230.243 92.4132 234.212C90.3085 235.987 89.898 235.684 87.2804 235.444C83.8052 232.833 77.2966 225.845 76.8308 221.438C76.6114 219.359 77.4826 218.785 78.6911 217.249C85.4503 214.095 93.1862 214.805 100.504 214.659Z" fill="#C36756"/>
<path d="M251.159 140.68C251.396 140.815 251.647 140.941 251.869 141.108C255.749 143.959 257.378 150.08 258.403 154.613C263.951 179.158 258.029 212.174 244.637 233.429L242.495 232.363C241.975 230.201 252.503 200.966 253.47 194.136C256.15 175.21 253.693 159.303 251.159 140.68Z" fill="#32353E"/>
<path d="M267.526 168.576C268.572 169.109 269.305 169.234 269.89 170.331C274.527 179.063 270.549 201.571 267.706 210.982L265.44 210.647C263.505 205.979 267.269 176.838 267.526 168.576Z" fill="#26272F"/>
<path d="M233.871 207.734C233.601 212.111 230.596 217.208 227.867 220.571L226.655 219.871C226.787 216.278 231.667 210.617 233.871 207.734Z" fill="#DCF0FB"/>
</svg>
