<svg width="220" height="210" viewBox="0 0 220 210" fill="none" xmlns="http://www.w3.org/2000/svg">
<path d="M66.2232 22.7371C66.734 22.7033 67.2456 22.6875 67.7573 22.6875C74.6528 22.7348 84.6129 29.0451 89.5042 34.0172C93.2484 32.3613 96.0393 32.6249 100.002 32.884C99.85 30.6176 100.005 28.2949 102.46 27.4861C104.733 26.7382 106.829 28.2926 108.72 29.3244C111.147 30.6469 113.421 32.091 116.1 32.8479C119.993 34.1028 124.564 34.452 128.152 36.4007C129.596 35.3666 131.07 34.3754 132.571 33.4247C138.023 30.0386 153.758 21.6106 158.199 30.0972C162.689 38.6761 161.352 51.2674 159.037 60.5041C162.712 63.2887 168.349 67.6322 161.59 71.2638C162.361 72.9197 162.906 74.0709 162.958 75.9227C163.016 78.0337 161.86 78.509 161.132 79.9937C162.989 87.489 174.482 89.4827 163.193 96.6356C173.608 102.892 146.447 117.04 141.842 119.115C143.257 122.751 144.084 126.171 145.439 129.692C145.733 130.456 148.244 133.846 148.94 134.849C150.439 137.011 151.102 138.28 152.208 140.641C155.858 137.958 164.367 135.34 161.814 143.292C160.84 146.327 158.992 148.332 156.199 149.751C156.632 150.312 157.122 151.06 157.536 151.653C160.972 148.235 163.049 144.04 166.723 140.79C169.8 138.064 173.831 136.669 177.934 136.908C190.641 137.739 192.883 153.014 189.513 162.73C187.475 168.606 183.938 173.384 179.291 177.428C174.696 181.075 168.405 183.763 162.636 184.59C160.885 184.955 158.107 184.653 156.475 185.225C150.076 187.46 143.755 189.751 136.857 189.571C135.69 189.542 133.372 189.605 132.302 190.019C117.373 195.811 94.7622 210.335 90.2545 184.576C86.9891 184.72 83.8892 185.536 80.7896 186.581C74.9822 188.539 69.1007 192.256 62.8195 190.015C58.2713 188.293 56.0737 184.687 53.999 180.517C50.185 172.85 50.648 161.151 61.6705 161.241C63.7434 161.259 65.6814 162.541 67.6683 163.323C66.9178 162.435 65.1968 161.142 64.2271 160.358C60.631 157.449 58.9938 155.501 56.8629 151.488C46.2921 152.658 41.4488 132.871 53.2159 128.676C54.9682 120.403 60.0425 114.294 67.4412 110.439C64.477 108.042 61.3114 104.768 58.8471 101.84C56.3754 98.902 54.2315 95.5565 58.0949 92.8147C50.8996 88.2009 55.9516 85.2338 59.4489 80.3834C60.633 78.7411 61.5894 76.6166 62.3757 74.7422C57.0936 74.0867 58.084 70.2861 59.2725 66.5756C58.8818 66.2737 58.4312 65.8885 58.0924 65.5393C57.3773 64.8048 57.0161 63.7978 57.1031 62.7773C57.2982 60.2383 60.1547 58.0733 61.9722 56.5706L61.8706 56.2552C59.6113 49.0641 58.0151 33.5418 61.4815 26.5444C62.5717 24.3434 63.9602 23.4197 66.2232 22.7371Z" fill="#312725"/>
<path d="M125.993 42.7914C130.101 38.6033 148.024 26.3725 154.405 31.2162C157.098 33.2618 157.668 43.4515 157.54 46.8601C157.472 51.5776 156.043 57.7797 154.95 62.308C156.503 63.2497 160.341 65.2682 160.809 66.7844C160.275 68.4155 158.231 68.3817 156.709 68.6273C157.494 70.558 159.217 74.0116 159.077 75.9221C157.742 77.641 153.307 72.9663 151.974 72.0606C150.791 75.5931 155.671 77.9203 156.818 79.9209C159.337 84.3117 161.307 87.4905 164.719 91.3091C163.031 92.8275 161.821 93.5733 159.719 94.4158C158.767 94.7988 157.617 95.1818 157.251 96.1888C157.508 97.9348 160.586 99.3068 162.072 100.125C158.617 105.964 143.212 115.951 136.391 117.172C133.373 118.238 130.298 119.139 127.181 119.869C125.155 120.146 123.024 120.732 121.394 122.047L121.406 122.606C123.566 123.726 123.736 122.98 125.556 123.039C129.467 122.236 134.56 121.265 138.26 119.788C139.639 123.02 144.061 138.027 144.172 141.262C143.736 141.62 143.154 141.535 142.547 141.548C140.002 143.033 142.168 147.631 143.455 149.374C139.712 149.987 132.507 151.213 128.98 152.15C128.258 152.004 128.228 152.049 127.673 151.531C130.378 149.904 141.63 141.96 138.036 138.038C136.099 139.273 133.983 142.49 132.336 144.344C124.507 153.162 105.673 154.331 98.9455 143.195C100.193 143.22 101.44 143.231 102.688 143.224C103.395 142.819 103.138 143.114 103.393 142.24C102.692 140.469 99.4707 141.001 98.6891 139.926C95.8092 135.972 102.529 137.732 104.196 136.177L104.009 135.715C102.452 134.411 101.672 134.657 99.536 134.571C105.186 129.91 108.666 133.78 115.472 133.613C119.127 133.526 128.411 127.465 125.61 125.233C123.284 125.127 121.185 129.263 117.44 130.23C111.433 131.777 109.259 128.427 102.711 129.425C102.18 125.884 101.68 124.413 100.479 121.112C96.5928 114.284 92.3029 110.956 84.6754 108.753C81.5479 108.003 79.2194 107.886 76.025 108.077C74.8345 108.28 71.8902 109.082 71.1278 108.598C68.0971 107.111 61.0371 99.3474 59.4273 96.2564C60.9348 95.0939 62.7033 94.186 63.3556 92.4648C63.0271 90.9036 59.8685 90.016 57.9098 88.3444L57.6716 88.1393C59.4767 85.8054 61.7844 83.7845 63.2513 81.0631C64.9651 77.882 66.1904 74.2482 67.3446 70.8193C69.9702 63.0176 72.5154 57.4553 77.6708 51.0211C76.992 49.4554 75.5663 47.9167 75.8427 46.5176C76.8516 45.9499 80.149 46.7159 81.4336 46.9434C84.6224 45.389 86.4074 43.6813 90.5073 41.9038C91.9691 42.2349 95.2509 43.1406 96.0223 41.514C95.2651 39.7095 90.3724 39.6734 90.6536 37.6211C93.5454 34.4288 102.143 37.0443 105.717 37.9702C105.099 36.5667 102.276 31.9686 103.613 30.8332C104.972 30.9526 109.499 33.7709 111.3 34.6608C116.291 37.1254 121.102 37.3507 125.863 39.0989C124.978 40.0722 124.017 41.0319 124.418 42.4039C125.249 42.9356 124.905 42.7914 125.993 42.7914Z" fill="#BA4C37"/>
<path d="M115.736 99.3211C115.97 99.2333 115.992 99.1882 116.208 99.2152C121.932 99.9181 122.93 98.6025 127.666 95.8359C131.031 99.418 133.956 103.489 133.802 108.677C133.632 114.391 130.406 116.402 127.181 119.87C125.155 120.147 123.024 120.732 121.394 122.048L121.406 122.607C123.566 123.726 123.736 122.981 125.556 123.039C129.467 122.237 134.56 121.266 138.26 119.788C139.639 123.021 144.062 138.028 144.172 141.263C143.736 141.621 143.155 141.535 142.547 141.549C140.003 143.033 142.168 147.632 143.455 149.375C139.712 149.988 132.507 151.214 128.98 152.151C128.258 152.004 128.228 152.049 127.673 151.531C130.379 149.905 141.631 141.961 138.036 138.039C136.099 139.273 133.983 142.491 132.336 144.345C124.507 153.162 105.673 154.332 98.9457 143.196C100.193 143.22 101.44 143.232 102.688 143.225C103.395 142.819 103.138 143.115 103.393 142.24C102.692 140.47 99.4709 141.001 98.6893 139.927C95.8094 135.973 102.529 137.732 104.196 136.178L104.009 135.716C102.452 134.412 101.672 134.657 99.5362 134.572C105.186 129.911 108.666 133.781 115.472 133.614C119.127 133.526 128.411 127.466 125.61 125.234C123.285 125.128 121.186 129.264 117.44 130.23C111.433 131.778 109.259 128.428 102.712 129.426C102.18 125.885 101.681 124.414 100.48 121.113C108.149 123.136 120.175 120.512 121.221 110.878C121.731 106.179 118.61 102.667 115.736 99.3211Z" fill="#623630"/>
<path d="M125.556 123.038C129.467 122.236 134.56 121.265 138.26 119.787C139.639 123.02 144.061 138.026 144.172 141.261C143.736 141.62 143.154 141.534 142.547 141.548C140.002 143.032 142.168 147.63 143.455 149.374C139.712 149.987 132.507 151.212 128.98 152.15C128.258 152.003 128.228 152.048 127.673 151.53C130.378 149.903 141.63 141.96 138.036 138.038C138.649 133.845 139.474 129.51 136.922 125.656C133.116 119.911 127.707 125.144 125.468 124.696L125.198 124.268C125.308 123.694 125.36 123.57 125.556 123.038Z" fill="#BA4C37"/>
<path d="M88.8712 96.9735C99.2921 84.4836 106.159 90.5461 115.736 99.321C118.61 102.667 121.731 106.179 121.221 110.878C120.175 120.511 108.149 123.136 100.479 121.113C96.5929 114.285 92.3031 110.957 84.6755 108.754C83.8509 103.565 85.4483 100.781 88.8712 96.9735Z" fill="#FFFEFE"/>
<path d="M99.304 95.5566C101.191 95.5994 102.983 95.809 104.695 96.6741C105.317 96.9895 106.036 97.4918 106.2 98.2173C106.781 100.795 101.853 103.122 100.636 104.971C100.746 107.86 104.99 107.983 106.522 109.923C106.904 110.405 106.947 110.678 106.898 111.273C106.539 111.647 106.424 111.775 105.894 111.888C104.852 112.111 103.553 111.054 102.696 110.536C101.863 110.058 100.988 109.639 100.134 109.2C99.5239 109.957 98.6617 111.293 97.642 111.505C97.0853 111.62 96.8783 111.507 96.4421 111.183C96.3752 110.93 96.2934 110.667 96.2905 110.401C96.2756 109.103 97.6902 107.932 98.5276 107.096C98.3262 106.204 98.1897 105.298 98.0372 104.397C97.127 103.863 96.2368 103.3 95.4172 102.633C94.3016 101.725 93.1294 100.36 93.0505 98.8638C93.0205 98.2308 93.2458 97.6112 93.6759 97.1426C95.0144 95.676 97.4753 95.6941 99.304 95.5566Z" fill="#312725"/>
<path d="M125.993 42.7914C130.101 38.6033 148.024 26.3725 154.405 31.2162C157.098 33.2618 157.668 43.4515 157.54 46.8601C157.472 51.5776 156.043 57.7797 154.95 62.308C156.503 63.2497 160.341 65.2682 160.809 66.7844C160.275 68.4155 158.231 68.3817 156.709 68.6273C157.494 70.558 159.217 74.0116 159.077 75.9221C157.742 77.641 153.307 72.9663 151.974 72.0606C150.494 70.9297 149.387 65.8292 148.385 64.2184L147.903 64.331C147.678 64.2184 139.997 54.851 139.095 53.7764C139.876 52.6499 142.305 50.6561 141.593 49.3179C140.115 49.0701 136.406 49.9871 134.901 50.1515L134.521 50.1898C131.112 51.4897 127.37 45.1389 125.993 42.7914Z" fill="#FFFEFE"/>
<path d="M134.521 50.1909C134.857 45.9645 140.264 41.6998 143.494 39.4041C144.922 38.3881 149.775 35.5878 151.443 36.6804L151.553 37.2459C151.207 38.0299 151.433 37.764 150.543 38.1921C153.003 45.2976 151.878 55.9199 148.386 62.6131L148.386 64.2194L147.903 64.3321C147.678 64.2194 139.997 54.852 139.095 53.7774C139.876 52.651 142.305 50.6572 141.593 49.319C140.115 49.0712 136.406 49.9881 134.902 50.1526L134.521 50.1909Z" fill="#623630"/>
<path d="M134.521 50.1909C134.857 45.9645 140.264 41.6998 143.494 39.4041C144.922 38.3881 149.775 35.5878 151.443 36.6804L151.553 37.2459C151.207 38.0299 151.433 37.764 150.543 38.1921C147.443 38.8905 141.475 44.3807 139.263 46.8701C145.436 47.3184 146.249 49.4136 141.908 53.8157C143.947 55.992 147.614 59.7543 148.386 62.6131L148.386 64.2194L147.903 64.3321C147.678 64.2194 139.997 54.852 139.095 53.7774C139.876 52.651 142.305 50.6572 141.593 49.319C140.115 49.0712 136.406 49.9881 134.902 50.1526L134.521 50.1909Z" fill="#312725"/>
<path d="M127.666 95.8357C129.604 94.0334 130.847 93.0105 133.446 92.2175C135.61 91.5574 142.628 90.8838 142.892 94.0762C142.509 94.9548 142.266 95.1125 141.358 95.4639C140.876 95.6487 140.39 95.8244 139.902 95.9933C142.676 97.8227 148.055 102.081 146.209 106.014C145.2 106.913 144.21 106.562 142.951 106.388C142.544 107.055 142.908 108.091 142.714 108.977C141.873 112.829 138.992 114.895 136.392 117.173C133.373 118.238 130.298 119.139 127.181 119.869C130.406 116.402 133.632 114.39 133.802 108.677C133.956 103.489 131.031 99.4177 127.666 95.8357Z" fill="#FFFEFE"/>
<path d="M71.0434 92.9072C70.1245 92.6548 69.7572 92.6098 68.9694 92.0736C68.5758 91.3053 68.631 91.6974 68.7734 90.866C69.9719 89.2958 72.4443 89.3048 74.2239 89.7441C76.8103 90.3794 77.9823 92.193 79.2847 94.3422C84.3153 96.9443 82.6632 97.3656 88.8712 96.9736C85.4483 100.781 83.851 103.565 84.6755 108.754C81.548 108.004 79.2196 107.886 76.0251 108.078C74.8347 108.281 71.8903 109.083 71.1279 108.598C69.4934 105.676 69.8507 105.273 68.9741 102.16C68.0002 102.128 67.2869 102.245 66.5689 101.68C64.7902 98.4379 68.6918 94.6779 71.0434 92.9072Z" fill="#FFFEFE"/>
<path d="M79.2845 94.3418C84.3151 96.9439 82.6631 97.3651 88.871 96.9731C85.4481 100.78 83.8508 103.565 84.6754 108.753C81.5479 108.003 79.2194 107.886 76.025 108.078C74.0649 101.794 76.1126 99.5009 79.2845 94.3418Z" fill="#623630"/>
<path d="M116.822 85.1081C117.435 85.054 118.154 85.0157 118.752 85.1689C120.05 85.5046 121.111 86.6243 121.687 87.7912C122.61 89.6611 122.725 92.1415 122.045 94.1038C121.498 95.6785 120.758 96.3905 119.319 97.1294C118.698 97.1609 118.033 97.2217 117.416 97.1181C116.224 96.9199 115.234 96.1134 114.609 95.1041C113.583 93.4437 113.437 91.0669 113.875 89.1903C114.322 87.2731 115.168 86.1129 116.822 85.1081Z" fill="#312725"/>
<path d="M117.426 71.6224C118.454 71.5818 119.591 71.6314 120.512 72.1428C121.014 72.4222 121.383 72.8525 121.506 73.4202C121.724 74.4362 121.224 75.6145 120.72 76.4705C119.188 79.0749 116.544 80.7082 113.692 81.4787C112.549 81.5643 111.473 81.526 110.456 80.9267C109.929 80.6158 109.601 80.136 109.493 79.5367C109.278 78.3449 109.968 76.9189 110.609 75.9366C112.2 73.5013 114.647 72.1991 117.426 71.6224Z" fill="#FFFEFE"/>
<path d="M84.7885 83.5254C85.4117 83.5727 86.0833 83.611 86.6542 83.8836C87.9147 84.4896 88.7832 85.8977 89.2018 87.184C89.8487 89.1733 89.9453 91.7213 88.9691 93.607C88.3518 94.7987 87.52 95.2989 86.2755 95.6931C85.844 95.6728 85.4471 95.612 85.0296 95.4949C83.7761 95.1412 82.9222 94.2513 82.3495 93.1068C81.3907 91.1874 81.3307 88.5808 82.0429 86.569C82.5811 85.0483 83.3665 84.235 84.7885 83.5254Z" fill="#312725"/>
<path d="M83.002 69.1339C83.6364 69.0708 84.2607 69.028 84.8965 69.1001C87.1605 69.3615 89.3249 70.7244 90.6825 72.5357C91.4848 73.6059 92.1077 74.8877 91.8759 76.2552C91.6731 77.4492 91.0396 78.1341 90.0627 78.7829C89.49 78.8032 88.8759 78.7942 88.3129 78.6816C85.9779 78.2107 83.4346 76.3048 82.1114 74.3561C81.4763 73.4211 81.0359 72.306 81.2805 71.1615C81.4975 70.1477 82.1916 69.6926 83.002 69.1339Z" fill="#FFFEFE"/>
<path d="M110.652 154.496C112.971 157.163 115.447 159.693 118.066 162.068C118.902 167.716 119.365 182.319 123.609 186.719C124.16 187.289 126.462 188.109 127.343 188.427C120.503 191.18 107.503 197.611 100.598 195.329C94.4639 193.302 91.8016 181.057 94.0261 175.65C97.1142 168.678 106.776 171.616 108.601 177.912C108.893 178.919 108.958 179.757 109.594 180.596C110.314 180.999 109.956 180.965 110.694 180.778C112.614 178.622 109.463 173.857 107.905 172.147C109.229 170.336 109.439 170.248 111.087 168.867C113.065 167.211 117.288 166.542 117.224 164.05C116.808 163.3 117.098 163.568 116.337 163.206C113.084 163.208 108.933 166.709 106.742 168.903C106.335 169.311 105.93 169.723 105.528 170.135C96.4445 165.621 89.9231 171.494 89.9733 180.994C86.5374 181.384 83.151 182.127 79.8678 183.213C74.0495 185.126 66.9915 189.485 61.2817 185.09C58.4626 182.92 55.2415 176.513 55.2902 173.037L55.2093 172.359C54.2221 168.89 56.5832 165.594 60.0308 164.506C64.3619 163.138 68.0295 170.615 69.908 170.66C70.5156 169.295 69.2269 166.939 68.5735 165.673C69.3675 165.091 70.1344 164.56 70.8571 163.891C80.1241 167.914 90.1225 168.667 99.5792 164.853C105.731 162.37 108.992 161.147 110.652 154.496Z" fill="#623630"/>
<path d="M55.2092 172.358C55.3293 171.285 55.1459 171.385 55.7229 170.711C56.5977 170.54 56.2003 170.479 56.964 170.851C57.5823 171.763 57.8612 173.022 56.9821 173.872C56.0678 174.018 55.8484 173.734 55.2901 173.036L55.2092 172.358Z" fill="#8E5A46"/>
<path d="M98.9286 180.901C99.5677 180.852 100.26 180.768 100.897 180.852C102.21 181.025 103.518 181.922 104.301 182.963C105.382 184.398 105.729 186.311 105.469 188.066C105.182 189.994 104.328 191.226 102.781 192.314C102.249 192.346 101.692 192.389 101.166 192.294C99.6554 192.019 98.4129 190.807 97.6372 189.541C96.6218 187.885 96.0822 185.673 96.5596 183.769C96.9181 182.339 97.6861 181.611 98.9286 180.901Z" fill="#8E5A46"/>
<path d="M61.2085 172.965C61.9657 172.999 62.6274 173.071 63.3226 173.395C64.9493 174.154 66.101 175.77 66.6766 177.43C67.2439 179.068 67.4629 181.136 66.6207 182.708C66.0638 183.749 65.2985 184.105 64.2038 184.409C63.8489 184.353 63.4995 184.297 63.1546 184.193C61.4619 183.686 60.1259 182.105 59.339 180.573C58.5324 179.003 57.9437 177.002 58.5897 175.281C59.079 173.976 60.0275 173.506 61.2085 172.965Z" fill="#8E5A46"/>
<path d="M99.4437 174.021C99.941 174.217 100.416 174.4 100.777 174.812C101.26 175.362 101.518 176.09 101.404 176.822C101.271 177.678 100.83 178.165 100.177 178.687C99.6026 178.57 99.0285 178.365 98.6252 177.917C98.144 177.383 97.9225 176.718 98.0255 176.004C98.1688 175.011 98.6613 174.587 99.4437 174.021Z" fill="#8E5A46"/>
<path d="M104.2 175.975C104.708 176.083 105.19 176.18 105.585 176.542C106.037 176.955 106.295 177.518 106.285 178.133C106.27 179.138 105.807 179.645 105.097 180.296C104.664 180.196 104.294 180.106 103.925 179.847C103.434 179.5 103.178 179.043 103.114 178.446C103.012 177.504 103.666 176.668 104.2 175.975Z" fill="#8E5A46"/>
<path d="M58.1999 167.215C58.5699 167.231 58.9765 167.24 59.3199 167.393C59.8439 167.623 60.2974 168.139 60.466 168.684C60.7775 169.691 60.4434 170.488 59.9309 171.349C59.4533 171.358 59 171.365 58.5922 171.108C58.0481 170.763 57.6996 170.234 57.5842 169.601C57.4047 168.612 57.6372 168.019 58.1999 167.215Z" fill="#8E5A46"/>
<path d="M63.1746 167.664C63.7669 167.711 64.2828 167.752 64.7521 168.153C65.1486 168.493 65.3897 168.928 65.4294 169.451C65.5019 170.41 65.0664 170.974 64.4468 171.645C64.015 171.627 63.6353 171.625 63.2528 171.399C62.8315 171.151 62.5314 170.762 62.4248 170.282C62.1998 169.273 62.613 168.468 63.1746 167.664Z" fill="#8E5A46"/>
<path d="M95.0032 176.186C95.3486 176.246 95.6016 176.339 95.8866 176.539C96.3944 176.9 96.7583 177.404 96.8513 178.028C96.9964 179.002 96.6467 179.549 96.063 180.293C95.6325 180.245 95.2792 180.214 94.912 179.966C94.4697 179.668 94.1563 179.213 94.0905 178.679C93.9693 177.693 94.4539 176.949 95.0032 176.186Z" fill="#8E5A46"/>
<path d="M165.601 147.289C171.695 137.827 184.67 137.622 186.972 149.893C188.145 156.21 186.708 162.732 182.99 167.97C182.847 168.173 182.754 168.272 182.59 168.454C179.98 172.16 177.717 174.402 173.854 176.759C171.443 178.207 167.02 180.16 164.215 180.728L161.431 181.176C164.174 175.761 162.673 171.838 160.884 166.35C161.96 164.253 161.99 163.435 161.788 161.191C161.678 161.049 159.515 155.841 159.13 155.09C160.163 154.05 160.75 153.367 161.669 152.218C162.946 150.857 164.434 148.805 165.601 147.289Z" fill="#623630"/>
<path d="M161.669 152.219C163.048 153.221 164.716 153.764 166.044 154.805C170.606 158.385 172.361 162.44 173.735 167.827C174.34 170.201 173.651 176.237 173.854 176.759C171.443 178.208 167.02 180.161 164.215 180.729L161.431 181.177C164.174 175.761 162.673 171.839 160.884 166.351C161.96 164.254 161.99 163.436 161.788 161.192C161.678 161.05 159.515 155.841 159.13 155.091C160.163 154.05 160.75 153.368 161.669 152.219Z" fill="#623630"/>
<path d="M161.788 161.191C162.75 161.608 163.498 163.118 163.871 164.098C165.968 169.613 165.464 175.123 164.215 180.728L161.431 181.177C164.174 175.761 162.673 171.838 160.884 166.35C161.96 164.253 161.99 163.435 161.788 161.191Z" fill="#BA4C37"/>
<path d="M165.601 147.289C176.269 149.569 182.434 157.6 182.59 168.455C179.98 172.161 177.717 174.402 173.855 176.759C173.651 176.236 174.34 170.201 173.735 167.826C172.361 162.44 170.606 158.384 166.045 154.805C164.717 153.764 163.048 153.221 161.669 152.218C162.946 150.858 164.434 148.805 165.601 147.289Z" fill="#BA4C37"/>
<path d="M60.8134 132.966C64.3131 132.387 65.0208 132.784 68.2792 134.25C68.429 135.53 68.6052 136.578 69.3507 137.643C69.8659 137.812 69.6735 137.796 70.2041 137.778C71.1143 141.714 72.9306 145.078 76.4594 147.249C79.8095 149.266 83.8265 149.863 87.6178 148.903C90.2249 148.247 92.262 146.945 94.5257 145.576C95.5019 149.96 96.7888 151.654 100.621 154.157C101.874 154.779 104.258 156.757 104.987 156.824L105.409 156.448C105.496 156.141 105.705 155.691 105.553 155.544C101.197 151.354 97.4908 151.444 96.0384 144.501C97.7864 146.058 98.7532 148.083 100.94 149.55C102.244 151.003 105.907 151.708 107.059 152.816C109.293 154.968 106.342 158.399 104.674 159.415C89.4663 168.663 68.9819 165.784 59.5867 149.854C61.0943 148.115 61.6051 147.31 62.356 145.168C62.5475 144.116 62.6531 143.061 62.773 142C65.0203 140.66 65.9801 140.883 68.4155 140.259C68.5734 140.079 68.7316 139.896 68.8895 139.714L68.7075 139.425C66.7168 138.95 64.4816 139.585 62.691 140.468C62.3492 137.724 61.6407 135.573 60.8134 132.966Z" fill="#D7BC98"/>
<path d="M59.5867 149.855C61.0943 148.116 61.6051 147.311 62.356 145.169C62.6085 146.946 62.7207 148.206 64.2827 149.37C64.595 149.607 64.9257 149.816 65.272 150.001C64.827 151.412 64.6049 151.889 65.0136 153.358L65.2614 153.401C65.6336 152.797 65.625 152.826 65.7685 152.132C66.8972 152.597 67.8275 153.401 68.801 154.149C68.7877 155.163 68.6327 155.28 69.0781 156.111C69.7839 155.843 69.8394 154.976 69.9883 154.27C71.0325 154.707 74.7341 157.251 75.446 157.005C75.4609 157.001 75.4708 156.987 75.483 156.978C75.5215 158.28 75.4737 159.177 75.9209 160.405L76.2625 160.714C76.7575 160.315 76.6135 160.4 76.8805 159.725C78.2302 159.069 78.426 158.796 79.3925 157.715C80.6564 159.312 82.8082 161.081 84.7466 159.242C85.2918 160.511 85.5532 161.175 86.6066 162.061L86.8637 161.885C86.9973 160.576 86.5652 159.986 86.0308 158.758C86.5458 157.83 86.0925 157.418 87.2352 156.85C88.0886 157.388 88.8537 159.38 90.0467 160.506L90.2656 160.711C91.2777 159.689 92.1304 158.567 93.1999 157.515C94.462 158.848 94.822 159.434 96.5658 160.011L96.9089 159.869C96.7947 159.017 95.934 158.44 95.2602 157.852C97.3714 157.057 97.1342 155.582 100.621 154.158C101.874 154.78 104.258 156.758 104.987 156.825L105.409 156.449C105.496 156.143 105.705 155.692 105.553 155.546C101.197 151.355 97.4908 151.445 96.0384 144.502C97.7864 146.059 98.7532 148.084 100.94 149.551C102.244 151.004 105.907 151.709 107.059 152.817C109.293 154.969 106.342 158.4 104.674 159.416C89.4663 168.664 68.9819 165.785 59.5867 149.855Z" fill="#B3987C"/>
<path d="M93.1999 157.514C92.0487 155.69 89.9363 152.024 90.6636 149.758C91.6842 150.328 92.7987 154.146 93.5458 155.394C94.1833 156.46 94.444 156.854 95.2602 157.852C95.9341 158.44 96.7947 159.017 96.9089 159.869L96.5658 160.011C94.822 159.434 94.462 158.848 93.1999 157.514Z" fill="#312725"/>
<path d="M84.7466 159.241C84.2958 157.576 83.3793 152.293 84.8203 151.086C85.5807 151.983 85.1413 155.975 86.0308 158.757C86.5652 159.985 86.9973 160.575 86.8637 161.884L86.6066 162.06C85.5532 161.174 85.2918 160.51 84.7466 159.241Z" fill="#312725"/>
<path d="M75.4832 156.979C75.6512 155.3 76.7155 149.889 78.8281 150.044C78.9874 150.749 77.5164 153.212 77.1208 154.827C76.7378 156.429 76.6563 158.092 76.8807 159.725C76.6137 160.401 76.7576 160.315 76.2627 160.714L75.9211 160.405C75.4739 159.177 75.5217 158.281 75.4832 156.979Z" fill="#312725"/>
<path d="M65.272 150.002C66.2241 148.454 69.4226 144.311 71.4304 144.976L71.5192 145.28C70.8041 146.181 70.326 146.244 69.4809 146.943C67.7671 148.36 66.5406 150.058 65.7685 152.133C65.625 152.827 65.6336 152.798 65.2614 153.402L65.0136 153.359C64.6049 151.89 64.827 151.412 65.272 150.002Z" fill="#312725"/>
<path d="M68.8009 154.148C69.5068 152.186 70.2935 150.131 72.1337 148.912L72.4532 149.029C72.3761 150.106 70.6483 152.56 69.9882 154.269C69.8393 154.975 69.7839 155.842 69.078 156.11C68.6326 155.279 68.7876 155.162 68.8009 154.148Z" fill="#312725"/>
<path d="M56.323 129.365C57.9501 123.028 61.3392 117.319 67.1096 113.94C72.2824 110.932 78.4313 110.078 84.227 111.568C89.7143 113.03 94.4588 116.321 97.3114 121.286C98.9394 124.148 99.8462 127.362 99.9541 130.654C99.0221 131.478 97.7659 132.524 96.9805 133.441L96.4371 134.317C95.5318 134.459 94.5475 134.671 93.6491 134.599C90.9403 134.696 92.5715 135.655 90.5704 137.275L90.0414 137.167C90.1022 136.446 89.7438 136.016 89.3759 135.367C90.0914 129.827 87.9867 125.459 82.0009 124.686C79.2989 124.355 76.5751 125.098 74.4137 126.752C70.9802 129.404 69.9497 133.63 70.2043 137.78C69.6737 137.798 69.8661 137.814 69.3509 137.645C68.6054 136.579 68.4292 135.531 68.2794 134.252C68.4312 133.202 68.4878 133.179 67.7393 132.555C64.8245 131.217 63.2546 130.951 60.0514 131.652C58.6363 130.487 58.0769 130.028 56.323 129.365Z" fill="#D7BC98"/>
<path d="M80.0034 122.232C80.1095 122.729 80.046 122.554 80.3282 122.986C80.992 122.781 80.8068 122.793 81.3033 122.047C82.7326 122.403 83.6182 122.461 85.0955 122.588L85.047 123.295L85.2847 123.561C86.0298 123.376 86.1145 123.2 86.6842 122.63C87.8069 123.234 88.5105 124.061 89.4013 124.971C88.62 125.399 88.6074 125.235 88.3183 125.879C88.8507 126.348 89.2015 126.271 89.894 126.091L92.2704 129.166C91.3194 129.339 91.3787 129.164 90.8921 129.731C91.4037 130.369 91.6378 130.259 92.4928 130.283L92.1521 130.558C92.2416 131.622 92.4907 132.367 92.7805 133.381C91.9205 133.172 92.0803 133.063 91.4382 133.349C91.547 133.983 91.5127 133.782 92.1204 134.318C92.6572 134.431 93.1002 134.521 93.649 134.598C90.9403 134.694 92.5714 135.654 90.5703 137.274L90.0413 137.166C90.1022 136.445 89.7437 136.015 89.3758 135.366C90.0914 129.826 87.9867 125.458 82.0008 124.685C79.2989 124.354 76.5751 125.097 74.4136 126.751C70.9801 129.402 69.9496 133.629 70.2042 137.779C69.6736 137.797 69.866 137.812 69.3508 137.643C68.6053 136.578 68.4291 135.53 68.2793 134.251C68.4311 133.201 68.4877 133.178 67.7393 132.554C68.4226 130.989 67.7868 129.58 70.0359 127.891C70.252 127.958 70.3871 127.938 70.6221 127.947C70.8871 127.357 70.7285 127.298 70.5694 126.503C71.9667 124.822 72.6926 124.174 74.7853 123.613C75.1068 124.129 74.8849 123.975 75.4549 124.113C75.9485 123.565 75.7962 123.773 75.9373 122.95C77.1295 122.91 77.9604 122.123 80.0034 122.232Z" fill="#B3987C"/>
<path d="M74.7852 123.614C74.197 121.609 74.1909 121.593 73.2471 119.876C72.3966 118.331 69.899 116.305 69.7104 115.12L70.0169 114.744C72.817 115.062 75.3401 120.469 75.9371 122.951C75.7961 123.774 75.9484 123.566 75.4548 124.114C74.8848 123.976 75.1067 124.13 74.7852 123.614Z" fill="#312725"/>
<path d="M70.0358 127.892C67.8162 124.551 65.2844 123.951 61.7801 123.028L61.6414 122.665L61.9182 122.219C64.5729 120.583 68.9848 124.483 70.5693 126.504C70.7284 127.299 70.887 127.358 70.622 127.948C70.387 127.939 70.2519 127.959 70.0358 127.892Z" fill="#312725"/>
<path d="M80.0033 122.233C81.3994 118.421 78.6389 114.008 79.0431 112.92L79.4763 112.877C81.7666 114.609 81.6641 119.516 81.3032 122.048C80.8067 122.794 80.9919 122.783 80.3281 122.988C80.0459 122.555 80.1094 122.731 80.0033 122.233Z" fill="#312725"/>
<path d="M85.0956 122.588C87.5407 119.899 86.5318 116.616 87.7847 115.582C89.6406 116.481 87.4992 121.361 86.6843 122.631C86.1146 123.201 86.0299 123.377 85.2848 123.562L85.0471 123.296L85.0956 122.588Z" fill="#312725"/>
<path d="M89.4013 124.971L89.6404 124.809C91.6802 123.414 92.0974 122.164 93.4758 120.154C93.6333 120.163 93.7905 120.172 93.9478 120.181C94.9163 122.164 91.4157 125.104 89.8941 126.091C89.2015 126.271 88.8507 126.347 88.3184 125.879C88.6074 125.235 88.62 125.399 89.4013 124.971Z" fill="#312725"/>
<path d="M92.2704 129.166L92.5388 129.087C95.3025 128.233 95.8459 126.388 96.9514 126.307C97.9436 128.273 93.9115 129.95 92.4928 130.283C91.6378 130.258 91.4037 130.369 90.8921 129.731C91.3787 129.163 91.3195 129.339 92.2704 129.166Z" fill="#312725"/>
<path d="M93.649 134.598C93.1002 134.521 92.6573 134.431 92.1204 134.318C91.5128 133.782 91.547 133.983 91.4382 133.349C92.0803 133.063 91.9206 133.171 92.7805 133.381C94.1508 133.442 96.0405 133.129 96.9805 133.44L96.4371 134.316C95.5318 134.458 94.5475 134.67 93.649 134.598Z" fill="#312725"/>
<path d="M60.7863 126.334C61.8319 126.384 62.8484 126.543 63.8363 126.895C64.8828 127.267 66.0059 127.643 66.5038 128.693C66.233 129.191 66.121 129.179 65.5932 129.411C64.0211 128.837 62.4309 128.783 60.864 128.314C60.2413 128.127 59.9822 128.06 59.6675 127.501C59.9689 126.854 60.2161 126.742 60.7863 126.334Z" fill="#AB8156"/>
<path d="M66.5856 118.184C66.9341 118.197 67.2811 118.235 67.624 118.298C68.5369 118.461 69.4784 118.846 70.0114 119.643C70.4221 120.256 70.384 120.743 70.2662 121.446C69.2058 121.108 67.0646 120.317 66.4975 119.306C66.2447 118.855 66.4313 118.641 66.5856 118.184Z" fill="#AB8156"/>
<path d="M127.121 160.787C129.068 163.263 129.258 168.713 132.525 171.34C135.846 174.009 141.613 172.856 145.498 172.342C145.808 173.063 146.14 173.951 146.657 174.543C147.284 175.262 148.413 175.708 149.355 175.728C150.383 175.748 151.349 175.293 152.038 174.541C153.27 173.198 153.114 171.862 153.045 170.17C154.963 169.555 156.834 168.947 158.661 168.084C159.643 170.711 160.727 174.002 160.295 176.848C160.011 178.722 159.176 179.77 157.711 180.862C153.379 183.701 144.904 185.452 139.693 186.003C135.961 186.4 128.475 186.914 125.549 184.417C122.367 181.703 121.44 168.222 121.072 164.067C122.503 164.103 124.345 164.187 125.597 163.405C126.609 162.774 126.869 161.896 127.121 160.787Z" fill="#8E5A46"/>
<path d="M141.086 174.514C141.95 174.602 142.636 174.834 143.436 175.165C144.066 175.928 143.587 176.037 143.824 176.809C144.019 177.447 145.091 177.947 145.227 178.774C145.338 179.445 144.773 180.069 144.861 180.831C144.864 180.86 144.919 181.252 144.918 181.293C144.89 183.151 141.235 183.304 140.13 184.505C140.081 184.559 140.035 184.616 139.987 184.672L139.162 183.87C138.517 183.798 137.95 183.676 137.329 183.489C136.349 182.52 136.833 181.254 136.274 180.27C136.003 179.792 135.553 179.826 135.331 179.17C135.504 178.904 135.68 178.65 135.871 178.395L136.052 178.159L135.737 177.382C135.775 177.3 135.805 177.215 135.851 177.136C136.516 176.01 138.946 175.536 140.169 175.241C140.57 175.144 140.796 174.802 141.086 174.514Z" fill="#312725"/>
<path d="M141.907 176.326L142.414 176.597C142.859 177.703 143.798 179.798 143.398 180.942C143.246 181.379 143.097 181.411 142.714 181.611C142.407 181.337 142.251 181.156 141.827 181.123C141.515 181.469 141.277 181.843 141.027 182.235L140.619 182.319C140.389 182.044 140.183 181.807 139.896 181.589L139.693 181.976L139.078 182.258C138.434 182.112 138.379 182.127 137.96 181.625C137.906 180.48 137.347 179.304 137.157 178.147C138.347 176.991 140.388 177.468 141.62 176.558C141.719 176.484 141.811 176.403 141.907 176.326Z" fill="#9398BE"/>
<path d="M128.208 166.998C128.438 167.144 128.452 167.138 128.667 167.374C130.553 169.451 133.412 182.018 132.964 184.884C132.821 184.834 132.691 184.8 132.566 184.706C131.144 183.624 128.362 169.219 128.208 166.998Z" fill="#312725"/>
<path d="M65.876 58.2195C64.4753 51.8078 60.4243 33.2284 65.1462 27.4453C68.8954 22.8517 83.282 32.7733 87.1989 36.3599C85.9456 38.1802 85.9819 38.4325 87.1678 40.2303C84.9787 41.9042 83.7413 43.0126 81.7874 44.8893C80.7413 42.8189 79.4605 40.8746 77.9707 39.0971C76.3983 37.2182 70.1638 30.8426 67.5368 33.2284L67.579 33.5911C67.9075 34.0372 68.112 34.0575 68.6293 34.2535L68.8104 34.3188C70.7081 34.6094 76.2945 41.332 77.5579 43.0464C77.7551 43.3145 77.9495 43.5848 78.141 43.8574C72.3336 44.103 71.682 46.1013 74.9993 50.7174C73.0867 52.9568 72.1761 54.2364 70.5914 56.8002C69.5429 58.6137 68.5146 60.7832 67.551 62.5067C66.1925 64.9353 65.3659 71.3176 62.2828 71.3852L62.0027 71.1036C61.7477 69.2765 63.274 66.341 63.7643 64.2819C63.1824 63.3943 61.3863 63.1961 60.3279 62.973C62.002 60.9207 63.7483 59.7829 65.876 58.2195Z" fill="#FFFEFE"/>
<path d="M68.8106 34.3184C70.7083 34.609 76.2946 41.3315 77.5581 43.046C77.7552 43.3141 77.9497 43.5844 78.1412 43.857C72.3338 44.1026 71.6822 46.1009 74.9994 50.717C73.0869 52.9563 72.1763 54.236 70.5916 56.7997C68.7113 50.4579 65.8692 40.5746 68.8106 34.3184Z" fill="#623630"/>
<path d="M72.5624 134.601C73.5728 130.365 75.5381 127.319 80.2544 126.857C89.0882 125.99 90.5769 139.183 81.3502 137.707C78.5922 137.266 79.6756 131.469 82.0996 132.987C82.5026 133.853 82.7439 135.396 83.0787 135.718C84.4744 135.182 85.114 133.06 83.8163 131.877C82.1836 130.39 78.8037 131.086 78.1522 133.102C75.559 141.132 86.7023 142.76 89.3759 135.367C89.7438 136.015 90.1022 136.446 90.0414 137.167L90.5704 137.275C92.5714 135.655 90.9403 134.695 93.649 134.598C94.5475 134.67 95.5318 134.459 96.437 134.317C95.6377 135.914 95.3982 136.732 95.0051 138.493C95.1952 139.85 95.6343 141.163 95.3369 142.425C94.9582 142.923 94.6484 142.963 94.0584 143.177C90.2861 145.41 87.152 147.521 82.5456 146.856C76.2101 145.944 71.7374 141.125 72.5624 134.601Z" fill="#D7BC98"/>
<path d="M72.5624 134.6L72.7857 135.718L72.9605 134.799L73.3478 134.58C74.2827 135.159 74.1546 137.73 74.2217 138.885L74.2949 139.57L74.6513 139.768L75.1357 139.53C75.9398 140.83 76.5616 141.523 77.9138 142.352C77.8742 143.229 77.8154 143.346 78.2243 144.074L78.5681 144.2C78.9758 143.756 78.9256 143.589 79.0051 142.983C80.1634 143.695 81.6442 144.833 83.0521 144.195C83.5106 144.912 83.5529 145.243 84.2351 145.565C84.4793 145.452 84.6199 145.423 84.8062 145.254C85.7689 144.576 87.5391 144.198 88.8453 143.634C89.8283 144.047 89.9024 143.875 90.5749 143.303C91.0385 143.163 91.7978 143.026 92.2961 142.92L94.0584 143.177C90.2861 145.41 87.152 147.521 82.5456 146.856C76.2101 145.944 71.7374 141.125 72.5624 134.6Z" fill="#B3987C"/>
<path d="M90.0413 137.166L90.5703 137.274C92.0651 138.333 92.8962 138.292 94.5877 138.777L94.4901 139.013C92.7114 139.933 90.0938 139.545 90.0413 137.166Z" fill="#312725"/>
<path d="M88.8454 143.635C88.0746 142.808 86.9761 141.571 87.301 140.377C88.1934 140.595 89.3002 142.562 90.5749 143.303C89.9024 143.876 89.8283 144.047 88.8454 143.635Z" fill="#312725"/>
<path d="M83.0521 144.195C83.0407 142.951 82.9704 142.291 83.7789 141.309C84.3985 141.937 84.2257 143.908 84.8063 145.253C84.62 145.422 84.4794 145.452 84.2352 145.564C83.553 145.242 83.5106 144.911 83.0521 144.195Z" fill="#312725"/>
<path d="M94.8271 140.758C94.8061 139.922 94.7129 139.269 95.0051 138.494C95.1952 139.85 95.6343 141.164 95.3369 142.425C94.9582 142.923 94.6484 142.964 94.0584 143.178L92.2961 142.921C93.7928 142.437 93.9473 142.033 94.8271 140.758Z" fill="#DCB176"/>
<path d="M77.9138 142.353C78.3538 141.467 78.4939 141.046 79.2822 140.436L79.6357 140.451C79.8526 141.47 79.4645 141.952 79.0051 142.984C78.9256 143.59 78.9758 143.756 78.568 144.2L78.2242 144.074C77.8153 143.346 77.8741 143.229 77.9138 142.353Z" fill="#312725"/>
<path d="M74.2217 138.885C74.9654 138.295 75.3405 137.878 76.2669 137.709L76.5864 137.9C76.3755 138.657 75.7746 139.002 75.1357 139.529L74.6513 139.768L74.2949 139.57L74.2217 138.885Z" fill="#312725"/>
<path d="M74.1872 133.041C75.1818 133.111 75.7933 133.19 76.4973 133.929L76.4081 134.276L76.1409 134.224C75.235 134.14 74.3791 134.404 73.4858 134.176C73.4872 133.579 73.7812 133.458 74.1872 133.041Z" fill="#312725"/>
<path d="M76.9526 128.939C77.1883 128.996 77.3097 129.016 77.5219 129.095C78.358 129.401 78.6412 130.208 78.969 130.965C78.5702 130.915 78.1602 130.845 77.8247 130.602C77.2642 130.201 77.1268 129.568 76.9526 128.939Z" fill="#312725"/>
<path d="M153.498 153.303C152.657 153.062 151.974 152.981 151.394 152.363C151.127 151.555 151.068 151.895 151.357 151.287C155.071 149.795 160.051 161.355 159.224 164.096C158.664 165.953 154.154 167.138 152.312 167.642C151.883 166.381 151.655 165.178 150.413 164.398C148.602 163.26 145.605 163.858 144.521 165.732C144.065 166.523 144.907 168.785 145.176 169.688C143.275 169.994 141.704 170.224 139.798 170.373C129.604 171.175 133.188 162.724 126.896 157.101L126.656 156.887L123.35 156.274C124.973 155.621 128.81 154.472 130.53 154.348L130.716 154.614L130.147 155.529C129.999 156.437 131.227 159.266 131.864 159.892C132.889 160.895 134.808 160.755 135.338 162.551C134.29 163.067 134.129 162.986 133.649 163.864C133.751 164.838 133.625 164.464 134.174 165.25C134.858 165.633 134.977 165.642 135.758 165.561C137.189 166.189 138.015 168.996 139.706 168.769C140.792 167.645 139.949 166.032 139.431 164.81L139.524 164.72C140.592 165.439 140.403 165.612 140.945 166.694C141.696 166.768 141.355 166.838 142.008 166.511C142.076 165.793 141.644 165.248 141.281 164.488C141.75 163.716 142.168 163.015 142.735 162.312C143.739 161.066 141.665 157.651 140.596 156.941C138.499 157.151 139.099 163.456 139.129 165.04L138.765 163.894C138.155 161.945 137.366 161.431 136.344 159.712C136.331 159.69 136.417 158.165 136.428 157.964C135.76 156.261 133.822 155.297 132.282 154.181C136.062 153.292 140.477 152.584 144.335 151.875L145.664 152.104C144.031 153.796 143.321 153.778 141.59 155.209L141.581 155.558C143.683 157.374 147.829 158.719 150.621 158.216C151.476 158.061 153.247 157.448 153.85 157.653L154.233 158.626C154.98 158.793 154.6 158.802 155.4 158.46C156.501 156.901 154.556 154.524 153.498 153.303Z" fill="#8E5A46"/>
<path d="M54.7659 131.773C54.8509 131.785 54.936 131.794 55.0207 131.807C56.7156 132.066 57.2138 132.934 58.1555 134.238C56.3083 134.563 54.5967 134.747 53.3979 136.381C53.1206 136.759 53.17 136.581 53.2227 137.007C54.4805 137.678 57.2394 136.698 58.7394 136.709C59.3234 137.732 59.439 139.244 59.6539 140.404C59.4771 140.415 59.3004 140.424 59.1238 140.438C57.5634 140.548 55.9724 141.019 54.9108 142.24L54.9689 142.646C56.2371 143.54 58.2481 142.909 59.6629 142.671C59.5212 143.793 59.1833 145 58.6455 146C58.1404 146.94 57.4305 147.753 56.3594 148.03C55.3715 148.285 54.3226 148.014 53.466 147.498C51.5521 146.347 50.3497 144.088 49.8092 141.977C49.2095 139.636 49.1856 136.601 50.5329 134.506C51.5433 132.936 52.9814 132.123 54.7659 131.773Z" fill="#623630"/>
<path d="M158.299 140.345C158.693 140.298 159.066 140.323 159.462 140.343L159.786 140.787C160.038 142.168 159.453 143.434 158.71 144.576C157.096 147.061 155.051 148.032 152.213 148.643C153.495 147.133 154.962 145.811 156.061 144.151L155.435 144.058C153.281 144.826 151.864 147.122 150.613 148.904C150.877 147.149 151.248 145.392 152.251 143.894C153.752 141.652 155.796 140.897 158.299 140.345Z" fill="#8AAB5F"/>
<path d="M113.187 153.961L117.493 153.968C118.812 155.333 120.22 156.547 121.629 157.813C122.837 158.897 124.067 159.746 124.16 161.463C123.738 161.607 123.29 161.769 122.84 161.774C120.453 161.805 114.898 155.642 113.187 153.961Z" fill="#8E5A46"/>
<path d="M147.57 165.983C148.219 165.954 148.777 165.774 149.305 166.233C150.554 167.326 151.042 170.39 150.96 171.96C150.922 172.69 150.595 172.897 150.106 173.368C149.58 173.375 149.301 173.316 148.826 173.091C147.638 171.667 147.016 169.216 146.895 167.398C146.845 166.643 147.085 166.49 147.57 165.983Z" fill="#DCB176"/>
<path d="M143.264 143.326C144.393 143.43 145.474 143.793 146.415 144.432C148.259 145.685 148.779 147.71 149.189 149.756C147.941 149.756 146.451 149.175 145.498 148.368C143.884 147.007 143.485 145.309 143.264 143.326Z" fill="#8AAB5F"/>
<path d="M146.644 153.736C148.315 153.849 147.943 154.98 149.129 155.635C150.086 155.473 150.163 155.023 150.929 154.628C151.3 154.437 151.53 154.484 151.899 154.592C152.715 154.829 153.213 155.241 153.604 155.985L153.339 156.073C152.076 156.176 150.992 156.474 149.817 156.931C148.205 156.55 146.619 155.985 145.039 155.487C145.508 154.847 146.087 154.3 146.644 153.736Z" fill="#8E5A46"/>
<path d="M146.32 136.209C146.362 136.261 146.407 136.31 146.446 136.364C147.775 138.142 150.259 142.418 149.989 144.617L149.846 144.639C149.068 144.452 148.18 143.411 147.579 142.873C147.113 140.667 146.569 138.453 146.32 136.209Z" fill="#8E5A46"/>
<path d="M131.213 155.178C132.424 155.606 134.331 156.435 134.996 157.561C135.388 158.226 135.191 158.663 135.037 159.359C134.821 159.424 134.603 159.494 134.382 159.546C133.822 159.674 133.352 159.6 132.881 159.26C131.739 158.433 131.472 156.484 131.213 155.178Z" fill="#DCE6ED"/>
<path d="M140.482 158.248C141.076 158.66 141.489 159.598 141.69 160.291C142.024 161.436 141.844 162.121 141.25 163.132C141.054 163.213 140.804 163.261 140.598 163.315C139.949 162.423 140.38 159.365 140.482 158.248Z" fill="#DCE6ED"/>
<path d="M128.98 152.151C127.268 152.27 123.707 153.016 122.6 154.244C122.386 154.48 122.058 154.582 121.74 154.64L121.234 154.246C121.969 152.824 125.839 152.536 127.673 151.531C128.228 152.049 128.258 152.004 128.98 152.151Z" fill="#623630"/>
<path d="M134.356 159.795C135.335 160.119 136.499 161.196 136.966 162.122C137.271 162.724 137.288 163.233 137.084 163.859C136.588 164.384 136.022 164.461 135.34 164.627C134.909 164.47 134.888 164.436 134.624 164.057C135.001 163.699 136.14 163.627 136.679 163.519L136.757 163.222C136.276 161.967 135.161 160.872 134.356 159.795Z" fill="#A9A19F"/>
<path d="M137.41 164.539C137.469 164.568 137.532 164.591 137.586 164.629C138.406 165.201 138.713 166.713 138.981 167.634C138.911 167.596 138.835 167.567 138.769 167.522C137.914 166.943 137.675 165.481 137.41 164.539Z" fill="#A9A19F"/>
<path d="M144.335 151.874C145.354 151.694 146.912 151.3 147.785 151.883C146.922 152.093 146.567 152.077 145.664 152.104L144.335 151.874Z" fill="#75533D"/>
<path d="M183.462 12.1656C190.286 11.3118 194.853 13.7562 198.244 19.5685C201.245 20.0416 203.505 20.8504 205.803 22.9636C208.154 25.0903 209.552 28.0686 209.687 31.2362C209.813 34.6042 208.704 37.1634 206.443 39.5785C208.611 48.43 203.84 53.4224 195.028 53.3165C192.73 54.889 191.912 55.2021 189.205 55.8262C184.633 56.083 181.78 54.5601 178.93 51.0839C169.668 53.1746 162.865 46.4295 166.215 37.1477C160.122 29.9723 164.133 20.891 173.092 18.8634C175.994 14.7226 178.496 13.0938 183.462 12.1656Z" fill="#312725"/>
<path d="M184.037 14.4092C190.564 13.5757 193.486 16.3242 196.483 21.3999L196.645 21.6702C203.391 22.693 208.617 26.3449 206.945 34.2187C206.521 36.2193 205.126 37.83 203.771 39.3124C205.572 44.3206 204.548 49.3557 198.552 50.8494C197.179 51.1918 195.823 50.9215 194.425 50.7457C192.385 52.4692 191.267 53.0346 188.714 53.6339C184.187 53.6069 182.258 52.0479 179.805 48.4298C178.859 48.6843 177.907 49.02 176.938 49.1642C172.012 49.9032 167.147 46.3504 167.48 41.1102C167.593 39.3214 168.067 38.3459 168.782 36.7036C167.241 34.9509 166.121 33.4955 165.766 31.0962C165.426 28.8997 165.977 26.6603 167.295 24.8738C169.225 22.2943 171.511 21.6274 174.52 21.2107C176.706 17.0271 179.446 15.2405 184.037 14.4092Z" fill="#DCE6ED"/>
<path d="M181.584 20.2377C187.359 19.6227 189.647 23.5359 187.223 28.2467C187.022 29.0059 187.109 30.2066 186.614 30.8645C185.033 32.9664 181.207 33.7864 178.798 34.4015C177.862 34.442 177.308 34.5502 176.443 34.1965C174.941 32.5474 172.66 31.8354 171.981 29.8619C171.112 27.3365 174.112 25.4125 175.65 24.1104C177.987 22.1346 178.611 21.1974 181.584 20.2377Z" fill="#312725"/>
<path d="M181.748 21.3762C188.052 20.9865 187.71 25.6859 185.471 29.8312C184.7 31.2595 183.561 31.7552 182.099 32.1675C180.527 32.6113 178.031 33.8098 176.532 32.9312C176.243 32.2395 176.239 32.5662 176.436 31.9264L177.315 32.4108C177.815 32.0323 177.594 32.2621 177.876 31.5794C178.7 31.1784 179.428 30.8383 180.313 30.5837L181.105 31.0681C181.818 30.3562 182.991 29.4933 182.738 28.4547C182.101 28.1731 182.403 28.1686 181.805 28.3939C180.428 30.5116 180.553 28.6102 178.782 29.2928C178.552 29.865 178.579 29.8898 178.176 30.3426C177.724 30.1962 177.341 30.0858 176.882 29.9642C175.772 30.7211 175.337 31.1717 174.05 30.9419C170.911 27.8352 179.474 22.1332 181.748 21.3762Z" fill="#D7BC98"/>
<path d="M181.158 23.334C182.148 23.2056 183.062 23.8815 183.231 24.8637C183.4 25.8482 182.762 26.7899 181.786 26.9972C181.119 27.1413 180.426 26.9048 179.983 26.3866C179.539 25.8685 179.416 25.1476 179.661 24.51C179.906 23.8724 180.481 23.4219 181.158 23.334Z" fill="#312725"/>
<path d="M191.251 25.3203C192.064 25.3586 192.381 25.2798 192.969 25.7641C193.178 26.467 193.192 26.7982 193.774 27.2307C194.283 27.0798 194.79 26.9198 195.294 26.7554C196.97 27.1136 196.198 27.7624 196.966 28.6703C197.321 29.0894 198.387 28.0778 199.643 29.3281C200.229 32.1104 200.69 30.5402 202.218 31.9122C203.1 32.703 203.31 34.8747 202.078 35.7758C201.325 35.902 201.128 35.7105 200.389 35.3523L200.139 35.2284C198.888 36.0214 198.692 40.3086 195.668 39.0313C194.824 37.4948 197.094 35.8277 196.878 33.0589L196.657 33.0904C195.776 34.7058 196.118 35.0256 194.792 37.1636C193.879 38.2405 192.847 39.5516 191.311 38.9546C190.621 36.8324 193.941 33.532 193.308 31.3873L193.004 31.5067C192.527 33.1963 189.534 39.3534 187.366 37.7741C186.784 36.2197 188.897 33.327 189.587 30.5875C186.062 27.0055 189.635 27.5394 191.251 25.3203Z" fill="#312725"/>
<path d="M191.852 26.418C192.729 27.1209 191.762 27.8553 193.42 28.5672C194.133 28.4861 194.258 28.387 194.929 28.0693L195.138 27.9702C195.825 28.4613 195.473 28.5965 195.811 29.7973C197.031 30.4596 197.521 29.403 198.645 30.2997C198.828 30.9305 198.883 31.3382 199.317 31.8316C200.588 32.2484 201.597 32.6359 201.765 34.1137L201.307 34.2985C200.376 34.1385 199.967 33.5032 199.285 32.7801C199.181 33.1856 199.073 33.5888 198.961 33.9898C198.638 35.1411 198.029 37.1394 196.959 37.7409C196.612 36.887 200.437 31.4283 195.979 31.3337C195.585 31.7415 195.056 33.938 194.836 34.6815C193.947 36.4815 193.217 37.2385 191.826 38.6443C192.653 36.8352 196.73 30.5767 192.712 29.6981C191 30.3943 192.21 33.8051 188.812 36.4905C188.71 36.0017 189.182 35.1591 189.425 34.6094C190.184 32.895 190.425 31.5883 190.736 29.7455C190.052 29.1777 189.589 29.0042 189.388 28.2946C191.291 27.0037 190.397 28.4208 191.852 26.418Z" fill="#D7BC98"/>
<path d="M177.614 36.1704C178.267 36.1637 179.068 36.22 179.645 36.5512C180.477 37.031 180.818 37.8984 181.072 38.7725C184.226 39.9237 187.481 40.8046 190.712 41.7103C191.727 41.1606 192.83 40.728 194.008 40.8361C194.61 40.8925 195.146 41.1065 195.497 41.6179C195.991 42.341 195.942 43.3931 195.794 44.2132C195.467 46.0358 194.965 47.9552 193.418 49.0501C192.899 49.0681 192.311 49.0816 191.803 48.9577C190.553 48.6513 189.971 47.4731 189.392 46.4503C186.248 45.4297 183.014 44.4677 179.85 43.4923C178.68 44.3123 176.571 45.5874 175.444 43.7446C174.515 42.2261 175.478 39.8404 175.917 38.2814C176.265 37.0423 176.501 36.8688 177.614 36.1704Z" fill="#312725"/>
<path d="M177.76 37.457C178.127 37.4841 178.515 37.5156 178.866 37.6327C179.688 37.9053 180.038 39.025 180.372 39.7482C183.609 41.3229 187.551 42.1858 191.066 42.9337C191.465 42.7355 191.867 42.5305 192.281 42.3638C192.925 42.1092 193.974 41.9943 194.595 42.3255C194.894 42.4854 194.859 42.7535 194.935 43.0554C194.775 43.8349 194.554 44.157 193.948 44.6775C193.889 44.727 193.829 44.7743 193.77 44.8239C193.45 45.5403 193.713 45.8467 193.741 46.5699C193.766 47.2074 193.237 47.6332 192.828 48.0568C191.455 47.4597 191.11 46.705 190.458 45.4322C186.927 44.3237 183.379 43.0644 179.765 42.2646C179.026 42.7107 178.016 43.5105 177.107 43.3055C176.551 43.1793 176.275 42.8572 175.979 42.4178C176.05 41.573 176.733 41.2171 177.179 40.5795C177.418 40.2393 177.382 39.9712 177.322 39.5882C177.165 38.5835 177.252 38.3356 177.76 37.457Z" fill="#D7BC98"/>
<path d="M32.5708 18.7031C32.7362 18.6919 32.9015 18.6806 33.0674 18.6738C36.9424 18.5139 39.2681 20.0008 42.0363 22.5195C43.1876 22.5082 44.4648 22.524 45.5842 22.7831C48.3833 23.4139 50.7994 25.1666 52.2647 27.6335C53.9307 30.409 54.245 33.527 53.4772 36.6337C60.0754 45.3095 54.083 54.8999 43.651 55.1522C41.8137 58.2432 40.3006 59.0339 37.0111 60.1671C32.5276 60.9939 29.3597 59.9531 26.1393 56.745C23.863 56.7766 22.4708 56.7315 20.3845 55.6749C17.9766 54.4516 16.1529 52.3204 15.3133 49.7544C14.3701 46.8684 14.8168 44.334 16.1467 41.6959C14.9287 39.8643 14.2847 38.5734 14.0587 36.3228C13.7707 33.6869 14.5509 31.0443 16.225 28.9874C18.0413 26.7931 20.6498 25.4031 23.4846 25.1193C23.8289 24.5808 24.1824 24.0514 24.5451 23.5265C26.6818 20.4716 29.0389 19.3474 32.5708 18.7031Z" fill="#312725"/>
<path d="M32.2384 20.934C32.5155 20.9137 32.7933 20.898 33.0711 20.8912C36.8826 20.7944 38.6138 22.2632 41.193 24.7504C49.4029 24.2818 53.1682 29.6233 51.0225 37.2943C54.5923 41.4351 55.6188 45.7471 51.2591 50.1988C48.8234 52.6882 46.0999 52.9901 42.7117 52.8842C41.017 55.7341 40.0453 56.8537 36.9367 58.023C32.438 59.1854 29.7214 57.5341 26.7277 54.4206C25.5577 54.6459 24.1929 54.8194 23.0721 54.4342C16.3622 52.1295 15.8919 46.7609 18.6781 41.4419C17.3566 39.8198 16.5614 38.7227 16.183 36.6117C15.8325 34.5684 16.3236 32.4732 17.5445 30.7993C19.4529 28.1928 21.9325 27.4786 24.9235 27.0213C26.949 23.6532 28.3577 21.9118 32.2384 20.934Z" fill="#DCE6ED"/>
<path d="M33.8558 27.4794C38.0888 27.1775 42.3246 29.4844 42.4703 34.1681C42.5801 37.7006 39.8576 39.5908 37.5774 41.8121C37.3949 43.2742 37.3107 44.9256 35.7347 45.5429C34.2946 46.1061 33.0039 44.9031 32.7156 43.5446C32.3981 42.0487 32.8408 40.7983 33.569 39.5232C34.3654 38.4733 39.9142 34.1974 35.9206 32.2329C31.7959 30.3811 31.46 37.0067 29.6414 37.3266C25.365 38.0791 26.1002 33.0868 27.5757 31.0817C29.4172 28.581 31.1651 27.9592 33.8558 27.4794Z" fill="#312725"/>
<path d="M35.7078 47.1404C37.172 47.0053 38.4728 48.0731 38.6231 49.5352C38.7731 50.9996 37.7165 52.3085 36.2552 52.473C34.7746 52.6397 33.4431 51.5651 33.2908 50.0827C33.1388 48.6025 34.2244 47.2801 35.7078 47.1404Z" fill="#312725"/>
<path d="M176.58 54.5625C179.138 53.7064 181.906 55.0852 182.762 57.6444C183.617 60.2014 182.235 62.9702 179.676 63.824C177.12 64.6756 174.356 63.2946 173.501 60.7399C172.647 58.1851 174.025 55.4186 176.58 54.5625Z" fill="#312725"/>
<path d="M177.718 56.3035C179.236 56.0918 180.656 57.0966 180.963 58.597C181.27 60.0996 180.357 61.5798 178.878 61.9808C177.835 62.2646 176.721 61.9425 175.987 61.1495C175.254 60.3564 175.022 59.221 175.385 58.2027C175.749 57.1844 176.647 56.4522 177.718 56.3035Z" fill="#DCE6ED"/>
<path d="M41.8531 59.242C44.2834 58.5886 46.7909 59.9944 47.5015 62.4095C48.212 64.8223 46.8661 67.3613 44.4695 68.1295C42.8681 68.6432 41.1146 68.2467 39.8876 67.0977C38.6607 65.9488 38.1531 64.2231 38.5613 62.592C38.9694 60.9609 40.2292 59.679 41.8531 59.242Z" fill="#312725"/>
<path d="M41.8793 61.3084C42.7521 60.8759 43.7901 60.9502 44.5919 61.5022C45.3937 62.0564 45.8333 62.9981 45.7409 63.9691C45.6483 64.9378 45.038 65.7804 44.146 66.1701C42.8107 66.7559 41.2528 66.1679 40.6369 64.8454C40.0209 63.5253 40.5726 61.9528 41.8793 61.3084Z" fill="#DCE6ED"/>
<path d="M170.49 63.1025C172.399 62.7961 174.207 64.0577 174.582 65.9546C174.956 67.8492 173.763 69.7034 171.881 70.1472C170.601 70.4491 169.259 70.0278 168.381 69.0478C167.503 68.0678 167.23 66.6868 167.67 65.4477C168.11 64.2086 169.192 63.3075 170.49 63.1025Z" fill="#312725"/>
<path d="M170.816 64.9166C171.707 64.7927 172.538 65.3919 172.704 66.2751C172.869 67.1604 172.312 68.0188 171.437 68.226C170.832 68.3702 170.197 68.1697 169.784 67.7057C169.372 67.2393 169.249 66.586 169.465 66.0025C169.681 65.419 170.2 65.0022 170.816 64.9166Z" fill="#DCE6ED"/>
<path d="M49.3665 67.1825C51.1301 66.7229 52.9343 67.7682 53.4168 69.5232C53.8994 71.2805 52.8815 73.1008 51.1317 73.6077C49.9775 73.9411 48.7325 73.6302 47.8735 72.7899C47.0144 71.9496 46.6745 70.7105 46.9836 69.5503C47.2929 68.3878 48.2033 67.4844 49.3665 67.1825Z" fill="#312725"/>
<path d="M49.8771 68.9803C50.6618 68.7752 51.4654 69.2371 51.683 70.0188C51.9007 70.8006 51.4519 71.6116 50.6744 71.8414C50.1598 71.9946 49.6029 71.8572 49.2176 71.4854C48.8324 71.1115 48.6785 70.5595 48.815 70.0391C48.9518 69.521 49.3578 69.1154 49.8771 68.9803Z" fill="#DCE6ED"/>
</svg>
